<svg xmlns="http://www.w3.org/2000/svg" width="80" height="80" fill="none"><g ><rect width="64" height="64" x="8" y="6" fill="none" rx="5"/><path fill="#33363B" d="m40.005 39.31-10.688-6.17V20.813l10.679-6.166 10.688 6.17v12.327l-10.68 6.165Zm12.033-19.274-12.042-6.953-12.034 6.949v13.89l12.043 6.953 12.033-6.948v-13.89Z"/><path fill="#7EBC59" d="M31.096 21.838a2.853 2.853 0 0 1-3.893 1.045 2.853 2.853 0 0 1-1.045-3.893 2.853 2.853 0 0 1 3.893-1.044 2.855 2.855 0 0 1 1.045 3.892Zm17.808 0a2.855 2.855 0 0 1 1.045-3.893 2.855 2.855 0 0 1 3.893 1.045 2.855 2.855 0 0 1-1.045 3.893 2.853 2.853 0 0 1-3.893-1.044ZM40 42.96a2.846 2.846 0 0 1-2.848-2.848A2.846 2.846 0 0 1 40 37.264a2.846 2.846 0 0 1 2.848 2.848A2.85 2.85 0 0 1 40 42.96Z"/><path fill="#368CBF" d="M39.207 16.584a2.854 2.854 0 0 0 1.589 0l8.602 14.899a2.827 2.827 0 0 0-.801 1.39H31.404a2.857 2.857 0 0 0-.3-.751 2.91 2.91 0 0 0-.5-.635l8.603-14.903ZM52.79 31.077a2.85 2.85 0 0 0-2.215-.267L41.97 15.907c.542-.518.88-1.248.88-2.059A2.846 2.846 0 0 0 40 11a2.846 2.846 0 0 0-2.848 2.848c0 .812.338 1.542.88 2.06L29.43 30.812a2.844 2.844 0 0 0-2.218.266 2.855 2.855 0 0 0-1.045 3.893 2.85 2.85 0 0 0 3.893 1.045 2.85 2.85 0 0 0 1.341-1.787h17.2a2.833 2.833 0 0 0 1.34 1.787 2.853 2.853 0 0 0 3.894-1.045 2.84 2.84 0 0 0-1.045-3.893Z"/><path fill="#E5E5E5" d="M25.807 61a.232.232 0 0 1-.153-.061.232.232 0 0 1-.062-.154c0-.034.004-.065.01-.092l2.407-6.574a.395.395 0 0 1 .123-.195.397.397 0 0 1 .276-.092h1.516c.116 0 .204.03.266.092.068.055.113.12.133.195l2.396 6.574c.014.027.02.058.02.092a.215.215 0 0 1-.071.154.209.209 0 0 1-.154.061h-1.26a.346.346 0 0 1-.235-.072.451.451 0 0 1-.092-.143l-.4-1.044h-2.733l-.39 1.044a.449.449 0 0 1-.091.143c-.048.048-.13.072-.246.072h-1.26Zm2.407-2.734h1.904l-.962-2.703-.942 2.703ZM33.69 61a.25.25 0 0 1-.184-.072.25.25 0 0 1-.072-.184v-6.758a.25.25 0 0 1 .072-.185.25.25 0 0 1 .184-.071h1.21a.25.25 0 0 1 .184.071.25.25 0 0 1 .072.185v6.758a.25.25 0 0 1-.072.184.25.25 0 0 1-.184.072h-1.21Zm5.398 0c-.437 0-.816-.068-1.137-.205a1.578 1.578 0 0 1-.727-.655c-.17-.3-.256-.686-.256-1.157v-1.966h-.798a.286.286 0 0 1-.195-.072.25.25 0 0 1-.072-.184v-.83a.25.25 0 0 1 .072-.184.286.286 0 0 1 .195-.072h.798v-1.69a.25.25 0 0 1 .072-.184.273.273 0 0 1 .184-.071h1.188a.25.25 0 0 1 .184.071.25.25 0 0 1 .072.185v1.69h1.28a.25.25 0 0 1 .184.07.25.25 0 0 1 .072.185v.83a.25.25 0 0 1-.072.184.25.25 0 0 1-.184.072h-1.28v1.822c0 .233.044.417.133.553.089.137.24.205.45.205h.79a.25.25 0 0 1 .184.072.25.25 0 0 1 .071.184v.891a.25.25 0 0 1-.071.184.25.25 0 0 1-.185.072h-.952Zm3.654.102c-.369 0-.7-.068-.994-.204a1.832 1.832 0 0 1-.686-.574 1.359 1.359 0 0 1-.256-.809c0-.484.198-.867.594-1.147.396-.286.922-.481 1.577-.583l1.28-.195v-.143c0-.246-.051-.434-.154-.564-.102-.13-.29-.194-.563-.194a.891.891 0 0 0-.47.113.804.804 0 0 0-.277.307.294.294 0 0 1-.256.133H41.39a.236.236 0 0 1-.174-.061.207.207 0 0 1-.051-.164c0-.123.044-.263.133-.42.095-.164.239-.325.43-.482.191-.157.437-.286.737-.389.3-.102.662-.153 1.086-.153.443 0 .822.051 1.136.153.314.103.567.246.758.43.198.185.345.403.44.656.096.246.144.519.144.819v3.113a.234.234 0 0 1-.082.184.237.237 0 0 1-.174.072h-1.188a.25.25 0 0 1-.184-.072.25.25 0 0 1-.072-.184v-.358a1.47 1.47 0 0 1-.359.358 1.72 1.72 0 0 1-.532.256c-.198.068-.43.102-.696.102Zm.48-1.167c.199 0 .376-.04.533-.123a.896.896 0 0 0 .38-.4 1.48 1.48 0 0 0 .143-.685v-.144l-.87.154c-.322.055-.557.14-.707.256-.144.11-.215.239-.215.39a.45.45 0 0 0 .102.296.71.71 0 0 0 .266.195c.11.04.232.061.369.061ZM47.44 61a.25.25 0 0 1-.184-.072.25.25 0 0 1-.072-.184v-4.813a.25.25 0 0 1 .072-.184.25.25 0 0 1 .184-.072h1.209c.068 0 .126.024.174.072.054.048.081.11.081.184v4.813a.234.234 0 0 1-.081.184.237.237 0 0 1-.175.072H47.44Zm-.01-6.093a.25.25 0 0 1-.184-.071.25.25 0 0 1-.072-.185v-.911a.25.25 0 0 1 .072-.184.234.234 0 0 1 .184-.082h1.218c.076 0 .137.027.185.082a.234.234 0 0 1 .082.184v.911a.234.234 0 0 1-.082.184.25.25 0 0 1-.184.072h-1.22ZM50.68 61a.25.25 0 0 1-.184-.072.25.25 0 0 1-.072-.184v-4.813c0-.068.024-.126.072-.174a.234.234 0 0 1 .184-.082h1.178c.075 0 .136.028.184.082a.237.237 0 0 1 .072.174v.41c.184-.212.403-.376.655-.492.26-.116.55-.174.87-.174h.451c.068 0 .126.024.174.072.055.048.082.11.082.184v1.055c0 .068-.027.13-.082.184a.237.237 0 0 1-.174.072h-.993c-.28 0-.498.078-.656.235-.15.15-.225.366-.225.646v2.621a.234.234 0 0 1-.082.184.25.25 0 0 1-.184.072h-1.27Z"/></g><defs><filter id="a" width="80" height="80" x="0" y="0" color-interpolation-filters="sRGB" filterUnits="userSpaceOnUse"><feFlood flood-opacity="0" result="BackgroundImageFix"/><feColorMatrix in="SourceAlpha" result="hardAlpha" values="0 0 0 0 0 0 0 0 0 0 0 0 0 0 0 0 0 0 127 0"/><feOffset dy="2"/><feGaussianBlur stdDeviation="4"/><feColorMatrix values="0 0 0 0 0 0 0 0 0 0 0 0 0 0 0 0 0 0 0.75 0"/><feBlend in2="BackgroundImageFix" result="effect1_dropShadow_601_4835"/><feBlend in="SourceGraphic" in2="effect1_dropShadow_601_4835" result="shape"/></filter></defs></svg>