<svg xmlns="http://www.w3.org/2000/svg" width="80" height="80" fill="none"><g><rect width="64" height="64" x="8" y="6" fill="none" rx="5"/><g clip-path="url(#b)"><path fill="url(#c)" d="M30.964 34.81h9.013l2.309 4.063H24l6.42-11.126 2.691-4.659 2.31 4.003-4.457 7.718Zm3.361-13.829 2.218-3.843 12.553 21.735H44.65L34.325 20.98ZM37.778 15h4.44L56 38.873h-4.445L37.778 15Z"/></g><path fill="#2AF" d="M20.307 61a.232.232 0 0 1-.153-.061.232.232 0 0 1-.062-.154c0-.034.004-.065.01-.092l2.407-6.574a.395.395 0 0 1 .123-.195.397.397 0 0 1 .276-.092h1.516c.116 0 .204.03.266.092.068.055.113.12.133.195l2.396 6.574c.014.027.02.058.02.092a.215.215 0 0 1-.071.154.209.209 0 0 1-.154.061h-1.26a.346.346 0 0 1-.235-.072.451.451 0 0 1-.092-.143l-.4-1.044h-2.733l-.39 1.044a.449.449 0 0 1-.091.143c-.048.048-.13.072-.246.072h-1.26Zm2.407-2.734h1.904l-.962-2.703-.942 2.703ZM28.19 61a.25.25 0 0 1-.184-.072.25.25 0 0 1-.072-.184v-4.813a.25.25 0 0 1 .072-.184.25.25 0 0 1 .184-.072h1.116a.25.25 0 0 1 .185.072.25.25 0 0 1 .071.184v.348c.137-.184.328-.344.574-.48a1.77 1.77 0 0 1 .87-.226c.785-.014 1.325.283 1.618.89.157-.259.382-.47.676-.634.294-.17.614-.256.963-.256.355 0 .672.082.952.246.286.157.515.402.686.737.17.328.256.754.256 1.28v2.908a.234.234 0 0 1-.082.184.237.237 0 0 1-.174.072h-1.188a.285.285 0 0 1-.194-.072.25.25 0 0 1-.072-.184v-2.837c0-.238-.034-.426-.103-.563a.646.646 0 0 0-.276-.307.841.841 0 0 0-.768 0 .7.7 0 0 0-.287.307c-.068.137-.102.325-.102.563v2.837a.25.25 0 0 1-.072.184.25.25 0 0 1-.184.072h-1.188a.25.25 0 0 1-.184-.072.25.25 0 0 1-.072-.184v-2.837c0-.238-.038-.426-.113-.563a.7.7 0 0 0-.286-.307.82.82 0 0 0-.758 0 .7.7 0 0 0-.287.307c-.068.137-.102.321-.102.553v2.847a.234.234 0 0 1-.082.184.25.25 0 0 1-.184.072H28.19Zm9.37 1.946a.25.25 0 0 1-.184-.072.25.25 0 0 1-.072-.184v-6.76a.25.25 0 0 1 .072-.184.25.25 0 0 1 .184-.072h1.157c.069 0 .127.024.174.072.055.048.082.11.082.184v.38c.157-.212.366-.387.625-.523.26-.143.58-.215.962-.215.342 0 .642.054.902.164.259.102.48.256.665.46.184.205.328.454.43.748.11.294.17.631.185 1.014a7.656 7.656 0 0 1 0 .758c-.014.368-.072.7-.174.993a2.17 2.17 0 0 1-.43.747c-.185.205-.41.365-.676.482-.26.109-.56.163-.902.163a2.09 2.09 0 0 1-.88-.174 1.718 1.718 0 0 1-.615-.512v2.274a.25.25 0 0 1-.071.184.25.25 0 0 1-.185.072H37.56Zm2.447-3.216c.233 0 .413-.047.543-.143a.773.773 0 0 0 .277-.39c.061-.163.099-.344.112-.542a4.943 4.943 0 0 0 0-.635 1.915 1.915 0 0 0-.112-.543.773.773 0 0 0-.277-.389c-.13-.095-.31-.143-.542-.143-.226 0-.407.051-.543.154a.815.815 0 0 0-.297.378 1.556 1.556 0 0 0-.103.512 7.24 7.24 0 0 0 0 .768c.007.171.045.332.113.482a.91.91 0 0 0 .307.358.94.94 0 0 0 .523.133ZM44.02 61a.25.25 0 0 1-.184-.072.25.25 0 0 1-.072-.184v-6.758a.25.25 0 0 1 .072-.185.25.25 0 0 1 .184-.071h1.208a.25.25 0 0 1 .185.071.25.25 0 0 1 .072.185v6.758a.25.25 0 0 1-.072.184.25.25 0 0 1-.184.072H44.02Zm3.28 0a.25.25 0 0 1-.184-.072.25.25 0 0 1-.072-.184v-4.813a.25.25 0 0 1 .072-.184.25.25 0 0 1 .184-.072h1.209c.068 0 .126.024.174.072.054.048.081.11.081.184v4.813a.234.234 0 0 1-.081.184.237.237 0 0 1-.175.072H47.3Zm-.01-6.093a.25.25 0 0 1-.184-.071.25.25 0 0 1-.072-.185v-.911a.25.25 0 0 1 .072-.184.234.234 0 0 1 .184-.082h1.218c.076 0 .137.027.185.082a.234.234 0 0 1 .082.184v.911a.234.234 0 0 1-.082.184.25.25 0 0 1-.184.072h-1.22ZM50.824 61a.273.273 0 0 1-.184-.072.25.25 0 0 1-.072-.184v-3.727h-.778a.25.25 0 0 1-.184-.072.25.25 0 0 1-.072-.184v-.83a.25.25 0 0 1 .072-.184.25.25 0 0 1 .184-.072h.778v-.328c0-.464.09-.836.267-1.116a1.52 1.52 0 0 1 .778-.614c.334-.13.734-.195 1.198-.195h.799c.068 0 .126.024.174.072.054.048.082.11.082.184v.83a.234.234 0 0 1-.082.184.237.237 0 0 1-.174.072h-.717c-.232 0-.396.054-.492.164-.089.109-.133.266-.133.47v.277h1.24c.067 0 .125.024.173.072.055.048.082.11.082.184v.83a.234.234 0 0 1-.082.184.237.237 0 0 1-.174.072h-1.239v3.727a.25.25 0 0 1-.072.184.25.25 0 0 1-.184.072h-1.188Zm4.663 1.946a.209.209 0 0 1-.215-.215v-.062a.564.564 0 0 1 .031-.072l.799-1.925-1.966-4.649a.323.323 0 0 1-.031-.123.305.305 0 0 1 .082-.153.194.194 0 0 1 .154-.072h1.167c.089 0 .153.024.194.072.048.04.079.089.093.143l1.177 2.98 1.198-2.98a.547.547 0 0 1 .103-.143c.047-.048.116-.072.204-.072h1.147c.062 0 .113.024.154.072.048.04.072.089.072.143 0 .034-.01.079-.031.133l-2.898 6.708a.347.347 0 0 1-.102.143c-.048.048-.116.072-.205.072h-1.127Z"/></g><defs><linearGradient id="c" x1="56" x2="29.074" y1="20.293" y2="40.381" gradientUnits="userSpaceOnUse"><stop stop-color="#F90"/><stop offset="1" stop-color="#FFC300"/></linearGradient><clipPath id="b"><path fill="#fff" d="M24 15h32v23.875H24z"/></clipPath><filter id="a" width="80" height="80" x="0" y="0" color-interpolation-filters="sRGB" filterUnits="userSpaceOnUse"><feFlood flood-opacity="0" result="BackgroundImageFix"/><feColorMatrix in="SourceAlpha" result="hardAlpha" values="0 0 0 0 0 0 0 0 0 0 0 0 0 0 0 0 0 0 127 0"/><feOffset dy="2"/><feGaussianBlur stdDeviation="4"/><feColorMatrix values="0 0 0 0 0 0 0 0 0 0 0 0 0 0 0 0 0 0 0.75 0"/><feBlend in2="BackgroundImageFix" result="effect1_dropShadow_603_1523"/><feBlend in="SourceGraphic" in2="effect1_dropShadow_603_1523" result="shape"/></filter></defs></svg>