<svg xmlns="http://www.w3.org/2000/svg" width="80" height="80" fill="rgba(0,0,255,0.2)"><g><rect width="64" height="64" x="8" y="6" fill="#0D1117" rx="5"/><path fill="#8BC34A" d="M43.796 18.143h-1.267v-1.267h1.267m-6.328 1.267h-1.265v-1.267h1.266m6.998-2.327 1.657-1.658a.65.65 0 0 0 0-.899.65.65 0 0 0-.899 0l-1.872 1.875A7.646 7.646 0 0 0 40 13.08a7.509 7.509 0 0 0-3.366.798l-1.886-1.887a.635.635 0 0 0-1.077.45.625.625 0 0 0 .19.449l1.66 1.658c-1.887 1.392-3.113 3.594-3.113 6.124h15.186c0-2.53-1.266-4.745-3.126-6.124Zm6.29 7.391a1.9 1.9 0 0 0-1.898 1.897v8.86a1.899 1.899 0 1 0 3.796 0v-8.86a1.899 1.899 0 0 0-1.898-1.897Zm-21.514 0a1.899 1.899 0 0 0-1.899 1.897v8.86a1.899 1.899 0 1 0 3.796 0v-8.86a1.899 1.899 0 0 0-1.897-1.897Zm3.162 12.655a1.267 1.267 0 0 0 1.267 1.266h1.265v4.428a1.898 1.898 0 1 0 3.796 0V35.86h2.531v4.43a1.899 1.899 0 1 0 3.797 0v-4.43h1.266a1.267 1.267 0 0 0 1.266-1.265V21.94H32.405v12.655Z"/><path fill="#E5E5E5" d="M19.807 61a.232.232 0 0 1-.153-.061.232.232 0 0 1-.062-.154c0-.034.004-.065.01-.092l2.407-6.574a.395.395 0 0 1 .123-.195.397.397 0 0 1 .276-.092h1.516c.116 0 .204.03.266.092.068.055.113.12.133.195l2.396 6.574c.014.027.02.058.02.092a.215.215 0 0 1-.071.154.209.209 0 0 1-.154.061h-1.26a.346.346 0 0 1-.235-.072.451.451 0 0 1-.092-.143l-.4-1.044h-2.733l-.39 1.044a.449.449 0 0 1-.091.143c-.048.048-.13.072-.246.072h-1.26Zm2.407-2.734h1.904l-.962-2.703-.942 2.703ZM27.69 61a.25.25 0 0 1-.184-.072.25.25 0 0 1-.072-.184v-4.813a.25.25 0 0 1 .072-.184.25.25 0 0 1 .184-.072h1.178a.25.25 0 0 1 .184.072.25.25 0 0 1 .072.184v.39c.177-.212.41-.39.696-.533a2.242 2.242 0 0 1 1.014-.215c.396 0 .744.088 1.044.266.307.178.547.44.717.788.178.342.266.762.266 1.26v2.857a.234.234 0 0 1-.082.184.237.237 0 0 1-.174.072h-1.29a.273.273 0 0 1-.184-.072.25.25 0 0 1-.072-.184v-2.795c0-.321-.078-.567-.235-.738-.15-.177-.376-.266-.676-.266-.28 0-.505.089-.676.266-.164.17-.246.417-.246.738v2.795a.234.234 0 0 1-.082.184.237.237 0 0 1-.174.072h-1.28Zm8.3.102c-.327 0-.624-.05-.89-.153a1.947 1.947 0 0 1-.676-.471 2.287 2.287 0 0 1-.43-.758 3.59 3.59 0 0 1-.174-1.024 6.884 6.884 0 0 1 0-.717c.014-.368.072-.7.174-.993.102-.294.246-.546.43-.758a1.77 1.77 0 0 1 .676-.481c.266-.116.563-.174.89-.174a2.046 2.046 0 0 1 1.506.604v-2.191a.25.25 0 0 1 .072-.185.25.25 0 0 1 .184-.071h1.25c.067 0 .126.024.173.071.055.048.082.11.082.185v6.758a.234.234 0 0 1-.082.184.237.237 0 0 1-.174.072h-1.157a.25.25 0 0 1-.184-.072.25.25 0 0 1-.072-.184v-.328a1.93 1.93 0 0 1-.635.492c-.26.13-.58.194-.962.194Zm.554-1.372c.232 0 .413-.047.542-.143a.879.879 0 0 0 .297-.39c.069-.156.106-.327.113-.511a7.843 7.843 0 0 0 0-.768 1.196 1.196 0 0 0-.113-.471.827.827 0 0 0-.307-.359c-.136-.095-.314-.143-.532-.143-.226 0-.406.048-.543.143a.773.773 0 0 0-.276.39 2.188 2.188 0 0 0-.103.542c-.02.212-.02.423 0 .635.014.198.048.379.102.543a.773.773 0 0 0 .277.389c.137.095.317.143.543.143ZM40.72 61a.25.25 0 0 1-.184-.072.25.25 0 0 1-.072-.184v-4.813c0-.068.024-.126.072-.174a.234.234 0 0 1 .184-.082h1.178c.075 0 .136.028.184.082a.237.237 0 0 1 .072.174v.41c.184-.212.402-.376.655-.492.26-.116.55-.174.87-.174h.451c.068 0 .126.024.174.072.055.048.082.11.082.184v1.055c0 .068-.027.13-.082.184a.237.237 0 0 1-.174.072h-.993c-.28 0-.498.078-.656.235-.15.15-.225.366-.225.646v2.621a.234.234 0 0 1-.082.184.25.25 0 0 1-.184.072h-1.27Zm6.873.102c-.573 0-1.058-.092-1.454-.276a2.076 2.076 0 0 1-.901-.789c-.205-.348-.32-.76-.348-1.239a9.346 9.346 0 0 1 0-.921c.027-.485.15-.898.368-1.24.219-.34.523-.603.912-.788.396-.184.87-.276 1.423-.276.56 0 1.034.092 1.424.276.395.185.703.447.921.789.219.341.341.754.369 1.239a9.346 9.346 0 0 1 0 .922c-.028.477-.147.89-.359 1.238a2.003 2.003 0 0 1-.9.789c-.39.184-.875.276-1.455.276Zm0-1.249c.307 0 .53-.092.666-.276.143-.185.225-.461.246-.83.006-.102.01-.239.01-.41 0-.17-.004-.307-.01-.409-.02-.362-.103-.635-.246-.82-.137-.19-.359-.286-.666-.286-.3 0-.522.096-.665.287-.144.184-.222.457-.236.819-.007.102-.01.239-.01.41 0 .17.003.307.01.41.014.368.092.644.236.829.143.184.365.276.665.276ZM51.58 61a.25.25 0 0 1-.184-.072.25.25 0 0 1-.072-.184v-4.813a.25.25 0 0 1 .072-.184.25.25 0 0 1 .184-.072h1.209c.068 0 .126.024.174.072.054.048.081.11.081.184v4.813a.234.234 0 0 1-.081.184.237.237 0 0 1-.175.072H51.58Zm-.01-6.093a.25.25 0 0 1-.184-.071.25.25 0 0 1-.072-.185v-.911a.25.25 0 0 1 .072-.184.234.234 0 0 1 .184-.082h1.218c.076 0 .137.027.185.082a.234.234 0 0 1 .082.184v.911a.234.234 0 0 1-.082.184.25.25 0 0 1-.184.072h-1.22Zm4.66 6.195c-.327 0-.624-.05-.89-.153a1.947 1.947 0 0 1-.676-.471 2.287 2.287 0 0 1-.43-.758 3.59 3.59 0 0 1-.174-1.024 6.884 6.884 0 0 1 0-.717c.014-.368.072-.7.174-.993.102-.294.246-.546.43-.758a1.77 1.77 0 0 1 .676-.481c.266-.116.563-.174.89-.174a2.046 2.046 0 0 1 1.506.604v-2.191a.25.25 0 0 1 .072-.185.25.25 0 0 1 .184-.071h1.25c.068 0 .126.024.173.071.055.048.082.11.082.185v6.758a.234.234 0 0 1-.082.184.237.237 0 0 1-.174.072h-1.157a.25.25 0 0 1-.184-.072.25.25 0 0 1-.072-.184v-.328a1.93 1.93 0 0 1-.635.492c-.26.13-.58.194-.962.194Zm.554-1.372c.232 0 .413-.047.542-.143a.879.879 0 0 0 .297-.39c.069-.156.106-.327.113-.511a7.843 7.843 0 0 0 0-.768 1.196 1.196 0 0 0-.113-.471.827.827 0 0 0-.307-.359c-.136-.095-.314-.143-.532-.143-.226 0-.407.048-.543.143a.773.773 0 0 0-.276.39 2.188 2.188 0 0 0-.103.542c-.02.212-.02.423 0 .635.014.198.048.379.102.543a.773.773 0 0 0 .277.389c.136.095.317.143.543.143Z"/></g><defs><filter id="a" width="80" height="80" x="0" y="0" color-interpolation-filters="sRGB" filterUnits="userSpaceOnUse"><feFlood flood-opacity="0" result="BackgroundImageFix"/><feColorMatrix in="SourceAlpha" result="hardAlpha" values="0 0 0 0 0 0 0 0 0 0 0 0 0 0 0 0 0 0 127 0"/><feOffset dy="2"/><feGaussianBlur stdDeviation="4"/><feColorMatrix values="0 0 0 0 0 0 0 0 0 0 0 0 0 0 0 0 0 0 0.75 0"/><feBlend in2="BackgroundImageFix" result="effect1_dropShadow_603_604"/><feBlend in="SourceGraphic" in2="effect1_dropShadow_603_604" result="shape"/></filter></defs></svg>