<svg xmlns="http://www.w3.org/2000/svg" width="80" height="80" fill="none"><g filter="url(#a)"><rect width="64" height="64" x="8" y="6" fill="none" rx="5"/><g clip-path="url(#b)"><path fill="#fff" d="M40 11c-8.837 0-16 7.164-16 16 0 8.837 7.163 16 16 16 8.836 0 16-7.163 16-16a16.02 16.02 0 0 0-.63-4.457.8.8 0 0 0-1.503.545h-.003c.353 1.257.536 2.57.536 3.912a14.307 14.307 0 0 1-4.217 10.183A14.308 14.308 0 0 1 40 41.4a14.305 14.305 0 0 1-10.183-4.217A14.304 14.304 0 0 1 25.6 27a14.306 14.306 0 0 1 4.217-10.183A14.304 14.304 0 0 1 40 12.6a14.29 14.29 0 0 1 9.277 3.387 1.954 1.954 0 1 0 1.15-1.12A15.937 15.937 0 0 0 40 11Zm-1.92 7.84-5.6 14.536h3.507l.916-2.464h5.292l-.959-2.723h-3.484l2.267-6.254 4.032 11.44h3.508L41.96 18.84h-3.88Z"/></g><path fill="#2AF" d="M23.807 61a.232.232 0 0 1-.153-.061.232.232 0 0 1-.062-.154c0-.034.004-.065.01-.092l2.407-6.574a.395.395 0 0 1 .123-.195.397.397 0 0 1 .276-.092h1.516c.116 0 .204.03.266.092.068.055.113.12.133.195l2.396 6.574c.014.027.02.058.02.092a.215.215 0 0 1-.071.154.209.209 0 0 1-.154.061h-1.26a.346.346 0 0 1-.235-.072.451.451 0 0 1-.092-.143l-.4-1.044h-2.733l-.39 1.044a.449.449 0 0 1-.091.143c-.048.048-.13.072-.246.072h-1.26Zm2.407-2.734h1.904l-.962-2.703-.942 2.703Zm5.476 4.68a.25.25 0 0 1-.184-.072.25.25 0 0 1-.072-.184v-6.76a.25.25 0 0 1 .072-.184.25.25 0 0 1 .184-.072h1.157c.069 0 .127.024.174.072.055.048.082.11.082.184v.38c.157-.212.365-.387.625-.523.26-.143.58-.215.962-.215.342 0 .642.054.902.164.259.102.48.256.665.46.184.205.328.454.43.748.11.294.17.631.185 1.014a7.656 7.656 0 0 1 0 .758 3.38 3.38 0 0 1-.175.993 2.17 2.17 0 0 1-.43.747c-.184.205-.41.365-.675.482-.26.109-.56.163-.901.163a2.09 2.09 0 0 1-.881-.174 1.718 1.718 0 0 1-.615-.512v2.274a.25.25 0 0 1-.071.184.25.25 0 0 1-.185.072H31.69Zm2.448-3.216c.232 0 .413-.047.542-.143a.773.773 0 0 0 .277-.39c.061-.163.099-.344.112-.542a4.943 4.943 0 0 0 0-.635 1.915 1.915 0 0 0-.112-.543.773.773 0 0 0-.277-.389c-.13-.095-.31-.143-.542-.143-.226 0-.407.051-.543.154a.815.815 0 0 0-.297.378 1.556 1.556 0 0 0-.103.512 7.24 7.24 0 0 0 0 .768c.007.171.045.332.113.482a.91.91 0 0 0 .307.358.94.94 0 0 0 .523.133Zm6.275 1.372c-.573 0-1.058-.092-1.454-.276a2.076 2.076 0 0 1-.901-.789c-.205-.348-.32-.76-.348-1.239a9.346 9.346 0 0 1 0-.921c.027-.485.15-.898.368-1.24.219-.34.523-.603.912-.788.396-.184.87-.276 1.423-.276.56 0 1.034.092 1.424.276.395.185.703.447.921.789.219.341.341.754.369 1.239a9.346 9.346 0 0 1 0 .922c-.028.477-.147.89-.359 1.238a2.003 2.003 0 0 1-.9.789c-.39.184-.875.276-1.455.276Zm0-1.249c.307 0 .53-.092.666-.276.143-.185.225-.461.246-.83.006-.102.01-.239.01-.41 0-.17-.004-.307-.01-.409-.02-.362-.103-.635-.246-.82-.137-.19-.359-.286-.666-.286-.3 0-.522.096-.665.287-.144.184-.222.457-.236.819-.007.102-.01.239-.01.41 0 .17.003.307.01.41.014.368.092.644.236.829.143.184.365.276.665.276ZM44.4 61a.25.25 0 0 1-.184-.072.25.25 0 0 1-.072-.184v-6.758a.25.25 0 0 1 .072-.185.25.25 0 0 1 .184-.071h1.209a.25.25 0 0 1 .184.071.25.25 0 0 1 .072.185v6.758a.25.25 0 0 1-.072.184.25.25 0 0 1-.184.072H44.4Zm2.93 0a.25.25 0 0 1-.184-.072.25.25 0 0 1-.072-.184v-6.758a.25.25 0 0 1 .072-.185.25.25 0 0 1 .184-.071h1.209a.25.25 0 0 1 .184.071.25.25 0 0 1 .072.185v6.758a.25.25 0 0 1-.072.184.25.25 0 0 1-.184.072H47.33Zm5.193.102c-.573 0-1.058-.092-1.454-.276a2.076 2.076 0 0 1-.901-.789c-.205-.348-.32-.76-.348-1.239a9.346 9.346 0 0 1 0-.921c.027-.485.15-.898.368-1.24.219-.34.523-.603.912-.788.396-.184.87-.276 1.423-.276.56 0 1.034.092 1.424.276.395.185.703.447.921.789.219.341.341.754.369 1.239a9.346 9.346 0 0 1 0 .922c-.028.477-.147.89-.359 1.238a2.003 2.003 0 0 1-.9.789c-.39.184-.875.276-1.455.276Zm0-1.249c.307 0 .53-.092.666-.276.143-.185.225-.461.246-.83.006-.102.01-.239.01-.41 0-.17-.004-.307-.01-.409-.02-.362-.103-.635-.246-.82-.137-.19-.359-.286-.666-.286-.3 0-.522.096-.665.287-.144.184-.222.457-.236.819-.007.102-.01.239-.01.41 0 .17.003.307.01.41.014.368.092.644.236.829.143.184.365.276.665.276Z"/></g><defs><clipPath id="b"><path fill="#fff" d="M24 11h32v32H24z"/></clipPath><filter id="a" width="80" height="80" x="0" y="0" color-interpolation-filters="sRGB" filterUnits="userSpaceOnUse"><feFlood flood-opacity="0" result="BackgroundImageFix"/><feColorMatrix in="SourceAlpha" result="hardAlpha" values="0 0 0 0 0 0 0 0 0 0 0 0 0 0 0 0 0 0 127 0"/><feOffset dy="2"/><feGaussianBlur stdDeviation="4"/><feColorMatrix values="0 0 0 0 0 0 0 0 0 0 0 0 0 0 0 0 0 0 0.75 0"/><feBlend in2="BackgroundImageFix" result="effect1_dropShadow_603_620"/><feBlend in="SourceGraphic" in2="effect1_dropShadow_603_620" result="shape"/></filter></defs></svg>