<svg xmlns="http://www.w3.org/2000/svg" width="80" height="80" fill="none"><g filter="url(#a)"><rect width="64" height="64" x="8" y="6" fill="none" rx="5"/><path fill="#F90" d="M50.179 33.777c1.126-.137 3.61-.433 4.053.137.442.56-.495 2.912-.916 3.956-.127.317.147.443.431.2 1.853-1.56 2.337-4.82 1.958-5.295-.379-.464-3.631-.865-5.61.527-.306.222-.253.517.084.475Z"/><path fill="#F90" d="M39.968 39.484c4.327 0 9.358-1.361 12.821-3.925.569-.422.074-1.065-.505-.801-3.884 1.645-8.105 2.447-11.947 2.447-5.695 0-11.2-1.572-15.663-4.167-.39-.232-.684.169-.358.464 4.126 3.735 9.59 5.982 15.652 5.982Z"/><path fill="#fff" d="M33.095 27.405c0 .39.042.707.115.939.094.26.207.515.337.76a.462.462 0 0 1 .074.242c0 .106-.063.211-.2.317l-.663.443a.506.506 0 0 1-.274.095c-.105 0-.21-.053-.316-.148a3.263 3.263 0 0 1-.379-.496 8.168 8.168 0 0 1-.326-.622c-.82.97-1.853 1.456-3.095 1.456-.884 0-1.589-.254-2.105-.76s-.779-1.182-.779-2.026c0-.896.316-1.624.958-2.173.642-.548 1.495-.823 2.58-.823.357 0 .725.032 1.115.085.39.053.79.137 1.21.232v-.77c0-.802-.168-1.361-.495-1.688-.336-.327-.905-.485-1.715-.485-.369 0-.747.042-1.137.136a8.38 8.38 0 0 0-1.137.36c-.12.053-.243.099-.368.137a.652.652 0 0 1-.169.031c-.147 0-.22-.105-.22-.327v-.517c0-.169.02-.295.073-.369a.786.786 0 0 1 .295-.222c.368-.19.81-.348 1.326-.474a6.376 6.376 0 0 1 1.642-.201c1.253 0 2.168.285 2.758.855.579.57.874 1.434.874 2.595v3.418h.02Zm-4.274 1.604c.347 0 .705-.064 1.084-.19a2.347 2.347 0 0 0 1-.676c.169-.2.295-.422.358-.675.063-.253.105-.559.105-.918v-.443a8.768 8.768 0 0 0-.968-.179 7.908 7.908 0 0 0-.99-.063c-.705 0-1.22.137-1.568.422-.347.285-.516.685-.516 1.213 0 .496.127.865.39 1.118.252.264.62.39 1.105.39Zm8.453 1.139c-.19 0-.316-.032-.4-.106-.085-.063-.158-.21-.221-.411l-2.474-8.155c-.063-.211-.095-.348-.095-.422 0-.169.084-.263.253-.263h1.031c.2 0 .337.031.411.105.084.063.147.211.21.411l1.769 6.984 1.642-6.984c.053-.21.116-.348.2-.411.084-.064.231-.105.421-.105h.842c.2 0 .337.031.421.105.084.063.158.211.2.411l1.663 7.069 1.822-7.069c.062-.21.136-.348.21-.411.084-.064.22-.105.41-.105h.98c.168 0 .262.084.262.263 0 .053-.01.106-.02.169a1.5 1.5 0 0 1-.074.264L44.2 29.642c-.063.21-.137.348-.221.411-.084.063-.221.106-.4.106h-.905c-.2 0-.337-.032-.421-.106-.084-.074-.158-.211-.2-.422l-1.632-6.804L38.8 29.62c-.053.211-.116.349-.2.422-.084.074-.232.106-.421.106h-.905Zm13.526.285a6.957 6.957 0 0 1-1.621-.19c-.526-.127-.937-.264-1.21-.422-.17-.095-.285-.2-.327-.296a.748.748 0 0 1-.063-.295v-.538c0-.221.084-.327.242-.327a.6.6 0 0 1 .19.031c.063.022.157.064.263.106.371.164.76.288 1.158.37a6.3 6.3 0 0 0 1.252.126c.663 0 1.18-.116 1.537-.348.358-.232.547-.57.547-1.003 0-.295-.094-.537-.284-.738-.19-.2-.547-.38-1.063-.548l-1.526-.475c-.769-.243-1.337-.601-1.684-1.076a2.518 2.518 0 0 1-.527-1.53c0-.443.095-.833.284-1.17.19-.338.442-.634.758-.866a3.335 3.335 0 0 1 1.095-.549 4.597 4.597 0 0 1 1.326-.179c.232 0 .474.01.706.042.242.032.463.074.684.116.21.053.41.106.6.169.19.064.337.127.442.19a.912.912 0 0 1 .316.264.57.57 0 0 1 .094.348v.496c0 .222-.084.338-.242.338-.084 0-.22-.043-.4-.127-.6-.274-1.273-.412-2.02-.412-.6 0-1.074.095-1.4.296-.327.2-.495.506-.495.939a1 1 0 0 0 .315.749c.21.2.6.4 1.158.58l1.495.475c.758.242 1.305.58 1.632 1.012.326.433.484.929.484 1.477 0 .454-.095.866-.274 1.224-.19.359-.442.675-.768.928-.327.264-.716.454-1.169.591a4.998 4.998 0 0 1-1.505.222Z"/><path fill="#2AF" d="M31.246 60a.186.186 0 0 1-.123-.05.186.186 0 0 1-.05-.122c0-.027.003-.052.009-.074l1.925-5.258a.317.317 0 0 1 .098-.155.318.318 0 0 1 .221-.074h1.212c.093 0 .164.025.213.074.055.043.09.095.107.155l1.916 5.258c.01.022.016.047.016.074a.172.172 0 0 1-.057.123.167.167 0 0 1-.123.049h-1.007a.286.286 0 0 1-.189-.057.36.36 0 0 1-.073-.115l-.32-.835h-2.186l-.312.835a.358.358 0 0 1-.073.115c-.039.038-.104.057-.197.057h-1.007Zm1.924-2.187h1.524l-.77-2.162-.754 2.162ZM38.113 60a.299.299 0 0 1-.22-.082.333.333 0 0 1-.1-.188l-.892-5.234a.072.072 0 0 1-.008-.032v-.025c0-.044.016-.082.049-.115a.172.172 0 0 1 .123-.057h1.015c.153 0 .238.06.254.18l.533 3.203.59-1.892a.536.536 0 0 1 .081-.14c.039-.054.101-.082.189-.082h.59c.092 0 .158.028.196.082.038.05.063.096.074.14l.59 1.883.532-3.194c.016-.12.1-.18.253-.18h1.016c.05 0 .09.02.123.057.033.033.05.071.05.115v.057l-.894 5.234a.333.333 0 0 1-.098.188.299.299 0 0 1-.221.082h-.778c-.093 0-.164-.025-.213-.074a.41.41 0 0 1-.098-.139l-.827-2.342-.828 2.342a.412.412 0 0 1-.098.14c-.044.048-.112.073-.205.073h-.778Zm7.987.082c-.546 0-1-.077-1.36-.23-.36-.158-.633-.362-.819-.614a1.422 1.422 0 0 1-.294-.802c0-.044.016-.082.049-.115a.18.18 0 0 1 .13-.057h1.033c.076 0 .133.013.172.04a.425.425 0 0 1 .114.107c.044.082.104.161.18.238a.971.971 0 0 0 .312.188c.13.044.292.066.483.066.316 0 .554-.05.712-.148.164-.098.246-.232.246-.401a.374.374 0 0 0-.13-.295c-.088-.082-.23-.153-.427-.213a6.404 6.404 0 0 0-.77-.196 5.04 5.04 0 0 1-1.064-.336 1.671 1.671 0 0 1-.664-.549c-.153-.23-.23-.513-.23-.852 0-.333.094-.63.28-.892a1.89 1.89 0 0 1 .794-.615c.338-.147.74-.22 1.204-.22a3 3 0 0 1 .99.147c.29.098.533.229.73.393.196.163.344.338.442.524.104.18.158.357.164.532a.186.186 0 0 1-.05.123.166.166 0 0 1-.122.05h-1.081a.345.345 0 0 1-.156-.034.303.303 0 0 1-.115-.106c-.032-.12-.12-.224-.262-.311-.136-.093-.316-.14-.54-.14-.24 0-.429.044-.565.132-.131.081-.197.21-.197.384 0 .11.035.205.106.287.077.082.2.153.37.213.174.06.411.123.712.188.497.093.898.21 1.204.353.305.136.53.316.671.54.142.218.213.494.213.827 0 .372-.106.694-.32.967-.207.267-.496.472-.867.614a3.563 3.563 0 0 1-1.278.213Z"/></g><defs><filter id="a" width="80" height="80" x="0" y="0" color-interpolation-filters="sRGB" filterUnits="userSpaceOnUse"><feFlood flood-opacity="0" result="BackgroundImageFix"/><feColorMatrix in="SourceAlpha" result="hardAlpha" values="0 0 0 0 0 0 0 0 0 0 0 0 0 0 0 0 0 0 127 0"/><feOffset dy="2"/><feGaussianBlur stdDeviation="4"/><feColorMatrix values="0 0 0 0 0 0 0 0 0 0 0 0 0 0 0 0 0 0 0.75 0"/><feBlend in2="BackgroundImageFix" result="effect1_dropShadow_603_1512"/><feBlend in="SourceGraphic" in2="effect1_dropShadow_603_1512" result="shape"/></filter></defs></svg>