<svg xmlns="http://www.w3.org/2000/svg" width="80" height="80" fill="none"><g filter="url(#a)"><rect width="64" height="64" x="8" y="6" fill="none" rx="5"/><path fill="#F4D44B" d="M37.016 15.025a26.034 26.034 0 0 1-2.846 1.795V17a.76.76 0 0 0 .281-.11c.123 0 .2.037.2.158l.2-.11h.1v.086a10.966 10.966 0 0 1-2 1.556l.11.171h-.1l-.21-.072c0 .062-.086.1-.28.11v.1l.218.243a.781.781 0 0 1-.289-.063 1.9 1.9 0 0 0-1.27.942l.11.171c.183-.198.397-.367.633-.5l.024.267a.853.853 0 0 0-.28.11l.232.342a6.838 6.838 0 0 1 1.451-1.209c.267.072.4.147.4.243h.2a15.497 15.497 0 0 1 4.25-2.3v.185c-.267.391-.439.586-.535.6a.74.74 0 0 0 .134.353 32.719 32.719 0 0 1-1.9 4.815 136.018 136.018 0 0 1-7.364 15.34.725.725 0 0 0 .11.267c.334-.054.655-.174.942-.353h.11v.185h.185l.206-.142c0 .062.072.086.2.072v.185a1.642 1.642 0 0 1-.318.843c-.3.434-.519.917-.647 1.428V41h.185a11.733 11.733 0 0 0 1.82-2.627 29.211 29.211 0 0 0 5.35-2.017 5.013 5.013 0 0 0 2.821-.966v-.1l-.465.134h-.11v-.1a4.237 4.237 0 0 0 1.872-.61c1.771-1.367 3.1-2.332 4.012-2.908 2.8-2.052 4.117-4.03 3.96-5.91a11.062 11.062 0 0 0-1.847-2.309c-.024-.267.4-.623 1.257-1.113l2.431-2.14a6.315 6.315 0 0 0 .976-3.37l-.05-.364c-.1-1.086-.88-1.966-2.37-2.637a9.2 9.2 0 0 0-4.722-.942 28.927 28.927 0 0 0-7.366 2l-.01.004Zm2.14 7.682c.185-1 .391-1.575.623-1.709l2.028-4.548c-.024-.28.4-.5 1.295-.647l.294-.024.024.267c.88-.134 1.418-.209 1.624-.233 1.6-.134 2.442.185 2.517.976h.185l-.037-.465h.2a1.218 1.218 0 0 1 .757.952 1.426 1.426 0 0 1-.415.952c-.123 0-.2-.072-.209-.267h-.2l-.048.551c-.818 1.222-1.4 1.846-1.77 1.872-.33.451-.539.685-.624.7a11.179 11.179 0 0 1-2.1 1.565 27.393 27.393 0 0 0-4.216 1.637.7.7 0 0 0-.39-.062v-.174c.01-.485.177-.954.475-1.337l-.013-.006Zm-6.6-3.443v.086a.853.853 0 0 0-.28.11h-.1v-.172l.38-.024Zm5.88-.136.023.267c-.086 0-.209.134-.353.391V19.6a.907.907 0 0 0 .267-.476l.062.004Zm-.9 1.9.036.366h-.1l-.029-.364.092-.002Zm-.234.661c-.024.3-.1.465-.267.476h-.1a.934.934 0 0 0 .158-.465l.21-.01Zm-.4.952v.086l-.17.294h-.186v-.08a.243.243 0 0 0 .267-.295h.088l.001-.005Zm-.415.856-.048.452h-.1l-.037-.452h.185Zm2.14 1.367v.171l-.38.037v-.17l.38-.038Zm-1.817 2.617A21.475 21.475 0 0 0 42 25.943l.575-.048a3.325 3.325 0 0 1 2.675.685l.037.366c-.439 1.271-.928 2-1.452 2.236l-2.442 1.942a23.876 23.876 0 0 1-2.942 1.808 21.859 21.859 0 0 1-5.4 2.48h-.11c.1-.342 1.38-2.98 3.873-7.942l-.004.011Zm2.637-1.038v.086l-.39.037v-.086l.39-.037Zm-6.083 5.9c-.123.623-.267.942-.39.952v-.086a1.042 1.042 0 0 1 .4-.867l-.01.001Zm2.442 3.445a31.295 31.295 0 0 0 5.84-3.055v.171c0 .072-.268.3-.819.71-1.01.433-1.969.978-2.859 1.623-1.76.61-2.627.99-2.613 1.137-1.051.393-2.08.846-3.079 1.356a1.126 1.126 0 0 1-.5-.134.8.8 0 0 1 .428-.78c.267-.028.536.014.781.122.486-.216.994-.38 1.514-.489v-.185l-.575.048a8.225 8.225 0 0 1 1.674-.78l.294-.025v.093c-.489.037-.77.2-.832.452a.16.16 0 0 0 .2.158 2.37 2.37 0 0 0 .535-.415l.011-.007Zm-3-2.22v.086a.172.172 0 0 1-.095.194.17.17 0 0 1-.076.015v-.086a.182.182 0 0 1 .153-.207l.018-.002Zm4.57 1.246a4.335 4.335 0 0 0-1.309.575h-.1v-.185c.454-.03.881-.226 1.2-.55a.183.183 0 0 1 .21.168l-.002-.008Zm-4.752 1.331.294-.024v.1a.763.763 0 0 0-.28.11h-.185a.212.212 0 0 1 .171-.186Z"/><path fill="#2AF" d="M26.473 61a.25.25 0 0 1-.184-.072.25.25 0 0 1-.072-.184v-6.656a.25.25 0 0 1 .072-.184.25.25 0 0 1 .184-.072h3.123c.587 0 1.068.082 1.444.246.375.164.652.4.83.706.184.3.276.66.276 1.075 0 .246-.048.465-.144.656a1.467 1.467 0 0 1-.338.46c-.13.124-.252.212-.368.267.26.123.488.324.686.604.205.28.307.608.307.983 0 .45-.102.84-.307 1.167-.198.321-.492.57-.88.748-.383.17-.854.256-1.414.256h-3.215Zm1.577-1.331h1.433c.294 0 .516-.085.666-.256a.86.86 0 0 0 .225-.584.84.84 0 0 0-.235-.604c-.15-.164-.369-.246-.656-.246H28.05v1.69Zm0-2.99h1.341c.28 0 .488-.072.625-.215a.749.749 0 0 0 .215-.553.702.702 0 0 0-.215-.533c-.137-.143-.345-.215-.625-.215H28.05v1.516Zm6.862 4.423c-.369 0-.7-.068-.994-.204a1.832 1.832 0 0 1-.686-.574 1.359 1.359 0 0 1-.256-.809c0-.484.198-.867.594-1.147.396-.286.922-.481 1.577-.583l1.28-.195v-.143c0-.246-.051-.434-.154-.564-.102-.13-.29-.194-.563-.194a.891.891 0 0 0-.47.113.804.804 0 0 0-.277.307.294.294 0 0 1-.256.133H33.56a.236.236 0 0 1-.174-.061.207.207 0 0 1-.051-.164c0-.123.044-.263.133-.42.095-.164.239-.325.43-.482.191-.157.437-.286.737-.389.3-.102.662-.153 1.086-.153.443 0 .822.051 1.136.153.314.103.567.246.758.43.198.185.345.403.44.656.096.246.144.519.144.819v3.113a.234.234 0 0 1-.082.184.237.237 0 0 1-.174.072h-1.188a.25.25 0 0 1-.184-.072.25.25 0 0 1-.072-.184v-.358a1.47 1.47 0 0 1-.359.358 1.72 1.72 0 0 1-.532.256c-.198.068-.43.102-.696.102Zm.48-1.167c.199 0 .376-.04.533-.123a.896.896 0 0 0 .38-.4 1.48 1.48 0 0 0 .143-.685v-.144l-.87.154c-.322.055-.557.14-.707.256-.144.11-.215.239-.215.39a.45.45 0 0 0 .102.296.71.71 0 0 0 .266.195c.11.04.232.061.369.061Zm7.218 1.167c-.382 0-.703-.064-.962-.194a1.958 1.958 0 0 1-.625-.492v.328a.234.234 0 0 1-.082.184.237.237 0 0 1-.174.072H39.61a.25.25 0 0 1-.184-.072.25.25 0 0 1-.072-.184v-6.758a.25.25 0 0 1 .072-.185.25.25 0 0 1 .184-.071h1.25a.25.25 0 0 1 .184.071.25.25 0 0 1 .071.185v2.191a1.84 1.84 0 0 1 .615-.43 2.09 2.09 0 0 1 .88-.174c.342 0 .642.058.902.174.266.11.491.27.675.481.185.212.328.464.43.758.103.294.16.625.175.993a6.884 6.884 0 0 1 0 .717 3.34 3.34 0 0 1-.185 1.024 2.287 2.287 0 0 1-.43.758 1.848 1.848 0 0 1-.665.47c-.26.103-.56.154-.901.154Zm-.553-1.372c.233 0 .413-.047.543-.143a.773.773 0 0 0 .277-.39c.061-.163.099-.344.112-.542a4.943 4.943 0 0 0 0-.635 1.915 1.915 0 0 0-.112-.543.773.773 0 0 0-.277-.389c-.13-.095-.31-.143-.543-.143a.89.89 0 0 0-.522.143.825.825 0 0 0-.307.359c-.068.143-.106.3-.113.47a7.24 7.24 0 0 0 0 .769c.007.184.041.355.103.512.061.157.16.286.297.389.136.095.317.143.542.143Zm6.215 1.372c-.806 0-1.447-.218-1.925-.655-.478-.437-.727-1.085-.748-1.946v-.358c.02-.54.14-1 .359-1.382.225-.39.532-.683.921-.881.396-.205.857-.307 1.383-.307.6 0 1.095.12 1.484.358.396.24.693.563.891.973.198.41.297.877.297 1.403v.246a.234.234 0 0 1-.082.184.237.237 0 0 1-.174.072h-3.277v.071c.007.198.041.38.103.543a.772.772 0 0 0 .758.532.82.82 0 0 0 .337-.06c.096-.049.175-.1.236-.155a2.12 2.12 0 0 0 .143-.153.482.482 0 0 1 .144-.123c.04-.02.102-.03.184-.03h1.27c.068 0 .123.02.164.06.047.035.068.086.061.154-.007.116-.065.256-.174.42a2.16 2.16 0 0 1-.481.492 2.591 2.591 0 0 1-.779.389 3.549 3.549 0 0 1-1.095.153Zm-.87-3.307h1.73v-.02c0-.22-.034-.41-.102-.574a.752.752 0 0 0-.297-.379.814.814 0 0 0-.471-.133.813.813 0 0 0-.471.133.86.86 0 0 0-.287.379 1.482 1.482 0 0 0-.103.573v.02ZM52.15 61a.25.25 0 0 1-.184-.072.25.25 0 0 1-.072-.184v-6.758a.25.25 0 0 1 .072-.185.25.25 0 0 1 .184-.071h1.209a.25.25 0 0 1 .184.071.25.25 0 0 1 .072.185v6.758a.25.25 0 0 1-.072.184.25.25 0 0 1-.184.072H52.15Z"/></g><defs><filter id="a" width="80" height="80" x="0" y="0" color-interpolation-filters="sRGB" filterUnits="userSpaceOnUse"><feFlood flood-opacity="0" result="BackgroundImageFix"/><feColorMatrix in="SourceAlpha" result="hardAlpha" values="0 0 0 0 0 0 0 0 0 0 0 0 0 0 0 0 0 0 127 0"/><feOffset dy="2"/><feGaussianBlur stdDeviation="4"/><feColorMatrix values="0 0 0 0 0 0 0 0 0 0 0 0 0 0 0 0 0 0 0.75 0"/><feBlend in2="BackgroundImageFix" result="effect1_dropShadow_602_1026"/><feBlend in="SourceGraphic" in2="effect1_dropShadow_602_1026" result="shape"/></filter></defs></svg>