<svg xmlns="http://www.w3.org/2000/svg" width="80" height="80" fill="rgba(0,0,255,0.2)"><g ><rect width="64" height="64" x="8" y="6" fill="#0D1117" rx="5"/><g clip-path="url(#b)"><path fill="#00599C" d="M54.074 35c.224-.387.362-.822.362-1.213V20.213c0-.391-.138-.826-.362-1.213l-13.856 8 13.856 8Z"/><path fill="#004482" d="m41.45 42.707 11.755-6.787c.339-.196.646-.534.87-.92l-13.857-8-13.856 8c.223.386.53.724.87.92l11.755 6.787c.677.39 1.785.39 2.462 0Z"/><path fill="#659AD2" d="M54.075 19c-.224-.387-.532-.724-.87-.92l-11.756-6.787c-.677-.39-1.785-.39-2.462 0L27.23 18.08c-.677.391-1.231 1.351-1.231 2.133v13.574c0 .391.139.827.362 1.213l13.856-8 13.856-8Z"/><path fill="#fff" d="M40.218 36.479c-5.227 0-9.479-4.252-9.479-9.479 0-5.227 4.252-9.479 9.479-9.479a9.513 9.513 0 0 1 8.208 4.737l-4.102 2.373a4.76 4.76 0 0 0-4.106-2.37A4.745 4.745 0 0 0 35.478 27a4.745 4.745 0 0 0 4.74 4.74 4.76 4.76 0 0 0 4.107-2.372l4.102 2.374a9.513 9.513 0 0 1-8.209 4.737Z"/><path fill="#fff" d="M49.697 26.473h-1.053V25.42H47.59v1.053h-1.054v1.053h1.054v1.054h1.053v-1.053h1.053v-1.054Zm3.949 0h-1.053V25.42H51.54v1.053h-1.053v1.053h1.053v1.054h1.053v-1.053h1.053v-1.054Z"/></g><path fill="#E5E5E5" d="M33.656 61.102c-.649 0-1.205-.105-1.67-.317a2.469 2.469 0 0 1-1.075-.932c-.252-.41-.392-.918-.42-1.526a37.234 37.234 0 0 1 0-1.822c.028-.594.171-1.096.43-1.506.26-.416.622-.73 1.086-.942.464-.218 1.014-.327 1.649-.327.45 0 .867.058 1.249.174.382.109.717.273 1.003.491.287.212.51.471.666.778.164.3.25.642.256 1.024a.167.167 0 0 1-.061.154.208.208 0 0 1-.154.062h-1.382a.35.35 0 0 1-.205-.052.483.483 0 0 1-.123-.215c-.096-.362-.253-.607-.471-.737-.212-.137-.474-.205-.789-.205-.375 0-.672.106-.89.318-.219.204-.338.55-.359 1.034-.02.56-.02 1.133 0 1.72.02.485.14.833.359 1.045.218.204.515.307.89.307.314 0 .58-.068.8-.205.218-.137.371-.382.46-.737.027-.103.065-.17.113-.205a.35.35 0 0 1 .215-.062h1.382a.21.21 0 0 1 .154.062c.047.04.068.092.061.154a2.25 2.25 0 0 1-.256 1.034c-.157.3-.379.56-.666.778a3.275 3.275 0 0 1-1.003.492 4.544 4.544 0 0 1-1.25.163Zm6.227-.44a.25.25 0 0 1-.184-.072.25.25 0 0 1-.072-.184v-1.874h-1.823a.286.286 0 0 1-.194-.071.25.25 0 0 1-.072-.185v-.747a.25.25 0 0 1 .072-.185.286.286 0 0 1 .194-.071h1.823V55.45a.25.25 0 0 1 .072-.184.25.25 0 0 1 .184-.072h.84c.068 0 .126.024.174.072a.231.231 0 0 1 .082.184v1.823h1.812a.25.25 0 0 1 .185.071.25.25 0 0 1 .071.185v.747a.25.25 0 0 1-.071.184.25.25 0 0 1-.185.072H40.98v1.874a.234.234 0 0 1-.082.184.237.237 0 0 1-.174.072h-.84Zm6.22 0a.25.25 0 0 1-.184-.072.25.25 0 0 1-.072-.184v-1.874h-1.823a.286.286 0 0 1-.194-.071.25.25 0 0 1-.072-.185v-.747a.25.25 0 0 1 .072-.185.286.286 0 0 1 .194-.071h1.823V55.45a.25.25 0 0 1 .072-.184.25.25 0 0 1 .184-.072h.84c.068 0 .126.024.174.072a.231.231 0 0 1 .082.184v1.823h1.812a.25.25 0 0 1 .185.071.25.25 0 0 1 .071.185v.747a.25.25 0 0 1-.071.184.25.25 0 0 1-.185.072H47.2v1.874a.234.234 0 0 1-.082.184.237.237 0 0 1-.174.072h-.84Z"/></g><defs><clipPath id="b"><path fill="#fff" d="M26 11h28.436v32H26z"/></clipPath><filter id="a" width="80" height="80" x="0" y="0" color-interpolation-filters="sRGB" filterUnits="userSpaceOnUse"><feFlood flood-opacity="0" result="BackgroundImageFix"/><feColorMatrix in="SourceAlpha" result="hardAlpha" values="0 0 0 0 0 0 0 0 0 0 0 0 0 0 0 0 0 0 127 0"/><feOffset dy="2"/><feGaussianBlur stdDeviation="4"/><feColorMatrix values="0 0 0 0 0 0 0 0 0 0 0 0 0 0 0 0 0 0 0.75 0"/><feBlend in2="BackgroundImageFix" result="effect1_dropShadow_601_5080"/><feBlend in="SourceGraphic" in2="effect1_dropShadow_601_5080" result="shape"/></filter></defs></svg>