<svg xmlns="http://www.w3.org/2000/svg" width="80" height="80" fill="rgba(0,0,255,0.2)"><g><rect width="64" height="64" x="8" y="6" fill="#0D1117" rx="5"/><g clip-path="url(#b)"><path fill="#A179DC" d="M54.397 20.384c0-.537-.115-1.011-.348-1.418-.228-.4-.569-.736-1.027-1.001-3.78-2.18-7.565-4.353-11.344-6.535-1.019-.589-2.007-.567-3.018.03-1.505.887-9.039 5.203-11.284 6.504-.924.535-1.374 1.354-1.375 2.419L26 33.534c0 .525.11.99.332 1.391.228.412.574.757 1.043 1.028 2.245 1.3 9.78 5.617 11.284 6.504 1.012.597 2 .619 3.02.03 3.779-2.182 7.563-4.355 11.344-6.535.469-.271.815-.616 1.043-1.028.222-.401.332-.866.332-1.391l-.001-13.15Z"/><path fill="#280068" d="m40.242 26.916-13.91 8.01c.228.411.574.756 1.043 1.027 2.245 1.3 9.78 5.617 11.284 6.504 1.012.597 2 .619 3.02.03 3.779-2.182 7.563-4.355 11.344-6.535.469-.271.815-.616 1.043-1.028l-13.824-8.008Z"/><path fill="#390091" d="M54.397 20.384c0-.537-.115-1.011-.348-1.418l-13.807 7.95 13.824 8.008c.222-.4.332-.866.332-1.39 0 0 0-8.766-.002-13.15Z"/><path fill="#fff" d="M48.432 23.922v1.497h1.497v-1.497h.749v1.497h1.497v.748h-1.497v1.497h1.497v.749h-1.497v1.497h-.748v-1.497h-1.498v1.497h-.748v-1.497h-1.497v-.749h1.497v-1.497h-1.497v-.748h1.497v-1.497h.748Zm1.497 2.245h-1.497v1.497h1.497v-1.497Z"/><path fill="#fff" d="M40.273 16.403a10.55 10.55 0 0 1 9.14 5.273l-.018-.03-4.594 2.645a5.253 5.253 0 0 0-4.468-2.588h-.06a5.256 5.256 0 1 0 4.58 7.833l-.022.038 4.588 2.657a10.552 10.552 0 0 1-9.028 5.282h-.118a10.551 10.551 0 0 1-10.556-10.555c0-5.83 4.726-10.555 10.556-10.555Z"/></g><path fill="#E5E5E5" d="M36.156 61.102c-.649 0-1.205-.105-1.67-.317a2.469 2.469 0 0 1-1.075-.932c-.252-.41-.392-.918-.42-1.526a37.234 37.234 0 0 1 0-1.822c.028-.594.171-1.096.43-1.506.26-.416.622-.73 1.086-.942.464-.218 1.014-.327 1.649-.327.45 0 .867.058 1.249.174.382.109.717.273 1.003.491.287.212.51.471.666.778.164.3.25.642.256 1.024a.167.167 0 0 1-.061.154.208.208 0 0 1-.154.062h-1.382a.35.35 0 0 1-.205-.052.483.483 0 0 1-.123-.215c-.096-.362-.253-.607-.471-.737-.212-.137-.474-.205-.789-.205-.375 0-.672.106-.89.318-.219.204-.338.55-.359 1.034-.02.56-.02 1.133 0 1.72.02.485.14.833.359 1.045.218.204.515.307.89.307.314 0 .58-.068.8-.205.218-.137.371-.382.46-.737.027-.103.065-.17.113-.205a.35.35 0 0 1 .215-.062h1.382a.21.21 0 0 1 .154.062c.047.04.068.092.061.154a2.25 2.25 0 0 1-.256 1.034c-.157.3-.379.56-.666.778a3.275 3.275 0 0 1-1.003.492 4.544 4.544 0 0 1-1.25.163Zm5.029-.501a.244.244 0 0 1-.164-.062.207.207 0 0 1-.051-.164l.143-.983h-.727a.237.237 0 0 1-.174-.071.258.258 0 0 1-.061-.174v-.8c0-.074.02-.132.061-.173a.237.237 0 0 1 .174-.072h.922l.194-1.31h-.85a.237.237 0 0 1-.174-.072.258.258 0 0 1-.061-.174v-.8c0-.074.02-.132.061-.173a.237.237 0 0 1 .175-.072h1.044l.154-.993a.356.356 0 0 1 .071-.144.205.205 0 0 1 .164-.071h.81c.06 0 .112.024.153.072.047.04.071.092.071.153l-.153.983h1.055l.153-.993a.356.356 0 0 1 .072-.144.205.205 0 0 1 .164-.071h.809c.061 0 .112.024.153.072.048.04.072.092.072.153l-.154.983h.727c.069 0 .127.024.174.072a.217.217 0 0 1 .072.174v.799a.237.237 0 0 1-.072.174.237.237 0 0 1-.174.071h-.911l-.195 1.311h.84c.068 0 .126.024.174.072.048.04.072.099.072.174v.799a.237.237 0 0 1-.072.174.237.237 0 0 1-.174.071h-1.034l-.144.994c-.02.143-.105.215-.255.215h-.81a.208.208 0 0 1-.153-.062.245.245 0 0 1-.062-.164l.144-.983h-1.045l-.143.994c-.02.143-.106.215-.256.215h-.809Zm1.403-2.499h1.044l.195-1.31h-1.044l-.195 1.31Z"/></g><defs><clipPath id="b"><path fill="#fff" d="M26 11h28.444v32H26z"/></clipPath><filter id="a" width="80" height="80" x="0" y="0" color-interpolation-filters="sRGB" filterUnits="userSpaceOnUse"><feFlood flood-opacity="0" result="BackgroundImageFix"/><feColorMatrix in="SourceAlpha" result="hardAlpha" values="0 0 0 0 0 0 0 0 0 0 0 0 0 0 0 0 0 0 127 0"/><feOffset dy="2"/><feGaussianBlur stdDeviation="4"/><feColorMatrix values="0 0 0 0 0 0 0 0 0 0 0 0 0 0 0 0 0 0 0.75 0"/><feBlend in2="BackgroundImageFix" result="effect1_dropShadow_601_5156"/><feBlend in="SourceGraphic" in2="effect1_dropShadow_601_5156" result="shape"/></filter></defs></svg>