<svg xmlns="http://www.w3.org/2000/svg" width="80" height="80" fill="rgba(0,0,255,0.2)"><g><rect width="64" height="64" x="8" y="6" fill="#0D1117" rx="5"/><path fill="#1172B8" d="m30 39-2-25h24l-2 25-10 3-10-3Z"/><path fill="#3AD" d="M50 16H40v24.5l8-2.5 2-22Z"/><path fill="#fff" d="M43.5 28.5h-10L33 25l8-2.5h-8l-.5-3H48l-.5 3.5-6.5 2.5h6L46 35l-6 2-6-2-.5-5h3l.5 2.5 3 1 3-1 .5-4Z"/><path fill="#E5E5E5" d="M34.156 61.102c-.649 0-1.205-.105-1.67-.317a2.469 2.469 0 0 1-1.075-.932c-.252-.41-.392-.918-.42-1.526a37.234 37.234 0 0 1 0-1.822c.028-.594.171-1.096.43-1.506.26-.416.622-.73 1.086-.942.464-.218 1.014-.327 1.649-.327.45 0 .867.058 1.249.174.382.109.717.273 1.003.491.287.212.51.471.666.778.164.3.25.642.256 1.024a.167.167 0 0 1-.061.154.208.208 0 0 1-.154.062h-1.382a.35.35 0 0 1-.205-.052.483.483 0 0 1-.123-.215c-.096-.362-.253-.607-.471-.737-.212-.137-.474-.205-.789-.205-.375 0-.672.106-.89.318-.219.204-.338.55-.359 1.034-.02.56-.02 1.133 0 1.72.02.485.14.833.359 1.045.218.204.515.307.89.307.314 0 .58-.068.8-.205.218-.137.371-.382.46-.737.027-.103.065-.17.113-.205a.35.35 0 0 1 .215-.062h1.382a.21.21 0 0 1 .154.062c.047.04.068.092.061.154a2.25 2.25 0 0 1-.256 1.034c-.157.3-.379.56-.666.778a3.275 3.275 0 0 1-1.003.492 4.544 4.544 0 0 1-1.25.163Zm6.33 0c-.444 0-.823-.047-1.137-.143a2.799 2.799 0 0 1-.758-.369 1.732 1.732 0 0 1-.43-.44c-.096-.157-.147-.29-.154-.4a.207.207 0 0 1 .072-.184.245.245 0 0 1 .174-.082h1.168a.12.12 0 0 1 .05.01.522.522 0 0 1 .062.042c.089.047.178.109.266.184.09.068.192.13.308.184a.98.98 0 0 0 .42.082.947.947 0 0 0 .48-.112.366.366 0 0 0 .195-.338c0-.11-.03-.198-.092-.267-.061-.075-.188-.146-.379-.215a5.363 5.363 0 0 0-.84-.204 4.374 4.374 0 0 1-.931-.318 1.607 1.607 0 0 1-.615-.522 1.405 1.405 0 0 1-.215-.789c0-.273.09-.535.267-.788.177-.253.437-.457.778-.614.341-.164.761-.246 1.26-.246.395 0 .737.048 1.023.143.294.089.54.205.738.348.204.144.358.29.46.44.103.15.157.287.164.41a.235.235 0 0 1-.061.185.226.226 0 0 1-.164.071H41.53a.338.338 0 0 1-.082-.01.672.672 0 0 1-.072-.041 1.281 1.281 0 0 1-.245-.164 1.476 1.476 0 0 0-.287-.184.912.912 0 0 0-.41-.082c-.184 0-.327.04-.43.123a.408.408 0 0 0-.072.563c.062.075.181.143.359.205.184.061.468.13.85.205.47.075.846.198 1.126.368.28.164.478.359.594.584.116.218.174.45.174.696 0 .328-.099.618-.297.87-.19.253-.477.451-.86.595-.382.136-.846.204-1.392.204Zm5.66 0c-.444 0-.823-.047-1.137-.143a2.799 2.799 0 0 1-.758-.369 1.732 1.732 0 0 1-.43-.44c-.096-.157-.147-.29-.154-.4a.207.207 0 0 1 .072-.184.245.245 0 0 1 .174-.082h1.168a.12.12 0 0 1 .05.01.522.522 0 0 1 .062.042c.089.047.178.109.266.184.09.068.192.13.308.184a.98.98 0 0 0 .42.082.947.947 0 0 0 .48-.112.366.366 0 0 0 .195-.338c0-.11-.03-.198-.092-.267-.061-.075-.188-.146-.379-.215a5.363 5.363 0 0 0-.84-.204 4.374 4.374 0 0 1-.931-.318 1.607 1.607 0 0 1-.615-.522 1.405 1.405 0 0 1-.215-.789c0-.273.09-.535.267-.788.177-.253.436-.457.778-.614.341-.164.761-.246 1.26-.246.395 0 .737.048 1.023.143.294.089.54.205.738.348.204.144.358.29.46.44.103.15.157.287.164.41a.235.235 0 0 1-.061.185.226.226 0 0 1-.164.071H47.19a.338.338 0 0 1-.082-.01.672.672 0 0 1-.072-.041 1.281 1.281 0 0 1-.245-.164 1.476 1.476 0 0 0-.287-.184.912.912 0 0 0-.41-.082c-.184 0-.327.04-.43.123a.408.408 0 0 0-.072.563c.062.075.181.143.359.205.184.061.468.13.85.205.47.075.846.198 1.126.368.28.164.478.359.594.584.116.218.174.45.174.696 0 .328-.099.618-.297.87-.19.253-.478.451-.86.595-.382.136-.846.204-1.392.204Z"/></g><defs><filter id="a" width="80" height="80" x="0" y="0" color-interpolation-filters="sRGB" filterUnits="userSpaceOnUse"><feFlood flood-opacity="0" result="BackgroundImageFix"/><feColorMatrix in="SourceAlpha" result="hardAlpha" values="0 0 0 0 0 0 0 0 0 0 0 0 0 0 0 0 0 0 127 0"/><feOffset dy="2"/><feGaussianBlur stdDeviation="4"/><feColorMatrix values="0 0 0 0 0 0 0 0 0 0 0 0 0 0 0 0 0 0 0.75 0"/><feBlend in2="BackgroundImageFix" result="effect1_dropShadow_601_5315"/><feBlend in="SourceGraphic" in2="effect1_dropShadow_601_5315" result="shape"/></filter></defs></svg>