<svg xmlns="http://www.w3.org/2000/svg" width="80" height="80" fill="none"><g filter="url(#a)"><rect width="64" height="64" x="8" y="6" fill="none" rx="5"/><path fill="#40B97B" d="m40.325 13.783-10.76 6.481v13.579l10.76 6.48 10.756-6.48v-13.58l-10.756-6.48Zm6.453 17.468-6.453 3.888-6.457-3.888v-8.394l6.457 3.888 6.453-3.888v8.394Z"/><path fill="#2AF" d="M24.924 60.082c-.519 0-.964-.085-1.335-.254a1.974 1.974 0 0 1-.86-.745c-.202-.328-.314-.735-.336-1.22a29.962 29.962 0 0 1 0-1.458c.022-.475.137-.877.344-1.204a1.95 1.95 0 0 1 .868-.754c.372-.175.811-.262 1.319-.262.36 0 .693.046.999.14.306.087.573.218.803.392.229.17.406.377.532.623.131.24.2.513.205.819a.134.134 0 0 1-.05.123.167.167 0 0 1-.122.049h-1.106a.28.28 0 0 1-.164-.041.385.385 0 0 1-.098-.172c-.076-.29-.202-.486-.377-.59a1.14 1.14 0 0 0-.63-.163c-.3 0-.538.084-.713.253-.175.164-.27.44-.287.828-.016.447-.016.906 0 1.376.017.387.112.666.287.835.175.164.412.246.713.246.25 0 .464-.055.639-.164.174-.11.297-.306.368-.59.022-.082.052-.136.09-.164a.28.28 0 0 1 .172-.049h1.106c.049 0 .09.017.123.05a.134.134 0 0 1 .049.122 1.8 1.8 0 0 1-.205.827c-.126.24-.303.448-.532.623-.23.169-.497.3-.803.393a3.628 3.628 0 0 1-1 .13Zm5.063 0c-.355 0-.659-.038-.91-.115a2.239 2.239 0 0 1-.606-.295 1.386 1.386 0 0 1-.344-.352.74.74 0 0 1-.122-.32.165.165 0 0 1 .057-.147.196.196 0 0 1 .139-.065h.934c.016 0 .03.003.04.008a.36.36 0 0 1 .05.033c.07.038.142.087.213.147.07.055.153.104.245.148a.785.785 0 0 0 .336.065c.153 0 .281-.03.385-.09a.293.293 0 0 0 .156-.27.306.306 0 0 0-.074-.213c-.05-.06-.15-.117-.303-.172a4.29 4.29 0 0 0-.672-.164 3.5 3.5 0 0 1-.745-.254 1.284 1.284 0 0 1-.491-.418 1.123 1.123 0 0 1-.172-.63c0-.218.07-.429.213-.63.142-.203.35-.367.622-.492.273-.131.609-.197 1.008-.197.316 0 .59.038.819.115.234.07.43.164.59.278.163.115.286.233.368.353.082.12.125.229.13.327a.188.188 0 0 1-.048.148.18.18 0 0 1-.131.057h-.852a.268.268 0 0 1-.066-.008.541.541 0 0 1-.057-.033 1.03 1.03 0 0 1-.197-.131 1.177 1.177 0 0 0-.229-.148.729.729 0 0 0-.328-.065.538.538 0 0 0-.343.098.327.327 0 0 0-.057.45c.048.06.144.115.286.164.147.05.374.104.68.164.376.06.677.159.9.295.224.131.383.287.476.467.092.175.139.36.139.557a1.1 1.1 0 0 1-.238.696c-.153.202-.382.36-.688.475-.306.11-.677.164-1.114.164Zm4.526 0c-.355 0-.658-.038-.909-.115a2.237 2.237 0 0 1-.606-.295 1.386 1.386 0 0 1-.344-.352.74.74 0 0 1-.123-.32.165.165 0 0 1 .058-.147.196.196 0 0 1 .139-.065h.934a.09.09 0 0 1 .04.008.359.359 0 0 1 .05.033c.07.038.142.087.213.147.07.055.152.104.245.148a.785.785 0 0 0 .336.065c.153 0 .281-.03.385-.09a.293.293 0 0 0 .156-.27.306.306 0 0 0-.074-.213c-.05-.06-.15-.117-.303-.172a4.29 4.29 0 0 0-.672-.164 3.503 3.503 0 0 1-.745-.254 1.286 1.286 0 0 1-.491-.418 1.124 1.124 0 0 1-.172-.63c0-.218.07-.429.213-.63.142-.203.349-.367.622-.492.273-.131.609-.197 1.007-.197.317 0 .59.038.82.115.234.07.43.164.59.278.163.115.286.233.368.353.081.12.125.229.13.327a.188.188 0 0 1-.049.148.18.18 0 0 1-.13.057h-.852a.268.268 0 0 1-.066-.008.541.541 0 0 1-.057-.033 1.027 1.027 0 0 1-.197-.131 1.177 1.177 0 0 0-.229-.148.73.73 0 0 0-.328-.065.538.538 0 0 0-.344.098.327.327 0 0 0-.057.45c.05.06.145.115.287.164.147.05.374.104.68.164.376.06.677.159.9.295.224.131.383.287.475.467.093.175.14.36.14.557a1.1 1.1 0 0 1-.238.696c-.153.202-.382.36-.688.475-.306.11-.677.164-1.114.164Zm2.98-.082a.2.2 0 0 1-.148-.057.2.2 0 0 1-.057-.148v-3.85a.2.2 0 0 1 .057-.147.2.2 0 0 1 .147-.057h.942a.2.2 0 0 1 .148.057.2.2 0 0 1 .057.148v.311c.142-.17.328-.311.557-.426.23-.114.5-.172.81-.172.317 0 .596.071.836.213.246.142.437.352.573.63.142.274.213.61.213 1.008v2.285a.19.19 0 0 1-.065.148.19.19 0 0 1-.14.057h-1.031a.218.218 0 0 1-.148-.057.2.2 0 0 1-.057-.148V57.56c0-.256-.063-.453-.188-.59-.12-.141-.3-.212-.541-.212a.715.715 0 0 0-.54.213c-.132.136-.197.333-.197.59v2.235c0 .06-.022.11-.066.148a.19.19 0 0 1-.139.057h-1.024Zm6.327.082a1.86 1.86 0 0 1-.794-.164 1.464 1.464 0 0 1-.55-.459 1.086 1.086 0 0 1-.204-.647c0-.387.158-.693.475-.917.317-.23.737-.385 1.261-.467l1.024-.155v-.115c0-.197-.04-.347-.123-.45-.082-.104-.232-.156-.45-.156a.713.713 0 0 0-.377.09.643.643 0 0 0-.221.246.235.235 0 0 1-.205.106h-.917c-.06 0-.107-.016-.14-.049a.166.166 0 0 1-.04-.13.7.7 0 0 1 .106-.337 1.47 1.47 0 0 1 .344-.385c.153-.125.35-.229.59-.31.24-.083.53-.124.868-.124.355 0 .658.041.91.123.25.082.452.197.605.344.159.148.276.322.352.524.077.197.115.415.115.656v2.49c0 .06-.022.108-.066.147a.19.19 0 0 1-.139.057h-.95a.2.2 0 0 1-.147-.057.2.2 0 0 1-.058-.148v-.286c-.07.103-.166.199-.286.286-.12.088-.262.156-.426.205a1.71 1.71 0 0 1-.557.082Zm.385-.934c.158 0 .3-.033.426-.098a.717.717 0 0 0 .303-.32c.076-.147.114-.33.114-.548v-.115l-.696.123c-.256.044-.445.112-.565.205-.114.087-.172.19-.172.311 0 .093.027.172.082.237a.568.568 0 0 0 .213.156.83.83 0 0 0 .295.05Zm3.373.852a.2.2 0 0 1-.148-.057.2.2 0 0 1-.057-.148v-3.85a.2.2 0 0 1 .058-.147.2.2 0 0 1 .147-.057h.942a.2.2 0 0 1 .147.057.2.2 0 0 1 .057.148v.311c.142-.17.328-.311.557-.426.23-.114.5-.172.811-.172.317 0 .595.071.836.213.245.142.436.352.573.63.142.274.213.61.213 1.008v2.285c0 .06-.022.11-.066.148a.19.19 0 0 1-.139.057h-1.032a.218.218 0 0 1-.147-.057.2.2 0 0 1-.058-.148V57.56c0-.256-.062-.453-.188-.59-.12-.141-.3-.212-.54-.212a.715.715 0 0 0-.541.213c-.131.136-.197.333-.197.59v2.235c0 .06-.021.11-.065.148a.19.19 0 0 1-.14.057h-1.023Zm7.065.082c-.46 0-.847-.074-1.163-.221a1.661 1.661 0 0 1-.721-.63 2.171 2.171 0 0 1-.279-.992 7.523 7.523 0 0 1 0-.737c.022-.388.12-.718.295-.99.175-.274.418-.484.73-.632.316-.147.695-.22 1.138-.22.447 0 .827.073 1.138.22.317.148.562.358.737.631.175.273.273.603.295.991a7.4 7.4 0 0 1 0 .737 2.11 2.11 0 0 1-.287.991 1.603 1.603 0 0 1-.72.63c-.312.148-.7.222-1.163.222Zm0-1c.245 0 .423-.073.532-.22.115-.148.18-.369.197-.664a5.534 5.534 0 0 0-.001-.655c-.016-.29-.081-.508-.196-.655-.11-.153-.287-.23-.532-.23-.24 0-.418.077-.533.23-.114.147-.177.366-.188.655a5.135 5.135 0 0 0-.008.328c0 .136.002.245.008.327.01.295.074.516.188.664.115.147.292.22.533.22Z"/></g><defs><filter id="a" width="80" height="80" x="0" y="0" color-interpolation-filters="sRGB" filterUnits="userSpaceOnUse"><feFlood flood-opacity="0" result="BackgroundImageFix"/><feColorMatrix in="SourceAlpha" result="hardAlpha" values="0 0 0 0 0 0 0 0 0 0 0 0 0 0 0 0 0 0 127 0"/><feOffset dy="2"/><feGaussianBlur stdDeviation="4"/><feColorMatrix values="0 0 0 0 0 0 0 0 0 0 0 0 0 0 0 0 0 0 0.75 0"/><feBlend in2="BackgroundImageFix" result="effect1_dropShadow_602_260"/><feBlend in="SourceGraphic" in2="effect1_dropShadow_602_260" result="shape"/></filter></defs></svg>