<svg xmlns="http://www.w3.org/2000/svg" width="80" height="80" fill="none"><g filter="url(#a)"><rect width="64" height="64" x="8" y="6" fill="none" rx="5"/><path fill="#66C3FA" d="M40.824 13.088c-.34.001-.667.136-.91.375l-.013.009-8.517 4.923 8.496 8.496v.005l10.21 10.212 1.947-3.507-7.018-16.853-3.276-3.276a1.295 1.295 0 0 0-.92-.384h.001Z"/><path fill="#215896" d="m31.404 18.375-4.92 8.51-.01.014a1.29 1.29 0 0 0 .009 1.828l4.077 4.081 15.95 6.275 3.607-2.003-.097-.097-.025.002-10-10.016h-.012l-8.58-8.594Z"/><path fill="#235997" d="m31.383 18.379 8.69 8.7h.014l10 10.013 3.809-.725L53.9 25.1l-4.02-3.94c-.88-.862-2.233-1.418-3.593-1.602l.003-.043-14.907-1.136-.001-.001Z"/><path fill="#58B6F0" d="m31.393 18.39 8.696 8.695v.012l10.008 10.008-.728 3.807H38.104l-3.939-4.023c-.862-.88-1.417-2.234-1.6-3.594l-.044.004-1.128-14.91Z"/><path fill="#2AF" d="M29.473 61a.25.25 0 0 1-.184-.072.25.25 0 0 1-.072-.184v-6.656a.25.25 0 0 1 .072-.184.25.25 0 0 1 .184-.072h2.662c.67 0 1.24.11 1.71.328.471.211.833.525 1.086.942.252.41.389.918.41 1.526a34.092 34.092 0 0 1 0 1.567c-.028.634-.165 1.16-.41 1.576-.24.417-.59.727-1.055.932-.457.198-1.02.297-1.69.297h-2.713Zm1.577-1.475h1.085c.294 0 .536-.044.727-.133a.92.92 0 0 0 .44-.44c.103-.198.158-.457.164-.778a7.79 7.79 0 0 0 .02-.533 5.442 5.442 0 0 0 0-.47 7.16 7.16 0 0 0-.02-.523c-.013-.464-.136-.802-.368-1.014-.225-.218-.563-.327-1.014-.327H31.05v4.218Zm6.982 1.577c-.369 0-.7-.068-.994-.204a1.832 1.832 0 0 1-.686-.574 1.359 1.359 0 0 1-.256-.809c0-.484.198-.867.594-1.147.396-.286.922-.481 1.577-.583l1.28-.195v-.143c0-.246-.051-.434-.153-.564-.103-.13-.29-.194-.564-.194a.891.891 0 0 0-.47.113.804.804 0 0 0-.277.307.294.294 0 0 1-.256.133H36.68a.236.236 0 0 1-.174-.061.207.207 0 0 1-.051-.164c0-.123.044-.263.133-.42.095-.164.239-.325.43-.482.191-.157.437-.286.737-.389.3-.102.662-.153 1.086-.153.443 0 .822.051 1.136.153.314.103.567.246.758.43.198.185.345.403.44.656.096.246.144.519.144.819v3.113a.234.234 0 0 1-.082.184.237.237 0 0 1-.174.072h-1.188a.25.25 0 0 1-.184-.072.25.25 0 0 1-.072-.184v-.358a1.47 1.47 0 0 1-.359.358 1.72 1.72 0 0 1-.532.256c-.198.068-.43.102-.696.102Zm.48-1.167c.199 0 .376-.04.533-.123a.896.896 0 0 0 .38-.4 1.48 1.48 0 0 0 .143-.685v-.144l-.87.154c-.322.055-.557.14-.707.256-.144.11-.215.239-.215.39a.45.45 0 0 0 .102.296.71.71 0 0 0 .266.195c.11.04.232.061.369.061ZM42.73 61a.25.25 0 0 1-.184-.072.25.25 0 0 1-.072-.184v-4.813c0-.068.024-.126.072-.174a.234.234 0 0 1 .184-.082h1.178c.075 0 .136.028.184.082a.237.237 0 0 1 .072.174v.41c.184-.212.402-.376.655-.492.26-.116.55-.174.87-.174h.451c.068 0 .126.024.174.072.055.048.082.11.082.184v1.055c0 .068-.027.13-.082.184a.237.237 0 0 1-.174.072h-.993c-.28 0-.498.078-.656.235-.15.15-.225.366-.225.646v2.621a.234.234 0 0 1-.082.184A.25.25 0 0 1 44 61h-1.27Zm7.118 0c-.437 0-.816-.068-1.137-.205a1.578 1.578 0 0 1-.727-.655c-.17-.3-.256-.686-.256-1.157v-1.966h-.798a.286.286 0 0 1-.195-.072.25.25 0 0 1-.072-.184v-.83a.25.25 0 0 1 .072-.184.286.286 0 0 1 .195-.072h.798v-1.69a.25.25 0 0 1 .072-.184.273.273 0 0 1 .184-.071h1.188a.25.25 0 0 1 .184.071.25.25 0 0 1 .072.185v1.69h1.28a.25.25 0 0 1 .184.07.25.25 0 0 1 .072.185v.83a.25.25 0 0 1-.072.184.25.25 0 0 1-.184.072h-1.28v1.822c0 .233.044.417.133.553.089.137.24.205.45.205h.79a.25.25 0 0 1 .184.072.25.25 0 0 1 .071.184v.891a.25.25 0 0 1-.071.184.25.25 0 0 1-.185.072h-.952Z"/></g><defs><filter id="a" width="80" height="80" x="0" y="0" color-interpolation-filters="sRGB" filterUnits="userSpaceOnUse"><feFlood flood-opacity="0" result="BackgroundImageFix"/><feColorMatrix in="SourceAlpha" result="hardAlpha" values="0 0 0 0 0 0 0 0 0 0 0 0 0 0 0 0 0 0 127 0"/><feOffset dy="2"/><feGaussianBlur stdDeviation="4"/><feColorMatrix values="0 0 0 0 0 0 0 0 0 0 0 0 0 0 0 0 0 0 0.75 0"/><feBlend in2="BackgroundImageFix" result="effect1_dropShadow_601_4949"/><feBlend in="SourceGraphic" in2="effect1_dropShadow_601_4949" result="shape"/></filter></defs></svg>