<svg xmlns="http://www.w3.org/2000/svg" width="80" height="80" fill="none"><g><rect width="64" height="64" x="8" y="6" fill="none" rx="5"/><path fill="#E3E3F8" fill-rule="evenodd" d="M33.116 29.22c.379-.248.692-.866.502-1.302-.519.222-.494.733-.502 1.302Zm5.868 1.417c.412-.132.808-.593.585-1.071-.321.222-.527.527-.585 1.071Z" clip-rule="evenodd"/><path fill="#FDFDFD" fill-rule="evenodd" d="M27.454 37.462c0 .519.131 1.08.494 1.277 1.335.75 6.017.165 7.607-.19.833-.19 1.509-.807 2.291-1.145 1.764-.767 3.042-1.385 4.451-2.415 1.022-.75 2.646-2.86 2.819-4.12l-1.393-.314c-.033 1.418-.355 1.739-1.615 2.069-.85.23-2.506.28-3.371.131-1.146-.19-1.665-.79-2.184-1.475-1.006-1.335.222-2.266-1.369-2.357-1.673 2.052-4.623.577-5.917.371-.552.8-1.846 5.992-1.83 7.178.8-.271 1.302.025 2.02.306 2.538.98.32 1.846-.693 1.59-.692-.165-.906-.618-1.31-.906Zm3.321-11.844c1.03.198 1.945.627 2.819 1.063 1.426.71 1.681.61 1.813 1.6.016.18-.016.28.503.444.873.272-.503-.214 1.838-.206 1.393.009 4.582.569 5.612 1.22.429.272.346.618 1.797.577-.016-1.706-.47-4.253-1.137-5.819-.816-1.895-1.896-2.184-4.097-2.893-1.285-.412-5.06-.865-6.23-.14-1.096.684-1.302 1.5-2.324 2.934-.297.42-.404.742-.594 1.22Z" clip-rule="evenodd"/><path fill="#FDFDFD" fill-rule="evenodd" d="M39.85 29.12c.823.339-.042 2.523-1.188 1.995-.37-1.046.511-1.64.75-2.11-.494-.074-1.904-.296-2.324-.14-.544.206-.667 1.369-.387 1.912 1.319 2.588 7.145 2.036 6.527.025-.247-.816-.478-.948-1.31-1.228-.668-.222-1.335-.453-2.069-.453Zm-10.36-.288c.659.635 2.15.734 3.115.783.123-1.277.23-2.233 1.252-2.159.503.684.24 1.492-.288 2.011.898-.008 1.417-.684 1.286-1.665-.759-.544-3.058-1.632-4.212-1.788-.321.346-1.113 2.241-1.154 2.818Z" clip-rule="evenodd"/><path fill="#020202" fill-rule="evenodd" d="M27.94 36.992c.544-.05 1.961.362 2.077.824-.882.107-2.003.024-2.077-.824Zm-.487.47c.404.288.619.741 1.311.906 1.014.255 3.23-.61.692-1.59-.717-.28-1.22-.578-2.019-.306-.016-1.186 1.277-6.379 1.83-7.178 1.294.206 4.244 1.681 5.917-.371 1.591.09.363 1.022 1.369 2.357.519.684 1.038 1.286 2.184 1.475.865.149 2.521.1 3.37-.132 1.261-.33 1.583-.65 1.616-2.068l1.393.313c-.173 1.261-1.797 3.37-2.819 4.12-1.41 1.031-2.687 1.65-4.45 2.416-.784.338-1.46.956-2.292 1.145-1.59.355-6.272.94-7.607.19-.363-.198-.495-.758-.495-1.278Zm11.53-6.825c.059-.544.265-.849.586-1.071.222.478-.173.94-.585 1.071Zm.866-1.516c.734 0 1.401.23 2.069.453.832.28 1.063.412 1.31 1.228.618 2.011-5.209 2.563-6.527-.025-.28-.544-.157-1.706.387-1.912.42-.156 1.83.066 2.324.14-.239.47-1.12 1.064-.75 2.11 1.146.528 2.011-1.656 1.187-1.994Zm-6.733.099c.008-.569-.017-1.08.502-1.302.19.436-.123 1.054-.502 1.302Zm-3.627-.388c.041-.577.833-2.472 1.154-2.818 1.154.156 3.453 1.244 4.212 1.788.132.98-.388 1.657-1.286 1.665.527-.52.791-1.327.288-2.011-1.022-.074-1.129.882-1.252 2.16-.965-.05-2.456-.15-3.116-.784Zm-.824-.66c-.305-.84-.305-2.15.99-2.257l-.66 1.838c-.173.395-.173.305-.33.42Zm2.11-2.554c.19-.478.297-.8.593-1.22 1.022-1.434 1.228-2.25 2.325-2.934 1.17-.725 4.945-.272 6.23.14 2.2.709 3.28.998 4.096 2.893.668 1.566 1.121 4.113 1.138 5.819-1.45.041-1.368-.305-1.797-.577-1.03-.651-4.22-1.212-5.612-1.22-2.341-.008-.965.478-1.838.206-.52-.165-.487-.264-.503-.445-.132-.989-.387-.89-1.813-1.599-.874-.437-1.789-.865-2.819-1.063Zm14.588-.404c-.157-.52.132-.486.635-.84.288-.207.519-.42.873-.619 1.327-.741 3.8-.865 4.855.017.428.354 1.129 1.047 1.022 1.953-.223 1.805-1.46 2.794-2.473 3.618-1.03.84-2.744 1.706-4.517 1.13-.148-.363-.032-2.663-.206-3.512-.156-.758-.074-.84.363-1.294 1.286-1.335 4.072-2.307 5.654-1.162.668.495.478.684.824 1.064.429-.462-.37-2.011-3.321-1.912-2.003.065-2.868 1.631-3.71 1.557Zm-12-4.69c.041-1.145 1.096-3.519 2.151-4.343 1.277-.989 2.613-1.92 4.574-.808.486.273.462.413.511 1.088.041.652-.016.89-.181 1.418-1.302 4.203-2.39 1.788-6.56 2.786.156-1.368 1.343-2.588 2.002-3.223 1.13-1.096 1.945-1.805 3.643-1.574.47.783.52 1.277-.05 2.192-.758 1.22-.947 1.146-.832 1.978.594-.148.775-.725 1.047-1.302 1.656-3.461-.75-3.882-2.225-3.247-.99.42-2.753 2.365-3.33 3.536-.115.23-.24.527-.346.783l-.404.717Zm6.527.174c.173-1.03 1.195-1.286 1.195-4.46 0-1.367-1.68-2.595-3.881-1.68-1.888.774-2.176 1.368-3.182 2.884-.948 1.434-.915 3.008-1.73 4.335-.24.38-.454.511-.718.89-.19.28-.33.635-.519.965-.387.634-.783 1.096-1.096 1.854-.989.025-1.821.041-1.92 1.063-.132 1.401.527 1.748.527 2.275-.008.569-2.316 6.305-1.673 9.725.181.94.8.948 1.789 1.063 2.381.289 5.472.19 7.607-.667l3.873-1.855c.981-.552 2.63-1.598 3.363-2.365.52-.536.791-.989 1.236-1.623.61-.89.627-.874.758-2.086.808.149 2.316.503 2.82.94-.058.569-.339.297-.339.808.322.008.857-.396.99-.841-.339-.495-.693-.412-1.18-.808.388-.305 1.089-.445 1.624-.667 1.154-.478 3.124-1.929 3.61-3.248.388-1.063.1-2.835-.527-3.527-.66-.725-2.193-1.096-3.445-1.096-1.492 0-3.033 1.071-4.237 1.533-.461-.404-.494-.866-.832-1.31-.387-.528-2.91-1.847-4.113-2.102Z" clip-rule="evenodd"/><path fill="#FDF2F2" fill-rule="evenodd" d="M45.363 25.214c.84.074 1.706-1.492 3.709-1.558 2.95-.098 3.75 1.451 3.321 1.913-.346-.38-.156-.57-.824-1.064-1.582-1.145-4.368-.173-5.654 1.162-.437.454-.519.536-.362 1.294.173.85.057 3.149.206 3.511 1.772.577 3.486-.288 4.516-1.129 1.014-.824 2.25-1.813 2.473-3.618.107-.907-.594-1.599-1.022-1.953-1.055-.882-3.528-.758-4.855-.017-.354.198-.585.412-.873.619-.503.354-.792.32-.635.84Z" clip-rule="evenodd"/><path fill="#FEF3F3" fill-rule="evenodd" d="m33.363 20.525.404-.717c.107-.256.23-.553.346-.783.577-1.17 2.34-3.116 3.33-3.536 1.475-.635 3.882-.214 2.225 3.247-.272.577-.453 1.154-1.047 1.302-.115-.832.075-.758.833-1.978.568-.915.519-1.409.05-2.192-1.699-.23-2.515.478-3.644 1.574-.659.635-1.846 1.855-2.002 3.223 4.17-.997 5.258 1.417 6.56-2.786.165-.527.223-.767.181-1.418-.05-.675-.024-.815-.51-1.087-1.962-1.113-3.297-.182-4.575.807-1.055.824-2.11 3.198-2.151 4.344Z" clip-rule="evenodd"/><path fill="#EFEFEF" fill-rule="evenodd" d="M28.665 28.173c.157-.115.157-.025.33-.42l.66-1.838c-1.295.107-1.295 1.417-.99 2.258Z" clip-rule="evenodd"/><path fill="#FAF1F1" fill-rule="evenodd" d="M30.017 37.816c-.116-.462-1.533-.874-2.077-.824.074.849 1.195.93 2.077.824Z" clip-rule="evenodd"/><path fill="#2AF" d="M15.278 60a.2.2 0 0 1-.147-.057.2.2 0 0 1-.058-.148v-5.323a.2.2 0 0 1 .058-.148.2.2 0 0 1 .147-.057h3.825a.2.2 0 0 1 .147.057.2.2 0 0 1 .058.148v.77a.2.2 0 0 1-.058.147.2.2 0 0 1-.147.057H16.49v1.106h2.433c.06 0 .109.022.147.066a.2.2 0 0 1 .057.147v.712a.22.22 0 0 1-.057.148.2.2 0 0 1-.147.057H16.49v1.139h2.678a.2.2 0 0 1 .148.057.2.2 0 0 1 .057.147v.77a.2.2 0 0 1-.057.148.2.2 0 0 1-.148.057h-3.89Zm6.5.082a1.97 1.97 0 0 1-.712-.123 1.557 1.557 0 0 1-.54-.377 1.828 1.828 0 0 1-.344-.606 2.85 2.85 0 0 1-.14-.819 5.91 5.91 0 0 1 0-.573c.011-.295.058-.56.14-.795a1.82 1.82 0 0 1 .344-.605c.147-.17.327-.298.54-.386.213-.092.45-.139.713-.139a1.637 1.637 0 0 1 1.204.483V54.39a.2.2 0 0 1 .057-.148.2.2 0 0 1 .148-.057h.999a.19.19 0 0 1 .139.057.187.187 0 0 1 .065.148v5.405c0 .06-.021.11-.065.148a.19.19 0 0 1-.14.057h-.925a.2.2 0 0 1-.147-.057.2.2 0 0 1-.058-.148v-.262c-.13.158-.3.29-.507.393-.208.104-.464.156-.77.156Zm.443-1.098c.186 0 .33-.038.434-.114a.702.702 0 0 0 .238-.311 1.12 1.12 0 0 0 .09-.41 6.2 6.2 0 0 0 0-.614.954.954 0 0 0-.09-.377.661.661 0 0 0-.246-.287.727.727 0 0 0-.426-.114.743.743 0 0 0-.434.114.617.617 0 0 0-.221.312 1.75 1.75 0 0 0-.082.434 2.694 2.694 0 0 0 0 .508c.01.158.038.303.082.434a.617.617 0 0 0 .221.31.74.74 0 0 0 .434.115ZM25.561 60a.2.2 0 0 1-.147-.057.2.2 0 0 1-.057-.148v-3.85a.2.2 0 0 1 .057-.147.2.2 0 0 1 .147-.057h.967a.19.19 0 0 1 .14.057.187.187 0 0 1 .065.148v3.85c0 .06-.022.108-.066.147a.19.19 0 0 1-.14.057h-.966Zm-.008-4.873a.2.2 0 0 1-.147-.057.2.2 0 0 1-.057-.148v-.729a.2.2 0 0 1 .057-.147.187.187 0 0 1 .147-.066h.975c.06 0 .109.022.147.066a.187.187 0 0 1 .066.147v.73c0 .06-.022.108-.066.147a.2.2 0 0 1-.147.057h-.975ZM29.871 60a2.31 2.31 0 0 1-.91-.164 1.262 1.262 0 0 1-.58-.524c-.137-.24-.206-.549-.206-.925v-1.573h-.639a.229.229 0 0 1-.155-.057.2.2 0 0 1-.057-.148v-.663a.2.2 0 0 1 .057-.148.229.229 0 0 1 .155-.057h.64V54.39a.2.2 0 0 1 .057-.148.218.218 0 0 1 .147-.057h.95a.2.2 0 0 1 .148.057.2.2 0 0 1 .057.148v1.351h1.024a.2.2 0 0 1 .147.057.2.2 0 0 1 .057.148v.663a.2.2 0 0 1-.057.148.2.2 0 0 1-.147.057h-1.024v1.458c0 .186.035.333.106.442.071.11.191.164.36.164h.631a.2.2 0 0 1 .148.057.2.2 0 0 1 .057.148v.712a.2.2 0 0 1-.057.148.2.2 0 0 1-.148.057h-.761Zm3.659.082c-.459 0-.846-.074-1.163-.221a1.662 1.662 0 0 1-.72-.63 2.17 2.17 0 0 1-.28-.992 7.4 7.4 0 0 1 0-.737c.023-.388.12-.718.296-.99.174-.274.417-.484.729-.632.316-.147.696-.22 1.138-.22.448 0 .827.073 1.138.22.317.148.563.358.737.631.175.273.273.603.295.991a7.202 7.202 0 0 1 0 .737 2.11 2.11 0 0 1-.286.991 1.602 1.602 0 0 1-.721.63c-.311.148-.699.222-1.163.222Zm0-1c.246 0 .423-.073.532-.22.115-.148.18-.369.197-.664.005-.082.008-.19.008-.327s-.003-.246-.008-.328c-.017-.29-.082-.508-.197-.655-.109-.153-.286-.23-.532-.23-.24 0-.418.077-.532.23-.115.147-.178.366-.189.655a5.135 5.135 0 0 0-.008.328c0 .136.003.245.008.327.011.295.074.516.189.664.114.147.292.22.532.22Zm3.189.918a.2.2 0 0 1-.148-.057.2.2 0 0 1-.057-.148v-3.85a.19.19 0 0 1 .057-.138.187.187 0 0 1 .148-.066h.942c.06 0 .109.022.147.066a.19.19 0 0 1 .057.139v.328c.148-.17.322-.3.524-.394.208-.092.44-.139.697-.139h.36a.19.19 0 0 1 .14.057.187.187 0 0 1 .065.148v.843a.203.203 0 0 1-.066.148.19.19 0 0 1-.139.057h-.794c-.224 0-.399.063-.525.189-.12.12-.18.292-.18.516v2.096a.19.19 0 0 1-.065.148.2.2 0 0 1-.148.057H36.72Zm5.44.082c-.405 0-.762-.074-1.073-.221a1.807 1.807 0 0 1-.746-.64 2.017 2.017 0 0 1-.295-1.015 5.474 5.474 0 0 1-.008-.327c0-.137.003-.249.008-.336.017-.399.115-.737.295-1.016.18-.284.426-.5.737-.647a2.533 2.533 0 0 1 1.081-.22c.377 0 .7.054.967.163.267.104.486.235.655.393.17.159.295.322.377.492.087.163.134.308.14.434a.177.177 0 0 1-.058.147.218.218 0 0 1-.148.057h-1.04a.212.212 0 0 1-.14-.04.378.378 0 0 1-.09-.123c-.065-.17-.15-.29-.253-.36a.642.642 0 0 0-.385-.107c-.218 0-.388.07-.508.213-.114.142-.177.36-.188.655a9.341 9.341 0 0 0 0 .581c.01.3.074.52.188.656.12.136.29.204.508.204a.67.67 0 0 0 .401-.106c.099-.071.178-.191.238-.36a.378.378 0 0 1 .09-.123.212.212 0 0 1 .14-.041h1.04c.054 0 .103.022.147.065a.156.156 0 0 1 .057.14 1.104 1.104 0 0 1-.082.327 1.86 1.86 0 0 1-.639.77 2.092 2.092 0 0 1-.598.278 2.838 2.838 0 0 1-.819.107Zm4.888 0c-.459 0-.847-.074-1.163-.221a1.662 1.662 0 0 1-.721-.63 2.17 2.17 0 0 1-.278-.992 7.4 7.4 0 0 1 0-.737c.021-.388.12-.718.294-.99.175-.274.418-.484.73-.632.316-.147.695-.22 1.138-.22.447 0 .827.073 1.138.22.317.148.562.358.737.631.175.273.273.603.295.991a7.202 7.202 0 0 1 0 .737 2.11 2.11 0 0 1-.287.991 1.602 1.602 0 0 1-.72.63c-.312.148-.7.222-1.163.222Zm0-1c.245 0 .423-.073.532-.22.115-.148.18-.369.197-.664.005-.082.008-.19.008-.327s-.003-.246-.008-.328c-.017-.29-.082-.508-.197-.655-.11-.153-.287-.23-.532-.23-.24 0-.418.077-.533.23-.114.147-.177.366-.188.655a5.135 5.135 0 0 0-.008.328c0 .136.002.245.008.327.01.295.074.516.188.664.115.147.292.22.533.22Zm3.188.918a.2.2 0 0 1-.147-.057.2.2 0 0 1-.057-.148v-3.85a.2.2 0 0 1 .057-.147.2.2 0 0 1 .147-.057h.942a.2.2 0 0 1 .148.057.2.2 0 0 1 .057.148v.311c.142-.17.328-.311.557-.426.23-.114.5-.172.81-.172.317 0 .596.071.836.213.246.142.437.352.573.63.142.274.213.61.213 1.008v2.285a.19.19 0 0 1-.065.148.19.19 0 0 1-.14.057h-1.031a.218.218 0 0 1-.148-.057.2.2 0 0 1-.057-.148V57.56c0-.256-.063-.453-.188-.59-.12-.141-.3-.212-.541-.212a.715.715 0 0 0-.54.213c-.132.136-.197.333-.197.59v2.235c0 .06-.022.11-.066.148a.19.19 0 0 1-.139.057h-1.024Zm5.69 0a.218.218 0 0 1-.147-.057.2.2 0 0 1-.057-.148v-2.98h-.623a.2.2 0 0 1-.147-.058.2.2 0 0 1-.058-.148v-.663a.2.2 0 0 1 .058-.148.2.2 0 0 1 .147-.057h.623v-.262c0-.371.07-.669.213-.893a1.21 1.21 0 0 1 .622-.491 2.65 2.65 0 0 1 .958-.156h2.097a.19.19 0 0 1 .14.058.187.187 0 0 1 .065.147v.663c0 .06-.022.11-.066.148a.19.19 0 0 1-.14.057h-2.03c-.186 0-.317.044-.393.131-.071.088-.107.213-.107.377v.221h2.53a.19.19 0 0 1 .14.057.187.187 0 0 1 .066.148v3.85c0 .06-.022.108-.066.147a.19.19 0 0 1-.14.057h-.95a.2.2 0 0 1-.147-.057.2.2 0 0 1-.057-.148v-2.98H57.08v2.98a.2.2 0 0 1-.057.148.2.2 0 0 1-.148.057h-.95Zm6.936 1.802c-.42 0-.77-.055-1.049-.164a2.086 2.086 0 0 1-.655-.393 1.573 1.573 0 0 1-.344-.459 1.03 1.03 0 0 1-.115-.352.166.166 0 0 1 .058-.147.229.229 0 0 1 .155-.058h1.04c.05 0 .09.011.123.033a.267.267 0 0 1 .09.131c.028.06.063.123.107.188a.51.51 0 0 0 .196.156.794.794 0 0 0 .352.066c.164 0 .3-.028.41-.082a.486.486 0 0 0 .246-.254 1.1 1.1 0 0 0 .082-.467v-.549a1.44 1.44 0 0 1-.484.336 1.85 1.85 0 0 1-.712.123 2.04 2.04 0 0 1-.737-.123 1.317 1.317 0 0 1-.533-.368 1.814 1.814 0 0 1-.335-.598 3.174 3.174 0 0 1-.14-.811 5.6 5.6 0 0 1 0-.426c.017-.295.063-.56.14-.795.076-.234.185-.436.327-.605.148-.17.328-.298.54-.386a1.83 1.83 0 0 1 .738-.139c.295 0 .546.058.753.172a1.6 1.6 0 0 1 .525.418v-.303a.19.19 0 0 1 .057-.14.187.187 0 0 1 .147-.065h.942c.06 0 .11.022.148.066a.178.178 0 0 1 .065.139v3.94c0 .414-.085.764-.254 1.048-.17.284-.412.5-.729.647-.316.147-.701.22-1.154.22Zm-.058-2.957a.727.727 0 0 0 .426-.114.658.658 0 0 0 .238-.295c.054-.12.084-.249.09-.385.005-.06.008-.145.008-.254 0-.11-.003-.191-.008-.246a1.035 1.035 0 0 0-.09-.393.61.61 0 0 0-.238-.287.727.727 0 0 0-.426-.114.743.743 0 0 0-.434.114.666.666 0 0 0-.23.312 1.75 1.75 0 0 0-.081.434c-.006.12-.006.243 0 .368.01.159.038.303.082.434a.664.664 0 0 0 .23.312.74.74 0 0 0 .433.114Z"/></g><defs><filter id="a" width="80" height="80" x="0" y="0" color-interpolation-filters="sRGB" filterUnits="userSpaceOnUse"><feFlood flood-opacity="0" result="BackgroundImageFix"/><feColorMatrix in="SourceAlpha" result="hardAlpha" values="0 0 0 0 0 0 0 0 0 0 0 0 0 0 0 0 0 0 127 0"/><feOffset dy="2"/><feGaussianBlur stdDeviation="4"/><feColorMatrix values="0 0 0 0 0 0 0 0 0 0 0 0 0 0 0 0 0 0 0.75 0"/><feBlend in2="BackgroundImageFix" result="effect1_dropShadow_602_752"/><feBlend in="SourceGraphic" in2="effect1_dropShadow_602_752" result="shape"/></filter></defs></svg>