<svg xmlns="http://www.w3.org/2000/svg" width="80" height="80" fill="rgba(0,0,255,0.2)"><g><rect width="64" height="64" x="8" y="6" fill="#0D1117" rx="5"/><path fill="#8080F2" d="m33.746 23.009 6.07-3.506a.491.491 0 0 1 .492 0l6.071 3.506a.49.49 0 0 1 .246.425v7.01a.492.492 0 0 1-.246.426l-6.071 3.505a.49.49 0 0 1-.491 0l-6.071-3.505a.491.491 0 0 1-.246-.426v-7.01a.49.49 0 0 1 .246-.425Z"/><path fill="#4B32C3" d="M55.802 26.365 48.54 13.73c-.263-.457-.75-.793-1.278-.793H32.738c-.527 0-1.015.336-1.279.793l-7.261 12.606a1.503 1.503 0 0 0 0 1.49l7.261 12.53c.264.457.752.69 1.28.69h14.523c.527 0 1.015-.226 1.278-.683l7.262-12.55a1.425 1.425 0 0 0 0-1.45ZM49.79 32.44a.533.533 0 0 1-.273.45l-9.25 5.337a.527.527 0 0 1-.523 0l-9.257-5.337a.533.533 0 0 1-.273-.45V21.766c0-.186.11-.357.272-.45l9.249-5.337a.525.525 0 0 1 .523 0l9.258 5.337a.534.534 0 0 1 .274.45V32.44Z"/><path fill="#E5E5E5" d="M25.473 61a.25.25 0 0 1-.184-.072.25.25 0 0 1-.072-.184v-6.656a.25.25 0 0 1 .072-.184.25.25 0 0 1 .184-.072h4.782a.25.25 0 0 1 .184.072.25.25 0 0 1 .072.184v.963a.25.25 0 0 1-.072.184.25.25 0 0 1-.184.072h-3.267v1.382h3.042c.075 0 .136.027.184.082a.25.25 0 0 1 .072.184v.891a.27.27 0 0 1-.072.184.25.25 0 0 1-.184.072h-3.042v1.423h3.349a.25.25 0 0 1 .184.072.25.25 0 0 1 .072.184v.963a.25.25 0 0 1-.072.184.25.25 0 0 1-.184.072h-4.864Zm8.363.102c-.444 0-.823-.047-1.137-.143a2.799 2.799 0 0 1-.758-.369 1.732 1.732 0 0 1-.43-.44c-.095-.157-.147-.29-.154-.4a.207.207 0 0 1 .072-.184.245.245 0 0 1 .174-.082h1.168a.12.12 0 0 1 .05.01.522.522 0 0 1 .062.042c.089.047.178.109.266.184.09.068.192.13.308.184a.98.98 0 0 0 .42.082.947.947 0 0 0 .48-.112.366.366 0 0 0 .195-.338c0-.11-.03-.198-.092-.267-.061-.075-.188-.146-.379-.215a5.363 5.363 0 0 0-.84-.204 4.374 4.374 0 0 1-.931-.318 1.607 1.607 0 0 1-.615-.522 1.405 1.405 0 0 1-.215-.789c0-.273.09-.535.267-.788.177-.253.437-.457.778-.614.341-.164.761-.246 1.26-.246.395 0 .737.048 1.023.143.294.089.54.205.738.348.204.144.358.29.46.44.103.15.157.287.164.41a.235.235 0 0 1-.061.185.226.226 0 0 1-.164.071H34.88a.338.338 0 0 1-.082-.01.672.672 0 0 1-.072-.041 1.281 1.281 0 0 1-.245-.164 1.476 1.476 0 0 0-.287-.184.912.912 0 0 0-.41-.082c-.184 0-.327.04-.43.123a.408.408 0 0 0-.072.563c.062.075.181.143.359.205.184.061.468.13.85.205.47.075.846.198 1.126.368.28.164.478.359.594.584.116.218.174.45.174.696 0 .328-.099.618-.297.87-.19.253-.477.451-.86.595-.382.136-.846.204-1.392.204ZM37.56 61a.25.25 0 0 1-.184-.072.25.25 0 0 1-.072-.184v-6.758a.25.25 0 0 1 .072-.185.25.25 0 0 1 .184-.071h1.209a.25.25 0 0 1 .184.071.25.25 0 0 1 .072.185v6.758a.25.25 0 0 1-.072.184.25.25 0 0 1-.184.072H37.56Zm3.28 0a.25.25 0 0 1-.184-.072.25.25 0 0 1-.072-.184v-4.813a.25.25 0 0 1 .072-.184.25.25 0 0 1 .184-.072h1.208c.069 0 .127.024.175.072.054.048.081.11.081.184v4.813a.234.234 0 0 1-.081.184.237.237 0 0 1-.175.072H40.84Zm-.01-6.093a.25.25 0 0 1-.184-.071.25.25 0 0 1-.072-.185v-.911a.25.25 0 0 1 .072-.184.234.234 0 0 1 .184-.082h1.218c.076 0 .137.027.185.082a.234.234 0 0 1 .082.184v.911a.234.234 0 0 1-.082.184.25.25 0 0 1-.184.072h-1.22ZM44.08 61a.25.25 0 0 1-.184-.072.25.25 0 0 1-.072-.184v-4.813a.25.25 0 0 1 .072-.184.25.25 0 0 1 .184-.072h1.178a.25.25 0 0 1 .184.072.25.25 0 0 1 .072.184v.39c.177-.212.41-.39.696-.533a2.242 2.242 0 0 1 1.014-.215c.396 0 .744.088 1.044.266.307.178.547.44.717.788.178.342.266.762.266 1.26v2.857a.234.234 0 0 1-.082.184.237.237 0 0 1-.174.072h-1.29a.273.273 0 0 1-.184-.072.25.25 0 0 1-.072-.184v-2.795c0-.321-.078-.567-.235-.738-.15-.177-.376-.266-.676-.266-.28 0-.505.089-.676.266-.164.17-.246.417-.246.738v2.795a.234.234 0 0 1-.082.184.237.237 0 0 1-.174.072h-1.28Zm8.988 0c-.437 0-.816-.068-1.137-.205a1.578 1.578 0 0 1-.727-.655c-.17-.3-.256-.686-.256-1.157v-1.966h-.798a.286.286 0 0 1-.195-.072.25.25 0 0 1-.072-.184v-.83a.25.25 0 0 1 .072-.184.286.286 0 0 1 .195-.072h.798v-1.69a.25.25 0 0 1 .072-.184.273.273 0 0 1 .184-.071h1.188a.25.25 0 0 1 .184.071.25.25 0 0 1 .072.185v1.69h1.28a.25.25 0 0 1 .184.07.25.25 0 0 1 .072.185v.83a.25.25 0 0 1-.072.184.25.25 0 0 1-.184.072h-1.28v1.822c0 .233.044.417.133.553.089.137.24.205.45.205h.79a.25.25 0 0 1 .184.072.25.25 0 0 1 .071.184v.891a.25.25 0 0 1-.071.184.25.25 0 0 1-.185.072h-.952Z"/></g><defs><filter id="a" width="80" height="80" x="0" y="0" color-interpolation-filters="sRGB" filterUnits="userSpaceOnUse"><feFlood flood-opacity="0" result="BackgroundImageFix"/><feColorMatrix in="SourceAlpha" result="hardAlpha" values="0 0 0 0 0 0 0 0 0 0 0 0 0 0 0 0 0 0 127 0"/><feOffset dy="2"/><feGaussianBlur stdDeviation="4"/><feColorMatrix values="0 0 0 0 0 0 0 0 0 0 0 0 0 0 0 0 0 0 0.75 0"/><feBlend in2="BackgroundImageFix" result="effect1_dropShadow_602_477"/><feBlend in="SourceGraphic" in2="effect1_dropShadow_602_477" result="shape"/></filter></defs></svg>