<svg xmlns="http://www.w3.org/2000/svg" width="80" height="80" fill="rgba(0,0,255,0.2)"><g><rect width="64" height="64" x="8" y="6" fill="#0D1117" rx="5"/><path fill="#fff" d="M48.292 29.547a3.927 3.927 0 0 0 4.115-3.145 2.57 2.57 0 0 0-2.161-1.177c-2.272-.052-3.491 2.651-1.953 4.323l-.001-.001Zm-9.177-10.85 5.359-3.104-1.708-.963-7.391 4.281.589.328 1.119.629 2.032-1.176v.005Zm6.046-3.39c.089.027.161.1.188.188l2.484 7.593a.285.285 0 0 1-.125.344 5.062 5.062 0 0 0-2.317 5.693 5.066 5.066 0 0 0 5.401 3.703.299.299 0 0 1 .307.203l2.563 7.803a.3.3 0 0 1-.125.344l-7.859 4.771a.273.273 0 0 1-.131.036.262.262 0 0 1-.203-.041l-2.765-1.797a.311.311 0 0 1-.109-.129l-5.396-12.896-8.219 4.875c-.016.011-.037.021-.052.032a.293.293 0 0 1-.261-.021l-1.859-1.093a.283.283 0 0 1-.115-.381l7.953-15.749a.273.273 0 0 1 .135-.131l7.959-4.609a.293.293 0 0 1 .292-.005l2.254 1.267Zm-8.322 5.1-1.932-1.089-7.693 15.229 1.396.823 6.631-9.015a.281.281 0 0 1 .271-.12.288.288 0 0 1 .235.177l7.228 17.296 1.933 1.251-8.063-24.552h-.006Zm13.406 10.557c-2.256 0-3.787-2.292-2.923-4.376.86-2.083 3.563-2.619 5.156-1.025.595.593.928 1.396.928 2.235a3.158 3.158 0 0 1-3.161 3.166Z"/><path fill="#2AF" d="M30.672 60a.2.2 0 0 1-.147-.057.2.2 0 0 1-.057-.148v-5.323a.2.2 0 0 1 .057-.148.2.2 0 0 1 .148-.057h3.824a.2.2 0 0 1 .148.057.2.2 0 0 1 .057.148v.77a.2.2 0 0 1-.057.147.2.2 0 0 1-.148.057h-2.612v1.106h2.432c.06 0 .11.022.148.066a.2.2 0 0 1 .057.147v.712c0 .055-.02.104-.057.148a.2.2 0 0 1-.148.057h-2.432v1.139h2.678a.2.2 0 0 1 .147.057.2.2 0 0 1 .057.147v.77a.2.2 0 0 1-.057.148.2.2 0 0 1-.147.057h-3.89Zm4.764 0a.196.196 0 0 1-.13-.05.196.196 0 0 1-.042-.188.18.18 0 0 1 .033-.073l1.368-1.876-1.245-1.76a.434.434 0 0 1-.04-.066.267.267 0 0 1-.01-.066c0-.049.02-.09.058-.123a.18.18 0 0 1 .131-.057h1c.07 0 .122.017.155.05a.395.395 0 0 1 .082.09l.762 1.056.753-1.048c.022-.028.05-.058.082-.09.038-.039.093-.058.164-.058h.958c.05 0 .09.02.123.057a.155.155 0 0 1 .057.123.267.267 0 0 1-.008.066.185.185 0 0 1-.033.065l-1.277 1.761 1.384 1.876a.145.145 0 0 1 .04.065.272.272 0 0 1 .009.066.18.18 0 0 1-.058.13.177.177 0 0 1-.13.05h-1.04c-.066 0-.115-.014-.148-.041a1.092 1.092 0 0 1-.082-.09l-.827-1.122-.835 1.122-.082.082c-.033.033-.085.049-.156.049h-1.016Zm5.192 1.556a.2.2 0 0 1-.147-.057.2.2 0 0 1-.058-.148v-5.405a.2.2 0 0 1 .058-.148.2.2 0 0 1 .147-.057h.925a.19.19 0 0 1 .14.057.187.187 0 0 1 .065.148v.303a1.45 1.45 0 0 1 .5-.418c.207-.114.464-.172.77-.172.273 0 .513.044.72.131.208.082.385.205.533.369.147.164.262.363.344.598.087.235.136.505.147.81a6.05 6.05 0 0 1 0 .607 2.71 2.71 0 0 1-.14.794 1.737 1.737 0 0 1-.343.598 1.55 1.55 0 0 1-.54.385 1.847 1.847 0 0 1-.721.13c-.268 0-.503-.046-.705-.138a1.373 1.373 0 0 1-.491-.41v1.818a.2.2 0 0 1-.057.148.2.2 0 0 1-.148.057h-.999Zm1.957-2.572c.186 0 .33-.038.434-.114a.618.618 0 0 0 .222-.311 1.54 1.54 0 0 0 .09-.434c.01-.17.01-.339 0-.508a1.533 1.533 0 0 0-.09-.434.618.618 0 0 0-.221-.312c-.104-.076-.249-.114-.435-.114-.18 0-.325.04-.434.123a.652.652 0 0 0-.237.303c-.05.125-.077.262-.082.41a5.729 5.729 0 0 0 0 .613c.005.137.035.265.09.385.055.115.137.21.246.287.109.07.248.106.417.106Zm5.02 1.098c-.459 0-.847-.074-1.163-.221a1.662 1.662 0 0 1-.721-.63 2.171 2.171 0 0 1-.278-.992 7.532 7.532 0 0 1 0-.737c.021-.388.12-.718.294-.99.175-.274.418-.484.73-.632.316-.147.695-.22 1.138-.22.447 0 .827.073 1.138.22.317.148.563.358.737.631.175.273.273.603.295.991a7.532 7.532 0 0 1 0 .737 2.11 2.11 0 0 1-.287.991 1.602 1.602 0 0 1-.72.63c-.312.148-.7.222-1.163.222Zm0-1c.245 0 .423-.073.532-.22.115-.148.18-.369.197-.664.005-.082.008-.19.008-.327s-.003-.246-.008-.328c-.017-.29-.082-.508-.197-.655-.11-.153-.287-.23-.532-.23-.24 0-.418.077-.533.23-.114.147-.177.366-.188.655a5.135 5.135 0 0 0-.008.328c0 .136.003.245.008.327.01.295.074.516.188.664.115.147.292.22.533.22Z"/></g><defs><filter id="a" width="80" height="80" x="0" y="0" color-interpolation-filters="sRGB" filterUnits="userSpaceOnUse"><feFlood flood-opacity="0" result="BackgroundImageFix"/><feColorMatrix in="SourceAlpha" result="hardAlpha" values="0 0 0 0 0 0 0 0 0 0 0 0 0 0 0 0 0 0 127 0"/><feOffset dy="2"/><feGaussianBlur stdDeviation="4"/><feColorMatrix values="0 0 0 0 0 0 0 0 0 0 0 0 0 0 0 0 0 0 0.75 0"/><feBlend in2="BackgroundImageFix" result="effect1_dropShadow_602_1931"/><feBlend in="SourceGraphic" in2="effect1_dropShadow_602_1931" result="shape"/></filter></defs></svg>