<svg xmlns="http://www.w3.org/2000/svg" width="80" height="80" fill="none"><g filter="url(#a)"><rect width="64" height="64" x="8" y="6" fill="none" rx="5"/><path fill="#fff" d="M24.208 29.57v-3.56h4.447v-.21h-4.447v-3.249h4.728v-.208H24v7.435h4.977v-.208h-4.769Zm8.779-5.144-1.844 2.427-1.801-2.427h-.27l1.947 2.583-2.135 2.77h.25l2.01-2.614 2.02 2.614h.26l-2.145-2.77 1.958-2.583h-.25Zm1.062 7.186v-3.333h.02c.126.486.372.877.74 1.172.368.295.837.442 1.406.442.368 0 .694-.074.979-.224.284-.149.522-.352.713-.609.19-.256.337-.555.437-.895a3.75 3.75 0 0 0 .151-1.073c0-.402-.052-.774-.156-1.114a2.667 2.667 0 0 0-.453-.885 2.083 2.083 0 0 0-.718-.583 2.124 2.124 0 0 0-.953-.209c-.271 0-.523.04-.755.12a2.02 2.02 0 0 0-.62.339c-.18.145-.337.317-.468.515a2.374 2.374 0 0 0-.302.65h-.021v-1.499h-.209v7.186h.209Zm2.166-1.916c-.653 0-1.177-.224-1.573-.672-.395-.448-.593-1.092-.593-1.932 0-.347.048-.677.146-.99.097-.311.237-.586.421-.822s.412-.423.682-.562a1.98 1.98 0 0 1 .917-.208c.347 0 .65.07.91.208.261.139.477.328.647.567.17.24.298.514.385.823.087.31.13.637.13.984a3.7 3.7 0 0 1-.12.932c-.08.31-.203.587-.37.833a2 2 0 0 1-.64.604c-.26.156-.574.235-.942.235Zm3.426.083v-3.03c0-.292.041-.577.125-.854.083-.278.211-.523.385-.735.173-.211.394-.378.661-.5.268-.12.585-.171.953-.15v-.21a2.579 2.579 0 0 0-.838.105c-.24.076-.446.18-.62.312a1.595 1.595 0 0 0-.416.463 2.07 2.07 0 0 0-.23.568h-.02v-1.323h-.209v5.353h.209Zm2.384-2.635h4.478a3.712 3.712 0 0 0-.11-1.062 2.643 2.643 0 0 0-.416-.906 2.12 2.12 0 0 0-.74-.635c-.301-.16-.66-.24-1.077-.24-.298 0-.59.063-.875.188a2.175 2.175 0 0 0-.75.547c-.215.24-.388.532-.52.88a3.325 3.325 0 0 0-.198 1.187c0 .395.045.765.136 1.109a2.6 2.6 0 0 0 .416.895c.188.254.429.45.724.588.295.14.65.205 1.067.198.611 0 1.125-.171 1.541-.515.417-.344.663-.828.74-1.453h-.209c-.09.59-.32 1.033-.692 1.328-.371.295-.838.442-1.4.442-.383 0-.705-.065-.97-.197a1.754 1.754 0 0 1-.645-.542 2.363 2.363 0 0 1-.37-.807 4.344 4.344 0 0 1-.13-1.005Zm4.27-.208h-4.27c.021-.375.09-.712.209-1.01.118-.299.272-.554.463-.765.19-.212.413-.374.666-.485.254-.11.526-.166.818-.166.347 0 .653.064.916.192.264.129.484.304.661.526.178.222.311.481.401.776.09.295.136.606.136.932Zm4.53-.927h.208c0-.597-.174-1.03-.52-1.301-.348-.271-.82-.407-1.417-.407a2.49 2.49 0 0 0-.843.125c-.23.084-.417.191-.563.323-.146.132-.25.278-.312.438-.063.16-.094.312-.094.458 0 .291.052.524.156.697.104.174.268.31.49.407.152.069.326.132.52.187.195.055.42.115.677.177.23.056.455.111.677.167.222.055.418.13.588.223.17.094.31.214.417.36.108.146.161.337.161.573 0 .229-.053.423-.161.583-.108.16-.245.29-.411.39-.167.1-.353.174-.558.219a2.773 2.773 0 0 1-.598.067c-.632 0-1.116-.14-1.453-.421-.337-.281-.505-.724-.505-1.328h-.208c0 .673.182 1.166.547 1.479.364.312.904.468 1.619.468.229 0 .46-.026.692-.078.233-.052.441-.137.625-.255s.333-.27.448-.458c.114-.188.172-.417.172-.687 0-.257-.05-.465-.151-.625a1.269 1.269 0 0 0-.396-.396 2.103 2.103 0 0 0-.552-.244 32.19 32.19 0 0 0-.62-.172 63.574 63.574 0 0 0-.765-.198 4.646 4.646 0 0 1-.61-.198 1.033 1.033 0 0 1-.431-.328c-.108-.142-.162-.345-.162-.61 0-.048.014-.135.042-.26a.934.934 0 0 1 .198-.38c.104-.128.264-.243.479-.343.215-.101.51-.151.885-.151.257 0 .491.027.703.083.212.056.394.144.547.266.152.121.27.275.354.463.083.187.125.416.125.687Zm4.82 0h.21c0-.597-.174-1.03-.521-1.301-.348-.271-.82-.407-1.417-.407a2.49 2.49 0 0 0-.843.125c-.23.084-.417.191-.562.323a1.16 1.16 0 0 0-.313.438c-.062.16-.094.312-.094.458 0 .291.053.524.157.697.104.174.267.31.49.407.152.069.325.132.52.187.194.055.42.115.677.177.229.056.454.111.676.167.223.055.419.13.589.223.17.094.309.214.416.36.108.146.162.337.162.573 0 .229-.054.423-.162.583-.107.16-.244.29-.411.39-.167.1-.352.174-.557.219a2.774 2.774 0 0 1-.599.067c-.632 0-1.116-.14-1.453-.421-.336-.281-.505-.724-.505-1.328h-.208c0 .673.182 1.166.547 1.479.364.312.904.468 1.62.468.228 0 .459-.026.692-.078.232-.052.44-.137.624-.255s.334-.27.448-.458c.115-.188.172-.417.172-.687 0-.257-.05-.465-.151-.625-.1-.16-.233-.292-.396-.396a2.1 2.1 0 0 0-.552-.244 31.99 31.99 0 0 0-.62-.172 59.04 59.04 0 0 0-.765-.198 4.649 4.649 0 0 1-.609-.198 1.033 1.033 0 0 1-.432-.328c-.108-.142-.161-.345-.161-.61 0-.048.014-.135.041-.26a.934.934 0 0 1 .198-.38c.104-.128.264-.243.48-.343.214-.101.51-.151.884-.151.257 0 .491.027.703.083.212.056.394.144.547.266.153.121.27.275.354.463.083.187.125.416.125.687Z"/><path fill="#2AF" d="M19.973 61a.25.25 0 0 1-.184-.072.25.25 0 0 1-.072-.184v-6.656a.25.25 0 0 1 .072-.184.25.25 0 0 1 .184-.072h4.782a.25.25 0 0 1 .184.072.25.25 0 0 1 .072.184v.963a.25.25 0 0 1-.072.184.25.25 0 0 1-.184.072h-3.267v1.382h3.042c.075 0 .136.027.184.082a.25.25 0 0 1 .072.184v.891a.27.27 0 0 1-.072.184.25.25 0 0 1-.184.072h-3.042v1.423h3.349a.25.25 0 0 1 .184.072.25.25 0 0 1 .072.184v.963a.25.25 0 0 1-.072.184.25.25 0 0 1-.184.072h-4.864Zm5.956 0a.245.245 0 0 1-.164-.061.245.245 0 0 1-.05-.236.226.226 0 0 1 .04-.092l1.71-2.345-1.556-2.202a.548.548 0 0 1-.052-.082.338.338 0 0 1-.01-.081c0-.062.024-.113.072-.154a.225.225 0 0 1 .164-.072h1.249c.089 0 .154.02.195.062a.493.493 0 0 1 .102.112l.952 1.321.942-1.31c.028-.035.062-.072.103-.113.047-.048.116-.072.205-.072h1.198c.061 0 .112.024.153.072.048.04.072.092.072.154a.338.338 0 0 1-.01.081.23.23 0 0 1-.041.082l-1.598 2.202 1.73 2.345a.18.18 0 0 1 .052.082c.007.027.01.054.01.082a.226.226 0 0 1-.235.225h-1.3c-.083 0-.144-.017-.185-.051a1.4 1.4 0 0 1-.102-.113l-1.035-1.403-1.044 1.403-.103.103c-.04.04-.105.061-.194.061h-1.27Zm6.491 1.946a.25.25 0 0 1-.184-.072.25.25 0 0 1-.072-.184v-6.76a.25.25 0 0 1 .072-.184.25.25 0 0 1 .184-.072h1.157c.069 0 .127.024.174.072.055.048.082.11.082.184v.38c.157-.212.366-.387.625-.523.26-.143.58-.215.962-.215.342 0 .642.054.902.164.259.102.48.256.665.46.184.205.328.454.43.748.11.294.17.631.185 1.014a7.656 7.656 0 0 1 0 .758c-.014.368-.072.7-.174.993a2.17 2.17 0 0 1-.43.747c-.185.205-.41.365-.676.482-.26.109-.56.163-.902.163a2.09 2.09 0 0 1-.88-.174 1.718 1.718 0 0 1-.615-.512v2.274a.25.25 0 0 1-.071.184.25.25 0 0 1-.185.072H32.42Zm2.447-3.216c.233 0 .414-.047.543-.143a.773.773 0 0 0 .277-.39c.061-.163.099-.344.112-.542a4.943 4.943 0 0 0 0-.635 1.915 1.915 0 0 0-.112-.543.773.773 0 0 0-.277-.389c-.13-.095-.31-.143-.542-.143-.226 0-.407.051-.543.154a.815.815 0 0 0-.297.378 1.556 1.556 0 0 0-.103.512 7.24 7.24 0 0 0 0 .768c.007.171.045.332.113.482a.91.91 0 0 0 .307.358.94.94 0 0 0 .523.133ZM38.88 61a.25.25 0 0 1-.184-.072.25.25 0 0 1-.072-.184v-4.813c0-.068.024-.126.072-.174a.234.234 0 0 1 .184-.082h1.178c.075 0 .136.028.184.082a.237.237 0 0 1 .072.174v.41c.184-.212.403-.376.655-.492.26-.116.55-.174.87-.174h.451c.068 0 .126.024.174.072.055.048.082.11.082.184v1.055c0 .068-.027.13-.082.184a.237.237 0 0 1-.174.072h-.993c-.28 0-.498.078-.656.235-.15.15-.225.366-.225.646v2.621a.234.234 0 0 1-.082.184.25.25 0 0 1-.184.072h-1.27Zm6.812.102c-.806 0-1.447-.218-1.925-.655-.478-.437-.727-1.085-.748-1.946v-.358c.02-.54.14-1 .358-1.382.226-.39.533-.683.922-.881.396-.205.857-.307 1.383-.307.6 0 1.095.12 1.484.358.396.24.693.563.891.973.198.41.297.877.297 1.403v.246a.234.234 0 0 1-.082.184.237.237 0 0 1-.174.072h-3.277v.071c.007.198.041.38.103.543a.772.772 0 0 0 .758.532.82.82 0 0 0 .337-.06c.096-.049.175-.1.236-.155a2.12 2.12 0 0 0 .143-.153.482.482 0 0 1 .144-.123c.04-.02.102-.03.184-.03h1.27c.068 0 .123.02.164.06.047.035.068.086.061.154-.007.116-.065.256-.174.42a2.16 2.16 0 0 1-.481.492 2.591 2.591 0 0 1-.779.389 3.549 3.549 0 0 1-1.095.153Zm-.87-3.307h1.73v-.02c0-.22-.034-.41-.102-.574a.752.752 0 0 0-.297-.379.814.814 0 0 0-.471-.133.813.813 0 0 0-.471.133.86.86 0 0 0-.287.379 1.482 1.482 0 0 0-.103.573v.02Zm6.683 3.307c-.443 0-.822-.047-1.136-.143a2.799 2.799 0 0 1-.758-.369 1.732 1.732 0 0 1-.43-.44c-.095-.157-.147-.29-.154-.4a.207.207 0 0 1 .072-.184.245.245 0 0 1 .174-.082h1.168a.12.12 0 0 1 .05.01.522.522 0 0 1 .062.042c.089.047.178.109.266.184.09.068.192.13.308.184a.98.98 0 0 0 .42.082.947.947 0 0 0 .48-.112.366.366 0 0 0 .195-.338c0-.11-.03-.198-.092-.267-.061-.075-.188-.146-.379-.215a5.363 5.363 0 0 0-.84-.204 4.374 4.374 0 0 1-.931-.318 1.607 1.607 0 0 1-.615-.522 1.405 1.405 0 0 1-.215-.789c0-.273.09-.535.267-.788.177-.253.436-.457.778-.614.341-.164.761-.246 1.26-.246.395 0 .737.048 1.023.143.294.089.54.205.738.348.204.144.358.29.46.44.103.15.157.287.164.41a.235.235 0 0 1-.061.185.226.226 0 0 1-.164.071H52.55a.338.338 0 0 1-.082-.01.672.672 0 0 1-.072-.041 1.281 1.281 0 0 1-.245-.164 1.476 1.476 0 0 0-.287-.184.912.912 0 0 0-.41-.082c-.184 0-.327.04-.43.123a.408.408 0 0 0-.072.563c.062.075.181.143.359.205.184.061.468.13.85.205.47.075.846.198 1.126.368.28.164.478.359.594.584.116.218.174.45.174.696 0 .328-.099.618-.297.87-.19.253-.477.451-.86.595-.382.136-.846.204-1.393.204Zm5.66 0c-.443 0-.822-.047-1.136-.143a2.799 2.799 0 0 1-.758-.369 1.732 1.732 0 0 1-.43-.44c-.096-.157-.147-.29-.154-.4a.207.207 0 0 1 .072-.184.245.245 0 0 1 .174-.082h1.168a.12.12 0 0 1 .05.01.522.522 0 0 1 .062.042c.089.047.178.109.266.184.09.068.192.13.308.184a.98.98 0 0 0 .42.082.947.947 0 0 0 .48-.112.366.366 0 0 0 .195-.338c0-.11-.03-.198-.092-.267-.061-.075-.188-.146-.379-.215a5.363 5.363 0 0 0-.84-.204 4.374 4.374 0 0 1-.931-.318 1.607 1.607 0 0 1-.615-.522 1.405 1.405 0 0 1-.215-.789c0-.273.09-.535.267-.788.177-.253.437-.457.778-.614.341-.164.761-.246 1.26-.246.395 0 .737.048 1.023.143.294.089.54.205.738.348.204.144.358.29.46.44.103.15.157.287.164.41a.235.235 0 0 1-.061.185.226.226 0 0 1-.164.071H58.21a.338.338 0 0 1-.082-.01.672.672 0 0 1-.072-.041 1.281 1.281 0 0 1-.245-.164 1.476 1.476 0 0 0-.287-.184.912.912 0 0 0-.41-.082c-.184 0-.327.04-.43.123a.408.408 0 0 0-.072.563c.062.075.181.143.359.205.184.061.468.13.85.205.47.075.846.198 1.126.368.28.164.478.359.594.584.116.218.174.45.174.696 0 .328-.099.618-.297.87-.19.253-.477.451-.86.595-.382.136-.846.204-1.392.204Z"/></g><defs><filter id="a" width="80" height="80" x="0" y="0" color-interpolation-filters="sRGB" filterUnits="userSpaceOnUse"><feFlood flood-opacity="0" result="BackgroundImageFix"/><feColorMatrix in="SourceAlpha" result="hardAlpha" values="0 0 0 0 0 0 0 0 0 0 0 0 0 0 0 0 0 0 127 0"/><feOffset dy="2"/><feGaussianBlur stdDeviation="4"/><feColorMatrix values="0 0 0 0 0 0 0 0 0 0 0 0 0 0 0 0 0 0 0.75 0"/><feBlend in2="BackgroundImageFix" result="effect1_dropShadow_602_1861"/><feBlend in="SourceGraphic" in2="effect1_dropShadow_602_1861" result="shape"/></filter></defs></svg>