<svg xmlns="http://www.w3.org/2000/svg" width="80" height="80" fill="none"><g filter="url(#a)"><rect width="64" height="64" x="8" y="6" fill="#212529" rx="5"/><path fill="#fff" d="M54.993 19.602 56 16.993l-.044-.162-9.964 2.626c1.062-1.537.697-2.77.697-2.77s-3.182 2.033-5.589 1.98c-2.406-.054-3.182-.696-6.872.481-3.69 1.176-4.732 4.787-5.802 5.563-1.07.775-4.426 3.302-4.426 3.302l.007.045 3.026-.964s-.83.782-2.593 3.158l-.082-.076.003.017s1.417 2.165 2.808 1.765c.14-.04.297-.107.469-.195.56.312 1.29.619 2.098.703 0 0-.547-.635-1.002-1.358l.377-.245-.06.042 1.153.423-.127-1.083.011-.007 1.132.416-.14-.985a9.57 9.57 0 0 1 .43-.212l1.18-4.465 4.88-3.329-.388.976c-.99 2.434-2.847 3.008-2.847 3.008l-.776.294c-.577.682-.82.85-1.018 3.138.465-.116.91-.145 1.312-.036 2.085.562 2.808 3.075 2.246 3.77-.14.174-.475.471-.898.82h-.846l-.012.687-.086.068h-.862l-.01.669-.225.17c-.81.017-1.834-.69-1.834-.69 0 .643.534 1.631.534 1.631l.095-.045-.08.059s2.165 1.444 3.529.91c1.212-.476 4.351-2.952 7.061-4.123l8.2-2.16 1.082-2.803-6.25 1.647v-2.516l7.333-1.932 1.082-2.802-8.413 2.217v-2.517l9.494-2.501Z"/><path fill="#E5E5E5" d="M22.473 61a.25.25 0 0 1-.184-.072.25.25 0 0 1-.072-.184v-6.656a.25.25 0 0 1 .072-.184.25.25 0 0 1 .184-.072h4.7a.25.25 0 0 1 .184.072.231.231 0 0 1 .082.184v1.034a.234.234 0 0 1-.082.185.25.25 0 0 1-.184.071h-3.154v1.505h2.95c.074 0 .136.028.183.082.055.048.082.11.082.185v1.024c0 .068-.027.13-.082.184a.25.25 0 0 1-.184.072H24.02v2.314a.25.25 0 0 1-.072.184.25.25 0 0 1-.184.072h-1.29Zm7.339.102c-.369 0-.7-.068-.994-.204a1.832 1.832 0 0 1-.686-.574 1.359 1.359 0 0 1-.256-.809c0-.484.198-.867.594-1.147.396-.286.922-.481 1.577-.583l1.28-.195v-.143c0-.246-.051-.434-.154-.564-.102-.13-.29-.194-.563-.194a.891.891 0 0 0-.47.113.804.804 0 0 0-.277.307.294.294 0 0 1-.256.133H28.46a.236.236 0 0 1-.174-.061.207.207 0 0 1-.051-.164c0-.123.044-.263.133-.42.095-.164.239-.325.43-.482.191-.157.437-.286.737-.389.3-.102.662-.153 1.086-.153.443 0 .822.051 1.136.153.314.103.567.246.758.43.198.185.345.403.44.656.096.246.144.519.144.819v3.113a.234.234 0 0 1-.082.184.237.237 0 0 1-.174.072h-1.188a.25.25 0 0 1-.184-.072.25.25 0 0 1-.072-.184v-.358a1.47 1.47 0 0 1-.359.358 1.72 1.72 0 0 1-.532.256c-.198.068-.43.102-.696.102Zm.48-1.167c.199 0 .376-.04.533-.123a.896.896 0 0 0 .38-.4 1.48 1.48 0 0 0 .143-.685v-.144l-.87.154c-.322.055-.557.14-.707.256-.144.11-.215.239-.215.39a.45.45 0 0 0 .102.296.71.71 0 0 0 .266.195c.11.04.232.061.369.061Zm6.154 1.167c-.444 0-.823-.047-1.137-.143a2.799 2.799 0 0 1-.758-.369 1.732 1.732 0 0 1-.43-.44c-.096-.157-.147-.29-.154-.4a.207.207 0 0 1 .072-.184.245.245 0 0 1 .174-.082h1.168a.12.12 0 0 1 .05.01.522.522 0 0 1 .062.042c.089.047.178.109.266.184.09.068.192.13.308.184a.98.98 0 0 0 .42.082.947.947 0 0 0 .48-.112.366.366 0 0 0 .195-.338c0-.11-.03-.198-.092-.267-.061-.075-.188-.146-.379-.215a5.363 5.363 0 0 0-.84-.204 4.374 4.374 0 0 1-.931-.318 1.607 1.607 0 0 1-.615-.522 1.405 1.405 0 0 1-.215-.789c0-.273.09-.535.267-.788.177-.253.437-.457.778-.614.341-.164.761-.246 1.26-.246.395 0 .737.048 1.023.143.294.089.54.205.738.348.204.144.358.29.46.44.103.15.157.287.164.41a.235.235 0 0 1-.061.185.226.226 0 0 1-.164.071H37.49a.338.338 0 0 1-.082-.01.672.672 0 0 1-.072-.041 1.281 1.281 0 0 1-.245-.164 1.476 1.476 0 0 0-.287-.184.912.912 0 0 0-.41-.082c-.184 0-.327.04-.43.123a.408.408 0 0 0-.072.563c.062.075.181.143.359.205.184.061.468.13.85.205.47.075.846.198 1.126.368.28.164.478.359.594.584.116.218.174.45.174.696 0 .328-.099.618-.297.87-.19.253-.477.451-.86.595-.382.136-.846.204-1.392.204ZM42.608 61c-.437 0-.816-.068-1.137-.205a1.578 1.578 0 0 1-.727-.655c-.17-.3-.256-.686-.256-1.157v-1.966h-.798a.286.286 0 0 1-.195-.072.25.25 0 0 1-.072-.184v-.83a.25.25 0 0 1 .072-.184.286.286 0 0 1 .195-.072h.798v-1.69a.25.25 0 0 1 .072-.184.273.273 0 0 1 .184-.071h1.188a.25.25 0 0 1 .184.071.25.25 0 0 1 .072.185v1.69h1.28a.25.25 0 0 1 .184.07.25.25 0 0 1 .072.185v.83a.25.25 0 0 1-.071.184.25.25 0 0 1-.185.072h-1.28v1.822c0 .233.044.417.133.553.089.137.24.205.45.205h.79a.25.25 0 0 1 .184.072.25.25 0 0 1 .071.184v.891a.25.25 0 0 1-.071.184.25.25 0 0 1-.185.072h-.952Zm2.312 0a.25.25 0 0 1-.184-.072.25.25 0 0 1-.072-.184v-4.813a.25.25 0 0 1 .072-.184.25.25 0 0 1 .184-.072h1.209c.068 0 .126.024.174.072.054.048.082.11.082.184v4.813a.234.234 0 0 1-.082.184.237.237 0 0 1-.174.072H44.92Zm-.01-6.093a.25.25 0 0 1-.184-.071.25.25 0 0 1-.072-.185v-.911a.25.25 0 0 1 .072-.184.234.234 0 0 1 .184-.082h1.219c.075 0 .136.027.184.082a.234.234 0 0 1 .082.184v.911a.234.234 0 0 1-.082.184.25.25 0 0 1-.184.072h-1.22ZM48.444 61a.273.273 0 0 1-.184-.072.25.25 0 0 1-.072-.184v-3.727h-.778a.25.25 0 0 1-.184-.072.25.25 0 0 1-.072-.184v-.83a.25.25 0 0 1 .072-.184.25.25 0 0 1 .184-.072h.778v-.328c0-.464.09-.836.267-1.116a1.52 1.52 0 0 1 .778-.614c.334-.13.734-.195 1.198-.195h.799c.068 0 .126.024.174.072.054.048.082.11.082.184v.83a.234.234 0 0 1-.082.184.237.237 0 0 1-.174.072h-.717c-.232 0-.396.054-.492.164-.089.109-.133.266-.133.47v.277h1.24c.068 0 .126.024.173.072.055.048.082.11.082.184v.83a.234.234 0 0 1-.082.184.237.237 0 0 1-.174.072h-1.239v3.727a.25.25 0 0 1-.072.184.25.25 0 0 1-.184.072h-1.188Zm4.663 1.946a.209.209 0 0 1-.215-.215v-.062a.564.564 0 0 1 .031-.072l.799-1.925-1.966-4.649a.323.323 0 0 1-.031-.123.305.305 0 0 1 .082-.153.194.194 0 0 1 .154-.072h1.167c.089 0 .154.024.194.072.048.04.079.089.093.143l1.177 2.98 1.198-2.98a.547.547 0 0 1 .103-.143c.047-.048.116-.072.204-.072h1.147c.062 0 .113.024.154.072.048.04.072.089.072.143 0 .034-.01.079-.031.133l-2.898 6.708a.347.347 0 0 1-.102.143c-.048.048-.116.072-.205.072h-1.127Z"/></g><defs><filter id="a" width="80" height="80" x="0" y="0" color-interpolation-filters="sRGB" filterUnits="userSpaceOnUse"><feFlood flood-opacity="0" result="BackgroundImageFix"/><feColorMatrix in="SourceAlpha" result="hardAlpha" values="0 0 0 0 0 0 0 0 0 0 0 0 0 0 0 0 0 0 127 0"/><feOffset dy="2"/><feGaussianBlur stdDeviation="4"/><feColorMatrix values="0 0 0 0 0 0 0 0 0 0 0 0 0 0 0 0 0 0 0.75 0"/><feBlend in2="BackgroundImageFix" result="effect1_dropShadow_602_1874"/><feBlend in="SourceGraphic" in2="effect1_dropShadow_602_1874" result="shape"/></filter></defs></svg>