<svg xmlns="http://www.w3.org/2000/svg" width="80" height="80" fill="none"><g filter="url(#a)"><rect width="64" height="64" x="8" y="6" fill="#212529" rx="5"/><path fill="#1ABCFE" fill-rule="evenodd" d="M40 27a4 4 0 1 1 8 0 4 4 0 0 1-8 0Z" clip-rule="evenodd"/><path fill="#0ACF83" fill-rule="evenodd" d="M32 35a4 4 0 0 1 4-4h4v4a4 4 0 0 1-8 0Z" clip-rule="evenodd"/><path fill="#FF7262" fill-rule="evenodd" d="M40 15v8h4a4 4 0 0 0 0-8h-4Z" clip-rule="evenodd"/><path fill="#F24E1E" fill-rule="evenodd" d="M32 19a4 4 0 0 0 4 4h4v-8h-4a4 4 0 0 0-4 4Z" clip-rule="evenodd"/><path fill="#A259FF" fill-rule="evenodd" d="M32 27a4 4 0 0 0 4 4h4v-8h-4a4 4 0 0 0-4 4Z" clip-rule="evenodd"/><path fill="#E5E5E5" d="M24.973 61a.25.25 0 0 1-.184-.072.25.25 0 0 1-.072-.184v-6.656a.25.25 0 0 1 .072-.184.25.25 0 0 1 .184-.072h4.7a.25.25 0 0 1 .184.072.231.231 0 0 1 .082.184v1.034a.234.234 0 0 1-.082.185.25.25 0 0 1-.184.071h-3.154v1.505h2.95c.074 0 .136.028.183.082.055.048.082.11.082.185v1.024c0 .068-.027.13-.082.184a.25.25 0 0 1-.184.072H26.52v2.314a.25.25 0 0 1-.072.184.25.25 0 0 1-.184.072h-1.29Zm6.427 0a.25.25 0 0 1-.184-.072.25.25 0 0 1-.072-.184v-4.813a.25.25 0 0 1 .072-.184.25.25 0 0 1 .184-.072h1.209c.068 0 .126.024.174.072.054.048.081.11.081.184v4.813a.234.234 0 0 1-.081.184.237.237 0 0 1-.175.072H31.4Zm-.01-6.093a.25.25 0 0 1-.184-.071.25.25 0 0 1-.072-.185v-.911a.25.25 0 0 1 .072-.184.234.234 0 0 1 .184-.082h1.218c.076 0 .137.027.185.082a.234.234 0 0 1 .082.184v.911a.234.234 0 0 1-.082.184.25.25 0 0 1-.184.072h-1.22Zm5.285 8.346c-.525 0-.962-.069-1.31-.205a2.609 2.609 0 0 1-.82-.492 1.968 1.968 0 0 1-.43-.573c-.088-.184-.136-.331-.143-.44a.207.207 0 0 1 .072-.185.285.285 0 0 1 .194-.071h1.3a.27.27 0 0 1 .154.04.334.334 0 0 1 .113.165c.034.075.078.153.133.235a.636.636 0 0 0 .246.195c.11.054.256.082.44.082.205 0 .376-.035.512-.103a.608.608 0 0 0 .307-.317c.069-.144.103-.338.103-.584v-.686a1.83 1.83 0 0 1-.604.42 2.314 2.314 0 0 1-.891.153c-.348 0-.656-.05-.922-.153a1.647 1.647 0 0 1-.665-.461 2.267 2.267 0 0 1-.42-.748 3.965 3.965 0 0 1-.174-1.013 6.952 6.952 0 0 1 0-.533c.02-.368.078-.7.174-.993a2.23 2.23 0 0 1 .41-.758c.184-.212.409-.372.675-.481a2.29 2.29 0 0 1 .922-.174c.368 0 .682.072.942.215.266.136.484.31.655.522v-.379c0-.068.024-.126.072-.174a.234.234 0 0 1 .184-.082h1.178c.075 0 .136.028.184.082a.223.223 0 0 1 .082.174v4.926c0 .519-.106.955-.317 1.31a2.027 2.027 0 0 1-.912.81c-.396.184-.877.276-1.444.276Zm-.071-3.697c.218 0 .396-.048.532-.143a.823.823 0 0 0 .297-.369c.068-.15.106-.31.113-.481.007-.075.01-.181.01-.318 0-.136-.003-.238-.01-.307a1.297 1.297 0 0 0-.113-.491.762.762 0 0 0-.297-.359c-.136-.095-.314-.143-.532-.143-.226 0-.407.048-.543.143a.834.834 0 0 0-.287.39 2.193 2.193 0 0 0-.102.542c-.007.15-.007.304 0 .461.014.198.048.379.102.543a.834.834 0 0 0 .287.389c.136.095.317.143.543.143ZM40.81 61a.25.25 0 0 1-.184-.072.25.25 0 0 1-.072-.184v-4.813a.25.25 0 0 1 .072-.184.25.25 0 0 1 .184-.072h1.116a.25.25 0 0 1 .185.072.25.25 0 0 1 .071.184v.348c.137-.184.328-.344.574-.48a1.77 1.77 0 0 1 .87-.226c.785-.014 1.325.283 1.618.89.157-.259.382-.47.676-.634.294-.17.614-.256.962-.256.355 0 .673.082.953.246.286.157.515.402.686.737.17.328.256.754.256 1.28v2.908a.234.234 0 0 1-.082.184.237.237 0 0 1-.174.072h-1.188a.285.285 0 0 1-.194-.072.25.25 0 0 1-.072-.184v-2.837c0-.238-.034-.426-.103-.563a.646.646 0 0 0-.276-.307.841.841 0 0 0-.768 0 .7.7 0 0 0-.287.307c-.068.137-.102.325-.102.563v2.837a.25.25 0 0 1-.072.184.25.25 0 0 1-.184.072h-1.188a.25.25 0 0 1-.184-.072.25.25 0 0 1-.072-.184v-2.837c0-.238-.038-.426-.113-.563a.7.7 0 0 0-.286-.307.82.82 0 0 0-.758 0 .7.7 0 0 0-.287.307c-.068.137-.102.321-.102.553v2.847a.234.234 0 0 1-.082.184.25.25 0 0 1-.184.072H40.81Zm10.712.102c-.369 0-.7-.068-.994-.204a1.832 1.832 0 0 1-.686-.574 1.359 1.359 0 0 1-.256-.809c0-.484.198-.867.594-1.147.396-.286.922-.481 1.577-.583l1.28-.195v-.143c0-.246-.051-.434-.154-.564-.102-.13-.29-.194-.563-.194a.891.891 0 0 0-.47.113.804.804 0 0 0-.277.307.294.294 0 0 1-.256.133H50.17a.236.236 0 0 1-.174-.061.207.207 0 0 1-.051-.164c0-.123.044-.263.133-.42.095-.164.239-.325.43-.482.191-.157.437-.286.737-.389.3-.102.662-.153 1.086-.153.443 0 .822.051 1.136.153.314.103.567.246.758.43.198.185.345.403.44.656.096.246.144.519.144.819v3.113a.234.234 0 0 1-.082.184.237.237 0 0 1-.174.072h-1.188a.25.25 0 0 1-.184-.072.25.25 0 0 1-.072-.184v-.358a1.47 1.47 0 0 1-.359.358 1.72 1.72 0 0 1-.532.256c-.198.068-.43.102-.696.102Zm.48-1.167c.199 0 .376-.04.533-.123a.896.896 0 0 0 .38-.4 1.48 1.48 0 0 0 .143-.685v-.144l-.87.154c-.322.055-.557.14-.707.256-.144.11-.215.239-.215.39a.45.45 0 0 0 .102.296.71.71 0 0 0 .266.195c.11.04.232.061.369.061Z"/></g><defs><filter id="a" width="80" height="80" x="0" y="0" color-interpolation-filters="sRGB" filterUnits="userSpaceOnUse"><feFlood flood-opacity="0" result="BackgroundImageFix"/><feColorMatrix in="SourceAlpha" result="hardAlpha" values="0 0 0 0 0 0 0 0 0 0 0 0 0 0 0 0 0 0 127 0"/><feOffset dy="2"/><feGaussianBlur stdDeviation="4"/><feColorMatrix values="0 0 0 0 0 0 0 0 0 0 0 0 0 0 0 0 0 0 0.75 0"/><feBlend in2="BackgroundImageFix" result="effect1_dropShadow_601_5176"/><feBlend in="SourceGraphic" in2="effect1_dropShadow_601_5176" result="shape"/></filter></defs></svg>