<svg xmlns="http://www.w3.org/2000/svg" width="80" height="80" fill="rgba(0,0,255,0.2)"><g><rect width="64" height="64" x="8" y="6" fill="#0D1117" rx="5"/><path fill="#40D0FD" d="m39.383 32.316 3.361-3.274h8.35l-7.397 7.396-4.314-4.122Z"/><path fill="#41D0FD" d="m28.907 30.125 4.199 4.3 17.987-18.138h-8.349L28.907 30.125Z"/><path fill="#1FBCFD" d="m35.176 36.479 4.259 4.196 4.262-4.237-4.314-4.122-4.207 4.163Z"/><path fill="#095A9D" d="m39.435 40.675 4.262-4.237 7.292 7.375h-8.396l-3.158-3.138Z"/><path fill="#0E5199" d="m39.435 40.675 3.971-1.321-1.338-1.297-2.633 2.618Z"/><path fill="#2AF" d="M22.923 61a.25.25 0 0 1-.184-.072.25.25 0 0 1-.072-.184v-6.656a.25.25 0 0 1 .071-.184.25.25 0 0 1 .185-.072h4.7a.25.25 0 0 1 .184.072.231.231 0 0 1 .082.184v1.034a.234.234 0 0 1-.082.185.25.25 0 0 1-.184.071h-3.154v1.505h2.95c.074 0 .136.028.183.082.055.048.082.11.082.185v1.024c0 .068-.027.13-.082.184a.25.25 0 0 1-.184.072H24.47v2.314a.25.25 0 0 1-.072.184.25.25 0 0 1-.184.072h-1.29Zm6.207 0a.25.25 0 0 1-.184-.072.25.25 0 0 1-.072-.184v-6.758a.25.25 0 0 1 .072-.185.25.25 0 0 1 .184-.071h1.209a.25.25 0 0 1 .184.071.25.25 0 0 1 .072.185v6.758a.25.25 0 0 1-.072.184.25.25 0 0 1-.184.072H29.13Zm4.63.102a2.05 2.05 0 0 1-1.044-.266 1.823 1.823 0 0 1-.707-.778c-.17-.348-.256-.772-.256-1.27v-2.857a.25.25 0 0 1 .072-.184.25.25 0 0 1 .184-.072h1.28a.25.25 0 0 1 .184.072.25.25 0 0 1 .072.184v2.796c0 .669.3 1.003.901 1.003.28 0 .502-.085.666-.256.17-.177.256-.426.256-.747V55.93a.25.25 0 0 1 .071-.184.25.25 0 0 1 .185-.072h1.28a.25.25 0 0 1 .184.072.25.25 0 0 1 .072.184v4.813a.25.25 0 0 1-.072.184.25.25 0 0 1-.184.072h-1.188a.273.273 0 0 1-.184-.072.25.25 0 0 1-.072-.184v-.39a1.71 1.71 0 0 1-.697.564c-.28.123-.614.184-1.003.184ZM41.088 61c-.437 0-.816-.068-1.137-.205a1.578 1.578 0 0 1-.727-.655c-.17-.3-.256-.686-.256-1.157v-1.966h-.798a.286.286 0 0 1-.195-.072.25.25 0 0 1-.072-.184v-.83a.25.25 0 0 1 .072-.184.286.286 0 0 1 .195-.072h.798v-1.69a.25.25 0 0 1 .072-.184.273.273 0 0 1 .184-.071h1.188a.25.25 0 0 1 .184.071.25.25 0 0 1 .072.185v1.69h1.28a.25.25 0 0 1 .184.07.25.25 0 0 1 .072.185v.83a.25.25 0 0 1-.072.184.25.25 0 0 1-.184.072h-1.28v1.822c0 .233.044.417.133.553.089.137.24.205.45.205h.79a.25.25 0 0 1 .184.072.25.25 0 0 1 .071.184v.891a.25.25 0 0 1-.071.184.25.25 0 0 1-.185.072h-.952Zm4.78 0c-.437 0-.816-.068-1.137-.205a1.578 1.578 0 0 1-.727-.655c-.17-.3-.256-.686-.256-1.157v-1.966h-.798a.286.286 0 0 1-.195-.072.25.25 0 0 1-.072-.184v-.83a.25.25 0 0 1 .072-.184.286.286 0 0 1 .195-.072h.798v-1.69a.25.25 0 0 1 .072-.184.273.273 0 0 1 .184-.071h1.188a.25.25 0 0 1 .184.071.25.25 0 0 1 .072.185v1.69h1.28a.25.25 0 0 1 .184.07.25.25 0 0 1 .072.185v.83a.25.25 0 0 1-.072.184.25.25 0 0 1-.184.072h-1.28v1.822c0 .233.044.417.133.553.089.137.24.205.45.205h.79a.25.25 0 0 1 .184.072.25.25 0 0 1 .071.184v.891a.25.25 0 0 1-.071.184.25.25 0 0 1-.185.072h-.952Zm4.514.102c-.806 0-1.447-.218-1.925-.655-.478-.437-.727-1.085-.748-1.946v-.358c.02-.54.14-1 .358-1.382.226-.39.533-.683.922-.881.396-.205.857-.307 1.383-.307.6 0 1.095.12 1.484.358.396.24.693.563.891.973.198.41.297.877.297 1.403v.246a.234.234 0 0 1-.082.184.237.237 0 0 1-.174.072h-3.277v.071c.007.198.041.38.103.543a.772.772 0 0 0 .758.532.82.82 0 0 0 .337-.06c.096-.049.174-.1.236-.155a2.12 2.12 0 0 0 .143-.153.482.482 0 0 1 .144-.123c.04-.02.102-.03.184-.03h1.27c.068 0 .123.02.164.06.047.035.068.086.061.154-.007.116-.065.256-.174.42a2.16 2.16 0 0 1-.481.492 2.591 2.591 0 0 1-.779.389 3.549 3.549 0 0 1-1.095.153Zm-.87-3.307h1.73v-.02c0-.22-.034-.41-.102-.574a.752.752 0 0 0-.297-.379.814.814 0 0 0-.472-.133.813.813 0 0 0-.47.133.86.86 0 0 0-.287.379 1.482 1.482 0 0 0-.103.573v.02ZM54.26 61a.25.25 0 0 1-.184-.072.25.25 0 0 1-.072-.184v-4.813c0-.068.024-.126.072-.174a.234.234 0 0 1 .184-.082h1.178c.075 0 .136.028.184.082a.237.237 0 0 1 .072.174v.41c.184-.212.402-.376.655-.492.26-.116.55-.174.87-.174h.451c.068 0 .126.024.174.072.055.048.082.11.082.184v1.055c0 .068-.027.13-.082.184a.237.237 0 0 1-.174.072h-.993c-.28 0-.498.078-.656.235-.15.15-.225.366-.225.646v2.621a.234.234 0 0 1-.082.184.25.25 0 0 1-.184.072h-1.27Z"/></g><defs><filter id="a" width="80" height="80" x="0" y="0" color-interpolation-filters="sRGB" filterUnits="userSpaceOnUse"><feFlood flood-opacity="0" result="BackgroundImageFix"/><feColorMatrix in="SourceAlpha" result="hardAlpha" values="0 0 0 0 0 0 0 0 0 0 0 0 0 0 0 0 0 0 127 0"/><feOffset dy="2"/><feGaussianBlur stdDeviation="4"/><feColorMatrix values="0 0 0 0 0 0 0 0 0 0 0 0 0 0 0 0 0 0 0.75 0"/><feBlend in2="BackgroundImageFix" result="effect1_dropShadow_602_1919"/><feBlend in="SourceGraphic" in2="effect1_dropShadow_602_1919" result="shape"/></filter></defs></svg>