<svg xmlns="http://www.w3.org/2000/svg" width="80" height="80" fill="rgba(0,0,255,0.2)"><g><rect width="64" height="64" x="8" y="6" fill="#0D1117" rx="5"/><path fill="#EE513B" d="M26.585 28.413a1.999 1.999 0 0 1 0-2.826l12.002-12.002c.78-.78 2.046-.78 2.826 0l12.002 12.002c.78.78.78 2.046 0 2.826L41.413 40.415c-.78.78-2.046.78-2.826 0L26.585 28.413Z"/><path fill="#fff" d="m36.149 16.061-1.215 1.216 3.139 3.139A2.126 2.126 0 0 0 39.25 23.3v7.679a2.126 2.126 0 1 0 1.718.097v-7.765l3 3a2.125 2.125 0 1 0 1.283-1.147l-3.221-3.223a2.125 2.125 0 0 0-2.66-2.66l-3.221-3.22Z"/><path fill="#E5E5E5" d="M35.676 61.102c-.648 0-1.208-.105-1.68-.317a2.523 2.523 0 0 1-1.085-.942c-.252-.417-.392-.922-.42-1.516a40.334 40.334 0 0 1 0-1.884c.028-.58.171-1.072.43-1.474.26-.403.625-.71 1.096-.922.471-.212 1.024-.317 1.66-.317.511 0 .965.065 1.361.194.396.123.727.29.993.502.273.212.478.444.615.696a1.6 1.6 0 0 1 .225.748.167.167 0 0 1-.061.153.209.209 0 0 1-.154.062h-1.495a.397.397 0 0 1-.174-.03.388.388 0 0 1-.092-.114 1.371 1.371 0 0 0-.215-.317 1.067 1.067 0 0 0-.38-.297c-.156-.082-.364-.123-.624-.123-.389 0-.696.103-.921.307-.219.205-.338.533-.359.983a26.47 26.47 0 0 0 0 1.782c.02.478.147.823.379 1.034.232.212.54.318.922.318.26 0 .488-.044.686-.133.204-.089.365-.226.481-.41.116-.191.174-.433.174-.727v-.194h-.962a.285.285 0 0 1-.195-.072.285.285 0 0 1-.072-.195v-.758a.25.25 0 0 1 .072-.184.266.266 0 0 1 .194-.082h2.581c.075 0 .136.028.184.082a.25.25 0 0 1 .072.184v1.168c0 .587-.133 1.089-.4 1.505a2.59 2.59 0 0 1-1.136.963c-.485.218-1.051.327-1.7.327ZM40.23 61a.25.25 0 0 1-.184-.072.25.25 0 0 1-.072-.184v-4.813a.25.25 0 0 1 .072-.184.25.25 0 0 1 .184-.072h1.209c.068 0 .126.024.174.072.054.048.081.11.081.184v4.813a.234.234 0 0 1-.081.184.237.237 0 0 1-.175.072H40.23Zm-.01-6.093a.25.25 0 0 1-.184-.071.25.25 0 0 1-.072-.185v-.911a.25.25 0 0 1 .072-.184.234.234 0 0 1 .184-.082h1.218c.076 0 .137.027.185.082a.234.234 0 0 1 .082.184v.911a.234.234 0 0 1-.082.184.25.25 0 0 1-.184.072h-1.22ZM45.618 61c-.437 0-.816-.068-1.137-.205a1.578 1.578 0 0 1-.727-.655c-.17-.3-.256-.686-.256-1.157v-1.966H42.7a.286.286 0 0 1-.195-.072.25.25 0 0 1-.072-.184v-.83a.25.25 0 0 1 .072-.184.286.286 0 0 1 .195-.072h.798v-1.69a.25.25 0 0 1 .072-.184.273.273 0 0 1 .184-.071h1.188a.25.25 0 0 1 .184.071.25.25 0 0 1 .072.185v1.69h1.28a.25.25 0 0 1 .184.07.25.25 0 0 1 .072.185v.83a.25.25 0 0 1-.072.184.25.25 0 0 1-.184.072h-1.28v1.822c0 .233.044.417.133.553.089.137.24.205.45.205h.79a.25.25 0 0 1 .184.072.25.25 0 0 1 .071.184v.891a.25.25 0 0 1-.071.184.25.25 0 0 1-.185.072h-.952Z"/></g><defs><filter id="a" width="80" height="80" x="0" y="0" color-interpolation-filters="sRGB" filterUnits="userSpaceOnUse"><feFlood flood-opacity="0" result="BackgroundImageFix"/><feColorMatrix in="SourceAlpha" result="hardAlpha" values="0 0 0 0 0 0 0 0 0 0 0 0 0 0 0 0 0 0 127 0"/><feOffset dy="2"/><feGaussianBlur stdDeviation="4"/><feColorMatrix values="0 0 0 0 0 0 0 0 0 0 0 0 0 0 0 0 0 0 0.75 0"/><feBlend in2="BackgroundImageFix" result="effect1_dropShadow_601_4503"/><feBlend in="SourceGraphic" in2="effect1_dropShadow_601_4503" result="shape"/></filter></defs></svg>