<svg xmlns="http://www.w3.org/2000/svg" width="80" height="80" fill="rgba(0,0,255,0.2)"><g><rect width="64" height="64" x="8" y="6" fill="#0D1117" rx="5"/><path fill="#fff" d="M36.467 33.507c0 .093-.094.16-.227.16s-.24 0-.24-.16.107-.16.227-.16c.12 0 .24.066.24.16Zm-1.334-.2c0 .093 0 .2.187.226a.2.2 0 0 0 .267-.093c0-.093 0-.187-.187-.227-.187-.04-.24 0-.267.094Zm1.894-.067a.19.19 0 0 0-.187.213c.013.107.12.147.253.12.134-.026.2-.12.187-.213-.013-.093-.12-.133-.253-.12Zm2.84-16.907a10.438 10.438 0 0 0-10.534 10.76 11.053 11.053 0 0 0 7.294 10.574c.546.093.746-.254.746-.534v-2.666s-3.013.666-3.653-1.334c0 0-.48-1.333-1.187-1.613 0 0-.986-.693.067-.68a2.227 2.227 0 0 1 1.653 1.133 2.253 2.253 0 0 0 3.147.92c.05-.556.29-1.079.68-1.48-2.4-.28-4.827-.626-4.827-4.88a3.387 3.387 0 0 1 1.014-2.6 4.28 4.28 0 0 1 .106-2.986c.907-.294 2.974 1.186 2.974 1.186a9.946 9.946 0 0 1 5.4 0s2.066-1.48 2.973-1.186c.402.948.44 2.012.107 2.986a3.479 3.479 0 0 1 1.106 2.6c0 4.267-2.533 4.6-4.933 4.88a2.669 2.669 0 0 1 .667 2v3.694a.561.561 0 0 0 .746.533 10.96 10.96 0 0 0 7.254-10.547 10.67 10.67 0 0 0-6.656-9.978 10.667 10.667 0 0 0-4.144-.782ZM33.52 31.547v.226a.157.157 0 0 0 .113.047.158.158 0 0 0 .114-.047v-.24c0-.093-.174-.04-.227.014Zm-.467-.36s0 .133.094.173a.12.12 0 0 0 .186 0s0-.133-.093-.173c-.093-.04-.16-.04-.187 0Zm1.334 1.573v.28c0 .093.226.107.28 0 .053-.107 0-.187 0-.28 0-.093-.174-.067-.227 0h-.053Zm-.494-.653v.266c0 .107.187.147.254.107a.213.213 0 0 0 0-.28c-.067-.107-.174-.147-.254-.093Z"/><path fill="#E5E5E5" d="M26.176 61.102c-.648 0-1.208-.105-1.68-.317a2.523 2.523 0 0 1-1.085-.942c-.252-.417-.392-.922-.42-1.516a40.334 40.334 0 0 1 0-1.884c.028-.58.171-1.072.43-1.474.26-.403.625-.71 1.096-.922.471-.212 1.024-.317 1.66-.317.511 0 .965.065 1.361.194.396.123.727.29.993.502.273.212.478.444.615.696a1.6 1.6 0 0 1 .225.748.167.167 0 0 1-.061.153.209.209 0 0 1-.154.062h-1.495a.397.397 0 0 1-.174-.03.388.388 0 0 1-.092-.114 1.371 1.371 0 0 0-.215-.317 1.067 1.067 0 0 0-.38-.297c-.156-.082-.364-.123-.624-.123-.389 0-.696.103-.921.307-.219.205-.338.533-.359.983a26.47 26.47 0 0 0 0 1.782c.02.478.147.823.379 1.034.232.212.54.318.922.318.26 0 .488-.044.686-.133.204-.089.365-.226.481-.41.116-.191.174-.433.174-.727v-.194h-.962a.285.285 0 0 1-.195-.072.285.285 0 0 1-.072-.195v-.758a.25.25 0 0 1 .072-.184.266.266 0 0 1 .195-.082h2.58c.075 0 .137.028.184.082a.25.25 0 0 1 .072.184v1.168c0 .587-.133 1.089-.4 1.505a2.59 2.59 0 0 1-1.136.963c-.485.218-1.051.327-1.7.327ZM30.73 61a.25.25 0 0 1-.184-.072.25.25 0 0 1-.072-.184v-4.813a.25.25 0 0 1 .072-.184.25.25 0 0 1 .184-.072h1.209c.068 0 .126.024.174.072.054.048.081.11.081.184v4.813a.234.234 0 0 1-.081.184.237.237 0 0 1-.174.072H30.73Zm-.01-6.093a.25.25 0 0 1-.184-.071.25.25 0 0 1-.072-.185v-.911a.25.25 0 0 1 .072-.184.234.234 0 0 1 .184-.082h1.219c.075 0 .136.027.184.082a.234.234 0 0 1 .082.184v.911a.234.234 0 0 1-.082.184.25.25 0 0 1-.184.072h-1.22ZM36.118 61c-.437 0-.816-.068-1.137-.205a1.578 1.578 0 0 1-.727-.655c-.17-.3-.256-.686-.256-1.157v-1.966H33.2a.286.286 0 0 1-.195-.072.25.25 0 0 1-.072-.184v-.83a.25.25 0 0 1 .072-.184.286.286 0 0 1 .195-.072h.798v-1.69a.25.25 0 0 1 .072-.184.273.273 0 0 1 .184-.071h1.188a.25.25 0 0 1 .184.071.25.25 0 0 1 .072.185v1.69h1.28a.25.25 0 0 1 .184.07.25.25 0 0 1 .072.185v.83a.25.25 0 0 1-.072.184.25.25 0 0 1-.184.072h-1.28v1.822c0 .233.044.417.133.553.089.137.24.205.45.205h.79a.25.25 0 0 1 .184.072.25.25 0 0 1 .071.184v.891a.25.25 0 0 1-.071.184.25.25 0 0 1-.185.072h-.952Zm2.312 0a.25.25 0 0 1-.184-.072.25.25 0 0 1-.072-.184v-6.758a.25.25 0 0 1 .072-.185.25.25 0 0 1 .184-.071h1.31a.25.25 0 0 1 .185.071.25.25 0 0 1 .072.185v2.283c.184-.212.41-.379.676-.502.273-.13.587-.194.942-.194.396 0 .747.088 1.054.266.315.178.56.44.738.788.177.342.266.762.266 1.26v2.857a.25.25 0 0 1-.072.184.25.25 0 0 1-.184.072h-1.32a.272.272 0 0 1-.185-.072.25.25 0 0 1-.072-.184v-2.795c0-.321-.078-.567-.235-.738-.15-.177-.376-.266-.676-.266-.28 0-.506.089-.676.266-.17.17-.256.417-.256.738v2.795a.25.25 0 0 1-.072.184.25.25 0 0 1-.184.072h-1.31Zm8.36.102a2.05 2.05 0 0 1-1.044-.266 1.823 1.823 0 0 1-.707-.778c-.17-.348-.256-.772-.256-1.27v-2.857a.25.25 0 0 1 .072-.184.25.25 0 0 1 .184-.072h1.28a.25.25 0 0 1 .184.072.25.25 0 0 1 .072.184v2.796c0 .669.3 1.003.901 1.003.28 0 .502-.085.666-.256.17-.177.256-.426.256-.747V55.93a.25.25 0 0 1 .071-.184.25.25 0 0 1 .185-.072h1.28a.25.25 0 0 1 .184.072.25.25 0 0 1 .072.184v4.813a.25.25 0 0 1-.072.184.25.25 0 0 1-.184.072h-1.188a.273.273 0 0 1-.184-.072.25.25 0 0 1-.072-.184v-.39a1.71 1.71 0 0 1-.697.564c-.28.123-.614.184-1.003.184Zm7.86 0c-.382 0-.703-.064-.962-.194a1.958 1.958 0 0 1-.625-.492v.328a.234.234 0 0 1-.082.184.237.237 0 0 1-.174.072H51.65a.25.25 0 0 1-.184-.072.25.25 0 0 1-.072-.184v-6.758a.25.25 0 0 1 .072-.185.25.25 0 0 1 .184-.071h1.25a.25.25 0 0 1 .184.071.25.25 0 0 1 .071.185v2.191a1.84 1.84 0 0 1 .615-.43 2.09 2.09 0 0 1 .88-.174c.342 0 .642.058.902.174.266.11.491.27.675.481.185.212.328.464.43.758.103.294.16.625.175.993a6.884 6.884 0 0 1 0 .717 3.34 3.34 0 0 1-.185 1.024 2.287 2.287 0 0 1-.43.758 1.848 1.848 0 0 1-.665.47c-.26.103-.56.154-.901.154Zm-.553-1.372c.233 0 .413-.047.543-.143a.773.773 0 0 0 .277-.39c.061-.163.099-.344.112-.542a4.943 4.943 0 0 0 0-.635 1.915 1.915 0 0 0-.112-.543.773.773 0 0 0-.277-.389c-.13-.095-.31-.143-.543-.143a.89.89 0 0 0-.522.143.825.825 0 0 0-.307.359c-.068.143-.106.3-.113.47a7.24 7.24 0 0 0 0 .769c.007.184.041.355.103.512.061.157.16.286.297.389.136.095.317.143.542.143Z"/></g><defs><filter id="a" width="80" height="80" x="0" y="0" color-interpolation-filters="sRGB" filterUnits="userSpaceOnUse"><feFlood flood-opacity="0" result="BackgroundImageFix"/><feColorMatrix in="SourceAlpha" result="hardAlpha" values="0 0 0 0 0 0 0 0 0 0 0 0 0 0 0 0 0 0 127 0"/><feOffset dy="2"/><feGaussianBlur stdDeviation="4"/><feColorMatrix values="0 0 0 0 0 0 0 0 0 0 0 0 0 0 0 0 0 0 0.75 0"/><feBlend in2="BackgroundImageFix" result="effect1_dropShadow_601_4608"/><feBlend in="SourceGraphic" in2="effect1_dropShadow_601_4608" result="shape"/></filter></defs></svg>