<svg xmlns="http://www.w3.org/2000/svg" width="80" height="80" fill="rgba(0,0,255,0.2)"><g><rect width="64" height="64" x="8" y="6" fill="#0D1117" rx="5"/><path fill="#FC6D26" d="M53.95 28.808 52.38 24.1l-3.104-9.34a.536.536 0 0 0-.51-.36.536.536 0 0 0-.508.36l-3.104 9.334h-10.31l-3.104-9.336a.534.534 0 0 0-.508-.358.534.534 0 0 0-.508.36l-3.1 9.334-1.568 4.714a1.03 1.03 0 0 0 .386 1.166l13.56 9.624 13.556-9.624a1.032 1.032 0 0 0 .392-1.166Z"/><path fill="#E24329" d="m40 39.592 5.156-15.5h-10.31L40 39.592Z"/><path fill="#FC6D26" d="m40 39.592-5.158-15.5h-7.216L40 39.592Z"/><path fill="#FCA326" d="m27.62 24.098-1.568 4.708a1.03 1.03 0 0 0 .386 1.166L40 39.6 27.62 24.1v-.002Z"/><path fill="#E24329" d="M27.624 24.098h7.224l-3.108-9.334a.536.536 0 0 0-.508-.36.536.536 0 0 0-.51.36l-3.098 9.334Z"/><path fill="#FC6D26" d="m40 39.592 5.156-15.5h7.228L40 39.592Z"/><path fill="#FCA326" d="m52.38 24.098 1.566 4.708a1.029 1.029 0 0 1-.386 1.166L40 39.592l12.376-15.494h.004Z"/><path fill="#E24329" d="M52.38 24.098h-7.22l3.102-9.334a.534.534 0 0 1 .51-.36c.23 0 .434.146.508.36l3.104 9.334h-.004Z"/><path fill="#E5E5E5" d="M28.176 61.102c-.648 0-1.208-.105-1.68-.317a2.523 2.523 0 0 1-1.085-.942c-.252-.417-.392-.922-.42-1.516a40.334 40.334 0 0 1 0-1.884c.028-.58.171-1.072.43-1.474.26-.403.625-.71 1.096-.922.471-.212 1.024-.317 1.66-.317.511 0 .965.065 1.361.194.396.123.727.29.993.502.273.212.478.444.615.696a1.6 1.6 0 0 1 .225.748.167.167 0 0 1-.061.153.209.209 0 0 1-.154.062h-1.495a.397.397 0 0 1-.174-.03.388.388 0 0 1-.092-.114 1.371 1.371 0 0 0-.215-.317 1.067 1.067 0 0 0-.38-.297c-.156-.082-.364-.123-.624-.123-.389 0-.696.103-.921.307-.219.205-.338.533-.359.983a26.47 26.47 0 0 0 0 1.782c.02.478.147.823.379 1.034.232.212.54.318.922.318.26 0 .488-.044.686-.133.204-.089.365-.226.481-.41.116-.191.174-.433.174-.727v-.194h-.962a.285.285 0 0 1-.195-.072.285.285 0 0 1-.072-.195v-.758a.25.25 0 0 1 .072-.184.266.266 0 0 1 .195-.082h2.58c.075 0 .137.028.184.082a.25.25 0 0 1 .072.184v1.168c0 .587-.133 1.089-.4 1.505a2.59 2.59 0 0 1-1.136.963c-.485.218-1.051.327-1.7.327ZM32.73 61a.25.25 0 0 1-.184-.072.25.25 0 0 1-.072-.184v-4.813a.25.25 0 0 1 .072-.184.25.25 0 0 1 .184-.072h1.209c.068 0 .126.024.174.072.054.048.081.11.081.184v4.813a.234.234 0 0 1-.081.184.237.237 0 0 1-.175.072H32.73Zm-.01-6.093a.25.25 0 0 1-.184-.071.25.25 0 0 1-.072-.185v-.911a.25.25 0 0 1 .072-.184.234.234 0 0 1 .184-.082h1.218c.076 0 .137.027.185.082a.234.234 0 0 1 .082.184v.911a.234.234 0 0 1-.082.184.25.25 0 0 1-.184.072h-1.22ZM38.118 61c-.437 0-.816-.068-1.137-.205a1.578 1.578 0 0 1-.727-.655c-.17-.3-.256-.686-.256-1.157v-1.966H35.2a.286.286 0 0 1-.195-.072.25.25 0 0 1-.072-.184v-.83a.25.25 0 0 1 .072-.184.286.286 0 0 1 .195-.072h.798v-1.69a.25.25 0 0 1 .072-.184.273.273 0 0 1 .184-.071h1.188a.25.25 0 0 1 .184.071.25.25 0 0 1 .072.185v1.69h1.28a.25.25 0 0 1 .184.07.25.25 0 0 1 .072.185v.83a.25.25 0 0 1-.072.184.25.25 0 0 1-.184.072h-1.28v1.822c0 .233.044.417.133.553.089.137.24.205.45.205h.79a.25.25 0 0 1 .184.072.25.25 0 0 1 .071.184v.891a.25.25 0 0 1-.071.184.25.25 0 0 1-.185.072h-.952Zm2.312 0a.25.25 0 0 1-.184-.072.25.25 0 0 1-.072-.184v-6.758a.25.25 0 0 1 .072-.185.25.25 0 0 1 .184-.071h1.209a.25.25 0 0 1 .184.071.25.25 0 0 1 .072.185v6.758a.25.25 0 0 1-.072.184.25.25 0 0 1-.184.072H40.43Zm4.272.102c-.369 0-.7-.068-.994-.204a1.832 1.832 0 0 1-.686-.574 1.359 1.359 0 0 1-.256-.809c0-.484.198-.867.594-1.147.396-.286.922-.481 1.577-.583l1.28-.195v-.143c0-.246-.051-.434-.154-.564-.102-.13-.29-.194-.563-.194a.891.891 0 0 0-.47.113.804.804 0 0 0-.277.307.294.294 0 0 1-.256.133H43.35a.236.236 0 0 1-.174-.061.207.207 0 0 1-.051-.164c0-.123.044-.263.133-.42.095-.164.239-.325.43-.482.191-.157.437-.286.737-.389.3-.102.662-.153 1.086-.153.443 0 .822.051 1.136.153.314.103.567.246.758.43.198.185.345.403.44.656.096.246.144.519.144.819v3.113a.234.234 0 0 1-.082.184.237.237 0 0 1-.174.072h-1.188a.25.25 0 0 1-.184-.072.25.25 0 0 1-.072-.184v-.358a1.47 1.47 0 0 1-.359.358 1.72 1.72 0 0 1-.532.256c-.198.068-.43.102-.696.102Zm.48-1.167c.199 0 .376-.04.533-.123a.896.896 0 0 0 .38-.4 1.48 1.48 0 0 0 .143-.685v-.144l-.87.154c-.322.055-.557.14-.707.256-.144.11-.215.239-.215.39a.45.45 0 0 0 .102.296.71.71 0 0 0 .266.195c.11.04.232.061.369.061Zm7.218 1.167c-.382 0-.703-.064-.962-.194a1.958 1.958 0 0 1-.625-.492v.328a.234.234 0 0 1-.082.184.237.237 0 0 1-.174.072H49.4a.25.25 0 0 1-.184-.072.25.25 0 0 1-.072-.184v-6.758a.25.25 0 0 1 .072-.185.25.25 0 0 1 .184-.071h1.25a.25.25 0 0 1 .184.071.25.25 0 0 1 .071.185v2.191a1.84 1.84 0 0 1 .615-.43 2.09 2.09 0 0 1 .88-.174c.342 0 .642.058.902.174.266.11.491.27.675.481.185.212.328.464.43.758.103.294.16.625.175.993a6.884 6.884 0 0 1 0 .717 3.34 3.34 0 0 1-.185 1.024 2.287 2.287 0 0 1-.43.758 1.848 1.848 0 0 1-.665.47c-.26.103-.56.154-.901.154Zm-.553-1.372c.233 0 .413-.047.543-.143a.773.773 0 0 0 .277-.39c.061-.163.099-.344.112-.542a4.943 4.943 0 0 0 0-.635 1.915 1.915 0 0 0-.112-.543.773.773 0 0 0-.277-.389c-.13-.095-.31-.143-.543-.143a.89.89 0 0 0-.522.143.825.825 0 0 0-.307.359c-.068.143-.106.3-.113.47a7.24 7.24 0 0 0 0 .769c.007.184.041.355.103.512.061.157.16.286.297.389.136.095.317.143.542.143Z"/></g><defs><filter id="a" width="80" height="80" x="0" y="0" color-interpolation-filters="sRGB" filterUnits="userSpaceOnUse"><feFlood flood-opacity="0" result="BackgroundImageFix"/><feColorMatrix in="SourceAlpha" result="hardAlpha" values="0 0 0 0 0 0 0 0 0 0 0 0 0 0 0 0 0 0 127 0"/><feOffset dy="2"/><feGaussianBlur stdDeviation="4"/><feColorMatrix values="0 0 0 0 0 0 0 0 0 0 0 0 0 0 0 0 0 0 0.75 0"/><feBlend in2="BackgroundImageFix" result="effect1_dropShadow_601_4593"/><feBlend in="SourceGraphic" in2="effect1_dropShadow_601_4593" result="shape"/></filter></defs></svg>