<svg xmlns="http://www.w3.org/2000/svg" width="80" height="80" fill="none"><g filter="url(#a)"><rect width="64" height="64" x="8" y="6" fill="none" rx="5"/><path fill="#EA4335" d="m45.282 19.227 2.781-2.781.185-1.172c-5.068-4.609-13.126-4.086-17.695 1.09-1.27 1.439-2.211 3.231-2.713 5.083l.996-.14 5.563-.918.43-.44c2.474-2.717 6.658-3.083 9.515-.77l.938.048Z"/><path fill="#4285F4" d="M52.026 21.365a12.53 12.53 0 0 0-3.778-6.09l-3.904 3.903a6.94 6.94 0 0 1 2.548 5.505v.693a3.475 3.475 0 0 1 3.474 3.474c0 1.92-1.555 3.436-3.474 3.436h-6.959l-.683.742v4.167l.683.654h6.959c4.991.04 9.069-3.936 9.108-8.928a9.038 9.038 0 0 0-3.974-7.556Z"/><path fill="#34A853" d="M32.984 37.85h6.949v-5.564h-6.95a3.41 3.41 0 0 1-1.424-.312l-.986.303-2.801 2.781-.244.947c1.57 1.186 3.487 1.853 5.456 1.845Z"/><path fill="#FBBC05" d="M32.984 19.803a9.038 9.038 0 0 0-5.456 16.202l4.03-4.031a3.474 3.474 0 1 1 4.598-4.597l4.03-4.03a9.028 9.028 0 0 0-7.202-3.544Z"/><path fill="#2AF" d="M28.796 55.082c-.519 0-.967-.085-1.343-.254a2.017 2.017 0 0 1-.869-.754c-.202-.332-.314-.737-.335-1.212a31.905 31.905 0 0 1 0-1.507c.021-.464.136-.857.344-1.179.207-.322.5-.568.876-.737.377-.17.819-.254 1.327-.254.41 0 .772.052 1.089.156.317.098.581.232.794.401.219.17.383.355.492.557.114.202.175.401.18.598a.134.134 0 0 1-.05.123.167.167 0 0 1-.122.049h-1.196a.318.318 0 0 1-.139-.025.309.309 0 0 1-.074-.09 1.1 1.1 0 0 0-.172-.254.854.854 0 0 0-.303-.237 1.084 1.084 0 0 0-.5-.099c-.31 0-.556.082-.736.246-.175.164-.27.426-.287.786-.016.47-.016.945 0 1.425.016.383.117.658.303.828.186.169.431.254.737.254.207 0 .39-.036.549-.107a.837.837 0 0 0 .385-.328c.093-.152.139-.346.139-.581v-.156h-.77a.228.228 0 0 1-.155-.057.228.228 0 0 1-.058-.156v-.606a.2.2 0 0 1 .057-.147.212.212 0 0 1 .156-.066h2.064c.06 0 .11.022.147.066a.2.2 0 0 1 .058.147v.934c0 .47-.107.87-.32 1.204-.213.333-.516.59-.909.77-.388.175-.84.262-1.36.262Zm5.452 0c-.459 0-.846-.074-1.163-.221a1.661 1.661 0 0 1-.72-.63 2.17 2.17 0 0 1-.28-.992 7.4 7.4 0 0 1 0-.737c.023-.388.12-.718.296-.99.174-.274.417-.484.729-.632.316-.147.696-.22 1.138-.22.448 0 .827.073 1.138.22.317.148.563.358.737.631.175.273.274.603.295.991a7.4 7.4 0 0 1 0 .737 2.11 2.11 0 0 1-.286.991 1.603 1.603 0 0 1-.721.63c-.311.148-.699.222-1.163.222Zm0-1c.246 0 .423-.073.532-.22.115-.148.18-.369.197-.664a5.21 5.21 0 0 0 .008-.327 5.21 5.21 0 0 0-.008-.328c-.016-.29-.082-.508-.197-.655-.109-.153-.286-.23-.532-.23-.24 0-.418.077-.532.23-.115.147-.178.366-.189.655a5.224 5.224 0 0 0-.008.328c0 .136.003.245.008.327.011.295.074.516.189.664.114.147.292.22.532.22Zm4.999 1c-.459 0-.847-.074-1.163-.221a1.662 1.662 0 0 1-.721-.63 2.17 2.17 0 0 1-.278-.992 7.4 7.4 0 0 1 0-.737c.021-.388.12-.718.294-.99.175-.274.418-.484.73-.632.316-.147.695-.22 1.138-.22.447 0 .827.073 1.138.22.317.148.563.358.737.631.175.273.273.603.295.991a7.4 7.4 0 0 1 0 .737 2.108 2.108 0 0 1-.287.991 1.602 1.602 0 0 1-.72.63c-.311.148-.7.222-1.163.222Zm0-1c.245 0 .423-.073.532-.22.115-.148.18-.369.197-.664.005-.082.008-.19.008-.327s-.003-.246-.008-.328c-.017-.29-.082-.508-.197-.655-.11-.153-.287-.23-.532-.23-.24 0-.418.077-.533.23-.114.147-.177.366-.188.655a5.21 5.21 0 0 0-.008.328c0 .136.003.245.008.327.01.295.074.516.188.664.115.147.293.22.533.22Zm5.072 2.72c-.42 0-.77-.055-1.048-.164a2.086 2.086 0 0 1-.655-.393 1.575 1.575 0 0 1-.344-.459 1.03 1.03 0 0 1-.115-.352.165.165 0 0 1 .057-.147.229.229 0 0 1 .156-.058h1.04c.05 0 .09.011.123.033a.268.268 0 0 1 .09.131c.027.06.063.123.107.188a.5.5 0 0 0 .196.156.794.794 0 0 0 .352.066c.164 0 .3-.028.41-.082a.486.486 0 0 0 .245-.254 1.1 1.1 0 0 0 .082-.467v-.549a1.442 1.442 0 0 1-.483.336 1.851 1.851 0 0 1-.712.123c-.279 0-.525-.041-.737-.123a1.317 1.317 0 0 1-.533-.368 1.812 1.812 0 0 1-.336-.598 3.174 3.174 0 0 1-.139-.811 5.499 5.499 0 0 1 0-.426c.017-.295.063-.56.14-.795.076-.234.185-.436.327-.605.147-.17.328-.298.54-.386a1.83 1.83 0 0 1 .738-.139c.294 0 .546.058.753.172.213.11.388.249.524.418v-.303a.19.19 0 0 1 .058-.14.187.187 0 0 1 .147-.065h.942c.06 0 .11.022.147.066a.178.178 0 0 1 .066.139v3.94c0 .414-.085.764-.254 1.048-.17.284-.412.5-.729.647-.317.147-.702.22-1.155.22Zm-.057-2.957a.727.727 0 0 0 .426-.114.658.658 0 0 0 .237-.295 1.02 1.02 0 0 0 .09-.385c.006-.06.009-.145.009-.254 0-.11-.003-.191-.009-.246a1.037 1.037 0 0 0-.09-.393.61.61 0 0 0-.237-.287.727.727 0 0 0-.426-.114.743.743 0 0 0-.434.114.668.668 0 0 0-.23.312 1.75 1.75 0 0 0-.081.434c-.006.12-.006.243 0 .368.01.159.038.303.081.434.05.131.126.235.23.312a.746.746 0 0 0 .434.114ZM47.626 55a.2.2 0 0 1-.147-.057.2.2 0 0 1-.057-.148V49.39a.2.2 0 0 1 .057-.148.2.2 0 0 1 .147-.057h.967a.2.2 0 0 1 .147.057.2.2 0 0 1 .057.148v5.405a.2.2 0 0 1-.057.148.2.2 0 0 1-.147.057h-.967Zm4.105.082c-.645 0-1.158-.175-1.54-.524-.382-.35-.582-.868-.598-1.556v-.287c.016-.431.112-.8.287-1.106a1.76 1.76 0 0 1 .737-.704 2.374 2.374 0 0 1 1.105-.246c.48 0 .877.096 1.188.287.317.191.554.45.712.778.159.328.238.702.238 1.122v.197c0 .06-.022.109-.066.147a.19.19 0 0 1-.139.057h-2.62v.058c.005.158.032.303.081.434a.618.618 0 0 0 .606.426c.11 0 .2-.017.27-.05a.861.861 0 0 0 .189-.122c.05-.05.087-.09.115-.123a.384.384 0 0 1 .114-.098.342.342 0 0 1 .148-.025h1.015c.055 0 .099.016.131.05.039.026.055.067.05.122a.721.721 0 0 1-.14.336 1.72 1.72 0 0 1-.385.393c-.163.125-.371.23-.622.311a2.827 2.827 0 0 1-.877.123Zm-.697-2.645h1.385v-.017c0-.175-.028-.327-.082-.459a.602.602 0 0 0-.238-.303.65.65 0 0 0-.377-.106.651.651 0 0 0-.376.106.69.69 0 0 0-.23.303 1.186 1.186 0 0 0-.082.46v.016ZM31.171 65.082c-.519 0-.964-.085-1.335-.254a1.974 1.974 0 0 1-.86-.745c-.202-.328-.314-.735-.336-1.22a29.452 29.452 0 0 1 0-1.458c.022-.475.136-.877.344-1.204.207-.333.497-.585.868-.754.371-.175.81-.262 1.319-.262.36 0 .693.046.999.14.306.087.573.218.802.392.23.17.407.377.533.623.13.24.2.513.205.819a.134.134 0 0 1-.05.123.167.167 0 0 1-.122.049h-1.106a.28.28 0 0 1-.164-.041.384.384 0 0 1-.098-.172c-.077-.29-.202-.486-.377-.59a1.14 1.14 0 0 0-.63-.163c-.3 0-.538.084-.713.253-.175.164-.27.44-.287.828-.016.447-.016.906 0 1.376.017.387.112.666.287.835.175.164.412.246.713.246.25 0 .464-.055.638-.164.175-.11.298-.306.369-.59.022-.082.052-.136.09-.164a.28.28 0 0 1 .172-.049h1.106c.049 0 .09.017.123.05a.134.134 0 0 1 .049.122 1.8 1.8 0 0 1-.205.827 1.87 1.87 0 0 1-.533.623 2.62 2.62 0 0 1-.802.393 3.628 3.628 0 0 1-1 .13ZM34.685 65a.2.2 0 0 1-.147-.057.2.2 0 0 1-.057-.148V59.39a.2.2 0 0 1 .057-.148.2.2 0 0 1 .147-.057h.967a.2.2 0 0 1 .147.057.2.2 0 0 1 .058.148v5.405a.2.2 0 0 1-.058.148.2.2 0 0 1-.147.057h-.967Zm4.154.082c-.459 0-.846-.074-1.163-.221a1.662 1.662 0 0 1-.72-.63 2.17 2.17 0 0 1-.28-.992 7.4 7.4 0 0 1 0-.737c.023-.388.12-.718.295-.99.175-.274.418-.484.73-.632.316-.147.696-.22 1.138-.22.448 0 .827.073 1.138.22.317.148.563.358.737.631.175.273.273.603.295.991a7.4 7.4 0 0 1 0 .737 2.108 2.108 0 0 1-.287.991 1.602 1.602 0 0 1-.72.63c-.311.148-.7.222-1.163.222Zm0-1c.245 0 .423-.073.532-.22.115-.148.18-.369.197-.664.005-.082.008-.19.008-.327s-.003-.246-.008-.328c-.017-.29-.082-.508-.197-.655-.109-.153-.287-.23-.532-.23-.24 0-.418.077-.532.23-.115.147-.178.366-.189.655a5.21 5.21 0 0 0-.008.328c0 .136.003.245.008.327.011.295.074.516.188.664.115.147.293.22.533.22Zm4.548 1a1.64 1.64 0 0 1-.835-.213 1.46 1.46 0 0 1-.565-.623c-.137-.278-.205-.616-.205-1.015v-2.285a.2.2 0 0 1 .057-.148.2.2 0 0 1 .148-.057h1.023a.2.2 0 0 1 .148.057.2.2 0 0 1 .057.148v2.236c0 .535.24.802.72.802.225 0 .402-.068.533-.204.137-.142.205-.342.205-.598v-2.236a.2.2 0 0 1 .057-.148.2.2 0 0 1 .148-.057H45.9a.2.2 0 0 1 .148.057.2.2 0 0 1 .057.148v3.85a.2.2 0 0 1-.057.147.2.2 0 0 1-.148.057h-.95a.218.218 0 0 1-.147-.057.2.2 0 0 1-.057-.148v-.311a1.37 1.37 0 0 1-.557.45 1.987 1.987 0 0 1-.803.148Zm5.271 0c-.262 0-.5-.041-.712-.123a1.558 1.558 0 0 1-.54-.377 1.828 1.828 0 0 1-.345-.606 2.85 2.85 0 0 1-.139-.819 5.784 5.784 0 0 1 0-.573c.011-.295.058-.56.14-.795.081-.234.196-.436.343-.605.148-.17.328-.298.54-.386.214-.092.451-.139.713-.139a1.637 1.637 0 0 1 1.204.483V59.39a.2.2 0 0 1 .058-.148.2.2 0 0 1 .147-.057h1a.19.19 0 0 1 .139.057.187.187 0 0 1 .065.148v5.405a.19.19 0 0 1-.065.148.19.19 0 0 1-.14.057h-.925a.2.2 0 0 1-.148-.057.2.2 0 0 1-.057-.148v-.262c-.13.159-.3.29-.508.393-.207.104-.464.156-.77.156Zm.443-1.098c.185 0 .33-.038.434-.114a.702.702 0 0 0 .237-.311c.055-.126.085-.262.09-.41a6.2 6.2 0 0 0 0-.614.956.956 0 0 0-.09-.377.661.661 0 0 0-.245-.287.727.727 0 0 0-.426-.114.743.743 0 0 0-.434.114.618.618 0 0 0-.221.312 1.75 1.75 0 0 0-.082.434 2.536 2.536 0 0 0 0 .508c.01.158.038.303.082.434a.618.618 0 0 0 .22.31c.11.077.255.115.435.115Z"/></g><defs><filter id="a" width="80" height="80" x="0" y="0" color-interpolation-filters="sRGB" filterUnits="userSpaceOnUse"><feFlood flood-opacity="0" result="BackgroundImageFix"/><feColorMatrix in="SourceAlpha" result="hardAlpha" values="0 0 0 0 0 0 0 0 0 0 0 0 0 0 0 0 0 0 127 0"/><feOffset dy="2"/><feGaussianBlur stdDeviation="4"/><feColorMatrix values="0 0 0 0 0 0 0 0 0 0 0 0 0 0 0 0 0 0 0.75 0"/><feBlend in2="BackgroundImageFix" result="effect1_dropShadow_603_1480"/><feBlend in="SourceGraphic" in2="effect1_dropShadow_603_1480" result="shape"/></filter></defs></svg>