<svg xmlns="http://www.w3.org/2000/svg" width="80" height="80" fill="rgba(0,0,255,0.2)"><g><rect width="64" height="64" x="8" y="6" fill="#0D1117" rx="5"/><path fill="#E535AB" fill-rule="evenodd" d="m42.73 14.663 6.573 3.794c.185-.196.4-.37.646-.512a2.855 2.855 0 0 1 3.893 1.045 2.855 2.855 0 0 1-1.804 4.195v7.592a2.84 2.84 0 0 1 1.795 4.193 2.853 2.853 0 0 1-4.597.473l-6.531 3.771A2.852 2.852 0 0 1 40 42.96a2.846 2.846 0 0 1-2.733-3.654l-6.57-3.793a2.85 2.85 0 1 1-2.735-4.736v-7.592a2.853 2.853 0 0 1-1.804-4.195 2.853 2.853 0 0 1 4.537-.536l6.573-3.796A2.846 2.846 0 0 1 40 11a2.846 2.846 0 0 1 2.73 3.663Zm-.684 1.169 6.587 3.803a2.845 2.845 0 0 0 2.05 3.544v7.6a2.63 2.63 0 0 0-.11.03L41.97 15.908l.077-.076Zm-4.014.077L29.43 30.811a2.898 2.898 0 0 0-.112-.03v-7.602a2.844 2.844 0 0 0 2.049-3.548l6.585-3.803.081.081Zm2.764.675 8.602 14.898a2.833 2.833 0 0 0-.802 1.39H31.404a2.85 2.85 0 0 0-.8-1.386l8.603-14.9a2.856 2.856 0 0 0 1.589-.002Zm1.31 21.61 6.545-3.78a2.796 2.796 0 0 1-.052-.186H31.4a2.98 2.98 0 0 1-.03.11l6.577 3.797A2.84 2.84 0 0 1 40 37.264a2.84 2.84 0 0 1 2.106.93Z" clip-rule="evenodd"/><path fill="#2AF" d="M23.176 61.102c-.648 0-1.208-.105-1.68-.317a2.523 2.523 0 0 1-1.085-.942c-.252-.417-.392-.922-.42-1.516a40.334 40.334 0 0 1 0-1.884c.028-.58.171-1.072.43-1.474.26-.403.625-.71 1.096-.922.471-.212 1.024-.317 1.66-.317.511 0 .965.065 1.361.194.396.123.727.29.993.502.273.212.478.444.615.696a1.6 1.6 0 0 1 .225.748.167.167 0 0 1-.061.153.209.209 0 0 1-.154.062h-1.495a.397.397 0 0 1-.174-.03.388.388 0 0 1-.092-.114 1.371 1.371 0 0 0-.215-.317 1.067 1.067 0 0 0-.38-.297c-.156-.082-.364-.123-.624-.123-.389 0-.696.103-.921.307-.219.205-.338.533-.359.983a26.47 26.47 0 0 0 0 1.782c.02.478.147.823.379 1.034.232.212.54.318.922.318.26 0 .488-.044.686-.133.204-.089.365-.226.481-.41.116-.191.174-.433.174-.727v-.194h-.962a.285.285 0 0 1-.195-.072.285.285 0 0 1-.072-.195v-.758a.25.25 0 0 1 .072-.184.266.266 0 0 1 .195-.082h2.58c.075 0 .137.028.184.082a.25.25 0 0 1 .072.184v1.168c0 .587-.133 1.089-.4 1.505a2.59 2.59 0 0 1-1.136.963c-.485.218-1.051.327-1.7.327ZM27.73 61a.25.25 0 0 1-.184-.072.25.25 0 0 1-.072-.184v-4.813c0-.068.024-.126.072-.174a.234.234 0 0 1 .184-.082h1.178c.075 0 .136.028.184.082a.237.237 0 0 1 .072.174v.41c.184-.212.402-.376.655-.492.26-.116.55-.174.87-.174h.451c.068 0 .126.024.174.072.055.048.082.11.082.184v1.055c0 .068-.027.13-.082.184a.237.237 0 0 1-.174.072h-.993c-.28 0-.498.078-.656.235-.15.15-.225.366-.225.646v2.621a.234.234 0 0 1-.082.184A.25.25 0 0 1 29 61h-1.27Zm5.902.102c-.369 0-.7-.068-.994-.204a1.832 1.832 0 0 1-.686-.574 1.359 1.359 0 0 1-.256-.809c0-.484.198-.867.594-1.147.396-.286.922-.481 1.577-.583l1.28-.195v-.143c0-.246-.051-.434-.154-.564-.102-.13-.29-.194-.563-.194a.891.891 0 0 0-.47.113.804.804 0 0 0-.277.307.294.294 0 0 1-.256.133H32.28a.236.236 0 0 1-.174-.061.207.207 0 0 1-.051-.164c0-.123.044-.263.133-.42.095-.164.239-.325.43-.482.191-.157.437-.286.737-.389.3-.102.662-.153 1.086-.153.443 0 .822.051 1.136.153.314.103.567.246.758.43.198.185.345.403.44.656.096.246.144.519.144.819v3.113a.234.234 0 0 1-.082.184.237.237 0 0 1-.174.072h-1.188a.25.25 0 0 1-.184-.072.25.25 0 0 1-.072-.184v-.358a1.47 1.47 0 0 1-.359.358 1.72 1.72 0 0 1-.532.256c-.198.068-.43.102-.696.102Zm.48-1.167c.199 0 .376-.04.533-.123a.896.896 0 0 0 .38-.4 1.48 1.48 0 0 0 .143-.685v-.144l-.87.154c-.322.055-.557.14-.707.256-.144.11-.215.239-.215.39a.45.45 0 0 0 .102.296.71.71 0 0 0 .266.195c.11.04.232.061.369.061Zm4.218 3.01a.25.25 0 0 1-.184-.071.25.25 0 0 1-.072-.184v-6.76a.25.25 0 0 1 .072-.184.25.25 0 0 1 .184-.072h1.157c.069 0 .127.024.174.072.055.048.082.11.082.184v.38c.157-.212.365-.387.625-.523.26-.143.58-.215.962-.215.342 0 .642.054.902.164.259.102.48.256.665.46.184.205.328.454.43.748.11.294.17.631.185 1.014a7.656 7.656 0 0 1 0 .758 3.38 3.38 0 0 1-.175.993 2.17 2.17 0 0 1-.43.747c-.184.205-.41.365-.675.482-.26.109-.56.163-.901.163a2.09 2.09 0 0 1-.881-.174 1.718 1.718 0 0 1-.615-.512v2.274a.25.25 0 0 1-.071.184.25.25 0 0 1-.185.072H38.33Zm2.448-3.215c.232 0 .413-.047.542-.143a.773.773 0 0 0 .277-.39c.061-.163.099-.344.112-.542a4.943 4.943 0 0 0 0-.635 1.915 1.915 0 0 0-.112-.543.773.773 0 0 0-.277-.389c-.13-.095-.31-.143-.542-.143-.226 0-.407.051-.543.154a.815.815 0 0 0-.297.378 1.556 1.556 0 0 0-.103.512 7.24 7.24 0 0 0 0 .768c.007.171.045.332.113.482a.91.91 0 0 0 .307.358.94.94 0 0 0 .523.133ZM44.79 61a.25.25 0 0 1-.184-.072.25.25 0 0 1-.072-.184v-6.758a.25.25 0 0 1 .072-.185.25.25 0 0 1 .184-.071h1.31a.25.25 0 0 1 .185.071.25.25 0 0 1 .072.185v2.283c.184-.212.41-.379.676-.502.273-.13.587-.194.942-.194.396 0 .747.088 1.054.266.314.178.56.44.738.788.177.342.266.762.266 1.26v2.857a.25.25 0 0 1-.072.184.25.25 0 0 1-.184.072h-1.32a.272.272 0 0 1-.185-.072.25.25 0 0 1-.072-.184v-2.795c0-.321-.078-.567-.235-.738-.15-.177-.376-.266-.676-.266-.28 0-.506.089-.676.266-.17.17-.256.417-.256.738v2.795a.25.25 0 0 1-.072.184.25.25 0 0 1-.184.072h-1.31Zm10.152 1.946a.25.25 0 0 1-.184-.072.25.25 0 0 1-.072-.184v-2.274a1.6 1.6 0 0 1-.614.512 2.09 2.09 0 0 1-.881.174c-.335 0-.635-.054-.901-.163a1.938 1.938 0 0 1-.676-.482 2.171 2.171 0 0 1-.43-.747 3.392 3.392 0 0 1-.174-.993 7.656 7.656 0 0 1 0-.758c.02-.383.082-.72.184-1.014a2.17 2.17 0 0 1 .43-.748 1.75 1.75 0 0 1 .666-.46c.266-.11.566-.164.901-.164.382 0 .703.072.962.215.26.136.468.31.625.522v-.379a.25.25 0 0 1 .072-.184.273.273 0 0 1 .184-.072h1.157a.25.25 0 0 1 .185.072.25.25 0 0 1 .071.184v6.759a.25.25 0 0 1-.071.184.25.25 0 0 1-.185.072h-1.249Zm-1.198-3.216a.941.941 0 0 0 .522-.133.911.911 0 0 0 .307-.358c.069-.15.106-.31.113-.482a3.607 3.607 0 0 0 0-.768 1.554 1.554 0 0 0-.102-.512.813.813 0 0 0-.297-.378c-.137-.103-.318-.154-.543-.154-.225 0-.406.048-.543.143a.833.833 0 0 0-.287.39 2.188 2.188 0 0 0-.102.542 4.907 4.907 0 0 0 0 .635c.014.198.048.379.102.543a.833.833 0 0 0 .287.389c.137.095.318.143.543.143ZM57.91 61a.25.25 0 0 1-.184-.072.25.25 0 0 1-.072-.184v-6.758a.25.25 0 0 1 .072-.185.25.25 0 0 1 .184-.071h1.209a.25.25 0 0 1 .184.071.25.25 0 0 1 .072.185v6.758a.25.25 0 0 1-.072.184.25.25 0 0 1-.184.072H57.91Z"/></g><defs><filter id="a" width="80" height="80" x="0" y="0" color-interpolation-filters="sRGB" filterUnits="userSpaceOnUse"><feFlood flood-opacity="0" result="BackgroundImageFix"/><feColorMatrix in="SourceAlpha" result="hardAlpha" values="0 0 0 0 0 0 0 0 0 0 0 0 0 0 0 0 0 0 127 0"/><feOffset dy="2"/><feGaussianBlur stdDeviation="4"/><feColorMatrix values="0 0 0 0 0 0 0 0 0 0 0 0 0 0 0 0 0 0 0.75 0"/><feBlend in2="BackgroundImageFix" result="effect1_dropShadow_603_624"/><feBlend in="SourceGraphic" in2="effect1_dropShadow_603_624" result="shape"/></filter></defs></svg>