<svg xmlns="http://www.w3.org/2000/svg" width="80" height="80" fill="rgba(0,0,255,0.2)"><g><rect width="64" height="64" x="8" y="6" fill="#0D1117" rx="5"/><path fill="#E44D26" d="m30 39-2-25h24l-2 25-10 3-10-3Z"/><path fill="#F16529" d="M50 16H40v24.5l8-2.5 2-22Z"/><path fill="#fff" d="m33.5 28.5-1-9.5H48l-.5 3h-12l.5 3.5h11L46 35l-6 2-6-2-.5-5h3l.5 2.5 3 1 3-1 .5-4h-10Z"/><path fill="#E5E5E5" d="M28.473 61a.25.25 0 0 1-.184-.072.25.25 0 0 1-.072-.184v-6.656a.25.25 0 0 1 .072-.184.25.25 0 0 1 .184-.072h1.32a.25.25 0 0 1 .185.072.25.25 0 0 1 .072.184v2.468h2.529v-2.468a.25.25 0 0 1 .072-.184.25.25 0 0 1 .184-.072h1.321a.25.25 0 0 1 .184.072.25.25 0 0 1 .072.184v6.656a.25.25 0 0 1-.072.184.25.25 0 0 1-.184.072h-1.321a.25.25 0 0 1-.184-.072.25.25 0 0 1-.072-.184v-2.55h-2.53v2.55a.25.25 0 0 1-.07.184.25.25 0 0 1-.185.072h-1.321Zm9.985 0c-.437 0-.816-.068-1.137-.205a1.578 1.578 0 0 1-.727-.655c-.17-.3-.256-.686-.256-1.157v-1.966h-.798a.286.286 0 0 1-.195-.072.25.25 0 0 1-.072-.184v-.83a.25.25 0 0 1 .072-.184.286.286 0 0 1 .195-.072h.798v-1.69a.25.25 0 0 1 .072-.184.273.273 0 0 1 .184-.071h1.188a.25.25 0 0 1 .185.071.25.25 0 0 1 .071.185v1.69h1.28a.25.25 0 0 1 .184.07.25.25 0 0 1 .072.185v.83a.25.25 0 0 1-.072.184.25.25 0 0 1-.184.072h-1.28v1.822c0 .233.045.417.133.553.089.137.24.205.45.205h.79a.25.25 0 0 1 .184.072.25.25 0 0 1 .071.184v.891a.25.25 0 0 1-.071.184.25.25 0 0 1-.185.072h-.952Zm2.312 0a.25.25 0 0 1-.184-.072.25.25 0 0 1-.072-.184v-4.813a.25.25 0 0 1 .072-.184.25.25 0 0 1 .184-.072h1.116a.25.25 0 0 1 .185.072.25.25 0 0 1 .071.184v.348c.137-.184.328-.344.574-.48a1.77 1.77 0 0 1 .87-.226c.785-.014 1.325.283 1.618.89.157-.259.382-.47.676-.634.293-.17.614-.256.962-.256.355 0 .673.082.953.246.286.157.515.402.686.737.17.328.256.754.256 1.28v2.908a.234.234 0 0 1-.082.184.237.237 0 0 1-.174.072h-1.188a.285.285 0 0 1-.194-.072.25.25 0 0 1-.072-.184v-2.837c0-.238-.034-.426-.103-.563a.646.646 0 0 0-.276-.307.841.841 0 0 0-.768 0 .7.7 0 0 0-.287.307c-.068.137-.102.325-.102.563v2.837a.25.25 0 0 1-.072.184.25.25 0 0 1-.184.072h-1.188a.25.25 0 0 1-.184-.072.25.25 0 0 1-.072-.184v-2.837c0-.238-.038-.426-.113-.563a.7.7 0 0 0-.286-.307.82.82 0 0 0-.758 0 .7.7 0 0 0-.287.307c-.068.137-.102.321-.102.553v2.847a.234.234 0 0 1-.082.184.25.25 0 0 1-.184.072H40.77Zm9.37 0a.25.25 0 0 1-.184-.072.25.25 0 0 1-.072-.184v-6.758a.25.25 0 0 1 .072-.185.25.25 0 0 1 .184-.071h1.209a.25.25 0 0 1 .184.071.25.25 0 0 1 .072.185v6.758a.25.25 0 0 1-.072.184.25.25 0 0 1-.184.072H50.14Z"/></g><defs><filter id="a" width="80" height="80" x="0" y="0" color-interpolation-filters="sRGB" filterUnits="userSpaceOnUse"><feFlood flood-opacity="0" result="BackgroundImageFix"/><feColorMatrix in="SourceAlpha" result="hardAlpha" values="0 0 0 0 0 0 0 0 0 0 0 0 0 0 0 0 0 0 127 0"/><feOffset dy="2"/><feGaussianBlur stdDeviation="4"/><feColorMatrix values="0 0 0 0 0 0 0 0 0 0 0 0 0 0 0 0 0 0 0.75 0"/><feBlend in2="BackgroundImageFix" result="effect1_dropShadow_601_5314"/><feBlend in="SourceGraphic" in2="effect1_dropShadow_601_5314" result="shape"/></filter></defs></svg>