<svg xmlns="http://www.w3.org/2000/svg" width="80" height="80" fill="none"><g filter="url(#a)"><rect width="64" height="64" x="8" y="6" fill="none" rx="5"/><path fill="#fff" d="M41.444 14.916c1.337.533 1.867 2.64 1.167 4.719-.692 2.07-2.327 3.33-3.67 2.805-1.333-.519-1.872-2.63-1.184-4.715.683-2.076 2.338-3.324 3.687-2.809Zm7.48 4.319c1.13.917.867 2.97-.568 4.61-1.473 1.632-3.56 2.226-4.685 1.326-1.138-.907-.863-2.954.593-4.582 1.453-1.645 3.539-2.24 4.66-1.354Zm-15.856-2.739c1.49.176 2.573 2.044 2.484 4.155-.16 2.112-1.433 3.692-2.912 3.521-1.477-.17-2.557-2.02-2.436-4.14.123-2.12 1.424-3.697 2.864-3.536ZM51.9 27.37c.861 1.167.147 3.083-1.63 4.248-1.776 1.166-3.917 1.156-4.803-.04-.886-1.194-.155-3.088 1.594-4.282 1.784-1.132 3.943-1.127 4.84.074m-8.26 10.27c-.525 1.008-1.906 1.66-3.042 1.55-2.368-.225-3.56-3.284-5.64-4.486-2.083-1.202-5.391-.643-6.694-2.636-.752-1.118-.688-2.894.1-3.946 1.088-1.45 3.444-1.205 5.212-1.706 2.327-.623 4.974-2.79 7.078-1.578 2.092 1.208 1.624 4.58 2.16 6.912.425 1.947 1.738 4.142.826 5.89Z"/><path fill="#2AF" d="M27.778 60a.2.2 0 0 1-.147-.057.2.2 0 0 1-.058-.148v-5.323a.2.2 0 0 1 .058-.148.2.2 0 0 1 .147-.057h1.057a.2.2 0 0 1 .147.057.2.2 0 0 1 .057.148v1.974h2.023v-1.974a.2.2 0 0 1 .058-.148.2.2 0 0 1 .147-.057h1.057a.2.2 0 0 1 .147.057.2.2 0 0 1 .057.148v5.323a.2.2 0 0 1-.057.148.2.2 0 0 1-.147.057h-1.057a.2.2 0 0 1-.147-.057.2.2 0 0 1-.058-.148v-2.04H29.04v2.04a.2.2 0 0 1-.057.148.2.2 0 0 1-.147.057h-1.057Zm7.372.082a1.64 1.64 0 0 1-.835-.213 1.46 1.46 0 0 1-.566-.623c-.136-.278-.204-.617-.204-1.015v-2.285a.2.2 0 0 1 .057-.148.2.2 0 0 1 .148-.057h1.023a.2.2 0 0 1 .148.057.2.2 0 0 1 .057.148v2.236c0 .535.24.802.72.802.225 0 .402-.068.533-.204.137-.142.205-.342.205-.598v-2.236a.2.2 0 0 1 .057-.148.2.2 0 0 1 .148-.057h1.023a.2.2 0 0 1 .148.057.2.2 0 0 1 .057.148v3.85a.2.2 0 0 1-.057.147.2.2 0 0 1-.148.057h-.95a.218.218 0 0 1-.147-.057.2.2 0 0 1-.057-.148v-.311a1.37 1.37 0 0 1-.557.45 1.987 1.987 0 0 1-.803.148Zm5.435 0c-.355 0-.658-.038-.909-.115a2.239 2.239 0 0 1-.606-.295 1.385 1.385 0 0 1-.344-.352.74.74 0 0 1-.123-.32.166.166 0 0 1 .057-.147.196.196 0 0 1 .14-.065h.933a.09.09 0 0 1 .041.008.36.36 0 0 1 .05.033c.07.038.141.087.212.147.071.055.153.104.246.148a.785.785 0 0 0 .336.065c.153 0 .281-.03.385-.09a.293.293 0 0 0 .155-.27.306.306 0 0 0-.073-.213c-.05-.06-.15-.117-.303-.172a4.293 4.293 0 0 0-.672-.164 3.5 3.5 0 0 1-.745-.254 1.284 1.284 0 0 1-.492-.418 1.123 1.123 0 0 1-.172-.63c0-.218.071-.429.213-.63.142-.203.35-.367.623-.492.273-.131.609-.197 1.007-.197.317 0 .59.038.82.115.234.07.43.164.589.278.164.115.286.233.368.353.082.12.126.229.131.327a.188.188 0 0 1-.049.148.18.18 0 0 1-.13.057h-.853a.267.267 0 0 1-.065-.008.533.533 0 0 1-.057-.033 1.027 1.027 0 0 1-.197-.131 1.18 1.18 0 0 0-.23-.148.729.729 0 0 0-.327-.065.537.537 0 0 0-.344.098.327.327 0 0 0-.057.45c.049.06.145.115.286.164.148.05.374.104.68.164.377.06.677.159.901.295.224.131.382.287.475.467.093.175.14.36.14.557a1.1 1.1 0 0 1-.238.696c-.153.202-.382.36-.688.475-.306.11-.677.164-1.114.164Zm2.98-.082a.2.2 0 0 1-.148-.057.2.2 0 0 1-.058-.148V54.39a.2.2 0 0 1 .058-.148.2.2 0 0 1 .147-.057h.95a.19.19 0 0 1 .14.057.187.187 0 0 1 .065.148v2.743l1.138-1.253a.595.595 0 0 1 .107-.098.28.28 0 0 1 .164-.04h1.097c.05 0 .09.018.123.056a.155.155 0 0 1 .057.123.202.202 0 0 1-.016.074.15.15 0 0 1-.05.066l-1.474 1.589 1.68 2.039c.043.044.065.087.065.13a.18.18 0 0 1-.188.181H46.3c-.082 0-.142-.014-.18-.041a1.876 1.876 0 0 1-.107-.098l-1.294-1.556v1.49c0 .06-.022.11-.066.148a.19.19 0 0 1-.139.057h-.95Zm5.372 1.556a.167.167 0 0 1-.172-.172v-.049a.462.462 0 0 1 .024-.057l.639-1.54-1.572-3.718a.258.258 0 0 1-.025-.099.245.245 0 0 1 .066-.123.155.155 0 0 1 .122-.057h.934c.071 0 .123.02.156.057a.22.22 0 0 1 .073.115l.942 2.384.958-2.384a.436.436 0 0 1 .082-.114c.038-.039.093-.058.164-.058h.917c.05 0 .09.02.123.057a.147.147 0 0 1 .057.115.323.323 0 0 1-.024.107l-2.318 5.364a.28.28 0 0 1-.082.115c-.038.038-.093.057-.163.057h-.901Z"/></g><defs><filter id="a" width="80" height="80" x="0" y="0" color-interpolation-filters="sRGB" filterUnits="userSpaceOnUse"><feFlood flood-opacity="0" result="BackgroundImageFix"/><feColorMatrix in="SourceAlpha" result="hardAlpha" values="0 0 0 0 0 0 0 0 0 0 0 0 0 0 0 0 0 0 127 0"/><feOffset dy="2"/><feGaussianBlur stdDeviation="4"/><feColorMatrix values="0 0 0 0 0 0 0 0 0 0 0 0 0 0 0 0 0 0 0.75 0"/><feBlend in2="BackgroundImageFix" result="effect1_dropShadow_602_849"/><feBlend in="SourceGraphic" in2="effect1_dropShadow_602_849" result="shape"/></filter></defs></svg>