<svg xmlns="http://www.w3.org/2000/svg" width="80" height="80" fill="rgba(0,0,255,0.2)"><g><rect width="64" height="64" x="8" y="6" fill="#0D1117" rx="5"/><g clip-path="url(#b)"><path fill="#F7DF1E" d="M51.2 11H28.8a4.8 4.8 0 0 0-4.8 4.8v22.4a4.8 4.8 0 0 0 4.8 4.8h22.4a4.8 4.8 0 0 0 4.8-4.8V15.8a4.8 4.8 0 0 0-4.8-4.8Z"/><path fill="#000" d="M44.25 34.125c.625 1.063 1.5 1.813 2.938 1.813 1.25 0 2.062-.626 2.062-1.5 0-1-.813-1.376-2.188-2l-.75-.313c-2.187-.938-3.624-2.063-3.624-4.5 0-2.25 1.687-4 4.374-4 1.938 0 3.313.688 4.25 2.438L49 27.563c-.5-.938-1.063-1.313-1.938-1.313-.874 0-1.437.563-1.437 1.313 0 .875.563 1.25 1.875 1.812l.75.313c2.563 1.125 4 2.187 4 4.75 0 2.687-2.125 4.187-5 4.187-2.813 0-4.625-1.313-5.5-3.063l2.5-1.437Zm-10.625.25c.5.813.875 1.563 1.938 1.563 1 0 1.624-.376 1.624-1.876V23.688h3v10.25c0 3.124-1.812 4.5-4.5 4.5-2.437 0-3.812-1.25-4.5-2.75l2.438-1.313Z"/></g><path fill="#E5E5E5" d="M20.055 60.082c-.31 0-.608-.038-.892-.115a2.423 2.423 0 0 1-.746-.36 1.81 1.81 0 0 1-.524-.59 1.851 1.851 0 0 1-.205-.819c0-.049.017-.09.05-.123a.164.164 0 0 1 .13-.057h1.106c.077 0 .134.02.172.057.044.039.08.096.107.172a.846.846 0 0 0 .155.377.745.745 0 0 0 .287.213c.12.044.254.066.401.066.273 0 .483-.088.63-.262.148-.18.222-.443.222-.787v-2.367h-2.654a.218.218 0 0 1-.147-.057.2.2 0 0 1-.057-.147v-.811a.2.2 0 0 1 .057-.148.218.218 0 0 1 .147-.057h3.964a.2.2 0 0 1 .148.057.187.187 0 0 1 .065.148v3.423c0 .475-.103.877-.31 1.204a2.002 2.002 0 0 1-.853.737c-.36.164-.778.246-1.253.246Zm4.677 0c-.295 0-.56-.055-.795-.164a1.464 1.464 0 0 1-.549-.459 1.086 1.086 0 0 1-.204-.647c0-.387.158-.693.475-.917.316-.23.737-.385 1.26-.467l1.025-.155v-.115c0-.197-.041-.347-.123-.45-.082-.104-.232-.156-.45-.156a.713.713 0 0 0-.377.09.643.643 0 0 0-.221.246.235.235 0 0 1-.205.106h-.918a.188.188 0 0 1-.139-.049.165.165 0 0 1-.04-.13.7.7 0 0 1 .106-.337 1.47 1.47 0 0 1 .344-.385c.153-.125.35-.229.59-.31.24-.083.529-.124.867-.124.355 0 .659.041.91.123.25.082.453.197.606.344.158.148.275.322.352.524.076.197.114.415.114.656v2.49c0 .06-.021.108-.065.147a.19.19 0 0 1-.14.057h-.95a.2.2 0 0 1-.147-.057.2.2 0 0 1-.057-.148v-.286a1.198 1.198 0 0 1-.287.286c-.12.088-.262.156-.426.205a1.71 1.71 0 0 1-.556.082Zm.384-.934c.159 0 .3-.033.426-.098a.717.717 0 0 0 .303-.32c.077-.147.115-.33.115-.548v-.115l-.696.123c-.257.044-.445.112-.565.205-.115.087-.172.19-.172.311 0 .093.027.172.082.237a.567.567 0 0 0 .213.156c.087.033.185.05.294.05ZM29.68 60c-.082 0-.142-.02-.18-.057a.695.695 0 0 1-.099-.148l-1.547-3.8a.163.163 0 0 1-.017-.074c0-.049.017-.09.05-.123a.19.19 0 0 1 .139-.057h.925c.07 0 .125.02.164.057a.272.272 0 0 1 .074.115l.925 2.515.934-2.515a.272.272 0 0 1 .073-.114c.039-.039.093-.058.164-.058h.926c.049 0 .092.02.13.057a.155.155 0 0 1 .058.123.163.163 0 0 1-.016.074l-1.548 3.8a.437.437 0 0 1-.099.148c-.038.038-.1.057-.188.057h-.868Zm4.45.082c-.296 0-.56-.055-.795-.164a1.464 1.464 0 0 1-.549-.459 1.086 1.086 0 0 1-.205-.647c0-.387.159-.693.475-.917.317-.23.737-.385 1.262-.467l1.023-.155v-.115c0-.197-.04-.347-.123-.45-.081-.104-.232-.156-.45-.156a.713.713 0 0 0-.377.09.643.643 0 0 0-.22.246.235.235 0 0 1-.206.106h-.917a.188.188 0 0 1-.14-.049.165.165 0 0 1-.04-.13.7.7 0 0 1 .106-.337 1.47 1.47 0 0 1 .344-.385c.153-.125.35-.229.59-.31.24-.083.53-.124.868-.124.355 0 .658.041.91.123.25.082.453.197.605.344.159.148.276.322.353.524.076.197.114.415.114.656v2.49c0 .06-.022.108-.065.147a.19.19 0 0 1-.14.057h-.95a.2.2 0 0 1-.147-.057.2.2 0 0 1-.057-.148v-.286a1.198 1.198 0 0 1-.287.286c-.12.088-.262.156-.426.205a1.71 1.71 0 0 1-.557.082Zm.384-.934c.158 0 .3-.033.426-.098a.717.717 0 0 0 .303-.32c.076-.147.115-.33.115-.548v-.115l-.696.123c-.257.044-.445.112-.566.205-.114.087-.171.19-.171.311 0 .093.027.172.081.237a.567.567 0 0 0 .213.156c.088.033.186.05.295.05Zm4.921.934c-.355 0-.658-.038-.909-.115a2.237 2.237 0 0 1-.606-.295 1.386 1.386 0 0 1-.344-.352.74.74 0 0 1-.123-.32.165.165 0 0 1 .057-.147.196.196 0 0 1 .14-.065h.933a.09.09 0 0 1 .041.008.359.359 0 0 1 .05.033c.07.038.141.087.212.147.071.055.153.104.246.148a.785.785 0 0 0 .336.065c.153 0 .281-.03.385-.09a.293.293 0 0 0 .155-.27.306.306 0 0 0-.073-.213c-.05-.06-.15-.117-.303-.172a4.29 4.29 0 0 0-.672-.164 3.503 3.503 0 0 1-.745-.254 1.286 1.286 0 0 1-.492-.418 1.124 1.124 0 0 1-.172-.63c0-.218.071-.429.213-.63.142-.203.35-.367.623-.492.273-.131.608-.197 1.007-.197.317 0 .59.038.82.115.234.07.43.164.589.278.164.115.286.233.368.353.082.12.126.229.131.327a.188.188 0 0 1-.049.148.18.18 0 0 1-.13.057h-.853a.268.268 0 0 1-.065-.008.541.541 0 0 1-.057-.033 1.027 1.027 0 0 1-.197-.131 1.177 1.177 0 0 0-.23-.148.73.73 0 0 0-.327-.065.538.538 0 0 0-.344.098.327.327 0 0 0-.057.45c.049.06.145.115.286.164.148.05.374.104.68.164.377.06.677.159.901.295.224.131.382.287.475.467.093.175.14.36.14.557a1.1 1.1 0 0 1-.238.696c-.153.202-.382.36-.688.475-.306.11-.677.164-1.114.164Zm4.732 0c-.404 0-.762-.074-1.073-.221a1.807 1.807 0 0 1-.745-.64 2.017 2.017 0 0 1-.295-1.015 5.38 5.38 0 0 1-.009-.327c0-.137.003-.249.009-.336.016-.399.114-.737.294-1.016.18-.284.426-.5.738-.647a2.534 2.534 0 0 1 1.08-.22c.377 0 .7.054.967.163.268.104.486.235.655.393.17.159.295.322.377.492.087.163.134.308.14.434a.177.177 0 0 1-.058.147.218.218 0 0 1-.148.057h-1.04a.212.212 0 0 1-.139-.04.377.377 0 0 1-.09-.123c-.065-.17-.15-.29-.254-.36a.642.642 0 0 0-.385-.107c-.218 0-.387.07-.508.213-.114.142-.177.36-.188.655-.005.218-.005.412 0 .581.011.3.074.52.189.656.12.136.289.204.507.204.17 0 .303-.035.402-.106.098-.071.177-.191.237-.36a.377.377 0 0 1 .09-.123.212.212 0 0 1 .14-.041h1.04c.054 0 .103.022.147.065a.156.156 0 0 1 .057.14 1.104 1.104 0 0 1-.082.327 1.838 1.838 0 0 1-.639.77 2.091 2.091 0 0 1-.597.278 2.838 2.838 0 0 1-.82.107ZM47.245 60a.2.2 0 0 1-.148-.057.2.2 0 0 1-.057-.148v-3.85a.19.19 0 0 1 .057-.138.187.187 0 0 1 .148-.066h.942c.06 0 .109.022.147.066a.19.19 0 0 1 .057.139v.328c.148-.17.323-.3.525-.394a1.7 1.7 0 0 1 .696-.139h.36a.19.19 0 0 1 .14.057.187.187 0 0 1 .065.148v.843a.204.204 0 0 1-.066.148.19.19 0 0 1-.139.057h-.794c-.224 0-.399.063-.524.189-.12.12-.18.292-.18.516v2.096c0 .06-.022.11-.066.148a.2.2 0 0 1-.148.057h-1.015Zm3.719 0a.2.2 0 0 1-.148-.057.2.2 0 0 1-.057-.148v-3.85a.2.2 0 0 1 .057-.147.2.2 0 0 1 .148-.057h.966a.19.19 0 0 1 .14.057.187.187 0 0 1 .065.148v3.85c0 .06-.022.108-.065.147a.19.19 0 0 1-.14.057h-.966Zm-.008-4.873a.2.2 0 0 1-.148-.057.2.2 0 0 1-.057-.148v-.729a.2.2 0 0 1 .057-.147.187.187 0 0 1 .148-.066h.974c.06 0 .11.022.148.066a.187.187 0 0 1 .065.147v.73c0 .06-.022.108-.065.147a.2.2 0 0 1-.148.057h-.974Zm2.6 6.43a.2.2 0 0 1-.148-.058.2.2 0 0 1-.057-.148v-5.405a.2.2 0 0 1 .057-.148.2.2 0 0 1 .147-.057h.926a.19.19 0 0 1 .139.057.187.187 0 0 1 .066.148v.303c.125-.17.292-.309.5-.418.207-.114.463-.172.769-.172.273 0 .513.044.72.131.208.082.386.205.533.369.148.164.262.363.344.598.087.235.136.505.148.81a6.172 6.172 0 0 1 0 .607 2.74 2.74 0 0 1-.14.794 1.736 1.736 0 0 1-.344.598 1.551 1.551 0 0 1-.54.385 1.846 1.846 0 0 1-.721.13c-.267 0-.502-.046-.704-.138a1.373 1.373 0 0 1-.492-.41v1.818a.2.2 0 0 1-.057.148.2.2 0 0 1-.148.057h-.999Zm1.957-2.573c.185 0 .33-.038.434-.114a.618.618 0 0 0 .22-.311c.05-.131.08-.276.091-.434.01-.17.01-.339 0-.508a1.53 1.53 0 0 0-.09-.434.618.618 0 0 0-.221-.312c-.104-.076-.249-.114-.434-.114-.18 0-.325.04-.434.123a.652.652 0 0 0-.238.303 1.24 1.24 0 0 0-.082.41 5.729 5.729 0 0 0 0 .613c.006.137.036.265.09.385.055.115.137.21.246.287.11.07.248.106.418.106ZM60.672 60a2.31 2.31 0 0 1-.91-.164 1.262 1.262 0 0 1-.58-.524c-.137-.24-.206-.549-.206-.925v-1.573h-.638a.229.229 0 0 1-.156-.057.2.2 0 0 1-.057-.148v-.663a.2.2 0 0 1 .057-.148.229.229 0 0 1 .156-.057h.639V54.39a.2.2 0 0 1 .057-.148.218.218 0 0 1 .147-.057h.95a.2.2 0 0 1 .148.057.2.2 0 0 1 .057.148v1.351h1.024a.2.2 0 0 1 .147.057.2.2 0 0 1 .058.148v.663a.2.2 0 0 1-.058.148.2.2 0 0 1-.147.057h-1.024v1.458a.8.8 0 0 0 .107.442c.07.11.19.164.36.164h.63a.2.2 0 0 1 .148.057.2.2 0 0 1 .057.148v.712a.2.2 0 0 1-.057.148.2.2 0 0 1-.148.057h-.761Z"/></g><defs><clipPath id="b"><path fill="#fff" d="M24 11h32v32H24z"/></clipPath><filter id="a" width="80" height="80" x="0" y="0" color-interpolation-filters="sRGB" filterUnits="userSpaceOnUse"><feFlood flood-opacity="0" result="BackgroundImageFix"/><feColorMatrix in="SourceAlpha" result="hardAlpha" values="0 0 0 0 0 0 0 0 0 0 0 0 0 0 0 0 0 0 127 0"/><feOffset dy="2"/><feGaussianBlur stdDeviation="4"/><feColorMatrix values="0 0 0 0 0 0 0 0 0 0 0 0 0 0 0 0 0 0 0.75 0"/><feBlend in2="BackgroundImageFix" result="effect1_dropShadow_601_4942"/><feBlend in="SourceGraphic" in2="effect1_dropShadow_601_4942" result="shape"/></filter></defs></svg>