<svg xmlns="http://www.w3.org/2000/svg" width="80" height="80" fill="rgba(0,0,255,0.2)"><g><rect width="64" height="64" x="8" y="6" fill="#0D1117" rx="5"/><g fill-rule="evenodd" clip-path="url(#b)" clip-rule="evenodd"><path fill="#fff" d="M42.416 19.608 42.384 11h-4.8l.032 8.608 2.4 3.296 2.4-3.296Zm-4.8 14.752V43h4.8v-8.64l-2.4-3.296-2.4 3.296Z"/><path fill="#00F2E6" d="m42.416 34.36 5.056 6.976 3.872-2.816-5.056-6.976-3.872-1.248v4.064Zm-4.8-14.752-5.088-6.976-3.872 2.816 5.056 6.976 3.904 1.248v-4.064Z"/><path fill="#00B9F1" d="m33.712 22.424-8.192-2.656-1.472 4.544L32.24 27l3.872-1.28-2.4-3.296Zm10.176 5.824 2.4 3.296L54.48 34.2l1.472-4.544L47.76 27l-3.872 1.248Z"/><path fill="#D63AFF" d="m47.76 27 8.192-2.688-1.472-4.544-8.192 2.656-2.4 3.296L47.76 27Zm-15.52 0-8.192 2.656L25.52 34.2l8.192-2.656 2.4-3.296L32.24 27Z"/><path fill="#FB015B" d="m33.712 31.544-5.056 6.976 3.872 2.816 5.088-6.976v-4.064l-3.904 1.248Zm12.576-9.12 5.056-6.976-3.872-2.816-5.056 6.976v4.064l3.872-1.248Z"/></g><path fill="#2AF" d="M32.195 61.102c-.39 0-.761-.047-1.116-.143a3.028 3.028 0 0 1-.932-.45 2.263 2.263 0 0 1-.655-.738 2.316 2.316 0 0 1-.257-1.024c0-.061.021-.112.062-.153a.205.205 0 0 1 .164-.072h1.382c.096 0 .168.024.215.072.055.047.1.12.133.215.035.19.1.348.195.47a.933.933 0 0 0 .358.267c.15.054.318.082.502.082.341 0 .604-.11.789-.328.184-.225.276-.553.276-.983v-2.96h-3.318a.272.272 0 0 1-.184-.07.25.25 0 0 1-.072-.185v-1.014a.25.25 0 0 1 .072-.184.272.272 0 0 1 .184-.072h4.956a.25.25 0 0 1 .185.072.234.234 0 0 1 .082.184v4.28c0 .594-.13 1.096-.39 1.506a2.5 2.5 0 0 1-1.064.921c-.451.205-.973.307-1.567.307ZM37.724 61a.373.373 0 0 1-.277-.102.417.417 0 0 1-.123-.236l-1.116-6.543a.09.09 0 0 1-.01-.041v-.031c0-.055.02-.102.061-.143a.215.215 0 0 1 .154-.072h1.27c.19 0 .297.075.317.225l.666 4.004.737-2.365a.68.68 0 0 1 .102-.174c.048-.069.127-.103.236-.103h.737c.116 0 .198.034.246.103.048.061.079.12.092.174l.737 2.355.666-3.994c.02-.15.126-.225.317-.225h1.27c.062 0 .113.024.154.072.04.04.061.088.061.143v.072l-1.116 6.543a.417.417 0 0 1-.123.236.373.373 0 0 1-.276.102h-.973c-.116 0-.205-.03-.266-.092a.513.513 0 0 1-.123-.174l-1.034-2.929-1.035 2.929a.513.513 0 0 1-.123.174c-.054.061-.14.092-.255.092h-.973Zm9.186 0a.25.25 0 0 1-.185-.072.25.25 0 0 1-.071-.184V55.44H44.83a.25.25 0 0 1-.184-.072.273.273 0 0 1-.072-.184v-1.096a.25.25 0 0 1 .072-.184.25.25 0 0 1 .184-.072h5.51a.25.25 0 0 1 .184.072.25.25 0 0 1 .071.184v1.096c0 .068-.024.13-.071.184a.25.25 0 0 1-.185.072h-1.823v5.304a.25.25 0 0 1-.071.184.25.25 0 0 1-.185.072h-1.35Z"/></g><defs><clipPath id="b"><path fill="#fff" d="M24 11h32v32H24z"/></clipPath><filter id="a" width="80" height="80" x="0" y="0" color-interpolation-filters="sRGB" filterUnits="userSpaceOnUse"><feFlood flood-opacity="0" result="BackgroundImageFix"/><feColorMatrix in="SourceAlpha" result="hardAlpha" values="0 0 0 0 0 0 0 0 0 0 0 0 0 0 0 0 0 0 127 0"/><feOffset dy="2"/><feGaussianBlur stdDeviation="4"/><feColorMatrix values="0 0 0 0 0 0 0 0 0 0 0 0 0 0 0 0 0 0 0.75 0"/><feBlend in2="BackgroundImageFix" result="effect1_dropShadow_603_928"/><feBlend in="SourceGraphic" in2="effect1_dropShadow_603_928" result="shape"/></filter></defs></svg>