<svg xmlns="http://www.w3.org/2000/svg" width="80" height="80" fill="none"><g><rect width="64" height="64" x="8" y="6" fill="none" rx="5"/><path fill="#fff" d="M33.263 26.741h-.241c-.096.983-.231 2.179-1.928 2.179h-.781c-.453 0-.472-.068-.472-.386v-5.118c0-.328 0-.463.906-.463h.318v-.289c-.347.03-1.215.03-1.61.03-.375 0-1.127 0-1.455-.03v.29h.221c.743 0 .762.105.762.452v5.06c0 .347-.019.454-.762.454H28v.298h5.002l.26-2.477Z"/><path fill="#fff" d="M33.099 22.654c-.04-.115-.058-.154-.184-.154-.125 0-.154.038-.192.154l-1.552 3.933c-.068.163-.183.462-.78.462v.242h1.493v-.242c-.299 0-.482-.134-.482-.328 0-.047.01-.067.03-.134l.327-.829h1.908l.386.983c.02.036.033.075.038.116 0 .192-.366.192-.55.192v.242h1.9v-.242h-.135c-.453 0-.501-.067-.569-.26L33.1 22.654Zm-.386.685.858 2.178h-1.716l.858-2.178Z"/><path fill="#fff" d="M40.82 22.721h-5.87l-.174 2.16h.231c.135-1.552.28-1.87 1.735-1.87.173 0 .424 0 .52.02.203.037.203.143.203.365v5.06c0 .328 0 .463-1.012.463h-.386v.299c.395-.03 1.369-.03 1.812-.03.444 0 1.436 0 1.832.03v-.299h-.386c-1.012 0-1.012-.135-1.012-.463v-5.06c0-.193 0-.328.174-.366.106-.02.366-.02.549-.02 1.446 0 1.59.319 1.725 1.87h.241l-.183-2.159Z"/><path fill="#fff" d="M45.986 28.91h-.241c-.241 1.475-.463 2.178-2.11 2.178h-1.273c-.453 0-.473-.067-.473-.385v-2.564h.858c.935 0 1.041.308 1.041 1.127h.241v-2.544h-.24c0 .82-.107 1.118-1.042 1.118h-.858v-2.304c0-.318.02-.385.473-.385h1.233c1.475 0 1.726.53 1.88 1.87h.24l-.27-2.16H40.05v.29h.222c.742 0 .761.106.761.453v5.031c0 .347-.02.453-.761.453h-.222v.299h5.532l.405-2.477Z"/><path fill="#fff" d="m48.886 25.507 1.321-1.927c.203-.309.53-.617 1.388-.627v-.289H49.3v.29c.386.01.598.22.598.443 0 .096-.02.115-.087.221l-1.1 1.62-1.233-1.851c-.019-.029-.067-.106-.067-.145 0-.115.212-.28.617-.289v-.289c-.328.03-1.032.03-1.398.03-.298 0-.896-.01-1.252-.03v.29h.183c.53 0 .713.067.896.337l1.764 2.67-1.572 2.322c-.135.193-.423.637-1.387.637v.298h2.293v-.298c-.443-.01-.607-.27-.607-.444 0-.087.03-.125.097-.231l1.359-2.015 1.523 2.294c.019.039.048.077.048.106 0 .116-.212.28-.627.29v.298c.338-.029 1.042-.029 1.398-.029.405 0 .848.01 1.253.03v-.3h-.183c-.502 0-.704-.048-.906-.346l-2.025-3.066Z"/><path fill="#2AF" d="M28.778 60a.2.2 0 0 1-.147-.057.2.2 0 0 1-.058-.148v-5.323a.2.2 0 0 1 .058-.148.2.2 0 0 1 .147-.057h1.081a.19.19 0 0 1 .14.057.187.187 0 0 1 .065.148v4.291h2.473c.06 0 .11.022.148.066a.187.187 0 0 1 .065.147v.82c0 .06-.022.108-.065.147a.2.2 0 0 1-.148.057h-3.759Zm5.87.082c-.295 0-.56-.055-.795-.164a1.464 1.464 0 0 1-.549-.459 1.086 1.086 0 0 1-.204-.647c0-.387.158-.693.475-.917.316-.23.737-.385 1.261-.467l1.024-.155v-.115c0-.197-.041-.347-.123-.45-.082-.104-.232-.156-.45-.156a.713.713 0 0 0-.377.09.643.643 0 0 0-.221.246.235.235 0 0 1-.205.106h-.917c-.06 0-.107-.016-.14-.049a.166.166 0 0 1-.04-.13.7.7 0 0 1 .106-.337 1.47 1.47 0 0 1 .344-.385c.153-.125.35-.229.59-.31.24-.083.53-.124.868-.124.355 0 .658.041.909.123.25.082.453.197.606.344.158.148.276.322.352.524.076.197.115.415.115.656v2.49c0 .06-.022.108-.066.147a.19.19 0 0 1-.14.057h-.95a.2.2 0 0 1-.147-.057.2.2 0 0 1-.057-.148v-.286c-.07.103-.166.199-.287.286-.12.088-.262.156-.425.205a1.71 1.71 0 0 1-.557.082Zm.385-.934c.158 0 .3-.033.425-.098a.717.717 0 0 0 .303-.32c.077-.147.115-.33.115-.548v-.115l-.696.123c-.257.044-.445.112-.565.205-.115.087-.172.19-.172.311 0 .093.027.172.082.237a.568.568 0 0 0 .213.156c.087.033.185.05.295.05Zm5.314.852a2.31 2.31 0 0 1-.909-.164 1.262 1.262 0 0 1-.581-.524c-.137-.24-.205-.549-.205-.925v-1.573h-.639a.229.229 0 0 1-.155-.057.2.2 0 0 1-.058-.148v-.663a.2.2 0 0 1 .058-.148.229.229 0 0 1 .155-.057h.64V54.39a.2.2 0 0 1 .056-.148.218.218 0 0 1 .148-.057h.95a.2.2 0 0 1 .147.057.2.2 0 0 1 .058.148v1.351h1.023a.2.2 0 0 1 .148.057.2.2 0 0 1 .057.148v.663a.2.2 0 0 1-.057.148.2.2 0 0 1-.148.057h-1.023v1.458c0 .186.035.333.106.442.071.11.191.164.36.164h.631a.2.2 0 0 1 .148.057.2.2 0 0 1 .057.148v.712a.2.2 0 0 1-.057.148.2.2 0 0 1-.148.057h-.762Zm3.61.082c-.644 0-1.157-.175-1.54-.524-.381-.35-.58-.868-.597-1.556v-.287c.016-.431.112-.8.287-1.106a1.76 1.76 0 0 1 .737-.704 2.374 2.374 0 0 1 1.105-.246c.48 0 .877.096 1.188.287.317.191.554.45.712.778.159.328.238.702.238 1.122v.197c0 .06-.022.109-.066.147a.19.19 0 0 1-.139.057h-2.62v.058c.005.158.032.303.081.434a.618.618 0 0 0 .606.426c.11 0 .2-.017.27-.05a.866.866 0 0 0 .189-.122c.05-.05.087-.09.115-.123a.386.386 0 0 1 .114-.098.342.342 0 0 1 .148-.025H45.8c.055 0 .099.016.131.05.038.026.055.067.05.122a.721.721 0 0 1-.14.336 1.723 1.723 0 0 1-.385.393c-.164.125-.371.23-.622.311a2.826 2.826 0 0 1-.877.123Zm-.696-2.645h1.384v-.017c0-.175-.027-.327-.081-.459a.602.602 0 0 0-.238-.303.651.651 0 0 0-.377-.106.65.65 0 0 0-.376.106.69.69 0 0 0-.23.303 1.186 1.186 0 0 0-.082.46v.016ZM46.54 60a.196.196 0 0 1-.131-.05.196.196 0 0 1-.041-.188.18.18 0 0 1 .033-.073l1.367-1.876-1.245-1.76a.435.435 0 0 1-.04-.066.272.272 0 0 1-.009-.066c0-.049.02-.09.058-.123a.18.18 0 0 1 .13-.057h1c.07 0 .123.017.155.05a.395.395 0 0 1 .082.09l.762 1.056.754-1.048a.886.886 0 0 1 .081-.09c.039-.039.093-.058.164-.058h.958c.05 0 .09.02.123.057a.155.155 0 0 1 .058.123.272.272 0 0 1-.009.066.185.185 0 0 1-.032.065l-1.278 1.761 1.384 1.876a.145.145 0 0 1 .041.065.267.267 0 0 1 .008.066.18.18 0 0 1-.188.18h-1.04c-.066 0-.115-.014-.148-.041a1.092 1.092 0 0 1-.082-.09l-.827-1.122-.835 1.122-.082.082c-.033.033-.085.049-.156.049H46.54Z"/></g><defs><filter id="a" width="80" height="80" x="0" y="0" color-interpolation-filters="sRGB" filterUnits="userSpaceOnUse"><feFlood flood-opacity="0" result="BackgroundImageFix"/><feColorMatrix in="SourceAlpha" result="hardAlpha" values="0 0 0 0 0 0 0 0 0 0 0 0 0 0 0 0 0 0 127 0"/><feOffset dy="2"/><feGaussianBlur stdDeviation="4"/><feColorMatrix values="0 0 0 0 0 0 0 0 0 0 0 0 0 0 0 0 0 0 0.75 0"/><feBlend in2="BackgroundImageFix" result="effect1_dropShadow_602_832"/><feBlend in="SourceGraphic" in2="effect1_dropShadow_602_832" result="shape"/></filter></defs></svg>