<svg xmlns="http://www.w3.org/2000/svg" width="80" height="80" fill="rgba(0,0,255,0.2)"><g><rect width="64" height="64" x="8" y="6" fill="#0D1117" rx="5"/><path fill="#fff" fill-rule="evenodd" d="m36.113 19.758-.048-3.27 1.946-1.139 2.888-1.945 1.187-.049 1.236 1.328.665 4.413-.902 1.612-3.747-.096-3.225-.854Z" clip-rule="evenodd"/><path fill="#fff" fill-rule="evenodd" d="m32.27 29.104.995-2.8 1.946-2.323.995-1.993.429-.662 7.112-1.091 1.424 2.23 3.983 9.531-1.376 1.705-3.606 6.029-.85.188-6.595.188-4.6-5.122-.759-4.268.903-1.612Z" clip-rule="evenodd"/><path fill="#F6D330" fill-rule="evenodd" d="M41.376 21.847s-.236-.048.426-.192c.665-.14.669-.281.854-.474.188-.188.285-.617.285-1.09 0-.474.236-1.85.188-2.227-.044-.381-.854-1.801-1.183-1.994-.333-.188-4.032-.521-4.032-.521l-1.139.902-.854.803.192 2.563s-.24.806-.192 1.135c.048.333.525.714.714.903.188.192.898.954 1.135 1.187.24.237.288.474.854.285.57-.189.903-.189 1.332-.522.425-.333 1.42-.758 1.42-.758Z" clip-rule="evenodd"/><path fill="#fff" fill-rule="evenodd" d="M39.194 17.816c.144-.381.333-1.091.662-1.328.333-.236 1.047-.432 1.472-.38.43.047 1.232.473 1.424.805.189.333.189 1.661.189 1.661l-.096 1.091-.662-.048-1.424-.57h-.237s-.237.093-.95-.284c-.71-.381-.522-.566-.378-.947Zm-1.516 1.043a.647.647 0 0 1 .126-.085c.288-.16.917-.392.917-.392s.614-1.56.092-2.179c-.518-.617-1.657-.521-1.657-.521s-1.231.71-1.187.995c.048.285.096 1.28.145 1.42.044.144.236 1.66.236 1.66l.425-.188.618-.473s.144-.093.285-.237Z" clip-rule="evenodd"/><path fill="#F6D330" fill-rule="evenodd" d="m46.736 33.183.687.052c.1.007.2.01.3.015.51.018.958.096 1.435.155.315.037.836.237.873.633.052.584-.118 1.227.377 1.468.507.344 1.638 1.14 1.638 1.14l.334.613-.995.902-4.886 2.94-2.227-.757v-1.802l.093-2.418-.237-2.183.377-.854.95-.285 1.28.381Zm-14.129-1.065c-.048-.044-.913.211-.969.222-.403.059-.913.336-.913.777 0 .225-.019.458-.122.662-.082.159-.266.399-.263.451-.063.174-.177.418-.336.522-.185.018-1.006.092-1.006.092h-.714l-.425.518.332 1.38-.096 1.087-.33 1.235.803.425 6.073 1.613 1.376-.425.71-1.757-.144-.662-.662-1.328-3.314-4.812Z" clip-rule="evenodd"/><path fill="#000" fill-rule="evenodd" d="M35.7 17.232c-.1-3.31 1.19-4.771 3.871-4.82 2.678-.051 4.357 1.361 4.701 3.214.34 1.85.144 4.287.828 5.552.681 1.268 1.118 2.241 2.29 3.702 1.169 1.461 1.897 2.948 2.238 4.753.343 1.8.536 2.651-.34 3.58-.877.924-2.434 2.433-3.603.728-.588-.854-.65-1.916.34-2.141.633-.148 1.088-.1 1.557.144.474.244.585.13.019-.292-.57-.422-.684-.033-.488-.714.196-.68.451-1.905-.082-3.251-.247-.621-1.087-2.323-1.875-2.74-.07-.041-.277-.126-.137.048.211.262 1.347 1.934 1.668 2.929.344 1.069.392 2.09.215 2.737-.177.65-.488.91-.862.91-.373 0-.713.177-.713-.681 0-.862.088-2.16-.374-3.259-.462-1.094-1.025-1.849-1.147-2.311-.118-.462-.388-1.705-.946-2.412-.563-.706-.807-1.168-.515-1.974.293-.803.074-1.021-.51-1.191-.584-.17-1.365-.415-1.557-.806-.196-.389-.074-1.17.363-1.361.44-.197 1.168.07 1.194.632.026.559-.244.85-.17.973.074.122.462.318.659.1.192-.222.244-.903.047-1.535-.196-.633-.292-1.073-.998-1.217-.706-.148-1.025-.1-1.365.34-.34.436-.488 1.143-.388 1.657.096.51-.1.218-.44.192-.34-.022-.244-.048-.585-.022-.34.022-.218-.196-.244-.562-.022-.366-.07-1.12-.584-1.413-.51-.292-1.387.048-1.365 1.269.026 1.217.44 1.8.684 1.36.244-.436.122-.217-.122-.414-.244-.192-.414-.998-.148-1.238.27-.245.585-.245.758-.1.17.148.437.636.389.95-.048.318-.074.34-.389.562-.318.218-.44.415-.806.655-.366.244-.51.806-.218.95.292.148.318.122.559.489.244.366.658.536 1.682.366 1.021-.17 1.443-.414 2.216-.684.562-.193.366-.17.562-.389.192-.218.51.096.218.293-.292.196-.95.388-1.438.558-.485.174-1.047.658-2.068.61-1.024-.048-.318-.026-.636-.048-.315-.026-.463.022-.122.266.344.245.318.319.61.415.292.1.68.1 1.147-.07.462-.174 1.63-.685 1.997-.929.362-.244.654.074.292.318-.366.244-.466.17-.806.388-.34.222-.973.585-1.387.977-.414.388-.51.414-1.025.436-.51.026-.828-.51-1.046-.754-.218-.244-.196-.389-.463-.68-.266-.293-.292-.223-.34.095-.048.318-.414 1.12-.732 1.657-.315.537-.34 1.195-.292 1.657.048.463-.074.51-.437 1.047-.366.536-.976 2.119-1.072 2.63-.097.51-.218 1.56-.17 2.167.048.61-.123.732-.563.318-.436-.414-.584-.877-.558-1.487.022-.521.092-.888.159-1.08.067-.192.004-.325-.137-.089-.3.518-.314 1.413-.24 1.731.07.315.096.877.899 1.631.806.755 1.974 1.801 2.947 2.508.977.706 1.317 1.583-.122 2.215.903 1.22 1.39 1.853.999 2.656.806-.463.495-1.554.107-1.846-.392-.292-.155-.518.185-.296.34.219.462.655 1.805.633 1.339-.026 2.781-.16 3.588-1.332.802-1.168.958-.185.761.5-.192.68-.673 2.219.082 2.075.096-.903.318-1.683.318-2.656 0-.977.096-1.446.022-2.859-.074-1.361.514-1.453 1.12-1.453.611 0 .415.391.027.366-.392-.026-.803.122-.829 1.12-.026.999 0 .903.17 1.801.17.903.196 1.17.048 2.168-.144.999-.266 1.535.392 2.145.655.61 1.653.437 2.168.048.51-.388 1.483-1.29 2.36-1.583.88-.292 1.804-.51 2.292-.998.485-.489.363-.829-.148-1.095-.51-.27-.998-.148-1.387-.585-.392-.44-.584-1.413-.44-1.927.148-.51.318-.292.318.074 0 .367.023.707.389 1.169.366.462.706.684 1.29 1.047.585.366.95.95.218 1.464-.728.51-1.142.803-1.753 1.047-.606.244-1.605.828-2.215 1.435-.61.61-.95 1.147-2.145 1.147-1.191 0-1.739-.289-2.093-1-.245-.487-.367-.413-.925-.439-.563-.022-2.438-.048-3.898-.022-1.461.022-1.95.266-2.608.802-.654.536-.898.95-2.141.536-1.243-.414-1.901-.876-3.75-1.242-1.853-.366-.855-.196-1.975-.44-1.121-.24-1.047-.777-.899-1.217.144-.436.51-1.12.192-2.02-.314-.902-.192-1.827.658-1.827.855 0 1.657.17 1.998-.95.34-1.12.44-.244.34.048-.096.292-.144 1.095-.899 1.217-.754.122-.924-.048-1.39-.048-.463 0-.655.318-.415.854.244.536.514 1.095.466 1.557-.052.462-.1.633-.44 1.073-.34.436-.292.658.318.802.607.148 1.705.44 2.726.685 1.024.24 1.098.24 2.874.706 1.779.462 2.267-.366 2.411-1.365.148-.999-.536-1.949-1.169-2.9-.632-.95-1.313-2.044-2.142-3.043-.828-.999-1.316-1.073-1.73-.854-.415.222-.489.173-.51-.389-.027-.558-.075-.924.387-1.753.463-.828.877-1.73 1.365-3.118.488-1.387.925-1.657 1.753-2.851.829-1.19.463-.729 1.047-1.531.585-.806.414-.659.366-1.927-.048-1.265-.096-1.997-.144-3.654Zm-2.327 9.904c.126.152.303-.207.488-.344a.634.634 0 0 0 .2-.58c-.019-.115-.204-.078-.24-.038-.115.115-.09.3-.17.46-.093.191-.404.347-.278.502Zm10.47-5.09c.263.223.425.415.57.086.148-.33.148-.462-.207-.595a1.52 1.52 0 0 1-.67-.463c-.159-.185-.214.13-.085.437.16.377.252.421.392.536Zm-5.488-3.02c-.182-.038-.4-.023-.522.121-.048.049-.026.185.06.222.11.048.184-.063.206-.148.011-.037.026-.085.063-.096.048-.026.119-.003.17-.026.06-.022.037-.074.023-.074Zm.861.033c.074.11.208.11.318.159.06.026.182.063.219-.023.085-.27-.282-.184-.452-.184-.037 0-.122-.011-.085.048Zm1.776-1.18c.166.007.392.303.414.647.003.052.144.048.174-.003.078-.137.022-.29-.015-.452-.03-.133-.189-.27-.322-.329a.498.498 0 0 0-.3-.044c-.029.014-.132.17.049.18Zm-3.628-.085c-.152.01-.097.13-.09.225.212.119.23.385.274.596.004.081.126.044.137.018.093-.17-.022-.362-.063-.562a.637.637 0 0 0-.203-.292c-.015-.015-.04.015-.055.015Zm4.652-3.732c-.152-.122-.389-.17-.459.03-.073.17-.044.343-.085.528 0 .06-.074.074-.114.13-.06.07-.045.159-.015.185.14.144.4-.14.588-.24.14-.09.344.025.5-.075.044-.03.058-.1.014-.155-.1-.174-.274-.274-.429-.403Z" clip-rule="evenodd"/><path fill="#000" fill-rule="evenodd" d="M46.403 33.427c.022-.1.073-.296.17-.325.033-.011.063.003.074.037.022.063-.045.421-.019.503.03.085.13.074.2.052.166-.056.262-.252.255-.27 0-.008-.004-.008-.011-.008-.026.008-.048.1-.122.122-.048.015-.085.008-.1-.04-.015-.052.048-.422.018-.507-.025-.085-.11-.108-.192-.082-.181.06-.259.337-.307.5h-.004l.026-.381-.225.074-.011.788.21-.07c.004-.138.012-.293.038-.393Zm.976.085c.181-.059.262-.273.255-.3-.004-.007-.007-.01-.015-.01-.015.007-.048.129-.151.162-.045.015-.085.004-.096-.026-.015-.044-.004-.122-.004-.188l.007-.355.248-.082-.003-.085-.248.081.01-.336-.221.126-.011.75c0 .082-.007.152.007.19.03.095.13.106.222.073Z" clip-rule="evenodd"/><path fill="#E5E5E5" d="M26.473 61a.25.25 0 0 1-.184-.072.25.25 0 0 1-.072-.184v-6.656a.25.25 0 0 1 .072-.184.25.25 0 0 1 .184-.072h1.352c.068 0 .126.024.174.072a.234.234 0 0 1 .082.184v5.366h3.092c.075 0 .137.027.184.082a.231.231 0 0 1 .082.184v1.024a.234.234 0 0 1-.082.184.25.25 0 0 1-.184.072h-4.7Zm5.997 0a.25.25 0 0 1-.184-.072.25.25 0 0 1-.072-.184v-4.813a.25.25 0 0 1 .072-.184.25.25 0 0 1 .184-.072h1.209c.068 0 .126.024.174.072.054.048.081.11.081.184v4.813a.234.234 0 0 1-.081.184.237.237 0 0 1-.175.072H32.47Zm-.01-6.093a.25.25 0 0 1-.184-.071.25.25 0 0 1-.072-.185v-.911a.25.25 0 0 1 .072-.184.234.234 0 0 1 .184-.082h1.218c.076 0 .137.027.185.082a.234.234 0 0 1 .082.184v.911a.234.234 0 0 1-.082.184.25.25 0 0 1-.184.072h-1.22ZM35.71 61a.25.25 0 0 1-.184-.072.25.25 0 0 1-.072-.184v-4.813a.25.25 0 0 1 .072-.184.25.25 0 0 1 .184-.072h1.178a.25.25 0 0 1 .184.072.25.25 0 0 1 .072.184v.39c.177-.212.41-.39.696-.533a2.242 2.242 0 0 1 1.014-.215c.396 0 .744.088 1.044.266a1.8 1.8 0 0 1 .717.788c.178.342.266.762.266 1.26v2.857a.234.234 0 0 1-.082.184.237.237 0 0 1-.174.072h-1.29a.273.273 0 0 1-.184-.072.25.25 0 0 1-.072-.184v-2.795c0-.321-.078-.567-.235-.738-.15-.177-.376-.266-.676-.266-.28 0-.505.089-.676.266-.164.17-.246.417-.246.738v2.795a.234.234 0 0 1-.082.184.237.237 0 0 1-.174.072h-1.28Zm8.27.102a2.05 2.05 0 0 1-1.044-.266 1.823 1.823 0 0 1-.707-.778c-.17-.348-.256-.772-.256-1.27v-2.857a.25.25 0 0 1 .072-.184.25.25 0 0 1 .184-.072h1.28a.25.25 0 0 1 .184.072.25.25 0 0 1 .072.184v2.796c0 .669.3 1.003.901 1.003.28 0 .502-.085.666-.256.17-.177.256-.426.256-.747V55.93a.25.25 0 0 1 .071-.184.25.25 0 0 1 .185-.072h1.28a.25.25 0 0 1 .184.072.25.25 0 0 1 .072.184v4.813a.25.25 0 0 1-.072.184.25.25 0 0 1-.184.072h-1.188a.273.273 0 0 1-.184-.072.25.25 0 0 1-.072-.184v-.39a1.71 1.71 0 0 1-.697.564c-.28.123-.614.184-1.003.184ZM48.37 61a.245.245 0 0 1-.165-.061.245.245 0 0 1-.05-.236.226.226 0 0 1 .04-.092l1.71-2.345-1.556-2.202a.548.548 0 0 1-.052-.082.338.338 0 0 1-.01-.081c0-.062.024-.113.072-.154a.225.225 0 0 1 .164-.072h1.249c.089 0 .154.02.195.062a.493.493 0 0 1 .102.112l.952 1.321.942-1.31c.028-.035.062-.072.103-.113.047-.048.116-.072.205-.072h1.198c.061 0 .112.024.153.072.048.04.072.092.072.154a.338.338 0 0 1-.01.081.23.23 0 0 1-.041.082l-1.598 2.202 1.73 2.345a.18.18 0 0 1 .052.082c.007.027.01.054.01.082a.226.226 0 0 1-.235.225h-1.3c-.083 0-.144-.017-.185-.051a1.4 1.4 0 0 1-.102-.113l-1.035-1.403-1.044 1.403-.103.103c-.04.04-.105.061-.194.061h-1.27Z"/></g><defs><filter id="a" width="80" height="80" x="0" y="0" color-interpolation-filters="sRGB" filterUnits="userSpaceOnUse"><feFlood flood-opacity="0" result="BackgroundImageFix"/><feColorMatrix in="SourceAlpha" result="hardAlpha" values="0 0 0 0 0 0 0 0 0 0 0 0 0 0 0 0 0 0 127 0"/><feOffset dy="2"/><feGaussianBlur stdDeviation="4"/><feColorMatrix values="0 0 0 0 0 0 0 0 0 0 0 0 0 0 0 0 0 0 0.75 0"/><feBlend in2="BackgroundImageFix" result="effect1_dropShadow_603_591"/><feBlend in="SourceGraphic" in2="effect1_dropShadow_603_591" result="shape"/></filter></defs></svg>