<svg xmlns="http://www.w3.org/2000/svg" width="80" height="80" fill="rgba(0,0,255,0.2)"><g><rect width="64" height="64" x="8" y="6" fill="#0D1117" rx="5"/><path stroke="#42A5F5" d="M40 40.763c7.6 0 13.763-6.162 13.763-13.763 0-7.6-6.162-13.763-13.763-13.763-7.6 0-13.763 6.162-13.763 13.763 0 7.6 6.162 13.763 13.763 13.763Z"/><path fill="#42A5F5" fill-rule="evenodd" d="M40.17 18.525a8.712 8.712 0 0 0-6.112 2.493 8.44 8.44 0 0 0-2.531 6.015 8.44 8.44 0 0 0 2.531 6.015 8.714 8.714 0 0 0 6.111 2.492 8.715 8.715 0 0 0 6.113-2.49 8.44 8.44 0 0 0 2.533-6.017 8.44 8.44 0 0 0-2.533-6.015 8.715 8.715 0 0 0-6.113-2.491v-.002Zm2.48 2.555a3.126 3.126 0 0 1 2.196.895 3.02 3.02 0 0 1 0 4.322 3.131 3.131 0 0 1-2.197.895 3.13 3.13 0 0 1-2.195-.894 3.015 3.015 0 0 1-.675-3.33c.156-.37.385-.707.673-.992a3.11 3.11 0 0 1 1.007-.663 3.154 3.154 0 0 1 1.19-.233Z" clip-rule="evenodd"/><path fill="#42A5F5" d="M49.904 20.073c1.715 0 3.105-1.368 3.105-3.056 0-1.687-1.39-3.056-3.105-3.056s-3.105 1.369-3.105 3.056c0 1.688 1.39 3.056 3.105 3.056Z"/><path fill="#E5E5E5" d="M31.473 61a.25.25 0 0 1-.184-.072.25.25 0 0 1-.072-.184v-6.656a.25.25 0 0 1 .072-.184.25.25 0 0 1 .184-.072h1.352c.068 0 .126.024.174.072a.233.233 0 0 1 .081.184v5.366h3.093c.075 0 .136.027.184.082a.231.231 0 0 1 .082.184v1.024a.234.234 0 0 1-.082.184.25.25 0 0 1-.184.072h-4.7Zm7.627.102a2.05 2.05 0 0 1-1.044-.266 1.823 1.823 0 0 1-.707-.778c-.17-.348-.256-.772-.256-1.27v-2.857a.25.25 0 0 1 .072-.184.25.25 0 0 1 .184-.072h1.28a.25.25 0 0 1 .184.072.25.25 0 0 1 .072.184v2.796c0 .669.3 1.003.901 1.003.28 0 .502-.085.666-.256.17-.177.256-.426.256-.747V55.93a.25.25 0 0 1 .071-.184.25.25 0 0 1 .185-.072h1.28a.25.25 0 0 1 .184.072.25.25 0 0 1 .072.184v4.813a.25.25 0 0 1-.072.184.25.25 0 0 1-.184.072h-1.188a.273.273 0 0 1-.184-.072.25.25 0 0 1-.072-.184v-.39a1.71 1.71 0 0 1-.697.564c-.28.123-.614.184-1.003.184Zm6.202 0c-.369 0-.7-.068-.994-.204a1.832 1.832 0 0 1-.686-.574 1.359 1.359 0 0 1-.256-.809c0-.484.198-.867.594-1.147.396-.286.922-.481 1.577-.583l1.28-.195v-.143c0-.246-.051-.434-.154-.564-.102-.13-.29-.194-.563-.194a.891.891 0 0 0-.47.113.804.804 0 0 0-.277.307.294.294 0 0 1-.256.133H43.95a.236.236 0 0 1-.174-.061.207.207 0 0 1-.051-.164c0-.123.044-.263.133-.42.095-.164.239-.325.43-.482.191-.157.437-.286.737-.389.3-.102.662-.153 1.086-.153.443 0 .822.051 1.136.153.314.103.567.246.758.43.198.185.345.403.44.656.096.246.144.519.144.819v3.113a.234.234 0 0 1-.082.184.237.237 0 0 1-.174.072h-1.188a.25.25 0 0 1-.184-.072.25.25 0 0 1-.072-.184v-.358a1.47 1.47 0 0 1-.359.358 1.72 1.72 0 0 1-.532.256c-.198.068-.43.102-.696.102Zm.48-1.167c.199 0 .376-.04.533-.123a.896.896 0 0 0 .38-.4 1.48 1.48 0 0 0 .143-.685v-.144l-.87.154c-.322.055-.557.14-.707.256-.144.11-.215.239-.215.39a.45.45 0 0 0 .102.296.71.71 0 0 0 .266.195c.11.04.232.061.369.061Z"/></g><defs><filter id="a" width="80" height="80" x="0" y="0" color-interpolation-filters="sRGB" filterUnits="userSpaceOnUse"><feFlood flood-opacity="0" result="BackgroundImageFix"/><feColorMatrix in="SourceAlpha" result="hardAlpha" values="0 0 0 0 0 0 0 0 0 0 0 0 0 0 0 0 0 0 127 0"/><feOffset dy="2"/><feGaussianBlur stdDeviation="4"/><feColorMatrix values="0 0 0 0 0 0 0 0 0 0 0 0 0 0 0 0 0 0 0.75 0"/><feBlend in2="BackgroundImageFix" result="effect1_dropShadow_608_677"/><feBlend in="SourceGraphic" in2="effect1_dropShadow_608_677" result="shape"/></filter></defs></svg>