<svg xmlns="http://www.w3.org/2000/svg" width="80" height="80" fill="none"><g filter="url(#a)"><rect width="64" height="64" x="8" y="6" fill="none" rx="5"/><path fill="#fff" d="M48.977 36.999c-1.106 1.653-2.28 3.266-4.066 3.293-1.787.04-2.36-1.053-4.387-1.053-2.04 0-2.667 1.026-4.36 1.093-1.747.067-3.067-1.76-4.187-3.373-2.28-3.294-4.026-9.36-1.68-13.44 1.16-2.027 3.24-3.307 5.494-3.347 1.706-.027 3.333 1.16 4.386 1.16 1.04 0 3.014-1.427 5.08-1.213.867.04 3.294.346 4.854 2.64-.12.08-2.894 1.706-2.867 5.08.04 4.026 3.533 5.373 3.573 5.386-.04.094-.56 1.92-1.84 3.774Zm-7.613-21.334c.973-1.106 2.587-1.946 3.92-2 .173 1.56-.453 3.134-1.387 4.254-.92 1.133-2.44 2.013-3.933 1.893-.2-1.533.547-3.133 1.4-4.147Z"/><path fill="#2AF" d="M30.473 61a.272.272 0 0 1-.184-.072.25.25 0 0 1-.072-.184v-6.656a.25.25 0 0 1 .072-.184.272.272 0 0 1 .184-.072h1.106c.109 0 .19.03.245.092a.422.422 0 0 1 .113.133l1.802 3.236 1.803-3.236a.971.971 0 0 1 .102-.133c.055-.061.14-.092.256-.092h1.096a.25.25 0 0 1 .184.072.231.231 0 0 1 .082.184v6.656a.234.234 0 0 1-.082.184.25.25 0 0 1-.184.072h-1.219a.285.285 0 0 1-.194-.072.25.25 0 0 1-.072-.184v-3.84l-1.157 2.14a.471.471 0 0 1-.123.164.33.33 0 0 1-.225.072h-.533a.33.33 0 0 1-.225-.072.613.613 0 0 1-.133-.164l-1.157-2.14v3.84a.25.25 0 0 1-.072.184.25.25 0 0 1-.184.072h-1.23Zm9.699.102c-.369 0-.7-.068-.994-.204a1.832 1.832 0 0 1-.686-.574 1.359 1.359 0 0 1-.256-.809c0-.484.198-.867.594-1.147.396-.286.922-.481 1.577-.583l1.28-.195v-.143c0-.246-.051-.434-.154-.564-.102-.13-.29-.194-.563-.194a.891.891 0 0 0-.47.113.804.804 0 0 0-.277.307.294.294 0 0 1-.256.133H38.82a.236.236 0 0 1-.174-.061.207.207 0 0 1-.051-.164c0-.123.044-.263.133-.42.095-.164.239-.325.43-.482.191-.157.437-.286.737-.389.3-.102.662-.153 1.086-.153.443 0 .822.051 1.136.153.314.103.567.246.758.43.198.185.345.403.44.656.096.246.144.519.144.819v3.113a.234.234 0 0 1-.082.184.237.237 0 0 1-.174.072h-1.188a.25.25 0 0 1-.184-.072.25.25 0 0 1-.072-.184v-.358a1.47 1.47 0 0 1-.359.358 1.72 1.72 0 0 1-.532.256c-.198.068-.43.102-.696.102Zm.48-1.167c.199 0 .376-.04.533-.123a.896.896 0 0 0 .38-.4 1.48 1.48 0 0 0 .143-.685v-.144l-.87.154c-.322.055-.557.14-.707.256-.144.11-.215.239-.215.39a.45.45 0 0 0 .102.296.71.71 0 0 0 .266.195c.11.04.232.061.369.061Zm6.41 1.167c-.506 0-.953-.092-1.342-.276-.389-.184-.7-.45-.932-.799-.225-.355-.348-.778-.368-1.27a6.791 6.791 0 0 1-.01-.41c0-.17.003-.31.01-.419.02-.498.143-.922.368-1.27.226-.355.533-.624.922-.809a3.168 3.168 0 0 1 1.352-.276c.47 0 .873.068 1.208.205.334.13.607.293.819.491.212.198.369.403.471.614.11.205.167.386.174.543a.221.221 0 0 1-.072.185.273.273 0 0 1-.184.071h-1.3a.264.264 0 0 1-.174-.051.47.47 0 0 1-.113-.154c-.082-.211-.188-.361-.317-.45a.803.803 0 0 0-.482-.133c-.273 0-.484.089-.635.266-.143.178-.221.45-.235.82-.007.272-.007.515 0 .726.014.376.092.649.235.82.15.17.362.255.635.255.212 0 .38-.044.502-.133.123-.088.222-.239.297-.45a.47.47 0 0 1 .113-.154.264.264 0 0 1 .174-.051h1.3c.068 0 .13.027.184.082a.195.195 0 0 1 .072.174 1.38 1.38 0 0 1-.102.41 2.313 2.313 0 0 1-.799.962c-.205.143-.454.26-.747.348a3.55 3.55 0 0 1-1.024.133Z"/></g><defs><filter id="a" width="80" height="80" x="0" y="0" color-interpolation-filters="sRGB" filterUnits="userSpaceOnUse"><feFlood flood-opacity="0" result="BackgroundImageFix"/><feColorMatrix in="SourceAlpha" result="hardAlpha" values="0 0 0 0 0 0 0 0 0 0 0 0 0 0 0 0 0 0 127 0"/><feOffset dy="2"/><feGaussianBlur stdDeviation="4"/><feColorMatrix values="0 0 0 0 0 0 0 0 0 0 0 0 0 0 0 0 0 0 0.75 0"/><feBlend in2="BackgroundImageFix" result="effect1_dropShadow_603_576"/><feBlend in="SourceGraphic" in2="effect1_dropShadow_603_576" result="shape"/></filter></defs></svg>