<svg xmlns="http://www.w3.org/2000/svg" width="80" height="80" fill="none"><g filter="url(#a)"><rect width="64" height="64" x="8" y="6" fill="#212529" rx="5"/><g clip-path="url(#b)"><path fill="#fff" fill-rule="evenodd" d="M24 21.667a5.333 5.333 0 0 1 5.333-5.334h21.334A5.333 5.333 0 0 1 56 21.667v10.666a5.333 5.333 0 0 1-5.333 5.334H29.333A5.333 5.333 0 0 1 24 32.333V21.667ZM29.333 19a2.667 2.667 0 0 0-2.666 2.667v10.666A2.667 2.667 0 0 0 29.333 35h21.334a2.667 2.667 0 0 0 2.666-2.667V21.667A2.667 2.667 0 0 0 50.667 19H29.333Zm2.245 2.735a1.333 1.333 0 0 1 1.489.465L36 26.11l2.933-3.911a1.333 1.333 0 0 1 2.4.8v8a1.333 1.333 0 1 1-2.666 0v-4l-1.6 2.133a1.333 1.333 0 0 1-2.134 0L33.333 27v4a1.333 1.333 0 1 1-2.666 0v-8c0-.574.367-1.084.911-1.265ZM48 23a1.333 1.333 0 1 0-2.667 0v4.781l-.39-.39a1.333 1.333 0 1 0-1.886 1.885l2.667 2.667c.52.52 1.365.52 1.886 0l2.666-2.667a1.333 1.333 0 1 0-1.886-1.886l-.39.391V23Z" clip-rule="evenodd"/></g><path fill="#E5E5E5" d="M19.278 60a.218.218 0 0 1-.147-.057.2.2 0 0 1-.058-.148v-5.323a.2.2 0 0 1 .058-.148.218.218 0 0 1 .147-.057h.885c.087 0 .152.025.196.074a.31.31 0 0 1 .09.106l1.442 2.588 1.441-2.588a.81.81 0 0 1 .082-.106c.044-.05.112-.074.205-.074h.876a.2.2 0 0 1 .147.057.187.187 0 0 1 .066.148v5.323c0 .06-.022.11-.066.148a.2.2 0 0 1-.147.057h-.975a.228.228 0 0 1-.155-.057.2.2 0 0 1-.057-.148v-3.071l-.926 1.712a.377.377 0 0 1-.098.13.264.264 0 0 1-.18.058h-.426a.264.264 0 0 1-.18-.057.49.49 0 0 1-.107-.131l-.925-1.712v3.071a.2.2 0 0 1-.058.148.2.2 0 0 1-.147.057h-.983Zm7.757.082a1.86 1.86 0 0 1-.794-.164 1.464 1.464 0 0 1-.549-.459 1.086 1.086 0 0 1-.205-.647c0-.387.159-.693.475-.917.317-.23.737-.385 1.262-.467l1.023-.155v-.115c0-.197-.04-.347-.122-.45-.082-.104-.233-.156-.451-.156a.712.712 0 0 0-.377.09.644.644 0 0 0-.22.246.235.235 0 0 1-.206.106h-.917a.191.191 0 0 1-.14-.049.166.166 0 0 1-.04-.13.7.7 0 0 1 .106-.337c.077-.13.192-.26.344-.385.153-.125.35-.229.59-.31.24-.083.53-.124.868-.124.355 0 .658.041.91.123.25.082.453.197.605.344.159.148.276.322.352.524.077.197.115.415.115.656v2.49c0 .06-.022.108-.065.147a.19.19 0 0 1-.14.057h-.95a.2.2 0 0 1-.147-.057.2.2 0 0 1-.057-.148v-.286a1.198 1.198 0 0 1-.287.286c-.12.088-.262.156-.426.205a1.71 1.71 0 0 1-.557.082Zm.385-.934c.158 0 .3-.033.426-.098a.716.716 0 0 0 .303-.32c.076-.147.115-.33.115-.548v-.115l-.697.123c-.256.044-.444.112-.565.205-.114.087-.172.19-.172.311a.36.36 0 0 0 .082.237.568.568 0 0 0 .213.156c.088.033.186.05.295.05Zm3.373.852a.2.2 0 0 1-.147-.057.2.2 0 0 1-.058-.148v-3.85a.19.19 0 0 1 .058-.138.187.187 0 0 1 .147-.066h.942c.06 0 .11.022.147.066a.19.19 0 0 1 .058.139v.328c.147-.17.322-.3.524-.394a1.7 1.7 0 0 1 .696-.139h.36a.19.19 0 0 1 .14.057.187.187 0 0 1 .065.148v.843a.203.203 0 0 1-.065.148.19.19 0 0 1-.14.057h-.794c-.224 0-.399.063-.524.189-.12.12-.18.292-.18.516v2.096c0 .06-.022.11-.066.148a.2.2 0 0 1-.147.057h-1.016Zm3.72 0a.2.2 0 0 1-.148-.057.2.2 0 0 1-.058-.148V54.39a.2.2 0 0 1 .058-.148.2.2 0 0 1 .147-.057h.95a.19.19 0 0 1 .14.057.187.187 0 0 1 .065.148v2.743l1.138-1.253a.602.602 0 0 1 .107-.098.28.28 0 0 1 .164-.04h1.097c.05 0 .09.018.123.056a.155.155 0 0 1 .057.123.2.2 0 0 1-.016.074.15.15 0 0 1-.05.066l-1.473 1.589 1.679 2.039c.043.044.065.087.065.13a.18.18 0 0 1-.057.132.177.177 0 0 1-.131.049h-1.122c-.082 0-.142-.014-.18-.041a1.91 1.91 0 0 1-.107-.098l-1.294-1.556v1.49c0 .06-.022.11-.066.148a.19.19 0 0 1-.139.057h-.95Zm5.99.082c-.262 0-.5-.041-.712-.123a1.557 1.557 0 0 1-.54-.377 1.828 1.828 0 0 1-.345-.606 2.85 2.85 0 0 1-.14-.819 5.91 5.91 0 0 1 0-.573c.012-.295.058-.56.14-.795.082-.234.197-.436.344-.605.148-.17.328-.298.54-.386.214-.092.451-.139.713-.139a1.637 1.637 0 0 1 1.204.483V54.39a.2.2 0 0 1 .057-.148.2.2 0 0 1 .148-.057h1a.19.19 0 0 1 .138.057.187.187 0 0 1 .066.148v5.405c0 .06-.022.11-.066.148a.19.19 0 0 1-.139.057h-.925a.2.2 0 0 1-.148-.057.2.2 0 0 1-.057-.148v-.262c-.131.158-.3.29-.508.393-.207.104-.464.156-.77.156Zm.443-1.098c.185 0 .33-.038.434-.114a.702.702 0 0 0 .237-.311 1.12 1.12 0 0 0 .09-.41 6.2 6.2 0 0 0 0-.614.954.954 0 0 0-.09-.377.661.661 0 0 0-.246-.287.727.727 0 0 0-.425-.114.743.743 0 0 0-.435.114.618.618 0 0 0-.22.312 1.75 1.75 0 0 0-.083.434 2.694 2.694 0 0 0 0 .508c.011.158.039.303.082.434a.618.618 0 0 0 .221.31.74.74 0 0 0 .434.115Zm5.15 1.098c-.459 0-.846-.074-1.163-.221a1.662 1.662 0 0 1-.72-.63 2.17 2.17 0 0 1-.28-.992 7.4 7.4 0 0 1 0-.737c.023-.388.12-.718.295-.99.175-.274.418-.484.73-.632.316-.147.696-.22 1.138-.22.448 0 .827.073 1.138.22.317.148.563.358.737.631.175.273.273.603.295.991a7.202 7.202 0 0 1 0 .737 2.11 2.11 0 0 1-.286.991 1.602 1.602 0 0 1-.721.63c-.311.148-.7.222-1.163.222Zm0-1c.246 0 .423-.073.532-.22.115-.148.18-.369.197-.664.005-.082.008-.19.008-.327s-.003-.246-.008-.328c-.017-.29-.082-.508-.197-.655-.109-.153-.286-.23-.532-.23-.24 0-.418.077-.532.23-.115.147-.178.366-.189.655a5.135 5.135 0 0 0-.008.328c0 .136.003.245.008.327.011.295.074.516.188.664.115.147.293.22.533.22Zm4.043.918c-.082 0-.142-.02-.18-.057a.395.395 0 0 1-.09-.148l-1.18-3.792a.22.22 0 0 1-.016-.082c0-.049.02-.09.058-.123a.18.18 0 0 1 .13-.057h.844c.071 0 .126.02.164.057a.25.25 0 0 1 .082.115l.688 2.343.737-2.335a.273.273 0 0 1 .074-.114.244.244 0 0 1 .18-.066h.54c.077 0 .134.022.173.066.043.038.07.076.081.114l.738 2.334.688-2.342a.272.272 0 0 1 .073-.114.252.252 0 0 1 .172-.058h.844c.049 0 .09.02.123.057a.155.155 0 0 1 .057.123.421.421 0 0 1-.008.082l-1.18 3.792a.293.293 0 0 1-.09.148c-.038.038-.098.057-.18.057h-.737a.264.264 0 0 1-.18-.057.293.293 0 0 1-.09-.148l-.754-2.244-.753 2.244a.293.293 0 0 1-.09.148.264.264 0 0 1-.18.057h-.738Zm5.88 0a.2.2 0 0 1-.148-.057.2.2 0 0 1-.057-.148v-3.85a.2.2 0 0 1 .057-.147.2.2 0 0 1 .148-.057h.942a.2.2 0 0 1 .147.057.2.2 0 0 1 .058.148v.311a1.71 1.71 0 0 1 .556-.426c.23-.114.5-.172.811-.172.317 0 .595.071.836.213.245.142.437.352.573.63.142.274.213.61.213 1.008v2.285c0 .06-.022.11-.066.148a.19.19 0 0 1-.139.057h-1.032a.218.218 0 0 1-.147-.057.2.2 0 0 1-.057-.148V57.56c0-.256-.063-.453-.189-.59-.12-.141-.3-.212-.54-.212a.715.715 0 0 0-.541.213c-.131.136-.197.333-.197.59v2.235c0 .06-.021.11-.065.148a.19.19 0 0 1-.14.057H56.02Z"/></g><defs><clipPath id="b"><path fill="#fff" d="M24 11h32v32H24z"/></clipPath><filter id="a" width="80" height="80" x="0" y="0" color-interpolation-filters="sRGB" filterUnits="userSpaceOnUse"><feFlood flood-opacity="0" result="BackgroundImageFix"/><feColorMatrix in="SourceAlpha" result="hardAlpha" values="0 0 0 0 0 0 0 0 0 0 0 0 0 0 0 0 0 0 127 0"/><feOffset dy="2"/><feGaussianBlur stdDeviation="4"/><feColorMatrix values="0 0 0 0 0 0 0 0 0 0 0 0 0 0 0 0 0 0 0.75 0"/><feBlend in2="BackgroundImageFix" result="effect1_dropShadow_602_867"/><feBlend in="SourceGraphic" in2="effect1_dropShadow_602_867" result="shape"/></filter></defs></svg>