<svg xmlns="http://www.w3.org/2000/svg" width="64" height="64" fill="none"><path fill="#000" d="M10.667 48c-.756 0-1.389-.256-1.899-.768-.512-.51-.768-1.143-.768-1.899 0-.755.256-1.388.768-1.898.51-.512 1.143-.768 1.899-.768h42.666c.756 0 1.389.256 1.899.768.512.51.768 1.143.768 1.898 0 .756-.256 1.389-.768 1.899-.51.512-1.143.768-1.899.768H10.667Zm0-13.333c-.756 0-1.389-.256-1.899-.768C8.256 33.389 8 32.756 8 32s.256-1.39.768-1.901c.51-.51 1.143-.766 1.899-.766h42.666c.756 0 1.389.255 1.899.766.512.512.768 1.145.768 1.901s-.256 1.388-.768 1.899c-.51.512-1.143.768-1.899.768H10.667Zm0-13.334c-.756 0-1.389-.255-1.899-.765C8.256 20.056 8 19.422 8 18.667c0-.756.256-1.39.768-1.902.51-.51 1.143-.765 1.899-.765h42.666c.756 0 1.389.255 1.899.765.512.512.768 1.146.768 1.902 0 .755-.256 1.389-.768 1.901-.51.51-1.143.765-1.899.765H10.667Z"/></svg>