<svg xmlns="http://www.w3.org/2000/svg" width="80" height="80" fill="none"><g><rect width="64" height="64" x="8" y="6" fill="none" rx="5"/><path fill="#864F00" d="M52.024 20.19a2.424 2.424 0 0 0-3.86-.464l-5.608-3.24a2.427 2.427 0 1 0-4.66 0l-5.61 3.238a2.428 2.428 0 1 0-2.332 4.038v9.168l7.94 4.584a2.428 2.428 0 1 0 4.661 0l7.93-4.584v-9.166a2.426 2.426 0 0 0 1.534-3.575h.005Zm-13.555-2.704.075.075-2.488 4.31.851.834 2.637-4.568c.444.13.915.13 1.358 0l5.056 8.765.851-.834-4.904-8.507.074-.074 5.61 3.24a2.424 2.424 0 0 0 1.746 3.032v8.26H31.109v-8.257a2.423 2.423 0 0 0 1.753-3.038l5.607-3.238Zm1.756 18.28a2.42 2.42 0 0 0-1.756.748l-5.785-3.34H47.76l-5.78 3.34a2.423 2.423 0 0 0-1.754-.749Z"/><path fill="#FFA11A" d="M51.126 30.492a2.428 2.428 0 0 0-1.892-.227l-2.423-4.2-3.24 3.185-7.513-7.38-4.847 8.395a2.427 2.427 0 1 0 1.003.574l4.099-7.1 7.258 7.13 2.986-2.934 1.676 2.906a2.428 2.428 0 1 0 2.893-.348Z"/><path fill="#2AF" d="M14.973 61a.272.272 0 0 1-.184-.072.25.25 0 0 1-.072-.184v-6.656a.25.25 0 0 1 .072-.184.272.272 0 0 1 .184-.072h1.106c.109 0 .19.03.245.092a.422.422 0 0 1 .113.133l1.802 3.236 1.803-3.236a.971.971 0 0 1 .102-.133c.055-.061.14-.092.256-.092h1.096a.25.25 0 0 1 .184.072.231.231 0 0 1 .082.184v6.656a.234.234 0 0 1-.082.184.25.25 0 0 1-.184.072h-1.219a.285.285 0 0 1-.194-.072.25.25 0 0 1-.072-.184v-3.84l-1.157 2.14a.471.471 0 0 1-.123.164.33.33 0 0 1-.225.072h-.533a.33.33 0 0 1-.225-.072.613.613 0 0 1-.133-.164l-1.157-2.14v3.84a.25.25 0 0 1-.072.184.25.25 0 0 1-.184.072h-1.23Zm10.559.102c-.806 0-1.448-.218-1.925-.655-.478-.437-.727-1.085-.748-1.946v-.358c.02-.54.14-1 .358-1.382.226-.39.533-.683.922-.881.396-.205.857-.307 1.383-.307.6 0 1.095.12 1.484.358.396.24.693.563.891.973.198.41.297.877.297 1.403v.246a.234.234 0 0 1-.082.184.237.237 0 0 1-.174.072h-3.277v.071c.007.198.041.38.103.543a.772.772 0 0 0 .758.532.82.82 0 0 0 .337-.06c.096-.049.174-.1.236-.155a2.12 2.12 0 0 0 .143-.153.482.482 0 0 1 .144-.123c.04-.02.102-.03.184-.03h1.27c.068 0 .123.02.164.06.047.035.068.086.061.154-.007.116-.065.256-.174.42a2.16 2.16 0 0 1-.481.492 2.591 2.591 0 0 1-.779.389 3.549 3.549 0 0 1-1.095.153Zm-.87-3.307h1.73v-.02c0-.22-.034-.41-.102-.574a.752.752 0 0 0-.297-.379.814.814 0 0 0-.471-.133.813.813 0 0 0-.471.133.86.86 0 0 0-.287.379 1.482 1.482 0 0 0-.103.573v.02ZM29.41 61a.25.25 0 0 1-.184-.072.25.25 0 0 1-.072-.184v-4.813c0-.068.024-.126.072-.174a.234.234 0 0 1 .184-.082h1.178c.075 0 .136.028.184.082a.237.237 0 0 1 .072.174v.41c.184-.212.402-.376.655-.492.26-.116.55-.174.87-.174h.451c.068 0 .126.024.174.072.055.048.082.11.082.184v1.055c0 .068-.027.13-.082.184a.237.237 0 0 1-.174.072h-.993c-.28 0-.499.078-.656.235-.15.15-.225.366-.225.646v2.621a.234.234 0 0 1-.082.184.25.25 0 0 1-.184.072h-1.27Zm6.802.102c-.506 0-.953-.092-1.342-.276-.389-.184-.7-.45-.932-.799-.225-.355-.348-.778-.368-1.27a6.791 6.791 0 0 1-.01-.41c0-.17.003-.31.01-.419.02-.498.143-.922.368-1.27a2.17 2.17 0 0 1 .922-.809 3.168 3.168 0 0 1 1.352-.276c.47 0 .873.068 1.208.205.334.13.607.293.819.491.212.198.369.403.471.614.11.205.167.386.174.543a.221.221 0 0 1-.072.185.273.273 0 0 1-.184.071h-1.3a.264.264 0 0 1-.174-.051.47.47 0 0 1-.113-.154c-.082-.211-.188-.361-.317-.45a.803.803 0 0 0-.482-.133c-.273 0-.484.089-.635.266-.143.178-.221.45-.235.82-.007.272-.007.515 0 .726.014.376.092.649.235.82.15.17.362.255.635.255.212 0 .38-.044.502-.133.123-.088.222-.239.297-.45a.47.47 0 0 1 .113-.154.264.264 0 0 1 .174-.051h1.3c.068 0 .13.027.184.082a.195.195 0 0 1 .072.174 1.38 1.38 0 0 1-.102.41 2.313 2.313 0 0 1-.799.962c-.205.143-.454.26-.747.348a3.55 3.55 0 0 1-1.024.133Zm5.548 0a2.05 2.05 0 0 1-1.044-.266 1.823 1.823 0 0 1-.707-.778c-.17-.348-.256-.772-.256-1.27v-2.857a.25.25 0 0 1 .072-.184.25.25 0 0 1 .184-.072h1.28a.25.25 0 0 1 .184.072.25.25 0 0 1 .072.184v2.796c0 .669.3 1.003.901 1.003.28 0 .502-.085.666-.256.17-.177.256-.426.256-.747V55.93a.25.25 0 0 1 .071-.184.25.25 0 0 1 .185-.072h1.28a.25.25 0 0 1 .184.072.25.25 0 0 1 .072.184v4.813a.25.25 0 0 1-.072.184.25.25 0 0 1-.184.072h-1.188a.273.273 0 0 1-.184-.072.25.25 0 0 1-.072-.184v-.39a1.71 1.71 0 0 1-.697.564c-.28.123-.614.184-1.003.184ZM46.62 61a.25.25 0 0 1-.184-.072.25.25 0 0 1-.072-.184v-4.813c0-.068.024-.126.072-.174a.234.234 0 0 1 .184-.082h1.178c.075 0 .136.028.184.082a.237.237 0 0 1 .072.174v.41c.184-.212.402-.376.655-.492.26-.116.55-.174.87-.174h.451c.068 0 .126.024.174.072.055.048.082.11.082.184v1.055c0 .068-.027.13-.082.184a.237.237 0 0 1-.174.072h-.993c-.28 0-.498.078-.656.235-.15.15-.225.366-.225.646v2.621a.234.234 0 0 1-.082.184.25.25 0 0 1-.184.072h-1.27Zm4.65 0a.25.25 0 0 1-.184-.072.25.25 0 0 1-.072-.184v-4.813a.25.25 0 0 1 .072-.184.25.25 0 0 1 .184-.072h1.208c.069 0 .127.024.175.072.054.048.081.11.081.184v4.813a.234.234 0 0 1-.081.184.237.237 0 0 1-.175.072H51.27Zm-.01-6.093a.25.25 0 0 1-.184-.071.25.25 0 0 1-.072-.185v-.911a.25.25 0 0 1 .072-.184.234.234 0 0 1 .184-.082h1.218c.076 0 .137.027.185.082a.234.234 0 0 1 .082.184v.911a.234.234 0 0 1-.082.184.25.25 0 0 1-.184.072h-1.22Zm4.63 6.195a2.05 2.05 0 0 1-1.044-.266 1.823 1.823 0 0 1-.707-.778c-.17-.348-.256-.772-.256-1.27v-2.857a.25.25 0 0 1 .072-.184.25.25 0 0 1 .184-.072h1.28a.25.25 0 0 1 .184.072.25.25 0 0 1 .072.184v2.796c0 .669.3 1.003.901 1.003.28 0 .502-.085.666-.256.17-.177.256-.426.256-.747V55.93a.25.25 0 0 1 .071-.184.25.25 0 0 1 .185-.072h1.28a.25.25 0 0 1 .184.072.25.25 0 0 1 .072.184v4.813a.25.25 0 0 1-.072.184.25.25 0 0 1-.184.072h-1.188a.273.273 0 0 1-.184-.072.25.25 0 0 1-.072-.184v-.39a1.71 1.71 0 0 1-.697.564c-.28.123-.614.184-1.003.184Zm6.795 0c-.443 0-.822-.047-1.136-.143a2.799 2.799 0 0 1-.758-.369 1.732 1.732 0 0 1-.43-.44c-.095-.157-.147-.29-.154-.4a.207.207 0 0 1 .072-.184.245.245 0 0 1 .174-.082h1.168a.12.12 0 0 1 .05.01.522.522 0 0 1 .062.042c.089.047.178.109.266.184.09.068.192.13.308.184a.98.98 0 0 0 .42.082.947.947 0 0 0 .48-.112.366.366 0 0 0 .195-.338c0-.11-.03-.198-.092-.267-.061-.075-.188-.146-.379-.215a5.363 5.363 0 0 0-.84-.204 4.374 4.374 0 0 1-.931-.318 1.607 1.607 0 0 1-.615-.522 1.405 1.405 0 0 1-.215-.789c0-.273.09-.535.267-.788.177-.253.436-.457.778-.614.341-.164.761-.246 1.26-.246.395 0 .737.048 1.023.143.294.089.54.205.738.348.204.144.358.29.46.44.103.15.157.287.164.41a.235.235 0 0 1-.061.185.226.226 0 0 1-.164.071H63.73a.338.338 0 0 1-.082-.01.672.672 0 0 1-.072-.041 1.281 1.281 0 0 1-.245-.164 1.476 1.476 0 0 0-.287-.184.912.912 0 0 0-.41-.082c-.184 0-.327.04-.43.123a.408.408 0 0 0-.072.563c.062.075.181.143.359.205.184.061.468.13.85.205.47.075.846.198 1.126.368.28.164.478.359.594.584.116.218.174.45.174.696 0 .328-.099.618-.297.87-.19.253-.478.451-.86.595-.382.136-.846.204-1.393.204Z"/></g><defs><filter id="a" width="80" height="80" x="0" y="0" color-interpolation-filters="sRGB" filterUnits="userSpaceOnUse"><feFlood flood-opacity="0" result="BackgroundImageFix"/><feColorMatrix in="SourceAlpha" result="hardAlpha" values="0 0 0 0 0 0 0 0 0 0 0 0 0 0 0 0 0 0 127 0"/><feOffset dy="2"/><feGaussianBlur stdDeviation="4"/><feColorMatrix values="0 0 0 0 0 0 0 0 0 0 0 0 0 0 0 0 0 0 0.75 0"/><feBlend in2="BackgroundImageFix" result="effect1_dropShadow_603_695"/><feBlend in="SourceGraphic" in2="effect1_dropShadow_603_695" result="shape"/></filter></defs></svg>