<svg xmlns="http://www.w3.org/2000/svg" width="80" height="80" fill="none"><g filter="url(#a)"><rect width="64" height="64" x="8" y="6" fill="none" rx="5"/><path fill="#599636" d="m38.727 15.16.693 1.303c.156.24.325.453.524.651a18.213 18.213 0 0 1 1.627 1.84c1.175 1.543 1.968 3.257 2.534 5.11.34 1.132.524 2.293.538 3.467.056 3.51-1.147 6.525-3.573 9.03a10.32 10.32 0 0 1-1.275 1.09c-.24 0-.354-.184-.453-.354-.18-.315-.3-.66-.355-1.02a4.954 4.954 0 0 1-.113-1.287v-.198c-.02-.042-.232-19.532-.147-19.632Z"/><path fill="#6CAC48" d="M38.727 15.117c-.029-.057-.057-.014-.085.014.013.284-.086.538-.24.78-.171.24-.397.424-.624.623-1.258 1.09-2.25 2.406-3.042 3.878-1.056 1.981-1.6 4.105-1.755 6.34-.07.807.255 3.652.51 4.473.693 2.18 1.939 4.006 3.552 5.591.397.382.82.736 1.26 1.076.127 0 .14-.114.17-.198a3.88 3.88 0 0 0 .127-.552l.284-2.123-.157-19.902Z"/><path fill="#C2BFBF" d="M39.42 38.513c.029-.324.184-.594.354-.863-.17-.07-.297-.21-.396-.368a2.622 2.622 0 0 1-.211-.467c-.198-.594-.24-1.218-.297-1.825v-.368c-.071.057-.086.538-.086.61a14.13 14.13 0 0 1-.255 1.91c-.042.255-.07.509-.227.736 0 .028 0 .056.014.099.255.75.325 1.514.368 2.293v.284c0 .34-.014.268.268.382.113.042.24.057.354.141.085 0 .099-.07.099-.127l-.043-.467V39.18c-.013-.227.029-.453.057-.666h.001Z"/><path fill="#2AF" d="M16.473 61a.272.272 0 0 1-.184-.072.25.25 0 0 1-.072-.184v-6.656a.25.25 0 0 1 .072-.184.272.272 0 0 1 .184-.072h1.106c.109 0 .19.03.245.092a.422.422 0 0 1 .113.133l1.802 3.236 1.803-3.236a.971.971 0 0 1 .102-.133c.055-.061.14-.092.256-.092h1.096a.25.25 0 0 1 .184.072.231.231 0 0 1 .082.184v6.656a.234.234 0 0 1-.082.184.25.25 0 0 1-.184.072h-1.219a.285.285 0 0 1-.194-.072.25.25 0 0 1-.072-.184v-3.84l-1.157 2.14a.471.471 0 0 1-.123.164.33.33 0 0 1-.225.072h-.533a.33.33 0 0 1-.225-.072.613.613 0 0 1-.133-.164l-1.157-2.14v3.84a.25.25 0 0 1-.072.184.25.25 0 0 1-.184.072h-1.23Zm10.62.102c-.573 0-1.058-.092-1.454-.276a2.076 2.076 0 0 1-.901-.789c-.205-.348-.32-.76-.348-1.239a9.346 9.346 0 0 1 0-.921c.027-.485.15-.898.369-1.24.218-.34.522-.603.91-.788.397-.184.871-.276 1.424-.276.56 0 1.034.092 1.424.276.396.185.703.447.921.789.219.341.341.754.369 1.239a9.346 9.346 0 0 1 0 .922c-.027.477-.147.89-.359 1.238a2.003 2.003 0 0 1-.9.789c-.39.184-.874.276-1.455.276Zm0-1.249c.307 0 .53-.092.666-.276.143-.185.225-.461.246-.83.006-.102.01-.239.01-.41 0-.17-.004-.307-.01-.409-.02-.362-.103-.635-.246-.82-.137-.19-.359-.286-.666-.286-.3 0-.522.096-.665.287-.144.184-.222.457-.236.819-.007.102-.01.239-.01.41 0 .17.003.307.01.41.014.368.092.644.236.829.143.184.365.276.665.276ZM31.08 61a.25.25 0 0 1-.184-.072.25.25 0 0 1-.072-.184v-4.813a.25.25 0 0 1 .072-.184.25.25 0 0 1 .184-.072h1.178a.25.25 0 0 1 .184.072.25.25 0 0 1 .072.184v.39c.177-.212.41-.39.696-.533a2.242 2.242 0 0 1 1.014-.215c.396 0 .744.088 1.044.266.307.178.547.44.717.788.178.342.266.762.266 1.26v2.857a.234.234 0 0 1-.082.184.237.237 0 0 1-.174.072h-1.29a.273.273 0 0 1-.184-.072.25.25 0 0 1-.072-.184v-2.795c0-.321-.078-.567-.235-.738-.15-.177-.376-.266-.676-.266-.28 0-.505.089-.676.266-.164.17-.246.417-.246.738v2.795a.234.234 0 0 1-.082.184.237.237 0 0 1-.174.072h-1.28Zm8.925 2.253c-.525 0-.962-.069-1.31-.205a2.609 2.609 0 0 1-.82-.492 1.968 1.968 0 0 1-.43-.573c-.088-.184-.136-.331-.143-.44a.207.207 0 0 1 .072-.185.285.285 0 0 1 .194-.071h1.3a.27.27 0 0 1 .154.04.334.334 0 0 1 .113.165c.034.075.079.153.133.235a.636.636 0 0 0 .246.195c.11.054.256.082.44.082.205 0 .376-.035.512-.103a.608.608 0 0 0 .307-.317c.069-.144.103-.338.103-.584v-.686a1.83 1.83 0 0 1-.604.42 2.314 2.314 0 0 1-.891.153c-.348 0-.656-.05-.922-.153a1.647 1.647 0 0 1-.666-.461 2.267 2.267 0 0 1-.42-.748 3.965 3.965 0 0 1-.173-1.013 6.952 6.952 0 0 1 0-.533c.02-.368.078-.7.174-.993a2.23 2.23 0 0 1 .41-.758c.184-.212.409-.372.675-.481a2.29 2.29 0 0 1 .922-.174c.368 0 .682.072.942.215.266.136.484.31.655.522v-.379c0-.068.024-.126.072-.174a.234.234 0 0 1 .184-.082h1.178c.075 0 .136.028.184.082a.223.223 0 0 1 .082.174v4.926c0 .519-.106.955-.317 1.31a2.027 2.027 0 0 1-.912.81c-.396.184-.877.276-1.444.276Zm-.071-3.697c.218 0 .396-.048.532-.143a.823.823 0 0 0 .297-.369c.068-.15.106-.31.113-.481.007-.075.01-.181.01-.318 0-.136-.003-.238-.01-.307a1.297 1.297 0 0 0-.113-.491.762.762 0 0 0-.297-.359c-.136-.095-.314-.143-.532-.143-.226 0-.406.048-.543.143a.834.834 0 0 0-.287.39 2.193 2.193 0 0 0-.102.542c-.007.15-.007.304 0 .461.014.198.048.379.102.543a.834.834 0 0 0 .287.389c.137.095.317.143.543.143Zm6.47 1.546c-.574 0-1.059-.092-1.455-.276a2.076 2.076 0 0 1-.901-.789c-.205-.348-.32-.76-.348-1.239a9.346 9.346 0 0 1 0-.921c.027-.485.15-.898.368-1.24.219-.34.523-.603.912-.788.396-.184.87-.276 1.423-.276.56 0 1.034.092 1.424.276.395.185.703.447.921.789.219.341.342.754.369 1.239a9.346 9.346 0 0 1 0 .922c-.028.477-.147.89-.359 1.238a2.003 2.003 0 0 1-.9.789c-.39.184-.874.276-1.455.276Zm0-1.249c.306 0 .528-.092.665-.276.143-.185.225-.461.246-.83.006-.102.01-.239.01-.41 0-.17-.004-.307-.01-.409-.02-.362-.103-.635-.246-.82-.137-.19-.359-.286-.666-.286-.3 0-.522.096-.665.287-.144.184-.222.457-.236.819-.007.102-.01.239-.01.41 0 .17.003.307.01.41.014.368.092.644.236.829.143.184.365.276.665.276ZM50.502 61a.25.25 0 0 1-.184-.072.25.25 0 0 1-.072-.184v-6.656a.25.25 0 0 1 .072-.184.25.25 0 0 1 .184-.072h2.662c.67 0 1.24.11 1.71.328.471.211.833.525 1.086.942.252.41.389.918.41 1.526a34.092 34.092 0 0 1 0 1.567c-.028.634-.165 1.16-.41 1.576-.24.417-.59.727-1.055.932-.457.198-1.02.297-1.69.297h-2.713Zm1.577-1.475h1.085c.294 0 .536-.044.727-.133a.92.92 0 0 0 .44-.44c.103-.198.158-.457.164-.778a7.79 7.79 0 0 0 .02-.533 5.442 5.442 0 0 0 0-.47 7.16 7.16 0 0 0-.02-.523c-.013-.464-.136-.802-.368-1.014-.225-.218-.563-.327-1.014-.327H52.08v4.218ZM57.833 61a.25.25 0 0 1-.184-.072.25.25 0 0 1-.072-.184v-6.656a.25.25 0 0 1 .072-.184.25.25 0 0 1 .184-.072h3.123c.587 0 1.068.082 1.444.246.375.164.652.4.83.706.184.3.276.66.276 1.075 0 .246-.048.465-.144.656a1.467 1.467 0 0 1-.337.46c-.13.124-.253.212-.37.267.26.123.489.324.687.604.205.28.307.608.307.983 0 .45-.102.84-.307 1.167-.198.321-.492.57-.88.748-.383.17-.854.256-1.414.256h-3.215Zm1.577-1.331h1.433c.294 0 .516-.085.666-.256a.86.86 0 0 0 .225-.584.84.84 0 0 0-.235-.604c-.15-.164-.369-.246-.656-.246H59.41v1.69Zm0-2.99h1.341c.28 0 .488-.072.625-.215a.749.749 0 0 0 .215-.553.702.702 0 0 0-.215-.533c-.137-.143-.345-.215-.625-.215H59.41v1.516Z"/></g><defs><filter id="a" width="80" height="80" x="0" y="0" color-interpolation-filters="sRGB" filterUnits="userSpaceOnUse"><feFlood flood-opacity="0" result="BackgroundImageFix"/><feColorMatrix in="SourceAlpha" result="hardAlpha" values="0 0 0 0 0 0 0 0 0 0 0 0 0 0 0 0 0 0 127 0"/><feOffset dy="2"/><feGaussianBlur stdDeviation="4"/><feColorMatrix values="0 0 0 0 0 0 0 0 0 0 0 0 0 0 0 0 0 0 0.75 0"/><feBlend in2="BackgroundImageFix" result="effect1_dropShadow_603_792"/><feBlend in="SourceGraphic" in2="effect1_dropShadow_603_792" result="shape"/></filter></defs></svg>