<svg xmlns="http://www.w3.org/2000/svg" width="80" height="80" fill="rgba(0,0,255,0.2)"><g><rect width="64" height="64" x="8" y="6" fill="#0D1117" rx="5"/><path fill="#5D87A1" fill-rule="evenodd" d="M32.785 17.865a3.1 3.1 0 0 0-.785.1V18h.038c.184.277.388.54.612.785.154.306.288.611.441.917l.038-.039a1.075 1.075 0 0 0 .4-.957 4.331 4.331 0 0 1-.23-.4c-.115-.191-.364-.287-.517-.44" clip-rule="evenodd"/><path fill="#00758F" fill-rule="evenodd" d="M51.78 34.553a8.848 8.848 0 0 0-3.712.536c-.287.115-.745.115-.785.478.154.153.172.4.307.613.262.443.599.838.995 1.167.4.306.8.611 1.225.879.745.461 1.588.728 2.314 1.187.422.268.842.612 1.264.9.21.153.343.4.611.5v-.058a3.837 3.837 0 0 0-.291-.613c-.191-.19-.383-.363-.575-.554a9.116 9.116 0 0 0-1.99-1.932c-.613-.422-1.953-1-2.2-1.7l-.039-.039a7.7 7.7 0 0 0 1.321-.308c.65-.172 1.243-.133 1.912-.3.307-.077.862-.268.862-.268v-.3c-.342-.34-.587-.795-.947-1.116a25.322 25.322 0 0 0-3.122-2.328c-.587-.379-1.344-.623-1.969-.946-.226-.114-.6-.17-.737-.36a7.602 7.602 0 0 1-.776-1.457 46.84 46.84 0 0 1-1.551-3.293 20.242 20.242 0 0 0-.965-2.157A19.077 19.077 0 0 0 35.609 16a9.066 9.066 0 0 0-2.421-.776c-.474-.02-.946-.057-1.419-.075a7.572 7.572 0 0 1-.869-.664c-1.082-.685-3.862-2.157-4.658-.208-.51 1.231.758 2.441 1.193 3.066.367.44.69.916.965 1.419.133.322.171.663.3 1 .278.865.607 1.713.987 2.538.203.408.437.8.7 1.172.153.209.417.3.474.645-.21.45-.356.928-.436 1.419a8.337 8.337 0 0 0 .549 6.358c.3.473 1.022 1.514 1.987 1.116.851-.34.662-1.419.908-2.364.056-.229.019-.379.132-.53v.184s.483 1.061.723 1.6a10.814 10.814 0 0 0 2.4 2.59c.37.323.669.721.876 1.167V36h.427a1.054 1.054 0 0 0-.427-.788c-.35-.36-.67-.748-.959-1.16a25.001 25.001 0 0 1-2.064-3.519c-.3-.6-.553-1.258-.793-1.857-.11-.231-.11-.58-.295-.7a7.263 7.263 0 0 0-.884 1.313 11.42 11.42 0 0 0-.517 2.921c-.073.02-.037 0-.073.038-.589-.155-.792-.792-1.014-1.332a8.756 8.756 0 0 1-.166-5.164c.128-.405.683-1.681.461-2.068-.111-.369-.48-.58-.682-.871a7.764 7.764 0 0 1-.663-1.237c-.439-1.076-.661-2.276-1.139-3.36a10.394 10.394 0 0 0-.921-1.489 9.591 9.591 0 0 1-1.015-1.507c-.092-.213-.221-.561-.074-.793a.3.3 0 0 1 .259-.252c.238-.212.921.058 1.16.174a9.192 9.192 0 0 1 1.824.967c.258.194.866.685.866.685h.18c.612.133 1.3.037 1.876.21.97.323 1.895.767 2.755 1.32a16.98 16.98 0 0 1 5.969 6.545c.23.439.327.842.537 1.3.4.94.9 1.9 1.3 2.814.353.904.81 1.765 1.36 2.564.286.4 1.435.612 1.952.822.449.155.89.334 1.32.535.651.4 1.3.861 1.913 1.3.305.23 1.262.708 1.32 1.091" clip-rule="evenodd"/><path fill="#E5E5E5" d="M23.473 61a.272.272 0 0 1-.184-.072.25.25 0 0 1-.072-.184v-6.656a.25.25 0 0 1 .072-.184.272.272 0 0 1 .184-.072h1.106c.109 0 .19.03.245.092a.422.422 0 0 1 .113.133l1.802 3.236 1.803-3.236a.971.971 0 0 1 .102-.133c.055-.061.14-.092.256-.092h1.096a.25.25 0 0 1 .184.072.231.231 0 0 1 .082.184v6.656a.234.234 0 0 1-.082.184.25.25 0 0 1-.184.072h-1.219a.285.285 0 0 1-.194-.072.25.25 0 0 1-.072-.184v-3.84l-1.157 2.14a.471.471 0 0 1-.123.164.33.33 0 0 1-.225.072h-.533a.33.33 0 0 1-.225-.072.613.613 0 0 1-.133-.164l-1.157-2.14v3.84a.25.25 0 0 1-.072.184.25.25 0 0 1-.184.072h-1.23Zm9.094 1.946a.209.209 0 0 1-.215-.215v-.062a.564.564 0 0 1 .031-.072l.799-1.925-1.966-4.649a.323.323 0 0 1-.031-.123.305.305 0 0 1 .082-.153.194.194 0 0 1 .154-.072h1.167c.089 0 .154.024.194.072.048.04.079.089.093.143l1.177 2.98 1.198-2.98a.547.547 0 0 1 .103-.143c.047-.048.116-.072.204-.072h1.147c.062 0 .113.024.154.072.048.04.072.089.072.143 0 .034-.01.079-.031.133l-2.898 6.708a.347.347 0 0 1-.102.143c-.048.048-.116.072-.205.072h-1.127Zm7.902-1.844c-.682 0-1.249-.095-1.7-.286-.45-.198-.791-.454-1.023-.768a1.778 1.778 0 0 1-.369-1.004c0-.054.02-.102.061-.143a.225.225 0 0 1 .164-.072h1.29a.37.37 0 0 1 .215.051.532.532 0 0 1 .144.133c.055.103.13.202.225.297.103.096.232.174.39.236.163.054.364.082.603.082.396 0 .693-.062.891-.184.205-.123.307-.29.307-.502a.468.468 0 0 0-.163-.369c-.11-.102-.287-.191-.533-.266a8.005 8.005 0 0 0-.962-.246 6.254 6.254 0 0 1-1.332-.42c-.361-.177-.638-.406-.829-.686-.191-.286-.287-.642-.287-1.065 0-.416.116-.788.348-1.116.24-.328.57-.584.994-.768.423-.184.925-.276 1.505-.276.471 0 .884.061 1.239.184.362.123.666.287.911.491.246.205.43.424.553.656.13.225.198.447.205.665 0 .055-.02.106-.061.154a.208.208 0 0 1-.154.061H41.75a.43.43 0 0 1-.194-.04.378.378 0 0 1-.144-.134c-.04-.15-.15-.28-.327-.389-.17-.116-.396-.174-.676-.174-.3 0-.536.055-.707.164-.163.102-.245.263-.245.481a.53.53 0 0 0 .133.359c.095.102.249.19.46.266.22.075.516.154.892.235.62.116 1.122.263 1.505.44.382.171.662.397.84.677.177.273.266.617.266 1.034 0 .464-.133.867-.4 1.208-.26.335-.62.59-1.085.768-.464.178-.997.266-1.598.266Zm8.675.564a.346.346 0 0 1-.256-.093 2.25 2.25 0 0 1-.133-.143l-.348-.46a2.88 2.88 0 0 1-.912.132c-.628 0-1.174-.102-1.638-.307a2.467 2.467 0 0 1-1.086-.921c-.26-.417-.399-.936-.42-1.557a38.021 38.021 0 0 1 0-1.771c.021-.615.164-1.13.43-1.547a2.48 2.48 0 0 1 1.096-.952c.465-.212 1.004-.317 1.618-.317.621 0 1.164.105 1.628.317.465.212.83.53 1.096.952.266.417.41.932.43 1.547a19.552 19.552 0 0 1 0 1.771c-.04.847-.287 1.502-.737 1.966l.747 1.065a.192.192 0 0 1 .03.102.165.165 0 0 1-.05.144.194.194 0 0 1-.154.072h-1.341Zm-1.649-2.038c.362 0 .656-.11.88-.328.233-.218.356-.566.37-1.044a17.526 17.526 0 0 0 0-1.68c-.007-.32-.065-.58-.175-.778a1.04 1.04 0 0 0-.44-.45 1.36 1.36 0 0 0-.635-.144c-.232 0-.44.048-.624.143a1.041 1.041 0 0 0-.44.451c-.11.198-.168.457-.175.778a34.504 34.504 0 0 0 0 1.68c.014.477.133.826.359 1.044.232.219.525.328.88.328ZM52.123 61a.25.25 0 0 1-.184-.072.25.25 0 0 1-.072-.184v-6.656a.25.25 0 0 1 .072-.184.25.25 0 0 1 .184-.072h1.352c.068 0 .126.024.174.072a.233.233 0 0 1 .081.184v5.366h3.093c.075 0 .136.027.184.082a.231.231 0 0 1 .082.184v1.024a.234.234 0 0 1-.082.184.25.25 0 0 1-.184.072h-4.7Z"/></g><defs><filter id="a" width="80" height="80" x="0" y="0" color-interpolation-filters="sRGB" filterUnits="userSpaceOnUse"><feFlood flood-opacity="0" result="BackgroundImageFix"/><feColorMatrix in="SourceAlpha" result="hardAlpha" values="0 0 0 0 0 0 0 0 0 0 0 0 0 0 0 0 0 0 127 0"/><feOffset dy="2"/><feGaussianBlur stdDeviation="4"/><feColorMatrix values="0 0 0 0 0 0 0 0 0 0 0 0 0 0 0 0 0 0 0.75 0"/><feBlend in2="BackgroundImageFix" result="effect1_dropShadow_603_782"/><feBlend in="SourceGraphic" in2="effect1_dropShadow_603_782" result="shape"/></filter></defs></svg>