<svg xmlns="http://www.w3.org/2000/svg" width="80" height="80" fill="none"><g filter="url(#a)"><rect width="64" height="64" x="8" y="6" fill="#212529" rx="5"/><path fill="#EA2845" d="M42.387 13.604a1.7 1.7 0 0 0-.537.1c.355.237.546.546.646.901.01.046.019.082.028.128.009.045.018.082.018.127.027.61-.164.683-.291 1.047-.2.464-.146.965.1 1.366.018.045.045.1.082.154-.264-1.757 1.202-2.02 1.475-2.567.018-.482-.374-.801-.683-1.02a1.637 1.637 0 0 0-.838-.236Zm2.203.391c-.027.164-.009.119-.018.2-.009.055-.009.128-.018.183-.018.054-.027.109-.046.163l-.054.164c-.027.055-.046.1-.073.164l-.054.082c-.019.018-.028.046-.046.064-.036.045-.073.1-.1.136-.046.046-.073.091-.128.128v.009c-.045.037-.082.073-.127.11-.146.109-.31.19-.464.3-.046.036-.1.063-.137.1a1.604 1.604 0 0 0-.128.11l-.127.127c-.036.045-.073.09-.1.136a1.4 1.4 0 0 0-.1.146c-.027.054-.046.1-.073.164-.018.054-.046.1-.055.164-.018.063-.036.118-.045.172-.01.028-.01.064-.018.092-.01.027-.01.054-.019.082 0 .054-.009.118-.009.172 0 .046 0 .082.01.128 0 .055.008.11.018.173.009.055.018.11.036.164l.055.164c.018.036.036.072.045.1l-1.593-.62c-.273-.072-.537-.145-.801-.209a7.477 7.477 0 0 0-.437-.1 14.617 14.617 0 0 0-1.266-.191c-.018 0-.018-.01-.036-.01a11.398 11.398 0 0 0-1.238-.063c-.31 0-.61.018-.91.037-.42.027-.847.081-1.266.154-.1.019-.21.037-.31.055-.218.046-.419.091-.628.137l-.31.081c-.1.046-.2.091-.3.128a2.477 2.477 0 0 1-.228.1c-.018.01-.027.01-.036.018a3.639 3.639 0 0 0-.191.1.154.154 0 0 1-.046.019c-.072.036-.154.073-.218.109a.646.646 0 0 0-.137.073c-.018.018-.045.027-.063.036a3.948 3.948 0 0 1-.183.1c-.063.037-.118.073-.163.1-.046.037-.1.064-.137.1-.01.01-.018.01-.018.019a.692.692 0 0 0-.128.1l-.018.018a.976.976 0 0 0-.1.082c-.018.01-.027.018-.046.027-.036.028-.072.064-.1.091-.009.019-.018.019-.027.028-.046.045-.082.073-.128.118-.009 0-.009.01-.018.018a1.538 1.538 0 0 0-.127.119c-.01.009-.01.018-.018.018a1.07 1.07 0 0 0-.1.11c-.019.017-.037.026-.046.045a1.496 1.496 0 0 1-.118.127c-.01.018-.019.018-.028.037-.054.054-.1.109-.163.163l-.019.019a3.1 3.1 0 0 1-.355.337 4.205 4.205 0 0 1-.391.309 4.04 4.04 0 0 1-.42.264 4.899 4.899 0 0 1-.891.373c-.292.064-.592.182-.847.2-.055 0-.118.019-.173.019-.064.018-.118.027-.173.045-.055.019-.11.046-.164.064-.055.018-.11.046-.164.073-.045.036-.1.064-.154.1-.046.037-.1.073-.137.118a.903.903 0 0 0-.137.128c-.045.045-.081.09-.118.136-.036.055-.073.1-.1.164a.718.718 0 0 0-.1.164c-.028.064-.055.119-.073.182-.018.055-.046.119-.064.182-.018.055-.027.11-.036.164 0 .01-.01.018-.01.018-.018.064-.018.146-.018.192a.697.697 0 0 0-.018.136c0 .027 0 .064.01.091.009.046.018.091.027.128.018.045.027.082.045.127v.01c.018.045.046.081.073.127.027.045.055.082.091.127a1.4 1.4 0 0 0 .118.11c.046.045.082.072.128.109.164.145.21.19.419.31l.109.054c.009 0 .018.009.018.009 0 .018 0 .018.01.036a1.738 1.738 0 0 0 .091.328c.018.046.036.082.054.128.009.018.018.027.018.036.027.055.055.1.082.155.037.045.073.1.1.145a.782.782 0 0 0 .118.128c.046.045.082.073.128.118 0 0 .01.01.018.01.046.036.082.072.128.1.045.036.1.063.154.09.046.028.1.055.164.073a.802.802 0 0 0 .137.046c.009.009.018.009.027.018.027.01.064.018.091.018-.018.374-.027.729.027.856.064.137.365-.282.674-.774-.045.483-.073 1.038 0 1.211.073.173.492-.364.856-.965 4.916-1.138 9.405 2.258 9.878 7.065-.09-.747-1.01-1.165-1.438-1.065-.21.51-.565 1.174-1.13 1.584a4.427 4.427 0 0 0-.072-1.384 4.613 4.613 0 0 1-.856 1.748c-.655.046-1.32-.273-1.666-.746-.027-.019-.036-.064-.055-.091-.018-.046-.045-.1-.054-.146a.896.896 0 0 1-.046-.146c-.009-.045-.009-.1-.009-.155v-.1c.01-.045.018-.1.037-.146.018-.045.027-.1.045-.145.027-.046.046-.1.082-.146.118-.337.118-.6-.1-.764-.046-.028-.082-.046-.128-.073-.027-.01-.063-.019-.09-.028-.019-.009-.037-.018-.055-.018-.046-.018-.1-.027-.146-.036-.045-.018-.1-.018-.146-.018a.801.801 0 0 0-.154-.019c-.037 0-.073.01-.1.01-.055 0-.1.008-.155.018l-.146.027c-.045.018-.1.027-.146.045-.045.019-.09.046-.136.064-.046.018-.082.046-.128.073-1.62 1.056-.655 3.523.456 4.233-.42.073-.838.164-.956.255l-.019.019a6 6 0 0 0 .938.464c.446.145.92.273 1.12.337v.009a6.605 6.605 0 0 0 1.748.127c3.068-.218 5.59-2.549 6.045-5.635.018.064.028.118.046.182.018.127.045.255.064.391v.01c.018.063.018.127.027.181v.028c.009.064.018.127.018.182.01.073.018.155.018.227v.11c0 .036.01.073.01.109 0 .046-.01.082-.01.127v.1c0 .046-.009.092-.009.137 0 .028 0 .055-.009.091 0 .046-.01.1-.01.155-.008.018-.008.045-.008.064a.823.823 0 0 0-.018.164c0 .018 0 .045-.01.063l-.027.2v.019c-.018.064-.027.127-.045.191v.018c-.019.064-.028.128-.046.191 0 .01-.009.019-.009.028-.018.063-.027.127-.045.19v.02c-.019.072-.046.127-.055.19-.01.01-.01.019-.01.019-.017.072-.045.136-.063.209l-.073.2c-.027.073-.045.137-.073.2-.027.073-.054.128-.082.2h-.009a1.81 1.81 0 0 1-.09.192.154.154 0 0 0-.019.046c-.01.009-.01.018-.018.018a6.668 6.668 0 0 1-1.948 2.33c-.055.037-.11.073-.164.119-.018.018-.037.018-.046.036a.902.902 0 0 1-.155.1l.019.046h.009c.1-.018.19-.027.291-.046h.01a9.38 9.38 0 0 0 .536-.1c.046-.009.1-.018.155-.036.036-.01.064-.018.1-.018.046-.01.1-.019.146-.028.045-.018.082-.018.127-.036a12.69 12.69 0 0 0 2.012-.665 11.049 11.049 0 0 1-4.306 3.514 11.617 11.617 0 0 0 2.367-.41 11.104 11.104 0 0 0 6.555-5.234 10.982 10.982 0 0 1-1.866 4.46 10.704 10.704 0 0 0 1.848-1.538 10.973 10.973 0 0 0 2.922-5.9c.237 1.093.31 2.231.2 3.342 5.008-6.983.42-14.23-1.502-16.133-.009-.018-.018-.018-.018-.036-.009.009-.009.009-.009.018 0-.009 0-.009-.009-.018 0 .082-.009.164-.018.246-.018.164-.046.31-.073.464-.036.155-.073.31-.118.455-.046.146-.1.3-.164.446-.064.137-.128.283-.21.42a5.666 5.666 0 0 1-.245.39c-.091.128-.192.256-.283.374-.1.127-.218.237-.327.346-.073.064-.128.118-.2.173-.055.045-.1.09-.165.136-.127.1-.245.192-.391.274a6.047 6.047 0 0 1-.41.236c-.145.073-.291.128-.437.191-.145.055-.3.1-.455.146a4.23 4.23 0 0 1-.464.1 4.448 4.448 0 0 1-.474.055 3.988 3.988 0 0 1-.337.018c-.163 0-.318-.018-.473-.027a3.948 3.948 0 0 1-.473-.073c-.164-.027-.31-.073-.465-.118h-.009c.155-.019.31-.028.456-.055.163-.027.309-.064.464-.1.154-.046.31-.091.455-.146.155-.055.3-.127.437-.191.146-.073.273-.146.419-.228.127-.09.264-.182.391-.273.128-.1.246-.2.355-.31.119-.1.219-.218.328-.336.1-.128.2-.246.291-.373.019-.019.028-.046.046-.073a5.944 5.944 0 0 0 .41-.756c.063-.146.118-.291.163-.446.046-.146.082-.3.119-.455.027-.164.054-.31.073-.464a4.32 4.32 0 0 0 .027-.474c0-.11-.01-.218-.018-.337-.018-.164-.037-.31-.055-.464-.027-.164-.064-.31-.1-.465-.045-.145-.1-.3-.155-.446-.054-.145-.127-.29-.19-.427a9.472 9.472 0 0 0-.238-.41l-.273-.383c-.1-.118-.21-.236-.318-.355a3.394 3.394 0 0 0-.182-.173 11.72 11.72 0 0 0-.966-.682c-.045-.028-.09-.046-.136-.073-.219-.164-.428-.237-.647-.31Z"/><path fill="#E5E5E5" d="M28.973 61a.25.25 0 0 1-.184-.072.25.25 0 0 1-.072-.184v-6.656a.25.25 0 0 1 .072-.184.25.25 0 0 1 .184-.072h1.085c.116 0 .198.027.246.082a.452.452 0 0 1 .102.113l2.499 3.942v-3.881a.25.25 0 0 1 .072-.184.25.25 0 0 1 .184-.072h1.229a.25.25 0 0 1 .184.072.25.25 0 0 1 .072.184v6.656a.27.27 0 0 1-.072.184.25.25 0 0 1-.184.072h-1.096c-.11 0-.191-.027-.246-.082a1.353 1.353 0 0 1-.092-.113l-2.498-3.788v3.727a.25.25 0 0 1-.072.184.25.25 0 0 1-.184.072h-1.23Zm9.449.102c-.806 0-1.447-.218-1.925-.655-.478-.437-.727-1.085-.748-1.946v-.358c.02-.54.14-1 .358-1.382.226-.39.533-.683.922-.881.396-.205.857-.307 1.382-.307.601 0 1.096.12 1.485.358.396.24.693.563.891.973.198.41.297.877.297 1.403v.246a.234.234 0 0 1-.082.184.237.237 0 0 1-.174.072h-3.277v.071c.007.198.041.38.103.543a.772.772 0 0 0 .758.532.82.82 0 0 0 .337-.06c.096-.049.174-.1.236-.155a2.12 2.12 0 0 0 .143-.153.482.482 0 0 1 .144-.123c.04-.02.102-.03.184-.03h1.27c.068 0 .123.02.164.06.047.035.068.086.061.154-.007.116-.065.256-.174.42a2.16 2.16 0 0 1-.481.492 2.591 2.591 0 0 1-.779.389 3.549 3.549 0 0 1-1.095.153Zm-.87-3.307h1.73v-.02c0-.22-.034-.41-.102-.574a.752.752 0 0 0-.297-.379.814.814 0 0 0-.472-.133.813.813 0 0 0-.47.133.86.86 0 0 0-.287.379 1.482 1.482 0 0 0-.103.573v.02Zm6.684 3.307c-.444 0-.823-.047-1.137-.143a2.799 2.799 0 0 1-.758-.369 1.732 1.732 0 0 1-.43-.44c-.096-.157-.147-.29-.154-.4a.207.207 0 0 1 .072-.184.245.245 0 0 1 .174-.082h1.168a.12.12 0 0 1 .05.01.522.522 0 0 1 .062.042c.089.047.178.109.266.184.09.068.192.13.308.184a.98.98 0 0 0 .42.082.947.947 0 0 0 .48-.112.366.366 0 0 0 .195-.338c0-.11-.03-.198-.092-.267-.061-.075-.188-.146-.379-.215a5.363 5.363 0 0 0-.84-.204 4.374 4.374 0 0 1-.931-.318 1.607 1.607 0 0 1-.615-.522 1.405 1.405 0 0 1-.215-.789c0-.273.09-.535.267-.788.177-.253.437-.457.778-.614.341-.164.761-.246 1.26-.246.395 0 .737.048 1.023.143.294.089.54.205.738.348.204.144.358.29.46.44.103.15.157.287.164.41a.235.235 0 0 1-.061.185.226.226 0 0 1-.164.071H45.28a.338.338 0 0 1-.082-.01.672.672 0 0 1-.072-.041 1.281 1.281 0 0 1-.245-.164 1.476 1.476 0 0 0-.287-.184.912.912 0 0 0-.41-.082c-.184 0-.327.04-.43.123a.408.408 0 0 0-.072.563c.062.075.181.143.359.205.184.061.468.13.85.205.47.075.846.198 1.126.368.28.164.478.359.594.584.116.218.174.45.174.696 0 .328-.099.618-.297.87-.19.253-.477.451-.86.595-.382.136-.846.204-1.392.204ZM50.398 61c-.437 0-.816-.068-1.137-.205a1.578 1.578 0 0 1-.727-.655c-.17-.3-.256-.686-.256-1.157v-1.966h-.798a.286.286 0 0 1-.195-.072.25.25 0 0 1-.072-.184v-.83a.25.25 0 0 1 .072-.184.286.286 0 0 1 .195-.072h.798v-1.69a.25.25 0 0 1 .072-.184.273.273 0 0 1 .184-.071h1.188a.25.25 0 0 1 .184.071.25.25 0 0 1 .072.185v1.69h1.28a.25.25 0 0 1 .184.07.25.25 0 0 1 .072.185v.83a.25.25 0 0 1-.072.184.25.25 0 0 1-.184.072h-1.28v1.822c0 .233.044.417.133.553.089.137.24.205.45.205h.79a.25.25 0 0 1 .184.072.25.25 0 0 1 .071.184v.891a.25.25 0 0 1-.071.184.25.25 0 0 1-.185.072h-.952Z"/></g><defs><filter id="a" width="80" height="80" x="0" y="0" color-interpolation-filters="sRGB" filterUnits="userSpaceOnUse"><feFlood flood-opacity="0" result="BackgroundImageFix"/><feColorMatrix in="SourceAlpha" result="hardAlpha" values="0 0 0 0 0 0 0 0 0 0 0 0 0 0 0 0 0 0 127 0"/><feOffset dy="2"/><feGaussianBlur stdDeviation="4"/><feColorMatrix values="0 0 0 0 0 0 0 0 0 0 0 0 0 0 0 0 0 0 0.75 0"/><feBlend in2="BackgroundImageFix" result="effect1_dropShadow_602_1852"/><feBlend in="SourceGraphic" in2="effect1_dropShadow_602_1852" result="shape"/></filter></defs></svg>