<svg xmlns="http://www.w3.org/2000/svg" width="80" height="80" fill="none"><g filter="url(#a)"><rect width="64" height="64" x="8" y="6" fill="none" rx="5"/><g clip-path="url(#b)"><mask id="c" width="32" height="32" x="24" y="11" maskUnits="userSpaceOnUse" style="mask-type:luminance"><path fill="#fff" d="M56 11H24v32h32V11Z"/></mask><g mask="url(#c)"><path fill="#fff" d="M38.952 11.009c-.069.006-.288.028-.485.043-4.545.41-8.802 2.863-11.498 6.632a15.84 15.84 0 0 0-2.825 6.991c-.128.88-.144 1.139-.144 2.33 0 1.192.016 1.452.144 2.33.87 6.01 5.146 11.059 10.945 12.93a16.98 16.98 0 0 0 3.378.7c.485.053 2.58.053 3.066 0 2.149-.238 3.97-.77 5.765-1.686.275-.141.328-.179.29-.21a332.733 332.733 0 0 1-2.605-3.494l-2.559-3.456-3.206-4.745c-1.764-2.61-3.216-4.743-3.228-4.743-.013-.003-.025 2.105-.032 4.68-.009 4.507-.012 4.689-.068 4.795a.568.568 0 0 1-.276.285c-.1.05-.187.06-.66.06h-.54l-.145-.091a.586.586 0 0 1-.21-.229l-.065-.14.006-6.272.01-6.275.097-.122a.859.859 0 0 1 .231-.191c.129-.063.178-.069.72-.069.638 0 .744.025.91.207.047.05 1.783 2.665 3.86 5.815 2.077 3.15 4.917 7.45 6.312 9.562l2.534 3.838.128-.084c1.136-.738 2.337-1.79 3.288-2.884a15.93 15.93 0 0 0 3.766-8.18c.128-.88.144-1.139.144-2.33 0-1.192-.016-1.452-.144-2.33-.87-6.01-5.146-11.059-10.945-12.93a16.804 16.804 0 0 0-3.331-.697c-.3-.031-2.368-.065-2.628-.04Zm6.55 9.678c.15.075.272.219.316.369.025.081.032 1.82.025 5.74l-.01 5.624-.99-1.52-.996-1.52v-4.09c0-2.643.013-4.129.032-4.2a.638.638 0 0 1 .31-.395c.128-.066.175-.072.666-.072.463 0 .544.007.647.063Z"/></g></g><path fill="#2AF" d="M28.473 61a.25.25 0 0 1-.184-.072.25.25 0 0 1-.072-.184v-6.656a.25.25 0 0 1 .072-.184.25.25 0 0 1 .184-.072h1.085c.116 0 .198.027.246.082a.452.452 0 0 1 .102.113l2.499 3.942v-3.881a.25.25 0 0 1 .072-.184.25.25 0 0 1 .184-.072h1.229a.25.25 0 0 1 .184.072.25.25 0 0 1 .072.184v6.656a.27.27 0 0 1-.072.184.25.25 0 0 1-.184.072h-1.096c-.11 0-.191-.027-.246-.082a1.353 1.353 0 0 1-.092-.113l-2.498-3.788v3.727a.25.25 0 0 1-.072.184.25.25 0 0 1-.184.072h-1.23Zm9.449.102c-.806 0-1.447-.218-1.925-.655-.478-.437-.727-1.085-.748-1.946v-.358c.02-.54.14-1 .358-1.382.226-.39.533-.683.922-.881.396-.205.857-.307 1.382-.307.601 0 1.096.12 1.485.358.396.24.693.563.891.973.198.41.297.877.297 1.403v.246a.234.234 0 0 1-.082.184.237.237 0 0 1-.174.072h-3.277v.071c.007.198.041.38.103.543a.772.772 0 0 0 .758.532.82.82 0 0 0 .337-.06c.096-.049.174-.1.236-.155a2.12 2.12 0 0 0 .143-.153.482.482 0 0 1 .144-.123c.04-.02.102-.03.184-.03h1.27c.068 0 .123.02.164.06.047.035.068.086.061.154-.007.116-.065.256-.174.42a2.16 2.16 0 0 1-.481.492 2.591 2.591 0 0 1-.779.389 3.549 3.549 0 0 1-1.095.153Zm-.87-3.307h1.73v-.02c0-.22-.034-.41-.102-.574a.752.752 0 0 0-.297-.379.814.814 0 0 0-.472-.133.813.813 0 0 0-.47.133.86.86 0 0 0-.287.379 1.482 1.482 0 0 0-.103.573v.02ZM41.148 61a.245.245 0 0 1-.164-.061.245.245 0 0 1-.05-.236.226.226 0 0 1 .04-.092l1.71-2.345-1.556-2.202a.548.548 0 0 1-.052-.082.338.338 0 0 1-.01-.081c0-.062.024-.113.072-.154a.225.225 0 0 1 .164-.072h1.249c.089 0 .154.02.195.062a.493.493 0 0 1 .102.112l.952 1.321.942-1.31c.028-.035.062-.072.103-.113.048-.048.116-.072.205-.072h1.198c.061 0 .112.024.153.072.048.04.072.092.072.154a.338.338 0 0 1-.01.081.23.23 0 0 1-.041.082l-1.598 2.202 1.73 2.345a.18.18 0 0 1 .052.082c.007.027.01.054.01.082a.226.226 0 0 1-.235.225h-1.3c-.083 0-.144-.017-.185-.051a1.4 1.4 0 0 1-.102-.113l-1.035-1.403-1.044 1.403-.103.103c-.04.04-.105.061-.194.061h-1.27Zm8.959 0c-.437 0-.816-.068-1.137-.205a1.578 1.578 0 0 1-.727-.655c-.17-.3-.256-.686-.256-1.157v-1.966h-.798a.286.286 0 0 1-.195-.072.25.25 0 0 1-.072-.184v-.83a.25.25 0 0 1 .072-.184.286.286 0 0 1 .195-.072h.798v-1.69a.25.25 0 0 1 .072-.184.273.273 0 0 1 .184-.071h1.188a.25.25 0 0 1 .184.071.25.25 0 0 1 .072.185v1.69h1.28a.25.25 0 0 1 .184.07.25.25 0 0 1 .072.185v.83a.25.25 0 0 1-.071.184.25.25 0 0 1-.185.072h-1.28v1.822c0 .233.044.417.133.553.089.137.24.205.45.205h.79a.25.25 0 0 1 .184.072.25.25 0 0 1 .071.184v.891a.25.25 0 0 1-.071.184.25.25 0 0 1-.185.072h-.952Z"/></g><defs><clipPath id="b"><path fill="#fff" d="M24 11h32v32H24z"/></clipPath><filter id="a" width="80" height="80" x="0" y="0" color-interpolation-filters="sRGB" filterUnits="userSpaceOnUse"><feFlood flood-opacity="0" result="BackgroundImageFix"/><feColorMatrix in="SourceAlpha" result="hardAlpha" values="0 0 0 0 0 0 0 0 0 0 0 0 0 0 0 0 0 0 127 0"/><feOffset dy="2"/><feGaussianBlur stdDeviation="4"/><feColorMatrix values="0 0 0 0 0 0 0 0 0 0 0 0 0 0 0 0 0 0 0.75 0"/><feBlend in2="BackgroundImageFix" result="effect1_dropShadow_602_1783"/><feBlend in="SourceGraphic" in2="effect1_dropShadow_602_1783" result="shape"/></filter></defs></svg>