<svg xmlns="http://www.w3.org/2000/svg" width="80" height="80" fill="none"><g filter="url(#a)"><rect width="64" height="64" x="8" y="6" fill="#212529" rx="5"/><mask id="b" width="28" height="30" x="26" y="12" maskUnits="userSpaceOnUse" style="mask-type:luminance"><path fill="#fff" d="M39.297 12.361 27.674 19.07a1.403 1.403 0 0 0-.702 1.215v13.426c0 .502.267.965.702 1.216l11.623 6.714a1.406 1.406 0 0 0 1.405 0l11.62-6.714a1.406 1.406 0 0 0 .702-1.216V20.285c0-.5-.268-.964-.704-1.215L40.7 12.36a1.414 1.414 0 0 0-1.407 0"/></mask><g mask="url(#b)"><path fill="url(#c)" d="M64.769 17.93 32.019 1.879 15.225 36.134l32.75 16.054L64.768 17.93Z"/></g><mask id="d" width="26" height="30" x="27" y="12" maskUnits="userSpaceOnUse" style="mask-type:luminance"><path fill="#fff" d="M27.26 34.564c.11.144.25.269.414.363l9.97 5.759 1.66.954a1.41 1.41 0 0 0 1.086.133l12.258-22.445a1.39 1.39 0 0 0-.327-.26l-7.61-4.394-4.023-2.314a1.469 1.469 0 0 0-.364-.147L27.26 34.563Z"/></mask><g mask="url(#d)"><path fill="url(#e)" d="m13.1 22.678 23.125 31.299 30.583-22.596L43.682.084 13.1 22.679Z"/></g><mask id="f" width="27" height="30" x="27" y="12" maskUnits="userSpaceOnUse" style="mask-type:luminance"><path fill="#fff" d="M39.858 12.181c-.197.02-.389.082-.561.18l-11.59 6.69 12.498 22.761c.173-.024.344-.082.499-.172l11.622-6.713a1.407 1.407 0 0 0 .679-.96l-12.74-21.763a1.457 1.457 0 0 0-.284-.028l-.116.005"/></mask><g mask="url(#f)"><path fill="url(#g)" d="M27.707 12.176v29.637H53V12.176H27.707Z"/></g><path fill="#E5E5E5" d="M27.473 61a.25.25 0 0 1-.184-.072.25.25 0 0 1-.072-.184v-6.656a.25.25 0 0 1 .072-.184.25.25 0 0 1 .184-.072h1.085c.116 0 .198.027.246.082a.452.452 0 0 1 .102.113l2.499 3.942v-3.881a.25.25 0 0 1 .072-.184.25.25 0 0 1 .184-.072h1.229a.25.25 0 0 1 .184.072.25.25 0 0 1 .072.184v6.656a.27.27 0 0 1-.072.184.25.25 0 0 1-.184.072h-1.096c-.11 0-.191-.027-.246-.082a1.353 1.353 0 0 1-.092-.113l-2.498-3.788v3.727a.25.25 0 0 1-.072.184.25.25 0 0 1-.184.072h-1.23Zm9.51.102c-.573 0-1.058-.092-1.454-.276a2.076 2.076 0 0 1-.901-.789c-.205-.348-.32-.76-.348-1.239a9.346 9.346 0 0 1 0-.921c.027-.485.15-.898.368-1.24.219-.34.523-.603.912-.788.396-.184.87-.276 1.423-.276.56 0 1.034.092 1.424.276.396.185.703.447.921.789.219.341.341.754.369 1.239a9.346 9.346 0 0 1 0 .922c-.028.477-.147.89-.359 1.238a2.003 2.003 0 0 1-.9.789c-.39.184-.875.276-1.455.276Zm0-1.249c.307 0 .53-.092.666-.276.143-.185.225-.461.246-.83.006-.102.01-.239.01-.41 0-.17-.004-.307-.01-.409-.02-.362-.103-.635-.246-.82-.137-.19-.359-.286-.666-.286-.3 0-.522.096-.665.287-.144.184-.222.457-.236.819-.007.102-.01.239-.01.41 0 .17.003.307.01.41.014.368.092.644.236.829.143.184.365.276.665.276Zm5.718 1.25c-.328 0-.625-.052-.891-.154a1.947 1.947 0 0 1-.676-.471 2.287 2.287 0 0 1-.43-.758 3.59 3.59 0 0 1-.174-1.024 6.884 6.884 0 0 1 0-.717c.014-.368.072-.7.174-.993.102-.294.246-.546.43-.758a1.77 1.77 0 0 1 .676-.481c.266-.116.563-.174.89-.174a2.046 2.046 0 0 1 1.506.604v-2.191a.25.25 0 0 1 .072-.185.25.25 0 0 1 .184-.071h1.25c.067 0 .126.024.173.071.055.048.082.11.082.185v6.758a.234.234 0 0 1-.082.184.237.237 0 0 1-.174.072h-1.157a.25.25 0 0 1-.184-.072.25.25 0 0 1-.072-.184v-.328a1.93 1.93 0 0 1-.635.492c-.26.13-.58.194-.962.194Zm.553-1.373c.232 0 .413-.047.542-.143a.879.879 0 0 0 .297-.39c.069-.156.106-.327.113-.511a7.843 7.843 0 0 0 0-.768 1.196 1.196 0 0 0-.113-.471.827.827 0 0 0-.307-.359c-.136-.095-.314-.143-.532-.143-.226 0-.407.048-.543.143a.773.773 0 0 0-.276.39 2.188 2.188 0 0 0-.103.542c-.02.212-.02.423 0 .635.014.198.048.379.102.543a.773.773 0 0 0 .277.389c.136.095.317.143.543.143Zm6.378 1.372c-.806 0-1.447-.218-1.925-.655-.478-.437-.727-1.085-.748-1.946v-.358c.02-.54.14-1 .358-1.382.226-.39.533-.683.922-.881.396-.205.857-.307 1.383-.307.6 0 1.095.12 1.484.358.396.24.693.563.891.973.198.41.297.877.297 1.403v.246a.234.234 0 0 1-.082.184.237.237 0 0 1-.174.072h-3.277v.071c.007.198.041.38.103.543a.772.772 0 0 0 .758.532.82.82 0 0 0 .337-.06c.096-.049.174-.1.236-.155a2.12 2.12 0 0 0 .143-.153.482.482 0 0 1 .144-.123c.04-.02.102-.03.184-.03h1.27c.068 0 .123.02.164.06.047.035.068.086.061.154-.007.116-.065.256-.174.42a2.16 2.16 0 0 1-.481.492 2.591 2.591 0 0 1-.779.389 3.549 3.549 0 0 1-1.095.153Zm-.87-3.307h1.73v-.02c0-.22-.034-.41-.102-.574a.752.752 0 0 0-.297-.379.814.814 0 0 0-.472-.133.813.813 0 0 0-.47.133.86.86 0 0 0-.287.379 1.482 1.482 0 0 0-.103.573v.02Z"/></g><defs><linearGradient id="c" x1="48.384" x2="31.593" y1="9.879" y2="44.133" gradientUnits="userSpaceOnUse"><stop offset=".3" stop-color="#3E863D"/><stop offset=".5" stop-color="#55934F"/><stop offset=".8" stop-color="#5AAD45"/></linearGradient><linearGradient id="e" x1="24.801" x2="55.385" y1="38.507" y2="15.909" gradientUnits="userSpaceOnUse"><stop offset=".57" stop-color="#3E863D"/><stop offset=".72" stop-color="#619857"/><stop offset="1" stop-color="#76AC64"/></linearGradient><linearGradient id="g" x1="27.716" x2="53.005" y1="26.995" y2="26.995" gradientUnits="userSpaceOnUse"><stop offset=".16" stop-color="#6BBF47"/><stop offset=".38" stop-color="#79B461"/><stop offset=".47" stop-color="#75AC64"/><stop offset=".7" stop-color="#659E5A"/><stop offset=".9" stop-color="#3E863D"/></linearGradient><filter id="a" width="80" height="80" x="0" y="0" color-interpolation-filters="sRGB" filterUnits="userSpaceOnUse"><feFlood flood-opacity="0" result="BackgroundImageFix"/><feColorMatrix in="SourceAlpha" result="hardAlpha" values="0 0 0 0 0 0 0 0 0 0 0 0 0 0 0 0 0 0 127 0"/><feOffset dy="2"/><feGaussianBlur stdDeviation="4"/><feColorMatrix values="0 0 0 0 0 0 0 0 0 0 0 0 0 0 0 0 0 0 0.75 0"/><feBlend in2="BackgroundImageFix" result="effect1_dropShadow_602_1575"/><feBlend in="SourceGraphic" in2="effect1_dropShadow_602_1575" result="shape"/></filter></defs></svg>