<svg xmlns="http://www.w3.org/2000/svg" width="80" height="80" fill="rgba(0,0,255,0.2)"><g><rect width="64" height="64" x="8" y="6" fill="#0D1117" rx="5"/><path fill="#76D04B" d="M39.336 40.822a1.323 1.323 0 0 0 1.325 0l10.976-6.333a1.325 1.325 0 0 0 .663-1.148V20.664a1.326 1.326 0 0 0-.662-1.148l-10.976-6.338a1.327 1.327 0 0 0-1.326 0l-10.973 6.338a1.325 1.325 0 0 0-.663 1.148v12.678a1.324 1.324 0 0 0 .663 1.147l10.973 6.333Z"/><path fill="#4F4D3F" d="m47.106 23.978-.489-.282a6.49 6.49 0 0 0 .638-5.275s-1.27 3.56-3.823 3.442l-2.99-1.72a.779.779 0 0 0-.367-.107h-.069a.791.791 0 0 0-.368.107l-2.99 1.72c-2.553.118-3.823-3.442-3.823-3.442a6.489 6.489 0 0 0 .64 5.279l-.49.282a.807.807 0 0 0-.4.7L32.586 35a.395.395 0 0 0 .2.348.385.385 0 0 0 .4 0l3.96-2.268a.81.81 0 0 0 .4-.7v-4.818a.8.8 0 0 1 .4-.7l1.686-.971a.784.784 0 0 1 .8 0l1.686.97a.8.8 0 0 1 .4.7v4.825a.81.81 0 0 0 .4.7l3.96 2.268a.391.391 0 0 0 .4 0A.4.4 0 0 0 47.5 35l.013-10.326a.8.8 0 0 0-.4-.7l-.007.004Z"/><path fill="#2AF" d="M16.473 61a.25.25 0 0 1-.184-.072.25.25 0 0 1-.072-.184v-6.656a.25.25 0 0 1 .072-.184.25.25 0 0 1 .184-.072h1.085c.116 0 .198.027.246.082a.452.452 0 0 1 .102.113l2.499 3.942v-3.881a.25.25 0 0 1 .072-.184.25.25 0 0 1 .184-.072h1.229a.25.25 0 0 1 .184.072.25.25 0 0 1 .072.184v6.656a.27.27 0 0 1-.072.184.25.25 0 0 1-.184.072h-1.096c-.11 0-.191-.027-.246-.082a1.353 1.353 0 0 1-.092-.113l-2.498-3.788v3.727a.25.25 0 0 1-.072.184.25.25 0 0 1-.184.072h-1.23Zm9.51.102c-.573 0-1.058-.092-1.454-.276a2.076 2.076 0 0 1-.901-.789c-.205-.348-.32-.76-.348-1.239a9.346 9.346 0 0 1 0-.921c.027-.485.15-.898.368-1.24.219-.34.523-.603.912-.788.396-.184.87-.276 1.423-.276.56 0 1.034.092 1.424.276.395.185.703.447.921.789.219.341.341.754.369 1.239a9.346 9.346 0 0 1 0 .922c-.027.477-.147.89-.359 1.238a2.003 2.003 0 0 1-.9.789c-.39.184-.874.276-1.455.276Zm0-1.249c.307 0 .53-.092.666-.276.143-.185.225-.461.246-.83.006-.102.01-.239.01-.41 0-.17-.004-.307-.01-.409-.02-.362-.103-.635-.246-.82-.137-.19-.359-.286-.666-.286-.3 0-.522.096-.665.287-.144.184-.222.457-.236.819-.007.102-.01.239-.01.41 0 .17.003.307.01.41.014.368.092.644.236.829.143.184.365.276.665.276Zm5.718 1.25c-.328 0-.625-.052-.891-.154a1.947 1.947 0 0 1-.676-.471 2.287 2.287 0 0 1-.43-.758 3.59 3.59 0 0 1-.174-1.024 6.884 6.884 0 0 1 0-.717c.014-.368.072-.7.174-.993.102-.294.246-.546.43-.758a1.77 1.77 0 0 1 .676-.481c.266-.116.563-.174.89-.174a2.046 2.046 0 0 1 1.506.604v-2.191a.25.25 0 0 1 .072-.185.25.25 0 0 1 .184-.071h1.25c.067 0 .126.024.173.071.055.048.082.11.082.185v6.758a.234.234 0 0 1-.082.184.237.237 0 0 1-.174.072h-1.157a.25.25 0 0 1-.184-.072.25.25 0 0 1-.072-.184v-.328a1.93 1.93 0 0 1-.635.492c-.26.13-.58.194-.962.194Zm.553-1.373c.232 0 .413-.047.542-.143a.879.879 0 0 0 .297-.39c.069-.156.106-.327.113-.511a7.843 7.843 0 0 0 0-.768 1.196 1.196 0 0 0-.113-.471.827.827 0 0 0-.307-.359c-.136-.095-.314-.143-.532-.143-.226 0-.406.048-.543.143a.773.773 0 0 0-.276.39 2.188 2.188 0 0 0-.103.542c-.02.212-.02.423 0 .635.014.198.048.379.102.543a.773.773 0 0 0 .277.389c.137.095.317.143.543.143Zm6.378 1.372c-.806 0-1.447-.218-1.925-.655-.478-.437-.727-1.085-.748-1.946v-.358c.02-.54.14-1 .358-1.382.226-.39.533-.683.922-.881.396-.205.857-.307 1.383-.307.6 0 1.095.12 1.484.358.396.24.693.563.891.973.198.41.297.877.297 1.403v.246a.234.234 0 0 1-.082.184.237.237 0 0 1-.174.072h-3.277v.071c.007.198.041.38.103.543a.772.772 0 0 0 .758.532.82.82 0 0 0 .337-.06c.096-.049.174-.1.236-.155a2.12 2.12 0 0 0 .143-.153.482.482 0 0 1 .144-.123c.04-.02.102-.03.184-.03h1.27c.068 0 .123.02.164.06.047.035.068.086.061.154-.007.116-.065.256-.174.42a2.16 2.16 0 0 1-.481.492 2.591 2.591 0 0 1-.779.389 3.549 3.549 0 0 1-1.095.153Zm-.87-3.307h1.73v-.02c0-.22-.034-.41-.102-.574a.752.752 0 0 0-.297-.379.814.814 0 0 0-.472-.133.813.813 0 0 0-.47.133.86.86 0 0 0-.287.379 1.482 1.482 0 0 0-.103.573v.02ZM42.51 61a.25.25 0 0 1-.184-.072.25.25 0 0 1-.072-.184v-4.813a.25.25 0 0 1 .072-.184.25.25 0 0 1 .184-.072h1.116a.25.25 0 0 1 .185.072.25.25 0 0 1 .071.184v.348c.137-.184.328-.344.574-.48a1.77 1.77 0 0 1 .87-.226c.785-.014 1.325.283 1.618.89.157-.259.382-.47.676-.634.294-.17.614-.256.963-.256.355 0 .672.082.952.246.287.157.515.402.686.737.17.328.256.754.256 1.28v2.908a.234.234 0 0 1-.082.184.237.237 0 0 1-.174.072h-1.188a.285.285 0 0 1-.194-.072.25.25 0 0 1-.072-.184v-2.837c0-.238-.034-.426-.103-.563a.646.646 0 0 0-.276-.307.841.841 0 0 0-.768 0 .7.7 0 0 0-.287.307c-.068.137-.102.325-.102.563v2.837a.25.25 0 0 1-.072.184.25.25 0 0 1-.184.072h-1.188a.25.25 0 0 1-.184-.072.25.25 0 0 1-.072-.184v-2.837c0-.238-.038-.426-.113-.563a.7.7 0 0 0-.286-.307.82.82 0 0 0-.758 0 .7.7 0 0 0-.287.307c-.068.137-.102.321-.102.553v2.847a.234.234 0 0 1-.082.184.25.25 0 0 1-.184.072H42.51Zm11.633.102c-.573 0-1.058-.092-1.454-.276a2.076 2.076 0 0 1-.901-.789c-.205-.348-.32-.76-.348-1.239a9.346 9.346 0 0 1 0-.921c.027-.485.15-.898.369-1.24.218-.34.522-.603.91-.788.397-.184.871-.276 1.424-.276.56 0 1.034.092 1.424.276.395.185.703.447.921.789.219.341.342.754.369 1.239a9.346 9.346 0 0 1 0 .922c-.027.477-.147.89-.359 1.238a2.003 2.003 0 0 1-.9.789c-.39.184-.874.276-1.455.276Zm0-1.249c.307 0 .53-.092.666-.276.143-.185.225-.461.246-.83.006-.102.01-.239.01-.41 0-.17-.004-.307-.01-.409-.02-.362-.103-.635-.246-.82-.137-.19-.359-.286-.666-.286-.3 0-.522.096-.665.287-.144.184-.222.457-.236.819-.007.102-.01.239-.01.41 0 .17.003.307.01.41.014.368.092.644.236.829.143.184.365.276.665.276ZM58.13 61a.25.25 0 0 1-.184-.072.25.25 0 0 1-.072-.184v-4.813a.25.25 0 0 1 .072-.184.25.25 0 0 1 .184-.072h1.178a.25.25 0 0 1 .184.072.25.25 0 0 1 .072.184v.39c.177-.212.41-.39.696-.533a2.242 2.242 0 0 1 1.014-.215c.396 0 .744.088 1.044.266.308.178.547.44.717.788.178.342.266.762.266 1.26v2.857a.234.234 0 0 1-.082.184.237.237 0 0 1-.174.072h-1.29a.273.273 0 0 1-.184-.072.25.25 0 0 1-.072-.184v-2.795c0-.321-.078-.567-.235-.738-.15-.177-.376-.266-.676-.266-.28 0-.505.089-.676.266-.164.17-.246.417-.246.738v2.795a.234.234 0 0 1-.082.184.237.237 0 0 1-.174.072h-1.28Z"/></g><defs><filter id="a" width="80" height="80" x="0" y="0" color-interpolation-filters="sRGB" filterUnits="userSpaceOnUse"><feFlood flood-opacity="0" result="BackgroundImageFix"/><feColorMatrix in="SourceAlpha" result="hardAlpha" values="0 0 0 0 0 0 0 0 0 0 0 0 0 0 0 0 0 0 127 0"/><feOffset dy="2"/><feGaussianBlur stdDeviation="4"/><feColorMatrix values="0 0 0 0 0 0 0 0 0 0 0 0 0 0 0 0 0 0 0.75 0"/><feBlend in2="BackgroundImageFix" result="effect1_dropShadow_602_1610"/><feBlend in="SourceGraphic" in2="effect1_dropShadow_602_1610" result="shape"/></filter></defs></svg>