<svg xmlns="http://www.w3.org/2000/svg" width="80" height="80" fill="rgba(0,0,255,0.2)"><g><rect width="64" height="64" x="8" y="6" fill="#0D1117" rx="5"/><g clip-path="url(#b)"><path fill="#E3695F" d="m40 11 16 16-16 16-16-16 16-16Z"/><path fill="#fff" d="M35.237 19.481v6.752l-7.176.94 9.411 1.232v-2.552l7.292 8.665v-6.752l7.176-.939-9.411-1.232v2.551l-7.292-8.665Z"/></g><path fill="#2AF" d="M19.778 60a.2.2 0 0 1-.147-.057.2.2 0 0 1-.058-.148v-5.323a.2.2 0 0 1 .058-.148.2.2 0 0 1 .147-.057h.868c.093 0 .159.022.197.066a.362.362 0 0 1 .082.09l1.998 3.153v-3.104a.2.2 0 0 1 .057-.148.2.2 0 0 1 .148-.057h.983a.2.2 0 0 1 .147.057.2.2 0 0 1 .057.148v5.323a.22.22 0 0 1-.057.148.2.2 0 0 1-.147.057h-.877c-.087 0-.153-.022-.196-.066a1.103 1.103 0 0 1-.074-.09l-1.998-3.03v2.981a.2.2 0 0 1-.058.148.2.2 0 0 1-.147.057h-.983Zm7.607.082c-.46 0-.847-.074-1.164-.221a1.662 1.662 0 0 1-.72-.63 2.17 2.17 0 0 1-.279-.992 7.4 7.4 0 0 1 0-.737c.022-.388.12-.718.295-.99.175-.274.418-.484.73-.632.316-.147.695-.22 1.137-.22.448 0 .828.073 1.139.22.317.148.562.358.737.631.175.273.273.603.295.991a7.202 7.202 0 0 1 0 .737 2.11 2.11 0 0 1-.287.991 1.602 1.602 0 0 1-.72.63c-.312.148-.7.222-1.163.222Zm0-1c.245 0 .423-.073.532-.22.114-.148.18-.369.196-.664.006-.082.009-.19.009-.327s-.003-.246-.009-.328c-.016-.29-.081-.508-.196-.655-.11-.153-.287-.23-.533-.23-.24 0-.417.077-.532.23-.114.147-.177.366-.188.655a5.135 5.135 0 0 0-.008.328c0 .136.002.245.008.327.01.295.073.516.188.664.115.147.292.22.532.22Zm3.188.918a.2.2 0 0 1-.147-.057.2.2 0 0 1-.057-.148v-3.85a.19.19 0 0 1 .057-.138.187.187 0 0 1 .147-.066h.942c.06 0 .11.022.148.066a.19.19 0 0 1 .057.139v.328c.147-.17.322-.3.524-.394.208-.092.44-.139.696-.139h.36a.19.19 0 0 1 .14.057.187.187 0 0 1 .065.148v.843a.203.203 0 0 1-.065.148.19.19 0 0 1-.14.057h-.794c-.224 0-.398.063-.524.189-.12.12-.18.292-.18.516v2.096c0 .06-.022.11-.066.148a.2.2 0 0 1-.147.057h-1.016Zm3.72 0a.2.2 0 0 1-.148-.057.2.2 0 0 1-.057-.148v-3.85a.2.2 0 0 1 .057-.147.2.2 0 0 1 .147-.057h.893a.2.2 0 0 1 .148.057.2.2 0 0 1 .057.148v.278a1.41 1.41 0 0 1 .459-.384c.196-.115.428-.175.696-.18.627-.012 1.059.226 1.294.712.125-.208.305-.377.54-.508.235-.136.492-.205.77-.205.284 0 .538.066.762.197.23.125.412.322.548.59.137.262.205.603.205 1.023v2.326a.19.19 0 0 1-.065.148.19.19 0 0 1-.14.057h-.95a.229.229 0 0 1-.155-.057.2.2 0 0 1-.057-.148v-2.268c0-.191-.028-.342-.082-.45a.516.516 0 0 0-.222-.246.672.672 0 0 0-.614 0 .559.559 0 0 0-.23.245c-.054.11-.081.26-.081.45v2.27a.2.2 0 0 1-.057.147.2.2 0 0 1-.148.057h-.95a.2.2 0 0 1-.147-.057.2.2 0 0 1-.058-.148v-2.268a.942.942 0 0 0-.09-.45.56.56 0 0 0-.229-.246.654.654 0 0 0-.606 0 .559.559 0 0 0-.23.245.998.998 0 0 0-.081.442v2.277c0 .06-.022.11-.066.148a.2.2 0 0 1-.147.057h-.967Zm8.566.082c-.294 0-.56-.055-.794-.164a1.464 1.464 0 0 1-.549-.459 1.086 1.086 0 0 1-.204-.647c0-.387.158-.693.475-.917.316-.23.737-.385 1.26-.467l1.025-.155v-.115c0-.197-.041-.347-.123-.45-.082-.104-.232-.156-.45-.156a.713.713 0 0 0-.378.09.643.643 0 0 0-.22.246.235.235 0 0 1-.205.106h-.918c-.06 0-.106-.016-.139-.049a.166.166 0 0 1-.04-.13.7.7 0 0 1 .106-.337 1.47 1.47 0 0 1 .344-.385c.153-.125.35-.229.59-.31.24-.083.529-.124.867-.124.355 0 .658.041.91.123.25.082.453.197.606.344.158.148.275.322.352.524.076.197.114.415.114.656v2.49c0 .06-.021.108-.065.147a.19.19 0 0 1-.14.057h-.95a.2.2 0 0 1-.147-.057.2.2 0 0 1-.057-.148v-.286a1.198 1.198 0 0 1-.287.286c-.12.088-.262.156-.426.205a1.71 1.71 0 0 1-.556.082Zm.385-.934c.159 0 .3-.033.426-.098a.717.717 0 0 0 .303-.32c.077-.147.115-.33.115-.548v-.115l-.696.123c-.257.044-.445.112-.565.205-.115.087-.172.19-.172.311 0 .093.027.172.082.237a.568.568 0 0 0 .212.156c.088.033.186.05.295.05Zm3.373.852a.2.2 0 0 1-.147-.057.2.2 0 0 1-.057-.148V54.39a.2.2 0 0 1 .057-.148.2.2 0 0 1 .147-.057h.967a.2.2 0 0 1 .147.057.2.2 0 0 1 .058.148v5.405a.2.2 0 0 1-.058.148.2.2 0 0 1-.147.057h-.967Zm2.624 0a.2.2 0 0 1-.148-.057.2.2 0 0 1-.057-.148v-3.85a.2.2 0 0 1 .057-.147.2.2 0 0 1 .148-.057h.966a.19.19 0 0 1 .14.057.187.187 0 0 1 .065.148v3.85c0 .06-.022.108-.066.147a.19.19 0 0 1-.139.057h-.966Zm-.008-4.873a.2.2 0 0 1-.148-.057.2.2 0 0 1-.057-.148v-.729a.2.2 0 0 1 .057-.147.187.187 0 0 1 .148-.066h.974c.06 0 .11.022.148.066a.187.187 0 0 1 .065.147v.73c0 .06-.022.108-.065.147a.2.2 0 0 1-.148.057h-.974ZM51.54 60a.218.218 0 0 1-.147-.057.2.2 0 0 1-.058-.148v-.639a.34.34 0 0 1 .033-.155.692.692 0 0 1 .098-.123l1.917-2.08h-1.77a.229.229 0 0 1-.155-.058.2.2 0 0 1-.057-.147v-.647a.2.2 0 0 1 .057-.148.229.229 0 0 1 .156-.057h3.292a.19.19 0 0 1 .14.057.187.187 0 0 1 .065.148v.696c0 .05-.01.093-.033.131a.736.736 0 0 1-.082.115l-1.867 2.056h1.941a.2.2 0 0 1 .148.057.2.2 0 0 1 .057.147v.647a.2.2 0 0 1-.057.148.2.2 0 0 1-.148.057h-3.53Zm6.412.082c-.644 0-1.158-.175-1.54-.524-.382-.35-.581-.868-.598-1.556v-.287c.017-.431.112-.8.287-1.106a1.76 1.76 0 0 1 .737-.704 2.374 2.374 0 0 1 1.106-.246c.48 0 .876.096 1.187.287.317.191.554.45.713.778.158.328.237.702.237 1.122v.197c0 .06-.022.109-.065.147a.19.19 0 0 1-.14.057h-2.62v.058c.005.158.032.303.082.434a.618.618 0 0 0 .606.426.641.641 0 0 0 .27-.05.863.863 0 0 0 .188-.122c.05-.05.088-.09.115-.123a.384.384 0 0 1 .115-.098.342.342 0 0 1 .147-.025h1.016a.17.17 0 0 1 .13.05c.039.026.055.067.05.122a.721.721 0 0 1-.14.336 1.725 1.725 0 0 1-.384.393c-.164.125-.372.23-.623.311a2.826 2.826 0 0 1-.876.123Zm-.696-2.645h1.384v-.017c0-.175-.027-.327-.082-.459a.602.602 0 0 0-.238-.303.65.65 0 0 0-.376-.106.65.65 0 0 0-.377.106.69.69 0 0 0-.23.303 1.186 1.186 0 0 0-.081.46v.016Z"/></g><defs><clipPath id="b"><path fill="#fff" d="M24 11h32v32H24z"/></clipPath><filter id="a" width="80" height="80" x="0" y="0" color-interpolation-filters="sRGB" filterUnits="userSpaceOnUse"><feFlood flood-opacity="0" result="BackgroundImageFix"/><feColorMatrix in="SourceAlpha" result="hardAlpha" values="0 0 0 0 0 0 0 0 0 0 0 0 0 0 0 0 0 0 127 0"/><feOffset dy="2"/><feGaussianBlur stdDeviation="4"/><feColorMatrix values="0 0 0 0 0 0 0 0 0 0 0 0 0 0 0 0 0 0 0.75 0"/><feBlend in2="BackgroundImageFix" result="effect1_dropShadow_602_270"/><feBlend in="SourceGraphic" in2="effect1_dropShadow_602_270" result="shape"/></filter></defs></svg>