<svg xmlns="http://www.w3.org/2000/svg" width="80" height="80" fill="none"><g filter="url(#a)"><rect width="64" height="64" x="8" y="6" fill="#212529" rx="5"/><path fill="#fff" fill-rule="evenodd" d="m29.716 40.218-3.44-4.285A5.753 5.753 0 0 1 25 32.33V16.815c0-1.954 1.564-3.576 3.58-3.714l15.952-1.089a5.2 5.2 0 0 1 3.263.873l5.604 3.789A3.59 3.59 0 0 1 55 19.644v17.64c0 1.912-1.537 3.495-3.512 3.617l-17.705 1.09c-1.576.097-3.099-.567-4.067-1.773Z" clip-rule="evenodd"/><path fill="#000" d="M35.248 24.579v-.203c0-.515.413-.942.944-.978l3.871-.258 5.354 7.884v-6.92l-1.378-.183v-.097c0-.52.422-.95.96-.978l3.523-.18v.506a.495.495 0 0 1-.42.483l-.848.143v11.206l-1.063.366c-.89.305-1.879-.022-2.387-.79l-5.198-7.843v7.486l1.6.306-.022.149c-.07.464-.472.816-.957.838l-3.979.177c-.052-.5.322-.947.839-1.002l.523-.055v-9.98l-1.362-.077Z"/><path fill="#000" fill-rule="evenodd" d="m44.675 13.967-15.951 1.089c-.956.065-1.697.833-1.697 1.759V32.33c0 .87.3 1.715.851 2.402l3.44 4.285a2.778 2.778 0 0 0 2.336 1.018l17.705-1.09c.907-.056 1.613-.783 1.613-1.662V19.644a1.65 1.65 0 0 0-.735-1.364l-5.605-3.79a3.12 3.12 0 0 0-1.957-.523Zm-15.16 3.09c-.222-.164-.117-.506.162-.526l15.105-1.084a2.08 2.08 0 0 1 1.349.374l3.03 2.147a.145.145 0 0 1-.08.265l-15.997.87a2.076 2.076 0 0 1-1.347-.4l-2.222-1.646Zm2.819 4.774c0-.52.42-.95.956-.979l16.913-.92c.523-.029.964.373.964.88v15.273c0 .519-.419.948-.954.978l-16.806.956c-.582.034-1.073-.414-1.073-.977V21.83Z" clip-rule="evenodd"/><path fill="#E5E5E5" d="M26.778 60a.2.2 0 0 1-.147-.057.2.2 0 0 1-.058-.148v-5.323a.2.2 0 0 1 .058-.148.2.2 0 0 1 .147-.057h.868c.093 0 .159.022.197.066a.362.362 0 0 1 .082.09l1.998 3.153v-3.104a.2.2 0 0 1 .057-.148.2.2 0 0 1 .148-.057h.983a.2.2 0 0 1 .147.057.2.2 0 0 1 .057.148v5.323a.22.22 0 0 1-.057.148.2.2 0 0 1-.147.057h-.877c-.087 0-.153-.022-.196-.066a1.103 1.103 0 0 1-.074-.09l-1.998-3.03v2.981a.2.2 0 0 1-.058.148.2.2 0 0 1-.147.057h-.983Zm7.607.082c-.46 0-.847-.074-1.163-.221a1.662 1.662 0 0 1-.721-.63 2.17 2.17 0 0 1-.279-.992 7.4 7.4 0 0 1 0-.737c.022-.388.12-.718.295-.99.175-.274.418-.484.73-.632.316-.147.695-.22 1.138-.22.447 0 .827.073 1.138.22.317.148.562.358.737.631.175.273.273.603.295.991a7.202 7.202 0 0 1 0 .737 2.11 2.11 0 0 1-.287.991 1.602 1.602 0 0 1-.72.63c-.312.148-.7.222-1.163.222Zm0-1c.245 0 .423-.073.532-.22.114-.148.18-.369.196-.664.006-.082.009-.19.009-.327s-.003-.246-.009-.328c-.016-.29-.081-.508-.196-.655-.11-.153-.287-.23-.532-.23-.24 0-.418.077-.533.23-.114.147-.177.366-.188.655a5.135 5.135 0 0 0-.008.328c0 .136.002.245.008.327.01.295.073.516.188.664.115.147.292.22.533.22ZM39.53 60a2.31 2.31 0 0 1-.909-.164 1.262 1.262 0 0 1-.581-.524c-.137-.24-.205-.549-.205-.925v-1.573h-.64a.229.229 0 0 1-.155-.057.2.2 0 0 1-.057-.148v-.663a.2.2 0 0 1 .057-.148.229.229 0 0 1 .156-.057h.639V54.39a.2.2 0 0 1 .057-.148.218.218 0 0 1 .148-.057h.95a.2.2 0 0 1 .147.057.2.2 0 0 1 .057.148v1.351h1.024a.2.2 0 0 1 .148.057.2.2 0 0 1 .057.148v.663a.2.2 0 0 1-.057.148.2.2 0 0 1-.148.057h-1.024v1.458a.8.8 0 0 0 .107.442c.07.11.19.164.36.164h.63a.2.2 0 0 1 .148.057.2.2 0 0 1 .058.148v.712a.2.2 0 0 1-.058.148.2.2 0 0 1-.147.057h-.762Zm1.85 0a.2.2 0 0 1-.148-.057.2.2 0 0 1-.057-.148v-3.85a.2.2 0 0 1 .057-.147.2.2 0 0 1 .147-.057h.967a.19.19 0 0 1 .139.057.187.187 0 0 1 .066.148v3.85c0 .06-.022.108-.066.147a.19.19 0 0 1-.14.057h-.966Zm-.009-4.873a.2.2 0 0 1-.147-.057.2.2 0 0 1-.058-.148v-.729a.2.2 0 0 1 .058-.147.187.187 0 0 1 .147-.066h.975c.06 0 .109.022.147.066a.187.187 0 0 1 .066.147v.73c0 .06-.022.108-.066.147a.2.2 0 0 1-.147.057h-.975Zm4.194 4.955c-.459 0-.847-.074-1.163-.221a1.661 1.661 0 0 1-.72-.63 2.171 2.171 0 0 1-.28-.992 7.523 7.523 0 0 1 0-.737c.023-.388.12-.718.296-.99a1.71 1.71 0 0 1 .728-.632c.317-.147.697-.22 1.139-.22.447 0 .827.073 1.138.22.317.148.563.358.737.631.175.273.273.603.295.991a7.4 7.4 0 0 1 0 .737 2.11 2.11 0 0 1-.286.991 1.603 1.603 0 0 1-.721.63c-.312.148-.7.222-1.163.222Zm0-1c.245 0 .423-.073.532-.22.115-.148.18-.369.197-.664.005-.082.008-.19.008-.327s-.003-.246-.008-.328c-.017-.29-.082-.508-.197-.655-.11-.153-.286-.23-.532-.23-.24 0-.418.077-.533.23-.114.147-.177.366-.188.655a5.135 5.135 0 0 0-.008.328c0 .136.003.245.008.327.011.295.074.516.188.664.115.147.292.22.533.22Zm3.189.918a.2.2 0 0 1-.148-.057.2.2 0 0 1-.057-.148v-3.85a.2.2 0 0 1 .057-.147.2.2 0 0 1 .148-.057h.941a.2.2 0 0 1 .148.057.2.2 0 0 1 .057.148v.311c.142-.17.328-.311.557-.426.23-.114.5-.172.81-.172.318 0 .596.071.836.213.246.142.437.352.574.63.142.274.213.61.213 1.008v2.285c0 .06-.022.11-.066.148a.19.19 0 0 1-.14.057h-1.031a.218.218 0 0 1-.148-.057.2.2 0 0 1-.057-.148V57.56c0-.256-.063-.453-.188-.59-.12-.141-.3-.212-.54-.212a.715.715 0 0 0-.541.213c-.131.136-.197.333-.197.59v2.235a.19.19 0 0 1-.065.148.19.19 0 0 1-.14.057h-1.023Z"/></g><defs><filter id="a" width="80" height="80" x="0" y="0" color-interpolation-filters="sRGB" filterUnits="userSpaceOnUse"><feFlood flood-opacity="0" result="BackgroundImageFix"/><feColorMatrix in="SourceAlpha" result="hardAlpha" values="0 0 0 0 0 0 0 0 0 0 0 0 0 0 0 0 0 0 127 0"/><feOffset dy="2"/><feGaussianBlur stdDeviation="4"/><feColorMatrix values="0 0 0 0 0 0 0 0 0 0 0 0 0 0 0 0 0 0 0.75 0"/><feBlend in2="BackgroundImageFix" result="effect1_dropShadow_602_915"/><feBlend in="SourceGraphic" in2="effect1_dropShadow_602_915" result="shape"/></filter></defs></svg>