<svg xmlns="http://www.w3.org/2000/svg" width="80" height="80" fill="rgba(0,0,255,0.2)"><g><rect width="64" height="64" x="8" y="6" fill="#0D1117" rx="5"/><g clip-path="url(#b)"><path fill="#D40001" d="M56 11H24v32h32V11Z"/><path fill="#fff" fill-rule="evenodd" d="M46.29 21.571h-6.017V38h-10.94V15h21.334v22.999H46.29V21.571Z" clip-rule="evenodd"/></g><path fill="#E5E5E5" d="M28.973 61a.25.25 0 0 1-.184-.072.25.25 0 0 1-.072-.184v-6.656a.25.25 0 0 1 .072-.184.25.25 0 0 1 .184-.072h1.085c.116 0 .198.027.246.082a.452.452 0 0 1 .102.113l2.499 3.942v-3.881a.25.25 0 0 1 .072-.184.25.25 0 0 1 .184-.072h1.229a.25.25 0 0 1 .184.072.25.25 0 0 1 .072.184v6.656a.27.27 0 0 1-.072.184.25.25 0 0 1-.184.072h-1.096c-.11 0-.191-.027-.246-.082a1.353 1.353 0 0 1-.092-.113l-2.498-3.788v3.727a.25.25 0 0 1-.072.184.25.25 0 0 1-.184.072h-1.23Zm7.247 1.946a.25.25 0 0 1-.184-.072.25.25 0 0 1-.072-.184v-6.76a.25.25 0 0 1 .072-.184.25.25 0 0 1 .184-.072h1.157c.069 0 .127.024.174.072.055.048.082.11.082.184v.38c.157-.212.365-.387.625-.523.26-.143.58-.215.962-.215.342 0 .642.054.902.164.259.102.48.256.665.46.184.205.328.454.43.748.11.294.17.631.185 1.014a7.656 7.656 0 0 1 0 .758 3.38 3.38 0 0 1-.175.993 2.17 2.17 0 0 1-.43.747c-.184.205-.41.365-.675.482-.26.109-.56.163-.901.163a2.09 2.09 0 0 1-.881-.174 1.718 1.718 0 0 1-.615-.512v2.274a.25.25 0 0 1-.071.184.25.25 0 0 1-.185.072H36.22Zm2.447-3.216c.233 0 .413-.047.543-.143a.773.773 0 0 0 .277-.39c.061-.163.099-.344.112-.542a4.943 4.943 0 0 0 0-.635 1.915 1.915 0 0 0-.112-.543.773.773 0 0 0-.277-.389c-.13-.095-.31-.143-.543-.143-.225 0-.406.051-.542.154a.815.815 0 0 0-.297.378 1.556 1.556 0 0 0-.103.512 7.24 7.24 0 0 0 0 .768c.007.171.045.332.113.482a.91.91 0 0 0 .307.358.94.94 0 0 0 .522.133ZM42.68 61a.25.25 0 0 1-.184-.072.25.25 0 0 1-.072-.184v-4.813a.25.25 0 0 1 .072-.184.25.25 0 0 1 .184-.072h1.116a.25.25 0 0 1 .185.072.25.25 0 0 1 .071.184v.348c.137-.184.328-.344.574-.48a1.77 1.77 0 0 1 .87-.226c.785-.014 1.325.283 1.618.89.157-.259.382-.47.676-.634.294-.17.614-.256.962-.256.355 0 .673.082.953.246.287.157.515.402.686.737.17.328.256.754.256 1.28v2.908a.234.234 0 0 1-.082.184.237.237 0 0 1-.174.072h-1.188a.285.285 0 0 1-.195-.072.25.25 0 0 1-.071-.184v-2.837c0-.238-.034-.426-.103-.563a.646.646 0 0 0-.276-.307.841.841 0 0 0-.768 0 .7.7 0 0 0-.287.307c-.068.137-.102.325-.102.563v2.837a.25.25 0 0 1-.072.184.25.25 0 0 1-.184.072h-1.188a.25.25 0 0 1-.184-.072.25.25 0 0 1-.072-.184v-2.837c0-.238-.038-.426-.113-.563a.7.7 0 0 0-.286-.307.82.82 0 0 0-.758 0 .7.7 0 0 0-.287.307c-.068.137-.102.321-.102.553v2.847a.234.234 0 0 1-.082.184.25.25 0 0 1-.184.072H42.68Z"/></g><defs><clipPath id="b"><path fill="#fff" d="M24 11h32v32H24z"/></clipPath><filter id="a" width="80" height="80" x="0" y="0" color-interpolation-filters="sRGB" filterUnits="userSpaceOnUse"><feFlood flood-opacity="0" result="BackgroundImageFix"/><feColorMatrix in="SourceAlpha" result="hardAlpha" values="0 0 0 0 0 0 0 0 0 0 0 0 0 0 0 0 0 0 127 0"/><feOffset dy="2"/><feGaussianBlur stdDeviation="4"/><feColorMatrix values="0 0 0 0 0 0 0 0 0 0 0 0 0 0 0 0 0 0 0.75 0"/><feBlend in2="BackgroundImageFix" result="effect1_dropShadow_602_323"/><feBlend in="SourceGraphic" in2="effect1_dropShadow_602_323" result="shape"/></filter></defs></svg>