<svg xmlns="http://www.w3.org/2000/svg" width="80" height="80" fill="rgba(0,0,255,0.2)"><g><rect width="64" height="64" x="8" y="6" fill="#0D1117" rx="5"/><g clip-path="url(#b)"><path fill="#D6FF00" d="M39.8 11C32.728 11 27 16.728 27 23.8h6.4c0-3.533 2.867-6.4 6.4-6.4V11Z"/><path fill="#34E27A" d="M52.6 23.8c0-7.072-5.728-12.8-12.8-12.8v6.4c3.533 0 6.4 2.867 6.4 6.4h6.4Z"/><path fill="#00B9F1" d="M39.8 36.6c7.072 0 12.8-5.728 12.8-12.8h-6.4c0 3.533-2.867 6.4-6.4 6.4v6.4Z"/><path fill="#fff" d="M33.4 36.6V23.8H27V43h12.8v-6.4h-6.4Z"/></g><path fill="#2AF" d="M17.473 61a.25.25 0 0 1-.184-.072.25.25 0 0 1-.072-.184v-6.656a.25.25 0 0 1 .072-.184.25.25 0 0 1 .184-.072h2.867c.567 0 1.058.089 1.475.266.423.17.75.43.983.779.239.348.358.788.358 1.32 0 .526-.12.96-.358 1.3-.232.342-.56.595-.983.759-.417.163-.908.245-1.475.245h-1.219v2.243a.234.234 0 0 1-.081.184.25.25 0 0 1-.185.072h-1.382Zm1.618-3.912h1.198c.293 0 .525-.075.696-.225.178-.15.266-.379.266-.686a.98.98 0 0 0-.225-.655c-.15-.178-.396-.267-.737-.267H19.09v1.833Zm6.41 4.014c-.368 0-.7-.068-.993-.204a1.832 1.832 0 0 1-.686-.574 1.359 1.359 0 0 1-.256-.809c0-.484.198-.867.594-1.147.396-.286.922-.481 1.577-.583l1.28-.195v-.143c0-.246-.051-.434-.154-.564-.102-.13-.29-.194-.563-.194a.891.891 0 0 0-.47.113.804.804 0 0 0-.277.307.294.294 0 0 1-.256.133H24.15a.236.236 0 0 1-.174-.061.207.207 0 0 1-.051-.164c0-.123.044-.263.133-.42.095-.164.239-.325.43-.482.191-.157.437-.286.737-.389.3-.102.662-.153 1.086-.153.443 0 .822.051 1.136.153.314.103.567.246.758.43.198.185.345.403.44.656.096.246.144.519.144.819v3.113a.234.234 0 0 1-.082.184.237.237 0 0 1-.174.072h-1.188a.25.25 0 0 1-.184-.072.25.25 0 0 1-.072-.184v-.358a1.47 1.47 0 0 1-.359.358 1.72 1.72 0 0 1-.532.256c-.198.068-.43.102-.696.102Zm.482-1.167c.198 0 .375-.04.532-.123a.896.896 0 0 0 .38-.4 1.48 1.48 0 0 0 .143-.685v-.144l-.87.154c-.322.055-.557.14-.707.256-.144.11-.215.239-.215.39a.45.45 0 0 0 .102.296.71.71 0 0 0 .266.195c.11.04.232.061.369.061Zm6.152 1.167c-.443 0-.822-.047-1.136-.143a2.799 2.799 0 0 1-.758-.369 1.732 1.732 0 0 1-.43-.44c-.096-.157-.147-.29-.154-.4a.207.207 0 0 1 .072-.184.245.245 0 0 1 .174-.082h1.168a.12.12 0 0 1 .05.01.522.522 0 0 1 .062.042c.089.047.178.109.266.184.09.068.192.13.308.184a.98.98 0 0 0 .42.082.947.947 0 0 0 .48-.112.366.366 0 0 0 .195-.338c0-.11-.03-.198-.092-.267-.061-.075-.188-.146-.379-.215a5.363 5.363 0 0 0-.84-.204 4.374 4.374 0 0 1-.931-.318 1.607 1.607 0 0 1-.615-.522 1.405 1.405 0 0 1-.215-.789c0-.273.09-.535.267-.788.177-.253.436-.457.778-.614.341-.164.761-.246 1.26-.246.395 0 .737.048 1.023.143.294.089.54.205.738.348.204.144.358.29.46.44.103.15.157.287.164.41a.235.235 0 0 1-.061.185.226.226 0 0 1-.164.071H33.18a.338.338 0 0 1-.082-.01.672.672 0 0 1-.072-.041 1.281 1.281 0 0 1-.245-.164 1.476 1.476 0 0 0-.287-.184.912.912 0 0 0-.41-.082c-.184 0-.327.04-.43.123a.408.408 0 0 0-.072.563c.062.075.181.143.359.205.184.061.468.13.85.205.47.075.846.198 1.126.368.28.164.478.359.594.584.116.218.174.45.174.696 0 .328-.099.618-.297.87-.19.253-.477.451-.86.595-.382.136-.846.204-1.392.204Zm5.66 0c-.443 0-.822-.047-1.136-.143a2.799 2.799 0 0 1-.758-.369 1.732 1.732 0 0 1-.43-.44c-.095-.157-.147-.29-.154-.4a.207.207 0 0 1 .072-.184.245.245 0 0 1 .174-.082h1.168a.12.12 0 0 1 .05.01.522.522 0 0 1 .062.042c.089.047.178.109.266.184.09.068.192.13.308.184a.98.98 0 0 0 .42.082.947.947 0 0 0 .48-.112.366.366 0 0 0 .195-.338c0-.11-.03-.198-.092-.267-.061-.075-.188-.146-.379-.215a5.363 5.363 0 0 0-.84-.204 4.374 4.374 0 0 1-.931-.318 1.607 1.607 0 0 1-.615-.522 1.405 1.405 0 0 1-.215-.789c0-.273.09-.535.267-.788.177-.253.437-.457.778-.614.341-.164.761-.246 1.26-.246.395 0 .737.048 1.023.143.294.089.54.205.738.348.204.144.358.29.46.44.103.15.157.287.164.41a.235.235 0 0 1-.061.185.226.226 0 0 1-.164.071H38.84a.338.338 0 0 1-.082-.01.672.672 0 0 1-.072-.041 1.281 1.281 0 0 1-.245-.164 1.476 1.476 0 0 0-.287-.184.912.912 0 0 0-.41-.082c-.184 0-.327.04-.43.123a.408.408 0 0 0-.072.563c.062.075.181.143.359.205.184.061.468.13.85.205.47.075.846.198 1.126.368.28.164.478.359.594.584.116.218.174.45.174.696 0 .328-.099.618-.297.87-.19.253-.477.451-.86.595-.382.136-.846.204-1.393.204Zm3.725 1.844a.25.25 0 0 1-.184-.072.25.25 0 0 1-.072-.184v-6.76a.25.25 0 0 1 .072-.184.25.25 0 0 1 .184-.072h1.157c.069 0 .127.024.174.072.055.048.082.11.082.184v.38c.157-.212.365-.387.625-.523.26-.143.58-.215.962-.215.342 0 .642.054.902.164.259.102.48.256.665.46.184.205.328.454.43.748.11.294.17.631.185 1.014a7.656 7.656 0 0 1 0 .758c-.014.368-.072.7-.174.993a2.17 2.17 0 0 1-.43.747c-.185.205-.41.365-.676.482-.26.109-.56.163-.901.163a2.09 2.09 0 0 1-.881-.174 1.718 1.718 0 0 1-.615-.512v2.274a.25.25 0 0 1-.071.184.25.25 0 0 1-.185.072H41.52Zm2.447-3.216c.233 0 .413-.047.543-.143a.773.773 0 0 0 .277-.39c.061-.163.099-.344.112-.542a4.943 4.943 0 0 0 0-.635 1.915 1.915 0 0 0-.112-.543.773.773 0 0 0-.277-.389c-.13-.095-.31-.143-.542-.143-.226 0-.407.051-.543.154a.815.815 0 0 0-.297.378 1.556 1.556 0 0 0-.103.512 7.24 7.24 0 0 0 0 .768c.007.171.045.332.113.482a.91.91 0 0 0 .307.358.94.94 0 0 0 .523.133Zm6.276 1.372c-.573 0-1.058-.092-1.454-.276a2.076 2.076 0 0 1-.901-.789c-.205-.348-.32-.76-.348-1.239a9.346 9.346 0 0 1 0-.921c.027-.485.15-.898.368-1.24.219-.34.523-.603.912-.788.396-.184.87-.276 1.423-.276.56 0 1.034.092 1.424.276.395.185.703.447.921.789.219.341.341.754.369 1.239a9.346 9.346 0 0 1 0 .922c-.028.477-.147.89-.359 1.238a2.003 2.003 0 0 1-.9.789c-.39.184-.874.276-1.455.276Zm0-1.249c.307 0 .53-.092.666-.276.143-.185.225-.461.246-.83.006-.102.01-.239.01-.41 0-.17-.004-.307-.01-.409-.02-.362-.103-.635-.246-.82-.137-.19-.359-.286-.666-.286-.3 0-.522.096-.665.287-.144.184-.222.457-.236.819-.007.102-.01.239-.01.41 0 .17.003.307.01.41.014.368.092.644.236.829.143.184.365.276.665.276ZM54.23 61a.25.25 0 0 1-.184-.072.25.25 0 0 1-.072-.184v-4.813c0-.068.024-.126.072-.174a.234.234 0 0 1 .184-.082h1.178c.075 0 .136.028.184.082a.237.237 0 0 1 .072.174v.41c.184-.212.402-.376.655-.492.26-.116.55-.174.87-.174h.451c.068 0 .126.024.174.072.055.048.082.11.082.184v1.055c0 .068-.027.13-.082.184a.237.237 0 0 1-.174.072h-.993c-.28 0-.498.078-.656.235-.15.15-.225.366-.225.646v2.621a.234.234 0 0 1-.082.184.25.25 0 0 1-.184.072h-1.27Zm7.118 0c-.437 0-.816-.068-1.137-.205a1.578 1.578 0 0 1-.727-.655c-.17-.3-.256-.686-.256-1.157v-1.966h-.798a.286.286 0 0 1-.195-.072.25.25 0 0 1-.072-.184v-.83a.25.25 0 0 1 .072-.184.286.286 0 0 1 .195-.072h.798v-1.69a.25.25 0 0 1 .072-.184.273.273 0 0 1 .184-.071h1.188a.25.25 0 0 1 .184.071.25.25 0 0 1 .072.185v1.69h1.28a.25.25 0 0 1 .184.07.25.25 0 0 1 .072.185v.83a.25.25 0 0 1-.072.184.25.25 0 0 1-.184.072h-1.28v1.822c0 .233.044.417.133.553.089.137.24.205.45.205h.79a.25.25 0 0 1 .184.072.25.25 0 0 1 .071.184v.891a.25.25 0 0 1-.071.184.25.25 0 0 1-.185.072h-.952Z"/></g><defs><clipPath id="b"><path fill="#fff" d="M27 11h25.6v32H27z"/></clipPath><filter id="a" width="80" height="80" x="0" y="0" color-interpolation-filters="sRGB" filterUnits="userSpaceOnUse"><feFlood flood-opacity="0" result="BackgroundImageFix"/><feColorMatrix in="SourceAlpha" result="hardAlpha" values="0 0 0 0 0 0 0 0 0 0 0 0 0 0 0 0 0 0 127 0"/><feOffset dy="2"/><feGaussianBlur stdDeviation="4"/><feColorMatrix values="0 0 0 0 0 0 0 0 0 0 0 0 0 0 0 0 0 0 0.75 0"/><feBlend in2="BackgroundImageFix" result="effect1_dropShadow_603_1091"/><feBlend in="SourceGraphic" in2="effect1_dropShadow_603_1091" result="shape"/></filter></defs></svg>