<svg xmlns="http://www.w3.org/2000/svg" width="80" height="80" fill="rgba(0,0,255,0.2)"><g><rect width="64" height="64" x="8" y="6" fill="#0D1117" rx="5"/><path fill="#001E36" d="M26 23.133c0-3.547 0-5.32.69-6.675a6.333 6.333 0 0 1 2.768-2.768c1.355-.69 3.128-.69 6.675-.69h7.734c3.547 0 5.32 0 6.675.69a6.333 6.333 0 0 1 2.768 2.768c.69 1.355.69 3.128.69 6.675v7.734c0 3.547 0 5.32-.69 6.675a6.333 6.333 0 0 1-2.768 2.768c-1.355.69-3.128.69-6.675.69h-7.734c-3.547 0-5.32 0-6.675-.69a6.333 6.333 0 0 1-2.768-2.768C26 36.187 26 34.414 26 30.867v-7.734Z"/><path fill="#31A8FF" d="M32 33.516V21.203c0-.083.035-.131.117-.131 1.205 0 2.41-.072 3.616-.072 1.957 0 4.076.67 4.819 2.716.175.503.268 1.017.268 1.556 0 1.029-.233 1.878-.7 2.549-1.304 1.871-3.563 1.842-5.588 1.842v3.841c.016.114-.081.168-.175.168H32.14c-.093 0-.14-.048-.14-.156Zm2.543-10.135v4.02c.803.06 1.644.066 2.415-.19.852-.246 1.319-.984 1.319-1.867.023-.753-.387-1.476-1.085-1.747-.763-.317-1.826-.336-2.649-.216Zm13.554 3.227a4.316 4.316 0 0 0-1.118-.405c-.5-.118-2.47-.53-2.47.5.018.576.93.858 1.334 1.022 1.416.486 3.018 1.355 2.986 3.101.044 2.175-2.063 3.044-3.87 3.044-.94.01-1.919-.136-2.779-.54a.255.255 0 0 1-.132-.23v-2.08c-.009-.084.08-.157.15-.097.844.51 1.843.757 2.818.77.43 0 1.284-.041 1.278-.674 0-.607-1.021-.886-1.428-1.04a6.84 6.84 0 0 1-1.662-.867 2.704 2.704 0 0 1-1.156-2.235c-.004-2.047 1.936-2.966 3.682-2.967.817-.006 1.693.054 2.453.386.11.032.132.147.132.25v1.946c.007.12-.127.162-.218.116Z"/><path fill="#2AF" d="M18.278 60a.2.2 0 0 1-.147-.057.2.2 0 0 1-.058-.148v-5.323a.2.2 0 0 1 .058-.148.2.2 0 0 1 .147-.057h2.293c.453 0 .847.071 1.18.213.338.136.6.344.786.622.19.279.287.631.287 1.057 0 .42-.096.767-.287 1.04a1.634 1.634 0 0 1-.786.606c-.333.131-.727.197-1.18.197h-.974v1.793c0 .06-.022.11-.066.148a.2.2 0 0 1-.147.057h-1.106Zm1.294-3.129h.958c.235 0 .42-.06.557-.18.142-.12.213-.303.213-.549a.784.784 0 0 0-.18-.524c-.12-.142-.317-.213-.59-.213h-.958v1.466ZM23.722 60a.2.2 0 0 1-.147-.057.2.2 0 0 1-.057-.148V54.39a.2.2 0 0 1 .057-.148.2.2 0 0 1 .148-.057h1.048a.2.2 0 0 1 .147.057.2.2 0 0 1 .058.148v1.826c.147-.169.327-.303.54-.401.219-.104.47-.156.754-.156.316 0 .598.071.843.213.251.142.448.352.59.63.142.274.213.61.213 1.008v2.285a.2.2 0 0 1-.057.148.2.2 0 0 1-.148.057h-1.056a.218.218 0 0 1-.148-.057.2.2 0 0 1-.057-.148V57.56c0-.256-.063-.453-.188-.59-.12-.141-.3-.212-.541-.212a.715.715 0 0 0-.54.213c-.137.136-.205.333-.205.59v2.235a.2.2 0 0 1-.058.148.2.2 0 0 1-.147.057h-1.048Zm7.137.082c-.458 0-.846-.074-1.163-.221a1.662 1.662 0 0 1-.72-.63 2.171 2.171 0 0 1-.279-.992 7.523 7.523 0 0 1 0-.737c.022-.388.12-.718.295-.99.175-.274.418-.484.729-.632.317-.147.696-.22 1.138-.22.448 0 .827.073 1.139.22.316.148.562.358.737.631.175.273.273.603.295.991a7.4 7.4 0 0 1 0 .737 2.108 2.108 0 0 1-.287.991 1.602 1.602 0 0 1-.72.63c-.312.148-.7.222-1.164.222Zm0-1c.246 0 .423-.073.533-.22.114-.148.18-.369.196-.664.006-.082.008-.19.008-.327s-.002-.246-.008-.328c-.016-.29-.082-.508-.196-.655-.11-.153-.287-.23-.533-.23-.24 0-.417.077-.532.23-.115.147-.178.366-.188.655a5.135 5.135 0 0 0-.009.328c0 .136.003.245.009.327.01.295.073.516.188.664.115.147.292.22.532.22Zm5.147.918a2.31 2.31 0 0 1-.91-.164 1.262 1.262 0 0 1-.58-.524c-.137-.24-.206-.549-.206-.925v-1.573h-.638a.229.229 0 0 1-.156-.057.2.2 0 0 1-.057-.148v-.663a.2.2 0 0 1 .057-.148.229.229 0 0 1 .156-.057h.639V54.39a.2.2 0 0 1 .057-.148.218.218 0 0 1 .147-.057h.95a.2.2 0 0 1 .148.057.2.2 0 0 1 .057.148v1.351h1.024a.2.2 0 0 1 .147.057.2.2 0 0 1 .058.148v.663a.2.2 0 0 1-.058.148.2.2 0 0 1-.147.057H35.67v1.458a.8.8 0 0 0 .107.442c.07.11.19.164.36.164h.63a.2.2 0 0 1 .148.057.2.2 0 0 1 .057.148v.712a.2.2 0 0 1-.057.148.2.2 0 0 1-.148.057h-.761Zm3.66.082c-.46 0-.847-.074-1.164-.221a1.662 1.662 0 0 1-.72-.63 2.17 2.17 0 0 1-.279-.992 7.4 7.4 0 0 1 0-.737c.022-.388.12-.718.295-.99.174-.274.417-.484.729-.632.316-.147.696-.22 1.138-.22.448 0 .827.073 1.139.22.316.148.562.358.737.631.174.273.273.603.295.991a7.4 7.4 0 0 1 0 .737 2.108 2.108 0 0 1-.287.991 1.602 1.602 0 0 1-.72.63c-.312.148-.7.222-1.164.222Zm0-1c.245 0 .422-.073.532-.22.114-.148.18-.369.196-.664.006-.082.008-.19.008-.327s-.002-.246-.008-.328c-.016-.29-.082-.508-.197-.655-.109-.153-.286-.23-.532-.23-.24 0-.417.077-.532.23-.115.147-.178.366-.189.655a5.21 5.21 0 0 0-.008.328c0 .136.003.245.008.327.011.295.074.516.189.664.114.147.292.22.532.22Zm4.736 1a3.14 3.14 0 0 1-.91-.115 2.237 2.237 0 0 1-.605-.295 1.386 1.386 0 0 1-.344-.352.74.74 0 0 1-.123-.32.165.165 0 0 1 .057-.147.196.196 0 0 1 .14-.065h.933a.09.09 0 0 1 .041.008.359.359 0 0 1 .05.033c.07.038.141.087.212.147.071.055.153.104.246.148a.785.785 0 0 0 .336.065c.152 0 .28-.03.384-.09a.293.293 0 0 0 .156-.27.306.306 0 0 0-.074-.213c-.049-.06-.15-.117-.303-.172a4.29 4.29 0 0 0-.671-.164 3.503 3.503 0 0 1-.745-.254 1.286 1.286 0 0 1-.492-.418 1.124 1.124 0 0 1-.172-.63c0-.218.071-.429.213-.63.142-.203.35-.367.622-.492.273-.131.61-.197 1.008-.197.317 0 .59.038.819.115.235.07.431.164.59.278.163.115.286.233.368.353.082.12.126.229.131.327a.188.188 0 0 1-.049.148.18.18 0 0 1-.131.057h-.852a.267.267 0 0 1-.065-.008.541.541 0 0 1-.058-.033 1.027 1.027 0 0 1-.196-.131 1.177 1.177 0 0 0-.23-.148.73.73 0 0 0-.327-.065.538.538 0 0 0-.344.098.327.327 0 0 0-.057.45c.049.06.144.115.286.164.148.05.374.104.68.164.377.06.677.159.9.295.225.131.383.287.476.467.093.175.14.36.14.557a1.1 1.1 0 0 1-.238.696c-.153.202-.383.36-.688.475-.306.11-.677.164-1.114.164ZM47.38 60a.2.2 0 0 1-.148-.057.2.2 0 0 1-.057-.148V54.39a.2.2 0 0 1 .057-.148.2.2 0 0 1 .148-.057h1.048a.2.2 0 0 1 .148.057.2.2 0 0 1 .057.148v1.826c.147-.169.328-.303.54-.401.219-.104.47-.156.754-.156.317 0 .598.071.844.213.25.142.447.352.59.63.141.274.212.61.212 1.008v2.285a.2.2 0 0 1-.057.148.2.2 0 0 1-.148.057h-1.056a.218.218 0 0 1-.148-.057.2.2 0 0 1-.057-.148V57.56c0-.256-.063-.453-.188-.59-.12-.141-.3-.212-.54-.212a.715.715 0 0 0-.541.213c-.137.136-.205.333-.205.59v2.235a.2.2 0 0 1-.057.148.2.2 0 0 1-.148.057H47.38Zm7.136.082c-.458 0-.846-.074-1.163-.221a1.662 1.662 0 0 1-.72-.63 2.17 2.17 0 0 1-.279-.992 7.4 7.4 0 0 1 0-.737c.022-.388.12-.718.295-.99.175-.274.418-.484.73-.632.316-.147.695-.22 1.137-.22.448 0 .828.073 1.139.22.317.148.562.358.737.631.175.273.273.603.295.991a7.202 7.202 0 0 1 0 .737 2.11 2.11 0 0 1-.287.991 1.602 1.602 0 0 1-.72.63c-.312.148-.7.222-1.163.222Zm0-1c.246 0 .424-.073.533-.22.114-.148.18-.369.196-.664.006-.082.009-.19.009-.327s-.003-.246-.009-.328c-.016-.29-.082-.508-.196-.655-.11-.153-.287-.23-.532-.23-.24 0-.418.077-.533.23-.114.147-.177.366-.188.655a5.135 5.135 0 0 0-.008.328c0 .136.002.245.008.327.01.295.074.516.188.664.115.147.292.22.532.22Zm3.19 2.474a.2.2 0 0 1-.148-.057.2.2 0 0 1-.057-.148v-5.405a.2.2 0 0 1 .057-.148.2.2 0 0 1 .147-.057h.926a.19.19 0 0 1 .139.057.187.187 0 0 1 .066.148v.303a1.45 1.45 0 0 1 .5-.418c.207-.114.463-.172.769-.172.273 0 .513.044.72.131.208.082.386.205.533.369.148.164.262.363.344.598.087.235.136.505.147.81a6.05 6.05 0 0 1 0 .607 2.71 2.71 0 0 1-.139.794 1.735 1.735 0 0 1-.344.598 1.55 1.55 0 0 1-.54.385 1.846 1.846 0 0 1-.721.13c-.268 0-.502-.046-.704-.138a1.375 1.375 0 0 1-.492-.41v1.818a.2.2 0 0 1-.057.148.2.2 0 0 1-.148.057h-.999Zm1.957-2.572c.185 0 .33-.038.434-.114a.618.618 0 0 0 .22-.311c.05-.131.08-.276.091-.434.01-.17.01-.339 0-.508a1.53 1.53 0 0 0-.09-.434.618.618 0 0 0-.221-.312c-.104-.076-.249-.114-.434-.114-.18 0-.325.04-.434.123a.652.652 0 0 0-.238.303 1.256 1.256 0 0 0-.082.41 5.838 5.838 0 0 0 0 .613c.006.137.036.265.09.385.055.115.137.21.246.287.11.07.248.106.418.106Z"/></g><defs><filter id="a" width="80" height="80" x="0" y="0" color-interpolation-filters="sRGB" filterUnits="userSpaceOnUse"><feFlood flood-opacity="0" result="BackgroundImageFix"/><feColorMatrix in="SourceAlpha" result="hardAlpha" values="0 0 0 0 0 0 0 0 0 0 0 0 0 0 0 0 0 0 127 0"/><feOffset dy="2"/><feGaussianBlur stdDeviation="4"/><feColorMatrix values="0 0 0 0 0 0 0 0 0 0 0 0 0 0 0 0 0 0 0.75 0"/><feBlend in2="BackgroundImageFix" result="effect1_dropShadow_601_5218"/><feBlend in="SourceGraphic" in2="effect1_dropShadow_601_5218" result="shape"/></filter></defs></svg>