<svg xmlns="http://www.w3.org/2000/svg" width="80" height="80" fill="none"><g><rect width="64" height="64" x="8" y="6" fill="none" rx="5"/><path fill="#F9AD00" d="M54 21.75h-8.749V13H54v8.75Zm-9.626 0h-8.75V13h8.75v8.75Zm-9.625 0H26V13h8.749v8.75ZM54 31.375h-8.749v-8.75H54v8.75Z"/><path fill="#4E4E4E" d="M44.374 31.375h-8.75v-8.75h8.75v8.75Zm0 9.625h-8.75v-8.75h8.75V41ZM54 41h-8.749v-8.75H54V41Zm-19.251 0H26v-8.75h8.749V41Z"/><path fill="#2AF" d="M25.973 61a.25.25 0 0 1-.184-.072.25.25 0 0 1-.072-.184v-6.656a.25.25 0 0 1 .072-.184.25.25 0 0 1 .184-.072h2.867c.567 0 1.058.089 1.475.266.423.17.75.43.983.779.239.348.358.788.358 1.32 0 .526-.12.96-.358 1.3-.232.342-.56.595-.983.759-.417.163-.908.245-1.475.245h-1.219v2.243a.234.234 0 0 1-.081.184.25.25 0 0 1-.185.072h-1.382Zm1.618-3.912h1.198c.293 0 .525-.075.696-.225.178-.15.266-.379.266-.686a.98.98 0 0 0-.225-.655c-.15-.178-.396-.267-.737-.267H27.59v1.833ZM32.78 61a.25.25 0 0 1-.185-.072.25.25 0 0 1-.072-.184v-4.813a.25.25 0 0 1 .072-.184.25.25 0 0 1 .184-.072h1.178a.25.25 0 0 1 .184.072.25.25 0 0 1 .072.184v.39c.177-.212.41-.39.696-.533a2.242 2.242 0 0 1 1.014-.215c.396 0 .744.088 1.044.266a1.8 1.8 0 0 1 .717.788c.178.342.266.762.266 1.26v2.857a.234.234 0 0 1-.082.184.237.237 0 0 1-.174.072h-1.29a.273.273 0 0 1-.184-.072.25.25 0 0 1-.072-.184v-2.795c0-.321-.078-.567-.235-.738-.15-.177-.376-.266-.676-.266-.28 0-.505.089-.676.266-.164.17-.246.417-.246.738v2.795a.234.234 0 0 1-.082.184.237.237 0 0 1-.174.072h-1.28Zm6.57 1.946a.25.25 0 0 1-.185-.072.25.25 0 0 1-.072-.184v-6.76a.25.25 0 0 1 .072-.184.25.25 0 0 1 .184-.072h1.157c.069 0 .127.024.174.072.055.048.082.11.082.184v.38c.157-.212.366-.387.625-.523.26-.143.58-.215.962-.215.342 0 .642.054.902.164.259.102.48.256.665.46.184.205.328.454.43.748.11.294.17.631.185 1.014a7.656 7.656 0 0 1 0 .758c-.014.368-.072.7-.174.993a2.17 2.17 0 0 1-.43.747c-.185.205-.41.365-.676.482-.26.109-.56.163-.902.163a2.09 2.09 0 0 1-.88-.174 1.718 1.718 0 0 1-.615-.512v2.274a.25.25 0 0 1-.071.184.25.25 0 0 1-.185.072H39.35Zm2.447-3.216c.232 0 .413-.047.542-.143a.773.773 0 0 0 .277-.39c.061-.163.099-.344.112-.542a4.943 4.943 0 0 0 0-.635 1.915 1.915 0 0 0-.112-.543.773.773 0 0 0-.277-.389c-.13-.095-.31-.143-.543-.143-.225 0-.406.051-.542.154a.815.815 0 0 0-.297.378 1.556 1.556 0 0 0-.103.512 7.24 7.24 0 0 0 0 .768c.007.171.045.332.113.482a.91.91 0 0 0 .307.358.94.94 0 0 0 .523.133ZM45.81 61a.25.25 0 0 1-.184-.072.25.25 0 0 1-.072-.184v-4.813a.25.25 0 0 1 .072-.184.25.25 0 0 1 .184-.072h1.116a.25.25 0 0 1 .185.072.25.25 0 0 1 .071.184v.348c.137-.184.328-.344.574-.48a1.77 1.77 0 0 1 .87-.226c.785-.014 1.325.283 1.618.89.157-.259.382-.47.676-.634.294-.17.614-.256.962-.256.355 0 .673.082.953.246.286.157.515.402.686.737.17.328.256.754.256 1.28v2.908a.234.234 0 0 1-.082.184.237.237 0 0 1-.174.072h-1.188a.285.285 0 0 1-.194-.072.25.25 0 0 1-.072-.184v-2.837c0-.238-.034-.426-.103-.563a.646.646 0 0 0-.276-.307.841.841 0 0 0-.768 0 .7.7 0 0 0-.287.307c-.068.137-.102.325-.102.563v2.837a.25.25 0 0 1-.072.184.25.25 0 0 1-.184.072h-1.188a.25.25 0 0 1-.184-.072.25.25 0 0 1-.072-.184v-2.837c0-.238-.038-.426-.113-.563a.7.7 0 0 0-.286-.307.82.82 0 0 0-.758 0 .7.7 0 0 0-.287.307c-.068.137-.102.321-.102.553v2.847a.234.234 0 0 1-.082.184.25.25 0 0 1-.184.072H45.81Z"/></g><defs><filter id="a" width="80" height="80" x="0" y="0" color-interpolation-filters="sRGB" filterUnits="userSpaceOnUse"><feFlood flood-opacity="0" result="BackgroundImageFix"/><feColorMatrix in="SourceAlpha" result="hardAlpha" values="0 0 0 0 0 0 0 0 0 0 0 0 0 0 0 0 0 0 127 0"/><feOffset dy="2"/><feGaussianBlur stdDeviation="4"/><feColorMatrix values="0 0 0 0 0 0 0 0 0 0 0 0 0 0 0 0 0 0 0.75 0"/><feBlend in2="BackgroundImageFix" result="effect1_dropShadow_602_353"/><feBlend in="SourceGraphic" in2="effect1_dropShadow_602_353" result="shape"/></filter></defs></svg>