<svg xmlns="http://www.w3.org/2000/svg" width="80" height="80" fill="rgba(0,0,255,0.2)"><g><rect width="64" height="64" x="8" y="6" fill="#0D1117" rx="5"/><g clip-path="url(#b)"><path fill="#000" d="M55.395 30.162c-.186-.563-.673-.956-1.304-1.05-.297-.045-.637-.026-1.04.057a9.37 9.37 0 0 1-1.603.211c1.435-2.422 2.601-5.185 3.273-7.785 1.086-4.205.506-6.12-.173-6.987-1.794-2.293-4.413-3.525-7.572-3.563a13.42 13.42 0 0 0-3.936.552 14.67 14.67 0 0 0-2.302-.211c-1.52-.024-2.862.307-4.01.988a18.307 18.307 0 0 0-2.831-.711c-2.77-.455-5-.1-6.633 1.053-1.976 1.396-2.893 3.822-2.723 7.21.054 1.075.655 4.348 1.603 7.452.544 1.783 1.125 3.265 1.726 4.403.851 1.614 1.762 2.565 2.786 2.906.573.19 1.615.325 2.711-.588.139.168.324.335.57.49.313.198.695.358 1.076.454 1.375.344 2.662.258 3.76-.224.008.195.013.382.017.543.008.262.015.518.024.758.065 1.62.176 2.881.502 3.763.018.049.042.123.068.201.163.5.436 1.335 1.13 1.99.717.677 1.586.885 2.382.885.399 0 .78-.052 1.113-.124 1.19-.255 2.543-.644 3.52-2.036.925-1.316 1.375-3.299 1.456-6.423l.03-.253.019-.165.218.019.056.004c1.212.055 2.695-.202 3.605-.625.72-.334 3.025-1.55 2.482-3.194Z"/><path fill="#336791" d="M53.322 30.482c-3.605.743-3.853-.477-3.853-.477 3.806-5.648 5.398-12.817 4.024-14.571-3.745-4.786-10.23-2.523-10.338-2.464l-.035.006a12.848 12.848 0 0 0-2.405-.25c-1.63-.027-2.868.427-3.807 1.139 0 0-11.567-4.765-11.03 5.993.115 2.289 3.281 17.318 7.058 12.779a69.764 69.764 0 0 1 2.713-3.064 3.5 3.5 0 0 0 2.287.584l.065-.055c-.02.206-.011.408.026.647-.973 1.087-.688 1.277-2.632 1.678-1.968.405-.812 1.127-.057 1.316.915.229 3.032.553 4.462-1.45l-.057.229c.381.305.649 1.986.604 3.51-.045 1.523-.075 2.569.225 3.386.3.817.6 2.655 3.157 2.107 2.136-.458 3.243-1.644 3.397-3.623.11-1.407.356-1.199.372-2.456l.198-.596c.23-1.907.037-2.522 1.353-2.236l.32.028c.968.044 2.236-.156 2.98-.502 1.603-.743 2.553-1.985.973-1.659Z"/><path fill="#fff" d="M37.585 20.882c-.325-.045-.619-.003-.768.11a.28.28 0 0 0-.116.187c-.019.134.075.282.133.358.163.216.4.365.637.398a.748.748 0 0 0 .102.007c.393 0 .75-.307.782-.533.04-.283-.371-.472-.77-.527Zm10.762.008c-.031-.221-.426-.284-.8-.232-.375.052-.738.22-.708.443.025.173.337.469.707.469a.687.687 0 0 0 .094-.007.91.91 0 0 0 .514-.281c.131-.138.207-.291.193-.391Z"/><path fill="#fff" d="M54.522 30.397c-.138-.415-.58-.55-1.315-.397-2.183.45-2.964.138-3.221-.051 1.696-2.584 3.092-5.708 3.845-8.623.356-1.38.553-2.663.57-3.707.017-1.148-.178-1.99-.581-2.505-1.624-2.076-4.009-3.19-6.895-3.22-1.984-.023-3.66.485-3.985.628a9.94 9.94 0 0 0-2.243-.288c-1.49-.024-2.777.333-3.843 1.06a17.16 17.16 0 0 0-3.123-.82c-2.53-.407-4.54-.098-5.975.918-1.712 1.213-2.502 3.381-2.349 6.444.052 1.03.639 4.2 1.565 7.236 1.22 3.996 2.546 6.258 3.94 6.723.164.054.352.093.56.093.509 0 1.133-.23 1.782-1.01a64.274 64.274 0 0 1 2.456-2.78c.548.295 1.15.46 1.766.476l.005.048c-.124.147-.225.275-.312.385-.427.542-.516.655-1.89.938-.39.08-1.429.294-1.444 1.022-.017.795 1.227 1.13 1.369 1.165.494.123.97.184 1.423.184 1.103 0 2.075-.363 2.85-1.064-.023 2.834.095 5.628.435 6.479.279.697.96 2.4 3.111 2.399.316 0 .663-.037 1.045-.119 2.245-.48 3.22-1.473 3.597-3.66.202-1.17.548-3.961.711-5.459.344.107.787.157 1.265.156.998 0 2.15-.212 2.871-.547.811-.376 2.275-1.3 2.01-2.104Zm-5.347-10.119c-.007.442-.068.844-.132 1.263-.07.45-.142.916-.16 1.482-.017.55.051 1.122.118 1.675.134 1.118.272 2.268-.262 3.404a4.42 4.42 0 0 1-.236-.486c-.066-.161-.21-.42-.41-.777-.775-1.39-2.592-4.648-1.662-5.977.277-.396.98-.803 2.744-.584Zm-2.138-7.489c2.586.057 4.631 1.024 6.08 2.875 1.11 1.42-.113 7.879-3.654 13.45a17.95 17.95 0 0 0-.152-.19c.915-1.512.736-3.007.577-4.332-.066-.544-.127-1.058-.112-1.54.016-.512.084-.951.15-1.375.08-.523.162-1.064.14-1.702a.705.705 0 0 0 .014-.24c-.058-.611-.756-2.441-2.179-4.098-.778-.906-1.913-1.92-3.463-2.604a11.677 11.677 0 0 1 2.599-.244Zm-14.47 19.518c-.715.86-1.21.695-1.372.64-1.058-.353-2.286-2.589-3.368-6.136-.937-3.069-1.485-6.154-1.528-7.02-.137-2.736.527-4.644 1.972-5.669 2.352-1.668 6.219-.67 7.773-.163l-.068.065c-2.55 2.575-2.49 6.975-2.483 7.243 0 .104.008.251.02.453.044.74.126 2.117-.092 3.677-.203 1.45.244 2.868 1.225 3.892.102.106.208.206.318.3a65.471 65.471 0 0 0-2.397 2.718Zm2.724-3.636c-.79-.825-1.15-1.973-.985-3.15.23-1.648.145-3.083.1-3.854a22.187 22.187 0 0 1-.016-.277c.372-.33 2.099-1.255 3.33-.973.561.129.904.511 1.046 1.17.736 3.406.097 4.826-.416 5.966-.106.236-.206.458-.291.688l-.066.177c-.168.45-.324.867-.42 1.264-.841-.003-1.66-.362-2.282-1.011Zm.13 4.594a1.977 1.977 0 0 1-.596-.256c.108-.051.3-.12.634-.19 1.617-.332 1.867-.567 2.412-1.26.125-.158.267-.338.463-.557.292-.328.426-.272.668-.171.197.08.388.327.466.598.037.128.078.371-.057.56-1.139 1.595-2.799 1.574-3.99 1.276Zm8.46 7.873c-1.978.424-2.678-.585-3.14-1.739-.297-.745-.444-4.103-.34-7.812a.444.444 0 0 0-.019-.142 1.884 1.884 0 0 0-.055-.262c-.155-.54-.531-.99-.983-1.178-.179-.074-.508-.21-.904-.11.085-.347.23-.74.39-1.165l.066-.178c.075-.202.169-.41.268-.632.538-1.194 1.274-2.829.475-6.522-.3-1.384-1.298-2.06-2.813-1.902-.908.093-1.738.46-2.153.67-.089.045-.17.088-.246.131.115-1.394.552-3.999 2.187-5.647 1.028-1.038 2.399-1.55 4.068-1.523 3.29.054 5.4 1.742 6.59 3.15 1.026 1.211 1.582 2.433 1.803 3.091-1.667-.17-2.8.16-3.376.982-1.25 1.787.684 5.257 1.614 6.924.17.306.318.57.364.682.303.734.695 1.224.981 1.582.088.11.173.216.238.308-.505.146-1.412.482-1.33 2.164-.066.843-.54 4.793-.781 6.189-.318 1.843-.996 2.53-2.904 2.939Zm8.255-9.447c-.516.24-1.38.42-2.201.458-.907.043-1.369-.101-1.477-.19-.051-1.048.339-1.157.752-1.273.065-.018.128-.036.189-.057.038.03.08.061.125.091.729.481 2.028.533 3.863.154l.02-.004c-.247.232-.67.542-1.271.821Z"/></g><path fill="#E5E5E5" d="M16.76 60a.195.195 0 0 1-.144-.056.195.195 0 0 1-.056-.144v-5.2c0-.059.019-.107.056-.144a.195.195 0 0 1 .144-.056H19c.443 0 .827.07 1.152.208.33.133.587.336.768.608.187.272.28.616.28 1.032 0 .41-.093.75-.28 1.016a1.596 1.596 0 0 1-.768.592c-.325.128-.71.192-1.152.192h-.952V59.8a.182.182 0 0 1-.064.144.195.195 0 0 1-.144.056h-1.08Zm1.264-3.056h.936c.23 0 .41-.059.544-.176.139-.117.208-.296.208-.536a.766.766 0 0 0-.176-.512c-.117-.139-.31-.208-.576-.208h-.936v1.432Zm5.775 3.136c-.448 0-.826-.072-1.136-.216a1.622 1.622 0 0 1-.704-.616 2.12 2.12 0 0 1-.272-.968 7.195 7.195 0 0 1 0-.72c.022-.379.118-.701.288-.968.171-.267.408-.472.712-.616.31-.144.68-.216 1.112-.216.438 0 .808.072 1.112.216.31.144.55.35.72.616.171.267.267.59.288.968a7.01 7.01 0 0 1 0 .72 2.062 2.062 0 0 1-.28.968 1.56 1.56 0 0 1-.704.616c-.304.144-.682.216-1.136.216Zm0-.976c.24 0 .414-.072.52-.216.112-.144.176-.36.192-.648.006-.08.008-.187.008-.32s-.002-.24-.008-.32c-.016-.283-.08-.496-.192-.64-.106-.15-.28-.224-.52-.224-.234 0-.408.075-.52.224-.112.144-.173.357-.184.64-.005.08-.008.187-.008.32s.003.24.008.32c.011.288.072.504.184.648.112.144.286.216.52.216Zm4.627.976c-.346 0-.642-.037-.888-.112a2.187 2.187 0 0 1-.592-.288 1.354 1.354 0 0 1-.336-.344.722.722 0 0 1-.12-.312.161.161 0 0 1 .056-.144.191.191 0 0 1 .136-.064h.912a.09.09 0 0 1 .04.008.35.35 0 0 1 .048.032c.07.037.139.085.208.144.07.053.15.101.24.144.09.043.2.064.328.064a.74.74 0 0 0 .376-.088.286.286 0 0 0 .152-.264.3.3 0 0 0-.072-.208c-.048-.059-.147-.115-.296-.168a4.191 4.191 0 0 0-.656-.16 3.421 3.421 0 0 1-.728-.248 1.256 1.256 0 0 1-.48-.408 1.098 1.098 0 0 1-.168-.616c0-.213.07-.419.208-.616.139-.197.341-.357.608-.48.267-.128.595-.192.984-.192.31 0 .576.037.8.112.23.07.422.16.576.272.16.112.28.227.36.344a.65.65 0 0 1 .128.32.184.184 0 0 1-.048.144.176.176 0 0 1-.128.056h-.832a.265.265 0 0 1-.064-.008.526.526 0 0 1-.056-.032 1.003 1.003 0 0 1-.192-.128 1.16 1.16 0 0 0-.224-.144.712.712 0 0 0-.32-.064.525.525 0 0 0-.336.096.32.32 0 0 0-.056.44c.048.059.142.112.28.16.144.048.366.101.664.16.368.059.662.155.88.288.219.128.373.28.464.456.09.17.136.352.136.544 0 .256-.077.483-.232.68-.15.197-.373.352-.672.464-.299.107-.661.16-1.088.16Zm4.815-.08c-.342 0-.638-.053-.888-.16a1.233 1.233 0 0 1-.568-.512c-.134-.235-.2-.536-.2-.904v-1.536h-.624a.224.224 0 0 1-.152-.056.195.195 0 0 1-.056-.144v-.648c0-.059.018-.107.056-.144a.224.224 0 0 1 .152-.056h.624v-1.32c0-.059.018-.107.056-.144a.213.213 0 0 1 .144-.056h.928c.058 0 .106.019.144.056a.195.195 0 0 1 .056.144v1.32h1c.058 0 .106.019.144.056a.195.195 0 0 1 .056.144v.648a.195.195 0 0 1-.056.144.195.195 0 0 1-.144.056h-1v1.424a.78.78 0 0 0 .104.432c.069.107.186.16.352.16h.616c.058 0 .106.019.144.056a.195.195 0 0 1 .056.144v.696a.195.195 0 0 1-.056.144.195.195 0 0 1-.144.056h-.744Zm3.646 1.76c-.41 0-.752-.053-1.024-.16a2.038 2.038 0 0 1-.64-.384 1.536 1.536 0 0 1-.336-.448 1.005 1.005 0 0 1-.112-.344.161.161 0 0 1 .056-.144.223.223 0 0 1 .152-.056h1.016c.048 0 .088.01.12.032.037.027.067.07.088.128.027.059.061.12.104.184a.497.497 0 0 0 .192.152.77.77 0 0 0 .344.064c.16 0 .293-.027.4-.08a.475.475 0 0 0 .24-.248c.053-.112.08-.264.08-.456v-.536a1.41 1.41 0 0 1-.472.328c-.192.08-.424.12-.696.12-.272 0-.512-.04-.72-.12-.208-.08-.381-.2-.52-.36a1.77 1.77 0 0 1-.328-.584 3.097 3.097 0 0 1-.136-.792 5.444 5.444 0 0 1 0-.416c.016-.288.061-.547.136-.776.075-.23.181-.427.32-.592a1.4 1.4 0 0 1 .528-.376c.208-.09.448-.136.72-.136.288 0 .533.056.736.168.208.107.379.243.512.408v-.296c0-.053.019-.099.056-.136a.182.182 0 0 1 .144-.064h.92a.18.18 0 0 1 .144.064.174.174 0 0 1 .064.136v3.848c0 .405-.083.747-.248 1.024a1.583 1.583 0 0 1-.712.632c-.31.144-.685.216-1.128.216Zm-.056-2.888a.71.71 0 0 0 .416-.112.643.643 0 0 0 .232-.288.996.996 0 0 0 .088-.376c.005-.059.008-.141.008-.248a2.75 2.75 0 0 0-.008-.24 1.013 1.013 0 0 0-.088-.384.595.595 0 0 0-.232-.28.71.71 0 0 0-.416-.112.725.725 0 0 0-.424.112.651.651 0 0 0-.224.304 1.71 1.71 0 0 0-.08.424 4.077 4.077 0 0 0 0 .36c.01.155.037.296.08.424a.65.65 0 0 0 .224.304.725.725 0 0 0 .424.112ZM40.117 60a.195.195 0 0 1-.144-.056.195.195 0 0 1-.056-.144v-3.76c0-.053.019-.099.056-.136a.182.182 0 0 1 .144-.064h.92a.18.18 0 0 1 .144.064.185.185 0 0 1 .056.136v.32c.144-.165.315-.293.512-.384.203-.09.43-.136.68-.136h.352c.054 0 .099.019.136.056a.182.182 0 0 1 .064.144v.824a.199.199 0 0 1-.064.144.185.185 0 0 1-.136.056h-.776c-.218 0-.389.061-.512.184-.117.117-.176.285-.176.504V59.8a.182.182 0 0 1-.064.144.195.195 0 0 1-.144.056h-.992Zm5.322.08c-.63 0-1.13-.17-1.504-.512-.373-.341-.568-.848-.584-1.52v-.28c.016-.421.11-.781.28-1.08a1.72 1.72 0 0 1 .72-.688c.31-.16.67-.24 1.08-.24.47 0 .856.093 1.16.28.31.187.541.44.696.76.154.32.232.685.232 1.096v.192a.183.183 0 0 1-.064.144.185.185 0 0 1-.136.056h-2.56v.056c.005.155.032.296.08.424a.603.603 0 0 0 .592.416.632.632 0 0 0 .264-.048.844.844 0 0 0 .184-.12c.048-.048.085-.088.112-.12a.377.377 0 0 1 .112-.096.334.334 0 0 1 .144-.024h.992c.053 0 .096.016.128.048.037.027.053.067.048.12-.005.09-.05.2-.136.328-.086.128-.21.256-.376.384a2.02 2.02 0 0 1-.608.304c-.245.08-.53.12-.856.12Zm-.68-2.584h1.352v-.016c0-.17-.027-.32-.08-.448a.588.588 0 0 0-.232-.296.636.636 0 0 0-.368-.104.636.636 0 0 0-.368.104.673.673 0 0 0-.224.296c-.053.128-.08.277-.08.448v.016Zm5.686 2.584c-.534 0-.976-.075-1.328-.224-.352-.155-.619-.355-.8-.6a1.388 1.388 0 0 1-.288-.784c0-.043.016-.08.048-.112a.176.176 0 0 1 .128-.056h1.008a.29.29 0 0 1 .168.04c.042.027.08.061.112.104.042.08.101.157.176.232.08.075.181.136.304.184.128.043.285.064.472.064.31 0 .541-.048.696-.144.16-.096.24-.227.24-.392a.365.365 0 0 0-.128-.288c-.086-.08-.224-.15-.416-.208a6.261 6.261 0 0 0-.752-.192 4.882 4.882 0 0 1-1.04-.328 1.631 1.631 0 0 1-.648-.536c-.15-.224-.224-.501-.224-.832 0-.325.09-.616.272-.872.187-.256.445-.456.776-.6.33-.144.723-.216 1.176-.216.368 0 .69.048.968.144.282.096.52.224.712.384.192.16.336.33.432.512.101.176.154.35.16.52a.181.181 0 0 1-.048.12.163.163 0 0 1-.12.048h-1.056a.336.336 0 0 1-.152-.032.294.294 0 0 1-.112-.104c-.032-.117-.117-.219-.256-.304-.133-.09-.31-.136-.528-.136-.235 0-.419.043-.552.128-.128.08-.192.205-.192.376 0 .107.035.2.104.28.075.08.195.15.36.208.17.059.403.12.696.184.485.09.877.205 1.176.344.299.133.517.31.656.528.138.213.208.483.208.808 0 .363-.104.677-.312.944-.203.261-.485.461-.848.6a3.478 3.478 0 0 1-1.248.208Zm6.777.44a.27.27 0 0 1-.2-.072 1.71 1.71 0 0 1-.104-.112l-.272-.36a2.25 2.25 0 0 1-.712.104c-.49 0-.918-.08-1.28-.24-.358-.16-.64-.4-.848-.72-.203-.325-.312-.73-.328-1.216a29.226 29.226 0 0 1 0-1.384c.016-.48.128-.883.336-1.208.208-.33.493-.579.856-.744.362-.165.784-.248 1.264-.248.485 0 .91.083 1.272.248.362.165.648.413.856.744.208.325.32.728.336 1.208a15.427 15.427 0 0 1 0 1.384c-.032.661-.224 1.173-.576 1.536l.584.832a.152.152 0 0 1 .024.08.129.129 0 0 1-.04.112.152.152 0 0 1-.12.056h-1.048Zm-1.288-1.592c.282 0 .512-.085.688-.256.181-.17.277-.443.288-.816a13.725 13.725 0 0 0 0-1.312c-.006-.25-.05-.453-.136-.608a.814.814 0 0 0-.344-.352 1.062 1.062 0 0 0-.496-.112c-.182 0-.344.037-.488.112a.813.813 0 0 0-.344.352c-.086.155-.13.357-.136.608a26.902 26.902 0 0 0 0 1.312c.01.373.104.645.28.816.181.17.41.256.688.256ZM59.549 60a.195.195 0 0 1-.144-.056.195.195 0 0 1-.056-.144v-5.2c0-.059.019-.107.056-.144a.195.195 0 0 1 .144-.056h1.056c.053 0 .099.019.136.056a.183.183 0 0 1 .064.144v4.192h2.416a.18.18 0 0 1 .144.064.183.183 0 0 1 .064.144v.8a.183.183 0 0 1-.064.144.195.195 0 0 1-.144.056H59.55Z"/></g><defs><clipPath id="b"><path fill="#fff" d="M24 11h32v32H24z"/></clipPath><filter id="a" width="80" height="80" x="0" y="0" color-interpolation-filters="sRGB" filterUnits="userSpaceOnUse"><feFlood flood-opacity="0" result="BackgroundImageFix"/><feColorMatrix in="SourceAlpha" result="hardAlpha" values="0 0 0 0 0 0 0 0 0 0 0 0 0 0 0 0 0 0 127 0"/><feOffset dy="2"/><feGaussianBlur stdDeviation="4"/><feColorMatrix values="0 0 0 0 0 0 0 0 0 0 0 0 0 0 0 0 0 0 0.75 0"/><feBlend in2="BackgroundImageFix" result="effect1_dropShadow_603_777"/><feBlend in="SourceGraphic" in2="effect1_dropShadow_603_777" result="shape"/></filter></defs></svg>