<svg xmlns="http://www.w3.org/2000/svg" width="80" height="80" fill="rgba(0,0,255,0.2)"><g><rect width="64" height="64" x="8" y="6" fill="#0D1117" rx="5"/><g clip-path="url(#b)"><path fill="#FF6C37" d="M55.87 29.032c1.119-8.767-5.072-16.781-13.822-17.901-8.75-1.12-16.797 5.07-17.917 13.821-1.12 8.75 5.07 16.781 13.821 17.917 8.767 1.12 16.781-5.07 17.917-13.837Z"/><path fill="#fff" d="m45.775 21.273-6.75 6.75-1.904-1.903c6.638-6.639 7.294-6.063 8.654-4.847Z"/><path fill="#FF6C37" d="M39.024 28.184a.145.145 0 0 1-.112-.048l-1.92-1.904a.155.155 0 0 1 0-.224c6.751-6.75 7.455-6.11 8.879-4.83a.145.145 0 0 1 .048.111c0 .048-.016.08-.048.112l-6.75 6.735c-.017.032-.065.048-.097.048Zm-1.68-2.064 1.68 1.68 6.511-6.51c-1.184-1.057-1.984-1.377-8.19 4.83Z"/><path fill="#fff" d="m40.96 29.96-1.84-1.84 6.75-6.75c1.809 1.823-.895 4.782-4.91 8.59Z"/><path fill="#FF6C37" d="M40.96 30.12a.145.145 0 0 1-.112-.049l-1.84-1.84c-.032-.031-.032-.063-.032-.111s.016-.08.048-.112l6.751-6.751a.155.155 0 0 1 .224 0c.416.384.64.928.624 1.488-.032 1.775-2.048 4.031-5.535 7.326a.255.255 0 0 1-.128.048Zm-1.616-2c1.024 1.04 1.456 1.456 1.616 1.615 2.688-2.56 5.295-5.183 5.311-6.99a1.705 1.705 0 0 0-.416-1.152l-6.51 6.527Z"/><path fill="#fff" d="m37.153 26.168 1.36 1.36c.031.032.031.064 0 .096-.017.016-.017.016-.033.016l-2.815.608a.28.28 0 0 1-.304-.224.236.236 0 0 1 .064-.208l1.632-1.632c.032-.032.08-.048.096-.016Z"/><path fill="#FF6C37" d="M35.617 28.408a.417.417 0 0 1-.416-.432c0-.112.048-.224.128-.304l1.632-1.632a.243.243 0 0 1 .32 0l1.36 1.36c.095.08.095.224 0 .32a.258.258 0 0 1-.113.064l-2.815.608c-.032 0-.064.016-.096.016Zm1.488-2.064-1.568 1.568c-.032.032-.048.08-.016.128.016.048.064.064.112.048l2.64-.576-1.168-1.168Z"/><path fill="#fff" d="M49.342 17.53a2.584 2.584 0 0 0-3.663.08 2.583 2.583 0 0 0 .08 3.663c.848.816 2.128.96 3.135.352l-1.823-1.824 2.271-2.271Z"/><path fill="#FF6C37" d="M47.55 22.153a2.751 2.751 0 1 1 1.904-4.735.145.145 0 0 1 .048.112c0 .048-.016.08-.048.112l-2.16 2.16 1.696 1.695a.155.155 0 0 1 0 .224l-.032.032a2.71 2.71 0 0 1-1.407.4Zm0-5.167a2.407 2.407 0 0 0-2.415 2.431 2.407 2.407 0 0 0 2.432 2.416 2.3 2.3 0 0 0 1.071-.256l-1.68-1.664a.145.145 0 0 1-.047-.112c0-.048.016-.08.048-.112l2.143-2.143a2.37 2.37 0 0 0-1.551-.56Z"/><path fill="#fff" d="m49.39 17.578-.032-.032-2.287 2.255 1.808 1.808c.175-.112.351-.24.495-.384a2.564 2.564 0 0 0 .016-3.647Z"/><path fill="#FF6C37" d="M48.895 21.785a.145.145 0 0 1-.112-.048l-1.824-1.824a.145.145 0 0 1-.048-.112c0-.048.016-.08.048-.111l2.271-2.272a.155.155 0 0 1 .224 0l.048.032a2.766 2.766 0 0 1 .016 3.887 2.63 2.63 0 0 1-.528.416c-.047.016-.08.032-.096.032Zm-1.6-1.984 1.615 1.616c.129-.08.257-.192.353-.288.911-.912.96-2.4.08-3.36l-2.048 2.032Z"/><path fill="#fff" d="M46.047 21.56a.985.985 0 0 0-1.392 0l-6.03 6.032 1.007 1.008 6.383-5.6c.416-.351.448-.975.096-1.391-.032-.016-.048-.032-.064-.048Z"/><path fill="#FF6C37" d="M39.616 28.76a.145.145 0 0 1-.112-.048l-1.008-1.008a.155.155 0 0 1 0-.224l6.031-6.031a1.14 1.14 0 0 1 1.616 0 1.14 1.14 0 0 1 0 1.616l-.048.048-6.383 5.599c-.016.032-.048.048-.096.048Zm-.768-1.168.784.784 6.27-5.503c.353-.288.385-.816.097-1.168-.288-.352-.816-.384-1.168-.096a.22.22 0 0 1-.064.048l-5.919 5.935Z"/><path fill="#fff" d="M34.001 34.455c-.064.032-.096.096-.08.16l.272 1.151a.306.306 0 0 1-.208.4.321.321 0 0 1-.352-.096l-1.76-1.743 5.744-5.743 1.983.032 1.344 1.343c-.32.272-2.256 2.144-6.943 4.496Z"/><path fill="#FF6C37" d="M33.873 36.326a.436.436 0 0 1-.336-.144l-1.743-1.743a.145.145 0 0 1-.048-.112c0-.048.016-.08.048-.112l5.743-5.743a.173.173 0 0 1 .111-.048l1.984.032c.048 0 .08.016.112.048l1.344 1.344c.032.032.048.08.048.128 0 .047-.016.08-.064.111l-.112.096c-1.696 1.488-4 2.976-6.863 4.4l.272 1.136a.505.505 0 0 1-.24.543.549.549 0 0 1-.256.064Zm-1.76-2 1.648 1.633c.048.08.144.111.224.063.08-.047.112-.143.064-.224l-.272-1.151a.292.292 0 0 1 .16-.336c2.832-1.424 5.12-2.896 6.799-4.351l-1.184-1.184-1.84-.032-5.599 5.583Z"/><path fill="#fff" d="m30.514 35.702 1.376-1.375 2.047 2.047-3.263-.224a.255.255 0 0 1-.224-.288c0-.064.016-.128.064-.16Z"/><path fill="#FF6C37" d="m33.937 36.518-3.28-.224c-.24-.016-.4-.224-.383-.464.016-.096.048-.192.128-.256l1.375-1.375a.155.155 0 0 1 .224 0l2.048 2.047c.048.048.064.112.032.176-.032.064-.08.096-.144.096Zm-2.047-1.967-1.264 1.263c-.048.032-.048.112 0 .144.016.016.032.032.064.032l2.831.192-1.631-1.631Zm5.167-5.231a.16.16 0 0 1-.16-.16c0-.048.016-.08.048-.112l1.551-1.552a.155.155 0 0 1 .224 0l1.008 1.008c.048.048.064.096.048.16a.183.183 0 0 1-.128.112l-2.56.544h-.031Zm1.551-1.488-1.055 1.056 1.727-.368-.672-.688Z"/><path fill="#fff" d="M39.6 28.616 37.84 29a.238.238 0 0 1-.224-.4l.976-.976 1.008.992Z"/><path fill="#FF6C37" d="M37.808 29.16a.396.396 0 0 1-.4-.4.46.46 0 0 1 .112-.288l.976-.976a.155.155 0 0 1 .224 0l1.008 1.008c.048.048.064.096.048.16a.183.183 0 0 1-.128.112l-1.76.384h-.08Zm.8-1.328-.864.864c-.032.032-.032.064-.016.096s.048.048.096.048l1.472-.32-.688-.688Zm10.798-8.718c-.032-.096-.144-.144-.24-.112-.096.032-.144.143-.112.24 0 .015.016.031.016.047a.597.597 0 0 1-.064.608.194.194 0 0 0 .016.256.18.18 0 0 0 .256-.032c.24-.304.288-.688.128-1.007Z"/></g><path fill="#2AF" d="M17.973 61a.25.25 0 0 1-.184-.072.25.25 0 0 1-.072-.184v-6.656a.25.25 0 0 1 .072-.184.25.25 0 0 1 .184-.072h2.867c.567 0 1.058.089 1.475.266.423.17.75.43.983.779.239.348.358.788.358 1.32 0 .526-.12.96-.358 1.3-.232.342-.56.595-.983.759-.417.163-.908.245-1.475.245h-1.219v2.243a.234.234 0 0 1-.081.184.25.25 0 0 1-.185.072h-1.382Zm1.618-3.912h1.198c.293 0 .525-.075.696-.225.178-.15.266-.379.266-.686a.98.98 0 0 0-.225-.655c-.15-.178-.396-.267-.737-.267H19.59v1.833Zm7.392 4.014c-.573 0-1.058-.092-1.454-.276a2.076 2.076 0 0 1-.901-.789c-.205-.348-.32-.76-.348-1.239a9.346 9.346 0 0 1 0-.921c.027-.485.15-.898.368-1.24.219-.34.523-.603.912-.788.396-.184.87-.276 1.423-.276.56 0 1.034.092 1.424.276.395.185.703.447.921.789.219.341.341.754.369 1.239a9.346 9.346 0 0 1 0 .922c-.027.477-.147.89-.359 1.238a2.003 2.003 0 0 1-.9.789c-.39.184-.874.276-1.455.276Zm0-1.249c.307 0 .53-.092.666-.276.143-.185.225-.461.246-.83.006-.102.01-.239.01-.41 0-.17-.004-.307-.01-.409-.02-.362-.103-.635-.246-.82-.137-.19-.359-.286-.666-.286-.3 0-.522.096-.665.287-.144.184-.222.457-.236.819-.007.102-.01.239-.01.41 0 .17.003.307.01.41.014.368.092.644.236.829.143.184.365.276.665.276Zm5.923 1.25c-.444 0-.823-.048-1.137-.144a2.799 2.799 0 0 1-.758-.369 1.732 1.732 0 0 1-.43-.44c-.096-.157-.147-.29-.154-.4a.207.207 0 0 1 .072-.184.245.245 0 0 1 .174-.082h1.168a.12.12 0 0 1 .05.01.522.522 0 0 1 .062.042c.089.047.178.109.266.184.09.068.192.13.308.184a.98.98 0 0 0 .42.082.947.947 0 0 0 .48-.112.366.366 0 0 0 .195-.338c0-.11-.03-.198-.092-.267-.061-.075-.188-.146-.379-.215a5.363 5.363 0 0 0-.84-.204 4.374 4.374 0 0 1-.931-.318 1.607 1.607 0 0 1-.615-.522 1.405 1.405 0 0 1-.215-.789c0-.273.09-.535.267-.788.177-.253.436-.457.778-.614.341-.164.761-.246 1.26-.246.395 0 .737.048 1.023.143.294.089.54.205.738.348.204.144.358.29.46.44.103.15.157.287.164.41a.235.235 0 0 1-.061.185.226.226 0 0 1-.164.071H33.95a.338.338 0 0 1-.082-.01.672.672 0 0 1-.072-.041 1.281 1.281 0 0 1-.245-.164 1.476 1.476 0 0 0-.287-.184.912.912 0 0 0-.41-.082c-.184 0-.327.04-.43.123a.408.408 0 0 0-.072.563c.062.075.181.143.359.205.184.061.468.13.85.205.47.075.846.198 1.126.368.28.164.478.359.594.584.116.218.174.45.174.696 0 .328-.099.618-.297.87-.19.253-.477.451-.86.595-.382.136-.846.204-1.392.204ZM39.068 61c-.437 0-.816-.068-1.137-.205a1.578 1.578 0 0 1-.727-.655c-.17-.3-.256-.686-.256-1.157v-1.966h-.798a.286.286 0 0 1-.195-.072.25.25 0 0 1-.072-.184v-.83a.25.25 0 0 1 .072-.184.286.286 0 0 1 .195-.072h.798v-1.69a.25.25 0 0 1 .072-.184.273.273 0 0 1 .184-.071h1.188a.25.25 0 0 1 .184.071.25.25 0 0 1 .072.185v1.69h1.28a.25.25 0 0 1 .184.07.25.25 0 0 1 .072.185v.83a.25.25 0 0 1-.072.184.25.25 0 0 1-.184.072h-1.28v1.822c0 .233.044.417.133.553.089.137.24.205.45.205h.79a.25.25 0 0 1 .184.072.25.25 0 0 1 .071.184v.891a.25.25 0 0 1-.071.184.25.25 0 0 1-.185.072h-.952Zm2.312 0a.25.25 0 0 1-.184-.072.25.25 0 0 1-.072-.184v-4.813a.25.25 0 0 1 .072-.184.25.25 0 0 1 .184-.072h1.116a.25.25 0 0 1 .185.072.25.25 0 0 1 .071.184v.348c.137-.184.328-.344.574-.48a1.77 1.77 0 0 1 .87-.226c.785-.014 1.325.283 1.618.89.157-.259.382-.47.676-.634.293-.17.614-.256.962-.256.355 0 .673.082.953.246.286.157.515.402.686.737.17.328.256.754.256 1.28v2.908a.234.234 0 0 1-.082.184.237.237 0 0 1-.174.072h-1.188a.285.285 0 0 1-.194-.072.25.25 0 0 1-.072-.184v-2.837c0-.238-.034-.426-.103-.563a.646.646 0 0 0-.276-.307.841.841 0 0 0-.768 0 .7.7 0 0 0-.287.307c-.068.137-.102.325-.102.563v2.837a.25.25 0 0 1-.072.184.25.25 0 0 1-.184.072h-1.188a.25.25 0 0 1-.184-.072.25.25 0 0 1-.072-.184v-2.837c0-.238-.038-.426-.113-.563a.7.7 0 0 0-.286-.307.82.82 0 0 0-.758 0 .7.7 0 0 0-.287.307c-.068.137-.102.321-.102.553v2.847a.234.234 0 0 1-.082.184.25.25 0 0 1-.184.072H41.38Zm10.712.102c-.369 0-.7-.068-.994-.204a1.832 1.832 0 0 1-.686-.574 1.359 1.359 0 0 1-.256-.809c0-.484.198-.867.594-1.147.396-.286.922-.481 1.577-.583l1.28-.195v-.143c0-.246-.051-.434-.154-.564-.102-.13-.29-.194-.563-.194a.891.891 0 0 0-.47.113.804.804 0 0 0-.277.307.294.294 0 0 1-.256.133H50.74a.236.236 0 0 1-.174-.061.207.207 0 0 1-.051-.164c0-.123.044-.263.133-.42.095-.164.239-.325.43-.482.191-.157.437-.286.737-.389.3-.102.662-.153 1.086-.153.443 0 .822.051 1.136.153.314.103.567.246.758.43.198.185.345.403.44.656.096.246.144.519.144.819v3.113a.234.234 0 0 1-.082.184.237.237 0 0 1-.174.072h-1.188a.25.25 0 0 1-.184-.072.25.25 0 0 1-.072-.184v-.358a1.47 1.47 0 0 1-.359.358 1.72 1.72 0 0 1-.532.256c-.198.068-.43.102-.696.102Zm.48-1.167c.199 0 .376-.04.533-.123a.896.896 0 0 0 .38-.4 1.48 1.48 0 0 0 .143-.685v-.144l-.87.154c-.322.055-.557.14-.707.256-.144.11-.215.239-.215.39a.45.45 0 0 0 .102.296.71.71 0 0 0 .266.195c.11.04.232.061.369.061ZM56.79 61a.25.25 0 0 1-.184-.072.25.25 0 0 1-.072-.184v-4.813a.25.25 0 0 1 .072-.184.25.25 0 0 1 .184-.072h1.178a.25.25 0 0 1 .184.072.25.25 0 0 1 .072.184v.39c.177-.212.41-.39.696-.533a2.242 2.242 0 0 1 1.014-.215c.396 0 .744.088 1.044.266.307.178.547.44.717.788.178.342.266.762.266 1.26v2.857a.234.234 0 0 1-.082.184.237.237 0 0 1-.174.072h-1.29a.273.273 0 0 1-.184-.072.25.25 0 0 1-.072-.184v-2.795c0-.321-.078-.567-.235-.738-.15-.177-.376-.266-.676-.266-.28 0-.505.089-.676.266-.164.17-.246.417-.246.738v2.795a.234.234 0 0 1-.082.184.237.237 0 0 1-.174.072h-1.28Z"/></g><defs><clipPath id="b"><path fill="#fff" d="M24 11h32v32H24z"/></clipPath><filter id="a" width="80" height="80" x="0" y="0" color-interpolation-filters="sRGB" filterUnits="userSpaceOnUse"><feFlood flood-opacity="0" result="BackgroundImageFix"/><feColorMatrix in="SourceAlpha" result="hardAlpha" values="0 0 0 0 0 0 0 0 0 0 0 0 0 0 0 0 0 0 127 0"/><feOffset dy="2"/><feGaussianBlur stdDeviation="4"/><feColorMatrix values="0 0 0 0 0 0 0 0 0 0 0 0 0 0 0 0 0 0 0.75 0"/><feBlend in2="BackgroundImageFix" result="effect1_dropShadow_601_4662"/><feBlend in="SourceGraphic" in2="effect1_dropShadow_601_4662" result="shape"/></filter></defs></svg>