<svg xmlns="http://www.w3.org/2000/svg" width="80" height="80" fill="rgba(0,0,255,0.2)"><g><rect width="64" height="64" x="8" y="6" fill="#0D1117" rx="5"/><path fill="#DD3735" d="M53.989 26.27a39.498 39.498 0 0 0-.047-1.087c-.02-.359-.028-.737-.066-1.106-.066-.5-.132-1.011-.246-1.5a8.575 8.575 0 0 0-.37-1.181c-.17-.46-.366-.912-.585-1.352a20.898 20.898 0 0 0-1.3-1.976c-.293-.416-.671-.756-.955-1.181a2.916 2.916 0 0 0-.633-.643c-.378-.3-.775-.577-1.172-.841-.3-.208-.6-.406-.926-.586-.255-.142-.53-.255-.794-.378a4.043 4.043 0 0 0-.936-.378 2.453 2.453 0 0 1-.246-.076c-.217-.076-.425-.161-.643-.227-.331-.1-.652-.227-.992-.312a9.06 9.06 0 0 0-1.011-.189c-.378-.057-.766-.076-1.144-.113-.246-.028-.492-.057-.728-.066-.36-.019-.728-.019-1.087-.028a5.36 5.36 0 0 0-.548-.019c-.275.011-.55.037-.822.076-.265.028-.53.076-.785.113-.312.038-.624.057-.936.095-.293.038-.6.095-.888.142-.1.019-.208.057-.312.076a6.004 6.004 0 0 0-.69.142c-.406.123-.813.265-1.21.416a10.95 10.95 0 0 0-1.077.5c-.36.2-.7.435-1.04.662-.321.217-.643.444-.955.69-.3.24-.587.496-.86.766-.151.151-.274.331-.416.5-.236.274-.473.539-.7.822-.19.236-.36.482-.54.728-.313.434-.597.889-.85 1.361-.1.189-.2.378-.293.567-.142.284-.293.558-.425.851a3.594 3.594 0 0 0-.227.633c-.132.463-.265.936-.388 1.4A5.29 5.29 0 0 0 26 24.843c-.002.376.02.752.066 1.125.009.094-.047.208.066.284.009 0 0 .038-.01.047a.091.091 0 0 0-.003.08.092.092 0 0 0 .06.052.033.033 0 0 1 .009.019h-.045c-.028.085.066.151.028.246-.01.019.028.057.047.085a.315.315 0 0 0 0 .094c.021.087.037.176.047.265 0 .066.057.142.076.208a.11.11 0 0 1-.02.094c-.056.066-.046.123.039.161a.11.11 0 0 1 .047.066 1.075 1.075 0 0 1-.028.17c.019.019.028.038.019.057-.01.019-.028.057-.02.076.072.154.11.321.114.491a.362.362 0 0 0 .038.123c.02 0 .039.002.057.009l-.057.17a.8.8 0 0 1 .132-.057c.025.115.056.229.095.34a.162.162 0 0 0 .057.057c-.01.019-.01.057-.028.066.026.167.067.332.123.492.01 0 .019-.01.028-.01-.028-.17-.047-.35-.076-.52v-.057a.1.1 0 0 1 .028-.01.667.667 0 0 1 .028.113c.076 0 .189.047.265.047a.88.88 0 0 1 .028-.085c-.057-.057-.1-.142-.161-.2.01.043.01.089 0 .132-.038-.019-.085-.038-.132-.057.04-.053.085-.103.132-.151 0-.085-.047-.161-.18-.151.057-.019.114-.047.18-.066a.64.64 0 0 0 .028.076c.076-.132-.038-.236-.038-.369a2.457 2.457 0 0 0-.113-.492c-.047-.265-.038-.662-.066-.926 0-.019-.028-.038-.047-.057-.01.01-.057.132-.066.142.028.227.057.454.076.681-.01 0-.02 0-.02.009-.037-.2-.075-.406-.122-.633a1.09 1.09 0 0 0-.02.132c-.027-.009-.037-.019-.084-.038.038.085.076.142.1.208a.308.308 0 0 0-.142-.019v.265a1.274 1.274 0 0 1-.17-.236c-.02-.076-.028-.151-.047-.227l.028-.01a.51.51 0 0 1-.028-.094 7.843 7.843 0 0 1-.028-.227c.009-.009.047-.019.066-.038l-.076-.113c.056.01.113.016.17.019 0-.019.009-.028 0-.038-.095-.085-.028-.161.009-.236.019-.038.085-.047.1-.085.076-.142.2-.255.2-.435.008-.089.02-.177.038-.265.019-.161.038-.321.047-.482a4.31 4.31 0 0 1 .056-.61 11.167 11.167 0 0 1 .529-1.692c.132-.37.283-.733.454-1.087.255-.51.548-1 .832-1.5.18-.312.369-.6.567-.907.198-.307.378-.6.6-.87a7.67 7.67 0 0 1 1-1.068c.378-.34.737-.69 1.144-1a11.61 11.61 0 0 1 1.674-1.082c.482-.246.98-.461 1.489-.644.32-.123.67-.179 1-.284.373-.12.761-.183 1.153-.189.255-.009.5-.038.756-.066.227-.019.454-.038.7-.066a.416.416 0 0 0-.047.076c-.1.151-.217.3-.321.454-.085.123-.18.255-.265.378-.151.2-.312.4-.454.6-.217.312-.416.633-.643.945-.227.312-.473.586-.71.879-.311.406-.6.822-.916 1.229-.284.388-.586.756-.86 1.144-.246.34-.463.7-.7 1.049-.35.52-.7 1.03-1.05 1.55-.273.4-.547.785-.831 1.182a.225.225 0 0 1-.076.057c-.02.019-.057.038-.057.057-.01.064-.026.128-.047.189-.076.142-.151.284-.236.416-.047.076-.113.142-.17.217-.02-.009-.028-.019-.047-.019.038-.095.2-.151.123-.293-.047.076-.095.142-.142.217l-.113.227c.038.028.1.047.038.1-.028.047-.057.1-.085.151.01 0 .01.009.019.009.028-.038.057-.066.085-.1.009 0 .019.01.028.01a1.385 1.385 0 0 1-.132.265.76.76 0 0 1-.2.189c.01.009.076.038.085.047.028-.038.038-.019.066-.057.019.028.047-.019.057.009a.44.44 0 0 0 .066-.094.342.342 0 0 1 .189-.208.37.37 0 0 0 .098-.07c.284-.293.577-.577.832-.888.4-.482.756-.983 1.134-1.475.16-.208.35-.416.52-.614.019.01.038.01.047.019-.02.2-.038.406-.047.6-.028.35-.047.7-.076 1.059-.01.142 0 .284-.01.425 0 .038-.027.066-.027.1 0 .094.028.2.028.293-.028.35-.066.69-.095 1.04a.56.56 0 0 0 .047.217.264.264 0 0 0-.047-.038c.049.54.055 1.084.019 1.626.038-.01.057-.019.057-.038a1.447 1.447 0 0 0 .028-.38v-.094c.023-.172.033-.346.028-.52a1.774 1.774 0 0 1 .019-.548c.019-.076-.01-.17.038-.265v.142c.01.54-.011 1.08-.066 1.616-.01.047.028.132-.076.123-.01 0-.02.047-.038.076-.047.094.057.217-.038.312-.02.019.019.1.028.161 0 .019.01.038 0 .047-.038.066-.038.066.019.076.01.208.028.4.038.6h.028a7.11 7.11 0 0 0 .113-1.1c.013.154.016.309.01.463 0 .246-.01.482-.02.728a.738.738 0 0 1-.018.142 2.57 2.57 0 0 1-.085.388 1.061 1.061 0 0 0-.02.35v.359c0 .01.029.038.029.076.009.085-.038.17-.01.265.01.019-.01.047-.02.066a.134.134 0 0 0-.008.085l.028.142c0 .009.01.019.019.038a.3.3 0 0 0 .01-.076c.16.019.076.161.15.236-.037.019-.065.028-.065.038a.425.425 0 0 1 .028.1 2.178 2.178 0 0 1-.02.246c0 .217-.01.435-.01.643 0 .028.01.057.01.085 0 .028-.01.038-.01.066v.2h.039a.517.517 0 0 1-.066.085c-.01 0-.038 0-.038-.009v-1.182h-.14a9.967 9.967 0 0 1-.075 1.607 2.42 2.42 0 0 1-.274.028c-.293 0-.586 0-.88.009-.35 0-.69.01-1.04.01-.17 0-.35.019-.52.019-.226 0-.462-.028-.69-.028-.35 0-.69.028-1.04.038-.254.009-.51.009-.765.019-.17.009-.34.019-.51.038-.08.016-.16.038-.236.066a.81.81 0 0 0-.151 0c-.095.019-.18.076-.274.095-.142.028-.18.066-.161.208v.094a.284.284 0 0 0-.066-.047.033.033 0 0 0-.02.009c.01.028.029.047.039.076.038-.019.085-.066.123-.066h.132c-.02 0-.028.057-.057.1.076-.028.123-.047.17-.066a.27.27 0 0 1 .009.076c.121-.025.246-.031.369-.019.37.085.746.142 1.125.17.246.019.482.028.728.038.35.019.7.038 1.049.038.293 0 .577-.028.87-.028.406 0 .813.019 1.219.028.085 0 .18-.01.274-.01h.69c.614-.019 1.229-.028 1.843-.047.35-.009.709-.028 1.059-.038l1.077-.028c.416-.009.832-.009 1.238-.019.312 0 .614-.009.926-.019.35-.01.709-.038 1.059-.057.189-.009.378-.028.567-.047.227-.019.463-.047.69-.057.34-.019.69-.028 1.03-.047.425-.028.85-.066 1.285-.076.4-.019.8-.009 1.2-.019.35-.009.7-.028 1.059-.038l.6-.028s.4-.009.6-.028c.34-.019.68-.057 1.02-.066.218-.009.436 0 .653-.009.35-.01.709-.028 1.059-.028.132 0 .274.019.444.028-.076.066-.123.1-.18.151.04.012.077.027.113.047 0 .01-.01.019-.01.038-.046 0-.093.01-.141.01a.599.599 0 0 0-.057.161h.17c-.066 0-.123.085-.19.142.01.009.02.009.029.019-.1-.038-.17-.019-.208.085.024.008.05.01.076.009a.713.713 0 0 0-.028.094.137.137 0 0 0-.02.066l-.027-.028a.122.122 0 0 0-.01-.057c-.056.057-.141.095-.094.217-.038.019-.085.038-.132.066a.39.39 0 0 1 .038.066c-.085.009-.17.028-.151.132.038.009.076.028.1.038-.047.019-.094.047-.142.066-.01.019-.02.066-.038.076-.132.028-.057.076-.02.123a.375.375 0 0 1-.084.047c.025.007.047.02.066.038a.548.548 0 0 1-.066.038.31.31 0 0 0 .057.028 3.137 3.137 0 0 0-.142.113.086.086 0 0 0 .009.047.827.827 0 0 0-.113.132c-.03.065-.063.128-.1.189a3.488 3.488 0 0 1-.6.643c-.095.07-.184.15-.265.236-.17.161-.321.34-.5.492-.236.2-.482.378-.737.558-.312.217-.624.435-.936.643-.17.113-.36.2-.54.3-.18.1-.35.2-.528.3a2.748 2.748 0 0 1-.34.236c-.312.132-.643.246-.964.369-.028.009-.047.019-.076.028-.236.1-.463.217-.7.3a5.4 5.4 0 0 1-.671.18 2.02 2.02 0 0 1-.246.009c-.161.028-.321.066-.482.085-.416.057-.832.094-1.248.151-.246.028-.482.076-.728.1-.17.01-.35-.009-.52-.009a2.511 2.511 0 0 1-.378.009c-.2-.028-.4-.076-.6-.113a.282.282 0 0 0-.151-.009c-.076.038-.142-.019-.217 0-.047.009-.094-.028-.142-.028-.048 0-.085.009-.132 0a.869.869 0 0 0-.312-.057 1.221 1.221 0 0 1-.35-.076l-.5-.113a.83.83 0 0 1-.19-.085.18.18 0 0 1-.084.028 2.601 2.601 0 0 1-.473-.094.847.847 0 0 0-.4-.094c-.038.009-.066-.01-.1-.01-.028-.038-.057-.113-.085-.113-.19.01-.3-.151-.463-.2-.085-.028-.151-.123-.236-.151-.208-.085-.378-.265-.614-.293a1.35 1.35 0 0 1-.236-.076.837.837 0 0 0 .076.095l-.02.019c-.254-.151-.51-.3-.765-.444-.038-.01-.066-.047-.095-.066l-.255-.17c-.028-.019-.085-.047-.085-.038-.057.066-.113.01-.151-.009-.255-.18-.548-.293-.794-.492-.11-.07-.21-.152-.3-.246a1.49 1.49 0 0 0-.473-.369c-.142-.076-.274-.161-.406-.246a.25.25 0 0 1-.132-.208c0-.066-.028-.132-.113-.094-.038-.057-.076-.123-.123-.142a.998.998 0 0 1-.274-.208c-.085-.076-.151-.18-.255-.217a1.128 1.128 0 0 1-.416-.369c-.265-.312-.5-.652-.747-.983a.689.689 0 0 0-.085-.076l-.01.01c.047.094.095.18.142.274-.01.009-.028.019-.038.028-.057-.066-.123-.132-.18-.2-.01.01-.02.019-.028.019l.673 1.094c.057.085.1.17.16.255a.128.128 0 0 1-.037.028.372.372 0 0 1-.246-.18.352.352 0 0 0-.37-.227 1.625 1.625 0 0 1-.046-.208.767.767 0 0 1-.132-.009c.132.208.246.388.369.6l-.094-.057c.17.18.293.406.51.52.047.217.293.321.35.529l-.132-.028c-.076-.094-.161-.189-.246-.293.017.062.046.12.085.17.106.144.223.28.35.406.047.047.113.066.113.151a.263.263 0 0 1 .076-.047.588.588 0 0 0-.038.085c.038 0 .066.009.095.009.019.057-.01.142.1.123.01 0 .019.009.028.019.047.123.123.123.227.076a.073.073 0 0 1 .076.019c.047.1.113.113.2.038 0 .047.009.094.009.132h.043c0-.019-.01-.047-.01-.094.048.038.077.057.096.076.085.135.19.256.312.359.18.151.34.312.51.454a7.17 7.17 0 0 0 1.068.709c.454.255.888.529 1.352.775.56.286 1.154.499 1.768.633.227.047.444.094.67.151.2.057.4.142.6.189.3.066.615.123.918.18l.208.028v.019c.085 0 .189-.038.208-.01.047.076.085.038.142.028a.811.811 0 0 1 .217-.019c.26.03.523.046.785.047.057 0 .142-.047.189.047.019-.01.028-.019.047-.028.038-.01.085-.01.123-.019v.018a.433.433 0 0 1-.076.019.757.757 0 0 1 .1.028.125.125 0 0 1-.047.028.417.417 0 0 0-.085.047c.31.071.634.071.945 0v-.057h.038c.002.02.008.04.019.057.429.037.86-.018 1.267-.161.038.047.066.113.123.019.019-.028.066-.038.1-.047a.52.52 0 0 1 .263-.033c.085.028.113-.047.18-.047.107 0 .215-.009.32-.028.058-.009.114-.038.18-.057.002-.005.001-.01 0-.015a.037.037 0 0 0-.008-.013 1.577 1.577 0 0 0-.2-.019c.113-.057.217-.1.32-.151 0 .009.01.009.01.019-.027.009-.046.047-.084.047h.132c-.028 0-.066.085-.113.142l.955-.236v-.019c-.038.009-.066.009-.095.019-.01-.2.208-.132.284-.246-.095.028-.19.057-.284.076v-.019c.32-.142.652-.284.974-.425 0 .01.01.01.01.019-.057.038-.113.066-.2.113.041.004.082.01.123.019 0 .028 0 .047-.01.057.162-.01.124-.151.17-.236.029.009.067.028.096.019.083-.021.165-.046.246-.076.095-.028.189-.057.284-.095.15-.066.293-.151.444-.227a.455.455 0 0 1 .113 0 .1.1 0 0 0 .066-.038c.038-.028.076-.085.1-.076a.215.215 0 0 0 .265-.151c.01 0 .01-.01.019-.01.045-.036.093-.07.142-.1.208-.113.406-.227.614-.34.009-.009.028 0 .047 0 .029.002.057 0 .085-.009.123-.057.236-.123.35-.189-.028-.01 0-.019-.094-.028v-.02c.061-.01.121-.026.18-.047l-.02-.019c.247-.246.559-.425.795-.633a.5.5 0 0 0 .095.019.233.233 0 0 0 .01-.076.876.876 0 0 1 .123-.142c.208-.189.435-.35.624-.548.274-.274.539-.558.785-.851.233-.26.447-.534.643-.822.265-.406.492-.822.728-1.248.17-.3.32-.6.492-.907.019-.028.057-.066.085-.066.255-.028.51-.047.756-.076a.728.728 0 0 0 .18-.076c-.028-.047-.047-.1-.076-.151-.03-.051-.094-.1-.132-.161a.904.904 0 0 1-.095-.161c-.028-.047-.057-.085-.085-.132a3.399 3.399 0 0 1-.161-.321.2.2 0 0 1-.02-.1c.17-.369.237-.766.4-1.134a5.79 5.79 0 0 0 .285-1.21c.066-.388.1-.775.15-1.163.029-.274.067-.539.077-.813.042-.415.051-.832.028-1.248v-.004ZM30.226 36.819c-.066-.076-.123-.161-.19-.236l.029-.028c.1.114.208.227.312.35a.457.457 0 0 1-.151-.086Zm.15.085c.029-.009.058-.009.086-.019.028.047.047.1.076.161-.132-.009-.2-.066-.161-.142Zm9.83 3.9v-.024l.53-.057v.028a5.021 5.021 0 0 1-.53.057v-.004Zm2.383-.246c-.132.028-.274.047-.406.066-.047.01-.1.057-.123-.028-.02.009-.038.009-.057.019.047.142.16.028.255.085-.208.028-.406.047-.6.076v-.019l.18-.028V40.7a2.839 2.839 0 0 0-.284-.019c-.028 0-.066.038-.094.047a.484.484 0 0 1-.123.019c-.161.009-.321.009-.473.019-.01 0-.028-.01-.038-.01v-.028l1.89-.255c.009.019.009.038.019.057a.636.636 0 0 0-.142.028h-.004Zm.142-.095c.217-.028.416-.047.624-.076-.435.123-.577.142-.624.076ZM34.5 21.384c.3-.416.614-.832.917-1.257.094-.123.17-.255.265-.378a.6.6 0 0 1 .113-.095l-.01-.019a.87.87 0 0 0 .094-.123 1.94 1.94 0 0 0 .113-.246.134.134 0 0 1 .038-.038c.132.066.132-.076.18-.123.085-.094.17-.2.246-.293a1.86 1.86 0 0 0 .16-.227c.01-.028-.018-.076-.027-.113h-.028c.028-.019.057-.047.085-.066.01 0 .01 0 .019-.009.057-.085.113-.17.17-.246.113-.153.236-.299.369-.435-.02.047-.038.095-.057.132.009 0 .009.01.019.01.113-.151.236-.293.35-.444-.01-.009-.02-.019-.028-.019-.047.047-.085.094-.132.142-.01-.009-.02-.019-.028-.019.095-.123.189-.246.284-.388.028.046.053.093.076.142.038-.095.076-.161.1-.227-.028.028-.066.057-.094.085l-.03-.03.17-.255c.18-.255.36-.52.54-.775.066-.095.15-.17.208-.265a10.1 10.1 0 0 1 .68-.974c.053-.064.11-.125.17-.18.048-.057.086-.038.124.01.255.321.51.652.766.974.189.236.378.463.558.709.217.3.425.6.643.907.246.35.492.7.728 1.059.359.529.7 1.059 1.059 1.588.265.388.529.766.785 1.153h-.482c-.444-.01-.9-.047-1.342-.028-.6.028-1.22.094-1.824.142-.766.066-1.541.076-2.306.076-.274 0-.548.038-.822.057-.331.019-.652.038-.983.047-.388.019-.766.028-1.153.038-.217.01-.444 0-.681 0l-.002.001Zm10.84 4.348v.085c-.01 0-.02.009-.038.009-.038-.132-.076-.274-.123-.406a3.19 3.19 0 0 0-.37-.794c-.188-.265-.358-.539-.547-.813a1.53 1.53 0 0 0-.17-.18 3.308 3.308 0 0 0-.652-.6 7.74 7.74 0 0 0-1.182-.6 2.733 2.733 0 0 1-.331-.17h.227l1.616-.028c.35-.01.69-.01 1.04-.028a.186.186 0 0 1 .18.1c.085.142.17.283.265.425a.18.18 0 0 1 .028.076c0 .208 0 .425.009.633.009.208.028.425.038.643.01.218-.02.444-.01.671.01.321.019.652.019.983v-.006Zm-10.17-3.167c.444-.019.87-.047 1.3-.066.34-.019.69-.028 1.03-.047.138-.014.278-.014.416 0a3.22 3.22 0 0 0-.435.246c-.17.113-.331.265-.5.388a2.89 2.89 0 0 0-.463.435c-.18.217-.378.406-.567.614a5.941 5.941 0 0 0-.4.454c-.161.208-.3.435-.454.671.047-.9.1-1.786.066-2.694l.007-.001Zm6.172 9.093a7.703 7.703 0 0 1-.926.2c-.27.028-.542.038-.813.028-.246 0-.482-.009-.728-.028a2.465 2.465 0 0 1-.813-.18c-.227-.1-.463-.2-.69-.312a1.826 1.826 0 0 1-.624-.454 3.656 3.656 0 0 0-.444-.406c.028.114.1.213.2.274-.047.057-.113.028-.208-.123a.556.556 0 0 1-.076.038c.028-.066.057-.132.085-.189-.038-.076-.085-.161-.123-.236a7.303 7.303 0 0 1-.217-.378c-.02-.028-.02-.057-.038-.085a2.065 2.065 0 0 1-.132-.17 3.82 3.82 0 0 0-.236-.35c0 .028.009.057.009.094a.033.033 0 0 0-.02.009l-.2-.482c-.01 0-.01 0-.018.01l.17.624c-.01 0-.02.01-.028.01a.538.538 0 0 1-.076-.123c-.02-.076-.076-.076-.123-.047a.13.13 0 0 0-.038.113c.066.161.142.321.217.482.018.055.04.11.066.161.01.019.038.038.038.066.032.075.07.148.113.217.085.113.18.227.265.34.085.113.16.236.236.35.01.019.038.019.047.028.047.142.208.246.32.189.029.217.266.293.36.5a3.838 3.838 0 0 1-.274-.123c-.01.01-.01.019-.02.038.114.054.225.114.332.18.095.055.186.115.274.18.115.102.256.17.407.2a.1.1 0 0 0-.02-.038c.266.123.54.255.748.359-.983.019-2.032.038-3.12.057 0-.18-.008-.35-.008-.529a1.75 1.75 0 0 0 .009-.217c-.028-.435-.028-.87-.085-1.295a9.208 9.208 0 0 1-.047-1.352c.009-.246-.01-.5-.02-.747 0-.331 0-.652.01-.983a.349.349 0 0 1 .038-.132h.028c.009.019 0 .047.019.057.028.028.076.076.095.066.057-.038.142-.076.16-.132a.92.92 0 0 0 .067-.35.34.34 0 0 1 .076-.2.877.877 0 0 0 .047-.094c-.038-.028-.076-.047-.123-.085.038-.1.028-.227.17-.284.019-.01.019-.057.028-.085l.028-.236c.013.02.029.04.047.057a.115.115 0 0 1 .019-.028c0-.038-.01-.113 0-.113.113-.019.066-.142.123-.2.009-.009-.01-.038-.01-.057 0-.019 0-.047.01-.047.132-.028.113-.17.2-.236.028-.019.038-.047.076-.094.076.132-.057.2-.066.293.16-.095.208-.321.113-.388a.538.538 0 0 0 .1-.1c.1-.113.217-.217.312-.331.066-.085.1-.189.17-.274a.537.537 0 0 1 .17-.113c.172-.082.322-.205.435-.359a.522.522 0 0 1 .076-.057c.028-.019.085-.019.094-.047.009-.028-.02-.066-.038-.094.038-.019.076-.057.15-.094-.027.057-.037.094-.056.132l.047.047c.085-.066.217-.142.3-.2 0-.009-.047-.047-.047-.047-.057.028-.142.076-.227.113.019-.028.019-.047.028-.057.13-.088.265-.167.406-.236.33-.151.662-.3.992-.444a.464.464 0 0 1 .2-.009.21.21 0 0 0 .076-.009c.15-.047.3-.094.454-.132a.786.786 0 0 1 .208-.028c.284.009.567.009.85.028.12.01.238.036.35.076a3.256 3.256 0 0 1 .889.464c.274.18.529.378.8.539.256.16.475.373.643.624.235.27.417.58.539.917l.142.624c.05.113.073.236.066.359-.047.236-.085.482-.123.718a.964.964 0 0 0-.028.283 1.761 1.761 0 0 1-.208.813c-.038.085-.095.17-.142.265a.27.27 0 0 0 .076.038l.085-.17c.009 0 .009 0 .019.01-.047.132-.085.274-.132.406-.113.293-.227.6-.37.879a4.605 4.605 0 0 1-.3.444c-.094.132-.17.274-.264.4a1.36 1.36 0 0 1-.283.284c-.253.194-.518.37-.794.529a1.986 1.986 0 0 1-.558.208l.007-.011Zm-5.038-.5-.01.009a.237.237 0 0 1-.065-.038l-.23-.34a.11.11 0 0 1-.018-.095c.1.161.208.312.32.463l.003.001Zm5.879 1.295a3.825 3.825 0 0 0 1.1-.728 1.01 1.01 0 0 1 .15-.132c.382-.252.707-.58.956-.964.276-.448.526-.911.747-1.389a.99.99 0 0 1 .057-.1 21.43 21.43 0 0 0 .246 3.2l-3.252.113h-.004Zm9.585-.283c-.01.019-.028.038-.038.057a.587.587 0 0 1-.02-.085c-.056.151-.18.076-.264.076-.51.009-1.03.009-1.541.009-.492 0-.992 0-1.484.01-.161 0-.331.038-.492.047-.388.019-.775.028-1.163.038-.028 0-.057-.047-.1-.085a.624.624 0 0 1-.057.085c-.01-.019-.028-.038-.047-.066a.659.659 0 0 1-.028.076H46.5a2.729 2.729 0 0 1-.057-.388c0-.284.028-.567.038-.851.009-.132 0-.255 0-.378l.1.076a.824.824 0 0 1 .057-.095.158.158 0 0 1-.038-.028c.019-.009.038-.028.038-.038a.387.387 0 0 0 .028-.076 1.015 1.015 0 0 0-.028-.18.035.035 0 0 0 .028-.009l.057.283h.028c-.038-.066.085-.123-.02-.2-.008-.009.01-.066.01-.094a1.967 1.967 0 0 1-.075-.189.23.23 0 0 1 .066-.028.896.896 0 0 0-.094-.047c.094-.085.094-.132.01-.227.019-.009.038-.009.038-.019a1.16 1.16 0 0 0-.02-.255c-.018-.094.029-.208-.112-.265a.285.285 0 0 0 .038.076.272.272 0 0 0-.057.028c-.123-.113-.047-.265-.076-.435.055.016.108.035.16.057-.018-.066-.065-.142-.093-.227h-.038V28.2c0 .009.066.009.1.019 0-.009.009-.019.009-.028-.028-.038-.066-.076-.1-.123l.019-.019a.337.337 0 0 1-.038-.255v-.662c.094.094-.047.217.094.274v-.096h-.01c-.01-.142-.01-.284-.018-.425h-.02c-.008.019-.008.028-.018.047h-.02l.058-2.259c.097.113.186.233.265.359.23.384.486.751.766 1.1.227.312.435.652.643.974.255.388.5.775.756 1.163.189.293.388.586.586.87.18.255.369.5.558.747.16.217.33.435.49.652.19.265.379.529.568.785.094.132.2.265.3.4.06.068.126.128.2.18a.07.07 0 0 1-.038-.01c.02.03.042.058.066.085.1.057.113.113.057.2l.007-.008Zm.482-2.363v-.066c0 .019.009.047 0 .066Zm.32-4.168a.473.473 0 0 1-.075-.066c-.01.028 0 .057-.02.094-.008-.028-.075-.019-.075-.047-.01.132.057.265.047.4.028-.019.142-.028.17-.057a.07.07 0 0 0 .038.019c-.19.142-.142.284-.057.444.019.038.076.113.019.189-.02.019.01.076.019.123h.028v.019l-.085.028c-.02-.028-.132-.085-.132-.132v.482c.094.028.094.161.132.227a.285.285 0 0 0 .038-.076l.01.009a1.11 1.11 0 0 1-.038.17 2.27 2.27 0 0 0-.047.246c0 .009.019.028.019.038-.062.244-.09.495-.085.747-.028.18 0 .369-.02.558-.021.166-.053.33-.093.492-.01.028-.028.038-.076.057a.76.76 0 0 0-.01-.293c-.01 0-.132-.066-.142-.066.022.157.055.311.1.463-.028-.009-.142-.076-.151-.076-.02.113-.02.265-.028.388-.01.094-.095.18-.1.284 0 .057.066.094.057.189h.076c0-.189.085-.359.085-.558h.026c.009.019.038.038.028.047a1.24 1.24 0 0 0-.047.321c0 .057.047.113.028.18a.921.921 0 0 0-.038.2.536.536 0 0 1-.02-.094l-.1-.009c-.008.057.067.113.058.161-.01.01-.02.01-.038.019l-.312-.454c-.246-.359-.492-.718-.737-1.087a2.247 2.247 0 0 1-.17-.284 13.356 13.356 0 0 0-.974-1.446c-.274-.35-.492-.728-.747-1.1-.236-.35-.473-.69-.71-1.04-.084-.113-.188-.217-.264-.34-.246-.388-.463-.785-.71-1.172-.207-.321-.434-.633-.651-.945-.076-.1-.151-.217-.227-.331a.136.136 0 0 1-.02-.066c-.018-.208-.037-.416-.046-.614-.01-.198.019-.378.019-.577v-.17c0-.047.009-.085.009-.132.009-.01.019-.028.028-.038-.274 0-.558-.009-.832 0a.46.46 0 0 1-.4-.2 15.656 15.656 0 0 1-.936-1.3c-.293-.416-.6-.822-.9-1.229-.246-.331-.491-.652-.737-.983-.274-.378-.54-.756-.822-1.134-.34-.454-.69-.907-1.04-1.361-.161-.208-.34-.406-.52-.624.123.019.236.038.35.047l.454.028c.34.028.68.047 1.02.095.285.038.568.095.86.142.624.11 1.237.268 1.835.473.35.113.69.265 1.03.406.76.315 1.5.675 2.217 1.077.203.137.381.305.529.5.246.255.492.51.728.775.274.312.529.633.794.955.236.284.482.567.718.851.072.09.139.186.2.284.15.227.32.444.454.69.088.19.16.385.217.586.094.293.189.577.284.87.066.217.123.444.17.671.038.151.028.312.076.463.057.2 0 .416.057.614l.028.066c.038.038.066.076.01.132a.1.1 0 0 0 0 .076.399.399 0 0 0 .047-.066c0 .019.009.028.009.038a.455.455 0 0 0 0 .113.2.2 0 0 0 .028.066c.024-.02.05-.04.076-.057.074.32.105.647.094.974.04.31.015.626-.076.926.028-.1-.038-.2-.01-.293v.005Z"/><path fill="#DD3735" d="M46.563 29.344a.032.032 0 0 1 .02.01l-.01-.01c0-.009 0-.009-.01 0Zm1.493 9.34a.889.889 0 0 1-.34.17c-.009-.01-.009-.02-.019-.029.1-.066.217-.132.321-.2.01.02.028.038.038.057v.001Zm-17.723-12.81c.1-.132.208-.265.321-.4.01.01.085.028.095.038-.1.132-.246.312-.35.454-.019-.019-.047-.085-.066-.094v.002Zm-2.684 4.632c-.076-.16-.15-.33-.227-.492a.341.341 0 0 1 .085-.038c.09.158.165.322.227.492a.752.752 0 0 1-.085.038Zm2.41-4.537c-.057.085-.113.18-.17.265-.009-.009-.113.038-.123.028.057-.085.2-.236.255-.32.01.01.024.02.038.027Zm16.985 13.1c.01 0 .01-.01.02-.01a1.7 1.7 0 0 0 .216.02c-.123.084-.2.075-.236-.01ZM30.078 26.366a.394.394 0 0 1 .047-.085.197.197 0 0 0 .047-.009c.038-.066.038-.113.076-.17-.009-.009-.019-.009-.028-.019-.057.038-.113.085-.17.123a.052.052 0 0 1 .016.021.057.057 0 0 1 .003.026c-.076-.009-.1.028-.142.132-.01.028-.057.038-.1.076-.009.02-.019.066-.038.113l.01.01a.141.141 0 0 1-.047.028c-.057.057-.123.1-.18.161a.275.275 0 0 0-.019.085c.066-.066.18-.189.265-.265l.01.01c.037-.058.065-.114.1-.17.008.008.008.018.018.027l-.085.236c-.019.01-.047.028-.047.02-.038.027-.066.065-.1.094l-.17.113c-.095.085-.189.161-.293.246-.066.1-.132.2-.208.321.113-.028.142.02.132.113.132.02.142-.085.18-.16.01-.02.02-.058.038-.067.085-.076.18-.142.274-.217a.127.127 0 0 0 .02-.085c0-.009-.048-.009-.077-.019.085-.095.208-.255.293-.359.047-.028.094-.066.094-.095-.01-.1.057-.132.132-.17a.1.1 0 0 1-.047-.066l-.004.001Z"/><path fill="#DD3735" d="M30.267 26.262c-.038.066-.076.123-.113.189l-.054-.028a.56.56 0 0 1-.3.444c.03.02.064.03.1.028.028-.01.047-.057.066-.085l.255-.37.079-.14-.038-.038h.005Zm-3.148 4.15c.047 0 .095.01.151.01 0-.038.047-.028.047-.066h.028c0 .047.01.085.01.132h-.2c-.01-.01-.047-.066-.038-.076h.002Zm-.076-.435c-.028-.028-.076-.057-.076-.085 0-.028.019-.085.047-.132.019.066.028.123.047.189-.01.009-.018.019-.018.028Zm.236-.6c.038.095.076.2.113.293a.285.285 0 0 0-.076.038c-.038-.094-.085-.2-.123-.293a.24.24 0 0 1 .086-.038Zm21.04 9.036c.06-.02.12-.035.18-.047-.073.052-.142.11-.208.17-.01-.01-.019-.02-.028-.02.019-.037.038-.065.057-.1l-.001-.003ZM36.7 18.436c.057-.038.1-.066.161-.1l.019.019c-.057.076-.1.15-.17.246-.009-.066-.009-.1-.019-.151-.009 0 0 0 .01-.01l-.001-.004Zm2.769 4.783.274-.123a.72.72 0 0 0-.01.132.334.334 0 0 0-.095-.02c-.057.01-.161.086-.208.095-.01 0 .038-.076.038-.085h.001Zm7.089 8.015c.019.094.2.142.019.236.028.019.057.028.085.047a.07.07 0 0 1-.019.038c-.019.01-.057.028-.076.019-.019-.01-.028-.038-.028-.057 0-.085.01-.17.019-.283Z"/><path fill="#2AF" d="M20.473 61a.25.25 0 0 1-.184-.072.25.25 0 0 1-.072-.184v-6.656a.25.25 0 0 1 .072-.184.25.25 0 0 1 .184-.072h2.867c.567 0 1.058.089 1.475.266.423.17.75.43.983.779.239.348.358.788.358 1.32 0 .526-.12.96-.358 1.3-.232.342-.56.595-.983.759-.417.163-.908.245-1.475.245h-1.219v2.243a.234.234 0 0 1-.081.184.25.25 0 0 1-.185.072h-1.382Zm1.618-3.912h1.198c.293 0 .525-.075.696-.225.178-.15.266-.379.266-.686a.98.98 0 0 0-.225-.655c-.15-.178-.396-.267-.737-.267H22.09v1.833Zm7.392 4.014c-.573 0-1.058-.092-1.454-.276a2.076 2.076 0 0 1-.901-.789c-.205-.348-.32-.76-.348-1.239a9.346 9.346 0 0 1 0-.921c.027-.485.15-.898.368-1.24.219-.34.523-.603.912-.788.396-.184.87-.276 1.423-.276.56 0 1.034.092 1.424.276.395.185.703.447.921.789.219.341.341.754.369 1.239a9.346 9.346 0 0 1 0 .922c-.028.477-.147.89-.359 1.238a2.003 2.003 0 0 1-.9.789c-.39.184-.874.276-1.455.276Zm0-1.249c.307 0 .53-.092.666-.276.143-.185.225-.461.246-.83.006-.102.01-.239.01-.41 0-.17-.004-.307-.01-.409-.02-.362-.103-.635-.246-.82-.137-.19-.359-.286-.666-.286-.3 0-.522.096-.665.287-.144.184-.222.457-.236.819-.007.102-.01.239-.01.41 0 .17.003.307.01.41.014.368.092.644.236.829.143.184.365.276.665.276Zm5.923 1.25c-.444 0-.823-.048-1.137-.144a2.799 2.799 0 0 1-.758-.369 1.732 1.732 0 0 1-.43-.44c-.096-.157-.147-.29-.154-.4a.207.207 0 0 1 .072-.184.245.245 0 0 1 .174-.082h1.168a.12.12 0 0 1 .05.01.522.522 0 0 1 .062.042c.089.047.178.109.266.184.09.068.192.13.308.184a.98.98 0 0 0 .42.082.947.947 0 0 0 .48-.112.366.366 0 0 0 .195-.338c0-.11-.03-.198-.092-.267-.061-.075-.188-.146-.379-.215a5.363 5.363 0 0 0-.84-.204 4.374 4.374 0 0 1-.931-.318 1.607 1.607 0 0 1-.615-.522 1.405 1.405 0 0 1-.215-.789c0-.273.09-.535.267-.788.177-.253.437-.457.778-.614.341-.164.761-.246 1.26-.246.395 0 .737.048 1.023.143.294.089.54.205.738.348.204.144.358.29.46.44.103.15.157.287.164.41a.235.235 0 0 1-.061.185.226.226 0 0 1-.164.071H36.45a.338.338 0 0 1-.082-.01.672.672 0 0 1-.072-.041 1.281 1.281 0 0 1-.245-.164 1.476 1.476 0 0 0-.287-.184.912.912 0 0 0-.41-.082c-.184 0-.327.04-.43.123a.408.408 0 0 0-.072.563c.062.075.181.143.359.205.184.061.468.13.85.205.47.075.846.198 1.126.368.28.164.478.359.594.584.116.218.174.45.174.696 0 .328-.099.618-.297.87-.19.253-.477.451-.86.595-.382.136-.846.204-1.392.204ZM41.568 61c-.437 0-.816-.068-1.137-.205a1.578 1.578 0 0 1-.727-.655c-.17-.3-.256-.686-.256-1.157v-1.966h-.798a.286.286 0 0 1-.195-.072.25.25 0 0 1-.072-.184v-.83a.25.25 0 0 1 .072-.184.286.286 0 0 1 .195-.072h.798v-1.69a.25.25 0 0 1 .072-.184.273.273 0 0 1 .184-.071h1.188a.25.25 0 0 1 .184.071.25.25 0 0 1 .072.185v1.69h1.28a.25.25 0 0 1 .184.07.25.25 0 0 1 .072.185v.83a.25.25 0 0 1-.072.184.25.25 0 0 1-.184.072h-1.28v1.822c0 .233.044.417.133.553.089.137.24.205.45.205h.79a.25.25 0 0 1 .184.072.25.25 0 0 1 .071.184v.891a.25.25 0 0 1-.071.184.25.25 0 0 1-.185.072h-.952Zm4.504.102c-.506 0-.953-.092-1.342-.276-.389-.184-.7-.45-.932-.799-.225-.355-.348-.778-.368-1.27a6.791 6.791 0 0 1-.01-.41c0-.17.003-.31.01-.419.02-.498.143-.922.368-1.27a2.17 2.17 0 0 1 .922-.809 3.168 3.168 0 0 1 1.352-.276c.47 0 .873.068 1.208.205.334.13.607.293.819.491.212.198.369.403.471.614.11.205.167.386.174.543a.221.221 0 0 1-.072.185.273.273 0 0 1-.184.071h-1.3a.264.264 0 0 1-.174-.051.47.47 0 0 1-.113-.154c-.082-.211-.188-.361-.318-.45a.803.803 0 0 0-.48-.133c-.274 0-.486.089-.636.266-.143.178-.221.45-.235.82-.007.272-.007.515 0 .726.014.376.092.649.235.82.15.17.362.255.635.255.212 0 .38-.044.502-.133.123-.088.222-.239.297-.45a.47.47 0 0 1 .113-.154.264.264 0 0 1 .174-.051h1.3c.068 0 .13.027.184.082a.195.195 0 0 1 .072.174 1.38 1.38 0 0 1-.102.41 2.313 2.313 0 0 1-.799.962c-.205.143-.454.26-.748.348a3.55 3.55 0 0 1-1.023.133Zm5.783 0c-.443 0-.822-.047-1.136-.143a2.799 2.799 0 0 1-.758-.369 1.732 1.732 0 0 1-.43-.44c-.096-.157-.147-.29-.154-.4a.207.207 0 0 1 .072-.184.245.245 0 0 1 .174-.082h1.168a.12.12 0 0 1 .05.01.522.522 0 0 1 .062.042c.089.047.178.109.266.184.09.068.192.13.308.184a.98.98 0 0 0 .42.082.947.947 0 0 0 .48-.112.366.366 0 0 0 .195-.338c0-.11-.03-.198-.092-.267-.061-.075-.188-.146-.379-.215a5.363 5.363 0 0 0-.84-.204 4.374 4.374 0 0 1-.931-.318 1.607 1.607 0 0 1-.615-.522 1.405 1.405 0 0 1-.215-.789c0-.273.09-.535.267-.788.177-.253.436-.457.778-.614.341-.164.761-.246 1.26-.246.395 0 .737.048 1.023.143.294.089.54.205.738.348.204.144.358.29.46.44.103.15.157.287.164.41a.235.235 0 0 1-.061.185.226.226 0 0 1-.164.071H52.9a.338.338 0 0 1-.082-.01.672.672 0 0 1-.072-.041 1.281 1.281 0 0 1-.245-.164 1.476 1.476 0 0 0-.287-.184.912.912 0 0 0-.41-.082c-.184 0-.327.04-.43.123a.408.408 0 0 0-.072.563c.062.075.181.143.359.205.184.061.468.13.85.205.47.075.846.198 1.126.368.28.164.478.359.594.584.116.218.174.45.174.696 0 .328-.099.618-.297.87-.19.253-.477.451-.86.595-.382.136-.846.204-1.392.204Zm5.66 0c-.443 0-.822-.047-1.136-.143a2.799 2.799 0 0 1-.758-.369 1.732 1.732 0 0 1-.43-.44c-.096-.157-.147-.29-.154-.4a.207.207 0 0 1 .072-.184.245.245 0 0 1 .174-.082h1.168a.12.12 0 0 1 .05.01.522.522 0 0 1 .062.042c.089.047.178.109.266.184.09.068.192.13.308.184a.98.98 0 0 0 .42.082.947.947 0 0 0 .48-.112.366.366 0 0 0 .195-.338c0-.11-.03-.198-.092-.267-.061-.075-.188-.146-.379-.215a5.363 5.363 0 0 0-.84-.204 4.374 4.374 0 0 1-.931-.318 1.607 1.607 0 0 1-.615-.522 1.405 1.405 0 0 1-.215-.789c0-.273.09-.535.267-.788.177-.253.437-.457.778-.614.341-.164.761-.246 1.26-.246.395 0 .737.048 1.023.143.294.089.54.205.738.348.204.144.358.29.46.44.103.15.157.287.164.41a.235.235 0 0 1-.061.185.226.226 0 0 1-.164.071H58.56a.338.338 0 0 1-.082-.01.672.672 0 0 1-.072-.041 1.281 1.281 0 0 1-.245-.164 1.476 1.476 0 0 0-.287-.184.912.912 0 0 0-.41-.082c-.184 0-.327.04-.43.123a.408.408 0 0 0-.072.563c.062.075.181.143.359.205.184.061.468.13.85.205.47.075.846.198 1.126.368.28.164.478.359.594.584.116.218.174.45.174.696 0 .328-.099.618-.297.87-.19.253-.477.451-.86.595-.382.136-.846.204-1.392.204Z"/></g><defs><filter id="a" width="80" height="80" x="0" y="0" color-interpolation-filters="sRGB" filterUnits="userSpaceOnUse"><feFlood flood-opacity="0" result="BackgroundImageFix"/><feColorMatrix in="SourceAlpha" result="hardAlpha" values="0 0 0 0 0 0 0 0 0 0 0 0 0 0 0 0 0 0 127 0"/><feOffset dy="2"/><feGaussianBlur stdDeviation="4"/><feColorMatrix values="0 0 0 0 0 0 0 0 0 0 0 0 0 0 0 0 0 0 0.75 0"/><feBlend in2="BackgroundImageFix" result="effect1_dropShadow_601_5352"/><feBlend in="SourceGraphic" in2="effect1_dropShadow_601_5352" result="shape"/></filter></defs></svg>