<svg xmlns="http://www.w3.org/2000/svg" width="80" height="80" fill="rgba(0,0,255,0.2)"><g><rect width="64" height="64" x="8" y="6" fill="#0D1117" rx="5"/><path fill="url(#b)" fill-rule="evenodd" d="M27.174 37.589a1.155 1.155 0 0 1-.928-.423 1.234 1.234 0 0 1-.21-1.052l4.197-18.334a1.8 1.8 0 0 1 1.681-1.37h20.912a1.157 1.157 0 0 1 .928.423 1.235 1.235 0 0 1 .21 1.052l-4.2 18.335a1.8 1.8 0 0 1-1.681 1.37H27.174v-.001Z" clip-rule="evenodd"/><path fill="url(#c)" fill-rule="evenodd" d="M31.914 16.646h20.912a.913.913 0 0 1 .908 1.187l-4.2 18.334a1.576 1.576 0 0 1-1.451 1.187H27.174a.912.912 0 0 1-.908-1.187l4.2-18.334a1.574 1.574 0 0 1 1.448-1.187Z" clip-rule="evenodd"/><path fill="#2C5591" fill-rule="evenodd" d="M40.04 32.544h5.086a1.118 1.118 0 0 1 0 2.234H40.04a1.118 1.118 0 0 1 0-2.234Zm3.3-4.966c-.147.245-.35.45-.592.6l-9.439 6.775a1.224 1.224 0 0 1-1.438-1.977l8.512-6.164v-.126L35.035 21a1.224 1.224 0 0 1 1.782-1.672l6.418 6.827a1.166 1.166 0 0 1 .104 1.423Z" clip-rule="evenodd"/><path fill="#fff" fill-rule="evenodd" d="M43.1 27.342a1.748 1.748 0 0 1-.59.6l-9.436 6.776a1.225 1.225 0 0 1-1.439-1.977l8.513-6.164v-.127L34.8 20.761a1.224 1.224 0 0 1 1.783-1.672L43 25.916a1.162 1.162 0 0 1 .1 1.426Zm-3.2 5.07h5.086a1.06 1.06 0 0 1 0 2.118H39.9a1.06 1.06 0 0 1 0-2.118Z" clip-rule="evenodd"/><path fill="#2AF" d="M18.24 60a.2.2 0 0 1-.148-.057.2.2 0 0 1-.057-.148v-5.323a.2.2 0 0 1 .057-.148.2.2 0 0 1 .148-.057h2.293c.453 0 .846.071 1.18.213.338.136.6.344.785.622.191.279.287.631.287 1.057 0 .42-.096.767-.287 1.04a1.635 1.635 0 0 1-.786.606c-.333.131-.726.197-1.18.197h-.974v1.793a.19.19 0 0 1-.065.148.2.2 0 0 1-.148.057H18.24Zm1.294-3.129h.958c.235 0 .42-.06.557-.18.142-.12.213-.303.213-.549a.784.784 0 0 0-.18-.524c-.12-.142-.317-.213-.59-.213h-.958v1.466Zm5.912 3.21c-.459 0-.846-.073-1.163-.22a1.662 1.662 0 0 1-.72-.63 2.17 2.17 0 0 1-.279-.992 7.4 7.4 0 0 1 0-.737c.022-.388.12-.718.295-.99.174-.274.418-.484.729-.632.316-.147.696-.22 1.138-.22.448 0 .827.073 1.138.22.317.148.563.358.738.631.174.273.273.603.294.991a7.202 7.202 0 0 1 0 .737 2.11 2.11 0 0 1-.286.991 1.602 1.602 0 0 1-.72.63c-.312.148-.7.222-1.164.222Zm0-.998c.246 0 .423-.074.532-.221.115-.148.18-.369.197-.664.005-.082.008-.19.008-.327s-.003-.246-.008-.328c-.016-.29-.082-.508-.197-.655-.109-.153-.286-.23-.532-.23-.24 0-.418.077-.532.23-.115.147-.178.366-.189.655a5.135 5.135 0 0 0-.008.328c0 .136.003.245.008.327.011.295.074.516.189.664.114.147.292.22.532.22ZM29.49 60c-.082 0-.142-.02-.18-.057a.395.395 0 0 1-.09-.148l-1.18-3.792a.22.22 0 0 1-.016-.082c0-.049.019-.09.057-.123a.18.18 0 0 1 .131-.057h.844c.07 0 .125.02.163.057a.255.255 0 0 1 .082.115l.688 2.343.737-2.335a.272.272 0 0 1 .074-.114.244.244 0 0 1 .18-.066h.54c.077 0 .135.022.173.066a.25.25 0 0 1 .082.114l.737 2.334.688-2.342a.272.272 0 0 1 .073-.114.252.252 0 0 1 .172-.058h.844c.05 0 .09.02.123.057a.155.155 0 0 1 .057.123.421.421 0 0 1-.008.082l-1.18 3.792a.293.293 0 0 1-.09.148c-.038.038-.098.057-.18.057h-.737a.264.264 0 0 1-.18-.057.293.293 0 0 1-.09-.148l-.753-2.244-.754 2.244a.293.293 0 0 1-.09.148.264.264 0 0 1-.18.057h-.737Zm7.512.082c-.644 0-1.157-.175-1.54-.524-.382-.35-.581-.868-.597-1.556v-.287c.016-.431.111-.8.286-1.106a1.76 1.76 0 0 1 .737-.704 2.374 2.374 0 0 1 1.106-.246c.48 0 .876.096 1.188.287.316.191.554.45.712.778.158.328.238.702.238 1.122v.197c0 .06-.022.109-.066.147a.19.19 0 0 1-.14.057h-2.62v.058c.006.158.033.303.082.434a.618.618 0 0 0 .606.426c.11 0 .2-.017.27-.05a.861.861 0 0 0 .189-.122c.049-.05.087-.09.114-.123a.384.384 0 0 1 .115-.098.342.342 0 0 1 .147-.025h1.016c.055 0 .098.016.13.05.04.026.056.067.05.122-.005.093-.052.205-.14.336a1.72 1.72 0 0 1-.384.393c-.164.125-.371.23-.622.311a2.827 2.827 0 0 1-.877.123Zm-.696-2.645h1.384v-.017c0-.175-.027-.327-.082-.459a.602.602 0 0 0-.237-.303.65.65 0 0 0-.377-.106.651.651 0 0 0-.377.106.69.69 0 0 0-.23.303 1.186 1.186 0 0 0-.081.46v.016ZM40.104 60a.2.2 0 0 1-.147-.057.2.2 0 0 1-.058-.148v-3.85a.19.19 0 0 1 .058-.138.187.187 0 0 1 .147-.066h.942c.06 0 .11.022.147.066a.19.19 0 0 1 .058.139v.328c.147-.17.322-.3.524-.394a1.7 1.7 0 0 1 .696-.139h.36a.19.19 0 0 1 .14.057.187.187 0 0 1 .065.148v.843a.203.203 0 0 1-.065.148.19.19 0 0 1-.14.057h-.794c-.224 0-.399.063-.524.189-.12.12-.18.292-.18.516v2.096c0 .06-.022.11-.066.148a.2.2 0 0 1-.147.057h-1.016Zm5.267.082c-.355 0-.658-.038-.909-.115a2.237 2.237 0 0 1-.606-.295 1.384 1.384 0 0 1-.344-.352.74.74 0 0 1-.123-.32.165.165 0 0 1 .057-.147.195.195 0 0 1 .14-.065h.933a.09.09 0 0 1 .041.008.36.36 0 0 1 .05.033c.07.038.141.087.212.147.071.055.153.104.246.148a.785.785 0 0 0 .336.065c.153 0 .281-.03.385-.09a.293.293 0 0 0 .155-.27.306.306 0 0 0-.073-.213c-.05-.06-.15-.117-.303-.172a4.293 4.293 0 0 0-.672-.164 3.5 3.5 0 0 1-.745-.254 1.286 1.286 0 0 1-.492-.418 1.123 1.123 0 0 1-.172-.63c0-.218.071-.429.213-.63.142-.203.35-.367.623-.492.273-.131.609-.197 1.007-.197.317 0 .59.038.82.115.234.07.43.164.589.278.164.115.287.233.368.353.082.12.126.229.131.327a.188.188 0 0 1-.049.148.18.18 0 0 1-.13.057h-.852a.267.267 0 0 1-.066-.008.533.533 0 0 1-.057-.033 1.027 1.027 0 0 1-.197-.131 1.18 1.18 0 0 0-.23-.148.73.73 0 0 0-.327-.065.537.537 0 0 0-.344.098.327.327 0 0 0-.057.45c.049.06.145.115.286.164.148.05.374.104.68.164.377.06.677.159.901.295.224.131.382.287.475.467.093.175.14.36.14.557a1.1 1.1 0 0 1-.238.696c-.153.202-.382.36-.688.475-.306.11-.677.164-1.114.164Zm2.98-.082a.2.2 0 0 1-.148-.057.2.2 0 0 1-.058-.148V54.39a.2.2 0 0 1 .058-.148.2.2 0 0 1 .147-.057h1.048a.2.2 0 0 1 .148.057.2.2 0 0 1 .057.148v1.826c.148-.169.328-.303.54-.401.22-.104.47-.156.754-.156.317 0 .598.071.844.213.25.142.447.352.59.63.141.274.212.61.212 1.008v2.285a.2.2 0 0 1-.057.148.2.2 0 0 1-.147.057h-1.057a.218.218 0 0 1-.147-.057.2.2 0 0 1-.058-.148V57.56c0-.256-.062-.453-.188-.59-.12-.141-.3-.212-.54-.212a.715.715 0 0 0-.541.213c-.137.136-.205.333-.205.59v2.235a.2.2 0 0 1-.057.148.2.2 0 0 1-.148.057H48.35Zm7.087.082c-.645 0-1.158-.175-1.54-.524-.382-.35-.582-.868-.598-1.556v-.287c.016-.431.112-.8.287-1.106a1.76 1.76 0 0 1 .737-.704 2.374 2.374 0 0 1 1.105-.246c.48 0 .877.096 1.188.287.317.191.554.45.713.778.158.328.237.702.237 1.122v.197c0 .06-.022.109-.066.147a.19.19 0 0 1-.139.057h-2.62v.058c.005.158.032.303.081.434a.618.618 0 0 0 .606.426c.11 0 .2-.017.27-.05a.864.864 0 0 0 .19-.122c.048-.05.086-.09.114-.123a.386.386 0 0 1 .114-.098.342.342 0 0 1 .148-.025h1.015c.055 0 .099.016.131.05.039.026.055.067.05.122a.721.721 0 0 1-.14.336 1.72 1.72 0 0 1-.385.393c-.163.125-.37.23-.622.311a2.827 2.827 0 0 1-.876.123Zm-.697-2.645h1.385v-.017c0-.175-.028-.327-.082-.459a.602.602 0 0 0-.238-.303.651.651 0 0 0-.377-.106.65.65 0 0 0-.376.106.69.69 0 0 0-.23.303 1.186 1.186 0 0 0-.081.46v.016ZM58.54 60a.2.2 0 0 1-.148-.057.2.2 0 0 1-.057-.148V54.39a.2.2 0 0 1 .057-.148.2.2 0 0 1 .148-.057h.966a.2.2 0 0 1 .147.057.2.2 0 0 1 .058.148v5.405a.2.2 0 0 1-.058.148.2.2 0 0 1-.147.057h-.966Zm2.343 0a.2.2 0 0 1-.147-.057.2.2 0 0 1-.058-.148V54.39a.2.2 0 0 1 .058-.148.2.2 0 0 1 .147-.057h.966a.2.2 0 0 1 .148.057.2.2 0 0 1 .057.148v5.405a.2.2 0 0 1-.057.148.2.2 0 0 1-.148.057h-.966Z"/></g><defs><linearGradient id="b" x1="47.325" x2="31.26" y1="33.543" y2="19.193" gradientUnits="userSpaceOnUse"><stop stop-color="#5391FE"/><stop offset="1" stop-color="#3E6DBF"/></linearGradient><linearGradient id="c" x1="31.1" x2="47.001" y1="19.002" y2="33.292" gradientUnits="userSpaceOnUse"><stop stop-color="#5391FE"/><stop offset="1" stop-color="#3E6DBF"/></linearGradient><filter id="a" width="80" height="80" x="0" y="0" color-interpolation-filters="sRGB" filterUnits="userSpaceOnUse"><feFlood flood-opacity="0" result="BackgroundImageFix"/><feColorMatrix in="SourceAlpha" result="hardAlpha" values="0 0 0 0 0 0 0 0 0 0 0 0 0 0 0 0 0 0 127 0"/><feOffset dy="2"/><feGaussianBlur stdDeviation="4"/><feColorMatrix values="0 0 0 0 0 0 0 0 0 0 0 0 0 0 0 0 0 0 0.75 0"/><feBlend in2="BackgroundImageFix" result="effect1_dropShadow_603_552"/><feBlend in="SourceGraphic" in2="effect1_dropShadow_603_552" result="shape"/></filter></defs></svg>