<svg xmlns="http://www.w3.org/2000/svg" width="80" height="80" fill="rgba(0,0,255,0.2)"><g><rect width="64" height="64" x="8" y="6" fill="#0D1117" rx="5"/><path fill="#56B3B4" d="M45.714 19.571h1.143a.57.57 0 0 1 0 1.142h-1.143a.57.57 0 1 1 0-1.142Z"/><path fill="#EA5E5E" d="M28.571 37.857h5.714a.571.571 0 0 1 0 1.142h-5.714a.57.57 0 1 1 0-1.142Z"/><path fill="#BF85BF" d="M42.286 28.714h3.43a.57.57 0 0 1 0 1.142h-3.43a.57.57 0 1 1 0-1.142Z"/><path fill="#EA5E5E" d="M35.429 28.714h4.57a.571.571 0 0 1 0 1.142h-4.57a.57.57 0 1 1 0-1.142Z"/><path fill="#56B3B4" d="M28.571 28.714h4.572a.571.571 0 0 1 0 1.142h-4.572a.57.57 0 1 1 0-1.142Z"/><path fill="#BF85BF" d="M28.571 33.286h5.714a.571.571 0 1 1 0 1.142h-5.714a.571.571 0 0 1 0-1.142Zm0-9.143h5.714a.571.571 0 1 1 0 1.142h-5.714a.571.571 0 0 1 0-1.142Z"/><path fill="#F7BA3E" d="M34.286 17.286h11.428a.57.57 0 1 1 0 1.142H34.286a.571.571 0 0 1 0-1.142Z"/><path fill="#EA5E5E" d="M28.571 17.286H32a.571.571 0 1 1 0 1.143h-3.429a.57.57 0 0 1-.571-.572.572.572 0 0 1 .571-.571Z"/><path fill="#F7BA3E" d="M33.143 35.571h1.143a.571.571 0 0 1 0 1.142h-1.143a.57.57 0 1 1 0-1.142Z"/><path fill="#56B3B4" d="M33.143 21.857h1.143a.571.571 0 0 1 0 1.142h-1.143a.57.57 0 1 1 0-1.142Zm-4.572 13.714h2.286a.571.571 0 0 1 0 1.142h-2.286a.571.571 0 0 1 0-1.142Z"/><path fill="#F7BA3E" d="M28.571 21.857h2.286a.571.571 0 0 1 0 1.143h-2.286a.571.571 0 1 1 0-1.143Z"/><path fill="#4D616E" d="M43.429 35.571h1.143a.571.571 0 0 1 0 1.142h-1.143a.57.57 0 1 1 0-1.142Zm-6.858 0h4.571a.571.571 0 0 1 0 1.142h-4.571a.571.571 0 0 1 0-1.142Zm10.286 0h4.57a.57.57 0 0 1 0 1.142h-4.57a.571.571 0 1 1 0-1.142Z" opacity=".5"/><path fill="#56B3B4" d="M37.714 26.429h9.143a.57.57 0 1 1 0 1.142h-9.143a.571.571 0 0 1 0-1.142Z"/><path fill="#F7BA3E" d="M32 26.429h3.429a.57.57 0 1 1 0 1.142H32a.571.571 0 0 1 0-1.142Z"/><path fill="#EA5E5E" d="M28.571 26.429h1.143a.57.57 0 1 1 .001 1.142h-1.144a.571.571 0 0 1 0-1.142Z"/><path fill="#BF85BF" d="M38.857 19.571h4.57a.571.571 0 1 1 .002 1.143h-4.572a.571.571 0 1 1 0-1.143Z"/><path fill="#56B3B4" d="M28.571 19.571h8a.571.571 0 0 1 0 1.142h-8a.571.571 0 0 1 0-1.142Z"/><path fill="#F7BA3E" d="M32 31h10.286a.571.571 0 0 1 0 1.142H32A.571.571 0 0 1 32 31Z"/><path fill="#BF85BF" d="M28.571 31h1.143a.57.57 0 0 1 0 1.142h-1.143a.572.572 0 0 1 0-1.142Z"/><path fill="#EA5E5E" d="M42.286 21.857H48A.57.57 0 0 1 48 23h-5.714a.57.57 0 1 1 0-1.143Z"/><path fill="#F7BA3E" d="M42.286 24.143H48a.57.57 0 1 1 0 1.142h-5.714a.571.571 0 0 1 0-1.142Z"/><path fill="#56B3B4" d="M28.571 15h13.715a.572.572 0 0 1 0 1.142H28.571a.572.572 0 0 1 0-1.142Z"/><path fill="#4D616E" d="M44.571 15h6.857a.57.57 0 1 1 .001 1.142h-6.858a.57.57 0 0 1 0-1.142Zm0 16h2.286a.57.57 0 0 1 0 1.142h-2.286a.57.57 0 0 1 0-1.142Zm4.572 0h2.286a.57.57 0 0 1 0 1.142h-2.286a.571.571 0 0 1 0-1.142ZM48 28.714h3.429a.57.57 0 0 1 0 1.142H48a.57.57 0 1 1 0-1.142Zm0-11.428h3.429a.57.57 0 1 1 0 1.142H48a.571.571 0 0 1 0-1.142Zm1.143 9.143h2.286a.57.57 0 1 1 0 1.142h-2.286a.572.572 0 0 1-.404-.975.573.573 0 0 1 .404-.167Zm0-6.858h2.286a.57.57 0 1 1 0 1.143h-2.286a.57.57 0 1 1 0-1.143Zm1.143 2.286h1.143a.57.57 0 0 1 0 1.142h-1.143a.57.57 0 1 1 0-1.142Zm0 2.286h1.143a.57.57 0 1 1 0 1.142h-1.143a.571.571 0 0 1 0-1.142Zm-9.143 9.143h10.286a.57.57 0 1 1 0 1.142H41.143a.57.57 0 0 1 0-1.142Zm-4.572 0h2.286a.571.571 0 1 1 0 1.142h-2.286a.571.571 0 0 1 0-1.142Zm9.143 4.571h5.714a.57.57 0 0 1 0 1.142h-5.714a.57.57 0 1 1 0-1.142Zm-9.143 0h6.857a.571.571 0 0 1 0 1.142h-6.857a.57.57 0 1 1 0-1.142Zm0-16H40A.571.571 0 0 1 40 23h-3.429a.571.571 0 1 1 0-1.143Zm0 2.286H40a.571.571 0 1 1 0 1.142h-3.429a.571.571 0 0 1 0-1.142Z" opacity=".5"/><path fill="#E5E5E5" d="M20.473 61a.25.25 0 0 1-.184-.072.25.25 0 0 1-.072-.184v-6.656a.25.25 0 0 1 .072-.184.25.25 0 0 1 .184-.072h2.867c.567 0 1.058.089 1.475.266.423.17.75.43.983.779.239.348.358.788.358 1.32 0 .526-.12.96-.358 1.3-.232.342-.56.595-.983.759-.417.163-.908.245-1.475.245h-1.219v2.243a.234.234 0 0 1-.081.184.25.25 0 0 1-.185.072h-1.382Zm1.618-3.912h1.198c.293 0 .525-.075.696-.225.178-.15.266-.379.266-.686a.98.98 0 0 0-.225-.655c-.15-.178-.396-.267-.737-.267H22.09v1.833ZM27.28 61a.25.25 0 0 1-.185-.072.25.25 0 0 1-.072-.184v-4.813c0-.068.024-.126.072-.174a.234.234 0 0 1 .184-.082h1.178c.075 0 .136.028.184.082a.237.237 0 0 1 .072.174v.41c.184-.212.402-.376.655-.492.26-.116.55-.174.87-.174h.451c.068 0 .126.024.174.072.055.048.082.11.082.184v1.055c0 .068-.027.13-.082.184a.237.237 0 0 1-.174.072h-.993c-.28 0-.498.078-.656.235-.15.15-.225.366-.225.646v2.621a.234.234 0 0 1-.082.184.25.25 0 0 1-.184.072h-1.27Zm6.81.102c-.805 0-1.447-.218-1.924-.655-.478-.437-.727-1.085-.748-1.946v-.358c.02-.54.14-1 .358-1.382.226-.39.533-.683.922-.881.396-.205.857-.307 1.383-.307.6 0 1.095.12 1.484.358.396.24.693.563.891.973.198.41.297.877.297 1.403v.246a.234.234 0 0 1-.082.184.237.237 0 0 1-.174.072H33.22v.071c.007.198.041.38.103.543a.772.772 0 0 0 .758.532.82.82 0 0 0 .337-.06c.096-.049.175-.1.236-.155a2.12 2.12 0 0 0 .143-.153.482.482 0 0 1 .144-.123c.04-.02.102-.03.184-.03h1.27c.068 0 .123.02.164.06.047.035.068.086.061.154-.007.116-.065.256-.174.42a2.16 2.16 0 0 1-.481.492 2.591 2.591 0 0 1-.779.389 3.549 3.549 0 0 1-1.095.153Zm-.87-3.307h1.73v-.02c0-.22-.033-.41-.102-.574a.752.752 0 0 0-.296-.379.814.814 0 0 0-.471-.133.813.813 0 0 0-.471.133.86.86 0 0 0-.287.379 1.482 1.482 0 0 0-.103.573v.02ZM40.428 61c-.437 0-.816-.068-1.137-.205a1.578 1.578 0 0 1-.727-.655c-.17-.3-.256-.686-.256-1.157v-1.966h-.798a.286.286 0 0 1-.195-.072.25.25 0 0 1-.072-.184v-.83a.25.25 0 0 1 .072-.184.286.286 0 0 1 .195-.072h.798v-1.69a.25.25 0 0 1 .072-.184.273.273 0 0 1 .184-.071h1.188a.25.25 0 0 1 .184.071.25.25 0 0 1 .072.185v1.69h1.28a.25.25 0 0 1 .184.07.25.25 0 0 1 .072.185v.83a.25.25 0 0 1-.072.184.25.25 0 0 1-.184.072h-1.28v1.822c0 .233.044.417.133.553.089.137.24.205.45.205h.79a.25.25 0 0 1 .184.072.25.25 0 0 1 .071.184v.891a.25.25 0 0 1-.071.184.25.25 0 0 1-.185.072h-.952Zm4.78 0c-.437 0-.816-.068-1.137-.205a1.578 1.578 0 0 1-.727-.655c-.17-.3-.256-.686-.256-1.157v-1.966h-.798a.286.286 0 0 1-.195-.072.25.25 0 0 1-.072-.184v-.83a.25.25 0 0 1 .072-.184.286.286 0 0 1 .195-.072h.798v-1.69a.25.25 0 0 1 .072-.184.273.273 0 0 1 .184-.071h1.188a.25.25 0 0 1 .185.071.25.25 0 0 1 .071.185v1.69h1.28a.25.25 0 0 1 .184.07.25.25 0 0 1 .072.185v.83a.25.25 0 0 1-.072.184.25.25 0 0 1-.184.072h-1.28v1.822c0 .233.045.417.133.553.089.137.24.205.45.205h.79a.25.25 0 0 1 .184.072.25.25 0 0 1 .071.184v.891a.25.25 0 0 1-.071.184.25.25 0 0 1-.185.072h-.952Zm2.312 0a.25.25 0 0 1-.184-.072.25.25 0 0 1-.072-.184v-4.813a.25.25 0 0 1 .072-.184.25.25 0 0 1 .184-.072h1.208c.069 0 .127.024.175.072.054.048.081.11.081.184v4.813a.234.234 0 0 1-.081.184.237.237 0 0 1-.175.072H47.52Zm-.01-6.093a.25.25 0 0 1-.184-.071.25.25 0 0 1-.072-.185v-.911a.25.25 0 0 1 .072-.184.234.234 0 0 1 .184-.082h1.218c.076 0 .137.027.185.082a.234.234 0 0 1 .082.184v.911a.234.234 0 0 1-.082.184.25.25 0 0 1-.184.072h-1.22Zm5.182 6.195c-.806 0-1.447-.218-1.925-.655-.478-.437-.727-1.085-.748-1.946v-.358c.02-.54.14-1 .358-1.382.226-.39.533-.683.922-.881.396-.205.857-.307 1.383-.307.6 0 1.095.12 1.484.358.396.24.693.563.891.973.198.41.297.877.297 1.403v.246a.234.234 0 0 1-.082.184.237.237 0 0 1-.174.072h-3.277v.071c.007.198.041.38.103.543a.772.772 0 0 0 .758.532.82.82 0 0 0 .337-.06c.096-.049.175-.1.236-.155a2.12 2.12 0 0 0 .143-.153.482.482 0 0 1 .144-.123c.04-.02.102-.03.184-.03h1.27c.068 0 .123.02.164.06.047.035.068.086.061.154-.007.116-.065.256-.174.42a2.16 2.16 0 0 1-.481.492 2.591 2.591 0 0 1-.779.389 3.549 3.549 0 0 1-1.095.153Zm-.87-3.307h1.73v-.02c0-.22-.034-.41-.102-.574a.752.752 0 0 0-.297-.379.814.814 0 0 0-.471-.133.813.813 0 0 0-.471.133.86.86 0 0 0-.287.379 1.482 1.482 0 0 0-.103.573v.02ZM56.57 61a.25.25 0 0 1-.184-.072.25.25 0 0 1-.072-.184v-4.813c0-.068.024-.126.072-.174a.234.234 0 0 1 .184-.082h1.178c.075 0 .136.028.184.082a.237.237 0 0 1 .072.174v.41c.184-.212.403-.376.655-.492.26-.116.55-.174.87-.174h.451c.068 0 .126.024.174.072.055.048.082.11.082.184v1.055c0 .068-.027.13-.082.184a.237.237 0 0 1-.174.072h-.993c-.28 0-.498.078-.656.235-.15.15-.225.366-.225.646v2.621a.234.234 0 0 1-.082.184.25.25 0 0 1-.184.072h-1.27Z"/></g><defs><filter id="a" width="80" height="80" x="0" y="0" color-interpolation-filters="sRGB" filterUnits="userSpaceOnUse"><feFlood flood-opacity="0" result="BackgroundImageFix"/><feColorMatrix in="SourceAlpha" result="hardAlpha" values="0 0 0 0 0 0 0 0 0 0 0 0 0 0 0 0 0 0 127 0"/><feOffset dy="2"/><feGaussianBlur stdDeviation="4"/><feColorMatrix values="0 0 0 0 0 0 0 0 0 0 0 0 0 0 0 0 0 0 0.75 0"/><feBlend in2="BackgroundImageFix" result="effect1_dropShadow_602_491"/><feBlend in="SourceGraphic" in2="effect1_dropShadow_602_491" result="shape"/></filter></defs></svg>