<svg xmlns="http://www.w3.org/2000/svg" width="80" height="80" fill="none"><g><rect width="64" height="64" x="8" y="6" fill="none" rx="5"/><path fill="#EFCCA3" d="M49.514 23.846c-.052-.938.209-1.825-.209-2.554-1.043-1.825-3.649-2.867-8.863-2.867v-.053.052c-5.735 0-8.185 1.043-9.227 2.867a5.6 5.6 0 0 0-.469 2.554 9.544 9.544 0 0 0-.261 2.45c.156 1.147.261 2.294.417 3.336.156.886 1.408 1.564 1.564 2.4.313 2.242 2.294 3.284 8.028 3.284v.261h-.1v-.26c5.213 0 7.4-1.044 7.716-3.285.1-.834 1.147-1.512 1.3-2.4.156-1.043.209-2.19.365-3.336a11.769 11.769 0 0 0-.261-2.449Z"/><path fill="#CCAC8D" d="M40.182 24.68a3.24 3.24 0 0 1 2.19 1.147c.73.626 1.929 1.043 2.45 1.616a4.716 4.716 0 0 1 1.408 1.98c.2.732.305 1.485.313 2.243 0 .26.156.209.573 0a9.02 9.02 0 0 0 2.19-1.877c-.156.886-1.251 1.668-1.355 2.5-.313 2.242-2.5 3.336-7.872 3.336h.313"/><path fill="#CCAC8D" d="M43.519 22.908c.209.678.886 3.024-.469 2.242.494.388.828.945.938 1.564a1.831 1.831 0 0 0 1.3 1.408c.9.134 1.817-.091 2.554-.626a2.956 2.956 0 0 0 .678-3.284 2.43 2.43 0 0 0-2.137-1.616c-.983-.262-3.073-.47-2.864.312Z"/><path fill="#000" d="M46.178 27.339a1.929 1.929 0 1 0 0-3.858 1.929 1.929 0 0 0 0 3.858Z"/><path fill="#fff" d="M45.656 25.045a.52.52 0 1 0 0-1.042.52.52 0 0 0 0 1.042Z"/><path fill="#EFCCA3" d="M43.206 25.306c.98.688 1.89 1.474 2.711 2.346.938 1.2.938 1.408.938 1.408l-.678.313a7.102 7.102 0 0 0-2.137-2.5c-1.2-.678-1.355-1.251-1.355-1.251l.521-.316Z"/><path fill="#CCAC8D" d="M40.235 24.68a3.605 3.605 0 0 0-2.346 1.147c-.73.626-2.033 1.043-2.5 1.616a4.807 4.807 0 0 0-1.46 1.98 8.903 8.903 0 0 0-.313 2.243c0 .26.052.313-.626 0a7.973 7.973 0 0 1-2.19-1.877c.156.886 1.251 1.668 1.355 2.5.313 2.19 2.5 3.284 7.872 3.284h.365"/><path fill="#56332B" d="M45.239 28.277a6.551 6.551 0 0 0-5.11-2.607 6.64 6.64 0 0 0-5.108 2.607 3.862 3.862 0 0 0-1.043 3.18c0 4.64 1.616 3.232 2.71 3.806a7.482 7.482 0 0 0 3.39.313 7.4 7.4 0 0 0 3.389-.313c1.095-.573 2.71.834 2.71-3.806a3.385 3.385 0 0 0-.938-3.18Z"/><path fill="#442823" d="M40.026 26.974a9.549 9.549 0 0 1-.469 2.554l.573-.156-.104-2.398Z"/><path fill="#442823" d="M40.182 26.974a9.57 9.57 0 0 0 .469 2.554l-.573-.156.104-2.398Z"/><path fill="#56332B" d="M38.358 26.453c-.209-.521.573-1.355 1.825-1.355s2.033.834 1.825 1.355c-.208.52-1.043.678-1.825.678-.835-.001-1.617-.157-1.825-.678Z"/><path fill="#000" d="M40.182 26.974c0-.1.73-.1 1.147-.365 0 0-.834.26-.991.156a.655.655 0 0 1-.209-.365.657.657 0 0 1-.209.365c-.156.1-1.095-.156-1.095-.156.409.09.81.212 1.2.365v.417c-.033.68 0 1.36.1 2.033.156.209.1-1.46.1-2.033a1.298 1.298 0 0 1-.043-.417Z"/><path fill="#7F4A41" d="M40.182 29.945a3.35 3.35 0 0 1 1.616.678 3.122 3.122 0 0 0-1.616-1.095 3.035 3.035 0 0 0-1.825 1.2 3.312 3.312 0 0 1 1.825-.783Z"/><path fill="#442823" d="M40.078 33.8a8.902 8.902 0 0 1-2.4-.469c-.156-.052-.313.052-.469 0a6.172 6.172 0 0 1-3.18-2.137v.21c0 4.64 1.616 3.231 2.711 3.805 1.09.364 2.25.471 3.39.313a7.4 7.4 0 0 0 3.388-.313c1.095-.573 2.711.834 2.711-3.806v-.469A5.914 5.914 0 0 1 43 33.282c-.156.052-.417-.052-.573-.052a7.047 7.047 0 0 1-2.349.57Z"/><path fill="#442823" d="M37.941 31.3s-.573 1.668-.156 2.4l-.521-.209c.171-.746.397-1.478.677-2.191Zm4.379 0s.573 1.668.156 2.4l.524-.209a10.624 10.624 0 0 0-.68-2.191Z"/><path fill="#CCAC8D" d="M36.585 22.908c-.21.678-.886 3.024.469 2.242a2.557 2.557 0 0 0-.938 1.564 1.831 1.831 0 0 1-1.3 1.408 3.48 3.48 0 0 1-2.558-.622 2.956 2.956 0 0 1-.678-3.284 2.43 2.43 0 0 1 2.137-1.616c.992-.266 3.077-.474 2.868.308Z"/><path fill="#000" d="M40.13 29.528a3.394 3.394 0 0 1 2.45 2.867v-.1a3.051 3.051 0 0 0-2.45-2.919 3 3 0 0 0-2.45 2.919v.1a3.462 3.462 0 0 1 2.45-2.867Z"/><path fill="#331712" d="M40.624 26.441c.084-.021.116-.175.073-.342-.043-.167-.146-.286-.23-.264-.083.021-.115.174-.072.342.043.167.146.285.229.264Zm-.866-.248c.05-.165.026-.32-.057-.346-.082-.025-.19.088-.241.253-.052.165-.026.32.056.345.082.026.19-.087.242-.252Z"/><path fill="#000" d="M34.031 27.339a1.93 1.93 0 1 0 0-3.858 1.93 1.93 0 0 0 0 3.858Z"/><path fill="#fff" d="M34.552 25.045a.521.521 0 1 0 0-1.042.521.521 0 0 0 0 1.042Z"/><path fill="#7F4A41" d="M40.7 25.41s-.521.209-.626.26a2.494 2.494 0 0 1-.626-.26H40.7Z"/><path fill="#EFCCA3" d="M36.9 25.306a17.68 17.68 0 0 0-2.711 2.346c-.938 1.2-.938 1.408-.938 1.408l.678.313a7.1 7.1 0 0 1 2.137-2.5c1.2-.678 1.355-1.251 1.355-1.251l-.521-.316Z"/><path fill="#CCAC8D" d="M33.092 21.813a4.52 4.52 0 0 1-1.929 2.294 2.19 2.19 0 0 0 1.929-2.294Zm13.816 0a4.52 4.52 0 0 0 1.929 2.294 2.19 2.19 0 0 1-1.929-2.294Zm-3.598 3.023a5.16 5.16 0 0 0-3.076-1.408h.156a3.853 3.853 0 0 0-3.024 1.408 4.832 4.832 0 0 1 3.024-1.043c1.05.076 2.06.436 2.92 1.043Zm-1.564-2.867a2.455 2.455 0 0 0-1.564-.938h.156a1.786 1.786 0 0 0-1.512.938c.396-.416.939-.66 1.512-.678a1.893 1.893 0 0 1 1.408.678Zm-7.716 6.777a2.545 2.545 0 0 1-1.772.21h-.208a3.681 3.681 0 0 1-.886-1.513 2.27 2.27 0 0 0 2.867 1.303Zm12.096 0a2.545 2.545 0 0 0 1.773.21h-.209a1.75 1.75 0 0 0 1.095-1.513 2.022 2.022 0 0 1-2.659 1.303Z"/><path fill="#CCAC8D" d="M35.23 21.709a4.75 4.75 0 0 1 2.242.1c.938.313.209 1.564.365 1.616a2.866 2.866 0 0 1 2.242-.73c1.773.1 1.981.886 2.242.73.261-.1-.261-2.19 2.45-1.72 0 0-2.763-.73-2.659 1.251a3.675 3.675 0 0 0-3.858-.1s.573-1.929-3.024-1.147ZM34.5 19s-2.4 2.972-2.711 4.118c-.365 1.147-.626 5.943-.938 6.621l-1.095-4.694 2.033-4.9L34.5 19Zm11.156 0s2.4 2.972 2.711 4.118c.365 1.147.626 5.943.938 6.621l1.095-4.694-2.033-4.9L45.656 19Z"/><path fill="#56332B" d="M45.5 19a11.616 11.616 0 0 1 3.284 4.588c.73 2.45.417 5.474.991 5.839.834.521 1.72-2.607 2.033-2.919.469-.521 2.085-1.877 2.19-2.137.105-.26-3.232-3.91-4.744-4.64-1.669-.838-3.854-.942-3.754-.731Z"/><path fill="#442823" d="M47.69 20.3a15.38 15.38 0 0 1 2.972 8.654l1.2-2.45A16.564 16.564 0 0 0 47.69 20.3Z"/><path fill="#56332B" d="M34.5 19a11.616 11.616 0 0 0-3.284 4.588c-.73 2.45-.417 5.474-.99 5.839-.835.521-1.72-2.607-2.034-2.919-.469-.521-2.085-1.877-2.19-2.137-.105-.26 3.232-3.91 4.744-4.64 1.67-.838 3.854-.942 3.754-.731Z"/><path fill="#442823" d="M32.31 20.3a15.38 15.38 0 0 0-2.972 8.654L28.14 26.5a16.565 16.565 0 0 1 4.17-6.2Z"/><path fill="#CCAC8D" d="M30.642 29.007c.082.555.277 1.087.573 1.564.365.365.1-.313.1-.313s-.365-.209-.313-1.72c.052-1.51-.36.47-.36.47Zm18.768 0a4.119 4.119 0 0 1-.573 1.564c-.365.365-.1-.313-.1-.313s.365-.21.313-1.72c-.057-1.46.36.469.36.469Z"/><path fill="#442823" d="M37.889 28.277a.156.156 0 1 0 0-.312.156.156 0 0 0 0 .312Zm-1.043 1.095a.156.156 0 1 0 0-.312.156.156 0 0 0 0 .312Zm-.313-1.095a.156.156 0 1 0 0-.312.156.156 0 0 0 0 .312Zm5.631 0a.156.156 0 1 0 0-.312.156.156 0 0 0 0 .312Zm.99 1.095a.156.156 0 1 0 0-.312.156.156 0 0 0 0 .312Zm.313-1.095a.156.156 0 1 0 0-.312.156.156 0 0 0 0 .312Z"/><path fill="#2AF" d="M30.973 61a.25.25 0 0 1-.184-.072.25.25 0 0 1-.072-.184v-6.656a.25.25 0 0 1 .072-.184.25.25 0 0 1 .184-.072h2.867c.567 0 1.058.089 1.475.266.423.17.75.43.983.779.238.348.358.788.358 1.32 0 .526-.12.96-.358 1.3-.233.342-.56.595-.983.759-.417.163-.908.245-1.475.245h-1.219v2.243a.234.234 0 0 1-.082.184.25.25 0 0 1-.184.072h-1.382Zm1.618-3.912h1.198c.293 0 .526-.075.696-.225.178-.15.266-.379.266-.686a.98.98 0 0 0-.225-.655c-.15-.178-.396-.267-.737-.267H32.59v1.833Zm6.889 4.014a2.05 2.05 0 0 1-1.044-.266 1.823 1.823 0 0 1-.707-.778c-.17-.348-.256-.772-.256-1.27v-2.857a.25.25 0 0 1 .072-.184.25.25 0 0 1 .184-.072h1.28a.25.25 0 0 1 .184.072.25.25 0 0 1 .072.184v2.796c0 .669.3 1.003.901 1.003.28 0 .502-.085.666-.256.17-.177.256-.426.256-.747V55.93a.25.25 0 0 1 .071-.184.25.25 0 0 1 .185-.072h1.28a.25.25 0 0 1 .184.072.25.25 0 0 1 .072.184v4.813a.25.25 0 0 1-.072.184.25.25 0 0 1-.184.072h-1.188a.273.273 0 0 1-.184-.072.25.25 0 0 1-.072-.184v-.39a1.71 1.71 0 0 1-.697.564c-.28.123-.614.184-1.003.184Zm7.215 2.15c-.525 0-.962-.068-1.31-.204a2.609 2.609 0 0 1-.82-.492 1.968 1.968 0 0 1-.43-.573c-.088-.184-.136-.331-.143-.44a.207.207 0 0 1 .072-.185.285.285 0 0 1 .194-.071h1.3a.27.27 0 0 1 .154.04.334.334 0 0 1 .113.165c.034.075.078.153.133.235a.636.636 0 0 0 .246.195c.11.054.256.082.44.082.205 0 .376-.035.512-.103a.608.608 0 0 0 .307-.317c.069-.144.103-.338.103-.584v-.686a1.83 1.83 0 0 1-.604.42 2.314 2.314 0 0 1-.891.153c-.348 0-.656-.05-.922-.153a1.647 1.647 0 0 1-.666-.461 2.267 2.267 0 0 1-.42-.748 3.965 3.965 0 0 1-.173-1.013 6.952 6.952 0 0 1 0-.533c.02-.368.078-.7.174-.993a2.23 2.23 0 0 1 .41-.758c.184-.212.409-.372.675-.481a2.29 2.29 0 0 1 .922-.174c.368 0 .682.072.942.215.266.136.485.31.655.522v-.379c0-.068.024-.126.072-.174a.234.234 0 0 1 .184-.082h1.178c.075 0 .136.028.184.082a.223.223 0 0 1 .082.174v4.926c0 .519-.106.955-.317 1.31a2.027 2.027 0 0 1-.912.81c-.396.184-.877.276-1.444.276Zm-.071-3.696c.218 0 .396-.048.532-.143a.823.823 0 0 0 .297-.369c.068-.15.106-.31.113-.481.007-.075.01-.181.01-.318 0-.136-.003-.238-.01-.307a1.297 1.297 0 0 0-.113-.491.762.762 0 0 0-.297-.359c-.136-.095-.314-.143-.532-.143-.226 0-.407.048-.543.143a.834.834 0 0 0-.287.39 2.193 2.193 0 0 0-.102.542c-.007.15-.007.304 0 .461.014.198.048.379.102.543a.834.834 0 0 0 .287.389c.136.095.317.143.543.143Z"/></g><defs><filter id="a" width="80" height="80" x="0" y="0" color-interpolation-filters="sRGB" filterUnits="userSpaceOnUse"><feFlood flood-opacity="0" result="BackgroundImageFix"/><feColorMatrix in="SourceAlpha" result="hardAlpha" values="0 0 0 0 0 0 0 0 0 0 0 0 0 0 0 0 0 0 127 0"/><feOffset dy="2"/><feGaussianBlur stdDeviation="4"/><feColorMatrix values="0 0 0 0 0 0 0 0 0 0 0 0 0 0 0 0 0 0 0.75 0"/><feBlend in2="BackgroundImageFix" result="effect1_dropShadow_602_412"/><feBlend in="SourceGraphic" in2="effect1_dropShadow_602_412" result="shape"/></filter></defs></svg>