<svg xmlns="http://www.w3.org/2000/svg" width="80" height="80" fill="rgba(0,0,255,0.2)"><g><rect width="64" height="64" x="8" y="6" fill="#0D1117" rx="5"/><path fill="#fff" d="m47.551 30.859.925-2.338h2.669l-1.267-3.546 1.584-4.006L56 33.017h-3.346l-.776-2.158h-4.327Z"/><path fill="#5A0FC8" d="m44.696 33.017 4.858-12.048h-3.22l-3.324 7.785-2.362-7.785h-2.476l-2.537 7.785-1.79-3.547-1.619 4.988 1.644 2.822h3.17l2.293-6.982 2.186 6.982h3.177Z"/><path fill="#fff" d="M27.057 28.88h1.984c.6 0 1.136-.066 1.605-.2l.513-1.58 1.434-4.418a3.533 3.533 0 0 0-.375-.491c-.736-.815-1.813-1.222-3.23-1.222H24v12.048h3.057V28.88Zm2.626-5.14c.287.29.431.677.431 1.162 0 .49-.127.877-.38 1.164-.277.318-.787.477-1.53.477h-1.147v-3.237h1.155c.693 0 1.183.145 1.47.434Z"/><path fill="#2AF" d="M29.973 61a.25.25 0 0 1-.184-.072.25.25 0 0 1-.072-.184v-6.656a.25.25 0 0 1 .072-.184.25.25 0 0 1 .184-.072h2.867c.567 0 1.058.089 1.475.266.423.17.75.43.983.779.238.348.358.788.358 1.32 0 .526-.12.96-.358 1.3-.233.342-.56.595-.983.759-.417.163-.908.245-1.475.245h-1.219v2.243a.234.234 0 0 1-.081.184.25.25 0 0 1-.185.072h-1.382Zm1.618-3.912h1.198c.293 0 .526-.075.696-.225.178-.15.266-.379.266-.686a.98.98 0 0 0-.225-.655c-.15-.178-.396-.267-.737-.267H31.59v1.833ZM38.009 61c-.102 0-.178-.024-.225-.072a.495.495 0 0 1-.113-.184l-1.474-4.741a.273.273 0 0 1-.021-.102c0-.062.024-.113.072-.154a.225.225 0 0 1 .163-.072h1.055c.089 0 .157.024.205.072a.313.313 0 0 1 .102.143l.86 2.929.922-2.919a.341.341 0 0 1 .092-.143.304.304 0 0 1 .226-.082h.675c.096 0 .168.028.215.082a.313.313 0 0 1 .103.144l.922 2.918.86-2.929a.341.341 0 0 1 .092-.143.315.315 0 0 1 .215-.072h1.055c.061 0 .112.024.153.072.048.04.072.092.072.154a.516.516 0 0 1-.01.102l-1.475 4.741a.366.366 0 0 1-.113.184c-.047.048-.122.072-.225.072h-.921a.33.33 0 0 1-.226-.072.367.367 0 0 1-.112-.184l-.942-2.806-.942 2.806a.366.366 0 0 1-.113.184.33.33 0 0 1-.225.072h-.922Zm8.513.102c-.369 0-.7-.068-.994-.204a1.832 1.832 0 0 1-.686-.574 1.359 1.359 0 0 1-.256-.809c0-.484.198-.867.594-1.147.396-.286.922-.481 1.577-.583l1.28-.195v-.143c0-.246-.051-.434-.154-.564-.102-.13-.29-.194-.563-.194a.891.891 0 0 0-.47.113.804.804 0 0 0-.277.307.294.294 0 0 1-.256.133H45.17a.236.236 0 0 1-.174-.061.207.207 0 0 1-.051-.164c0-.123.044-.263.133-.42.095-.164.239-.325.43-.482.191-.157.437-.286.737-.389.3-.102.662-.153 1.086-.153.443 0 .822.051 1.136.153.314.103.567.246.758.43.198.185.345.403.44.656.096.246.144.519.144.819v3.113a.234.234 0 0 1-.082.184.237.237 0 0 1-.174.072h-1.188a.25.25 0 0 1-.184-.072.25.25 0 0 1-.072-.184v-.358a1.47 1.47 0 0 1-.359.358 1.72 1.72 0 0 1-.532.256c-.198.068-.43.102-.696.102Zm.48-1.167c.199 0 .376-.04.533-.123a.896.896 0 0 0 .38-.4 1.48 1.48 0 0 0 .143-.685v-.144l-.87.154c-.322.055-.557.14-.707.256-.144.11-.215.239-.215.39a.45.45 0 0 0 .102.296.71.71 0 0 0 .266.195c.11.04.232.061.369.061Z"/></g><defs><filter id="a" width="80" height="80" x="0" y="0" color-interpolation-filters="sRGB" filterUnits="userSpaceOnUse"><feFlood flood-opacity="0" result="BackgroundImageFix"/><feColorMatrix in="SourceAlpha" result="hardAlpha" values="0 0 0 0 0 0 0 0 0 0 0 0 0 0 0 0 0 0 127 0"/><feOffset dy="2"/><feGaussianBlur stdDeviation="4"/><feColorMatrix values="0 0 0 0 0 0 0 0 0 0 0 0 0 0 0 0 0 0 0.75 0"/><feBlend in2="BackgroundImageFix" result="effect1_dropShadow_602_1534"/><feBlend in="SourceGraphic" in2="effect1_dropShadow_602_1534" result="shape"/></filter></defs></svg>