<svg xmlns="http://www.w3.org/2000/svg" width="80" height="80" fill="rgba(0,0,255,0.2)"><g><rect width="64" height="64" x="8" y="6" fill="#0D1117" rx="5"/><path fill="#61DAFB" d="M53.467 21.756c0-1.749-2.19-3.406-5.547-4.433.774-3.422.43-6.145-1.087-7.016-.35-.205-.759-.302-1.205-.302v1.2c.247 0 .446.049.613.14.732.42 1.05 2.018.801 4.073A16.49 16.49 0 0 1 46.768 17a26.08 26.08 0 0 0-3.416-.587 26.458 26.458 0 0 0-2.238-2.69c1.754-1.63 3.4-2.523 4.519-2.523V10c-1.48 0-3.416 1.055-5.375 2.884-1.958-1.819-3.895-2.863-5.375-2.863v1.2c1.114 0 2.766.888 4.52 2.508a25.183 25.183 0 0 0-2.222 2.684c-1.216.13-2.368.328-3.422.592a16.224 16.224 0 0 1-.28-1.56c-.253-2.055.06-3.653.785-4.078.162-.097.372-.14.62-.14v-1.2c-.453 0-.862.097-1.217.301-1.512.872-1.85 3.589-1.07 7-3.347 1.033-5.526 2.685-5.526 4.428 0 1.748 2.19 3.406 5.547 4.433-.775 3.422-.43 6.145 1.087 7.016.35.205.759.301 1.21.301 1.48 0 3.417-1.054 5.375-2.883 1.959 1.818 3.896 2.862 5.375 2.862.452 0 .861-.097 1.216-.301 1.512-.872 1.851-3.59 1.07-7 3.337-1.028 5.516-2.685 5.516-4.428Zm-7.005-3.589c-.2.694-.447 1.41-.727 2.125a29.166 29.166 0 0 0-1.48-2.55 24.28 24.28 0 0 1 2.207.425Zm-2.465 5.73a29.02 29.02 0 0 1-1.296 2.056 28.011 28.011 0 0 1-4.853.005 28.012 28.012 0 0 1-2.421-4.186 28.623 28.623 0 0 1 2.41-4.202 27.975 27.975 0 0 1 4.853-.005 28.03 28.03 0 0 1 2.421 4.186c-.339.72-.71 1.441-1.114 2.146Zm1.738-.7c.283.702.53 1.417.743 2.142a23.92 23.92 0 0 1-2.217.43 29.76 29.76 0 0 0 1.474-2.571ZM40.28 28.94c-.5-.517-1-1.093-1.495-1.722.484.021.98.038 1.48.038.505 0 1.006-.011 1.495-.038a20.99 20.99 0 0 1-1.48 1.722Zm-4.002-3.17a24.27 24.27 0 0 1-2.206-.424c.199-.694.446-1.41.726-2.126.22.43.452.861.705 1.292.253.43.511.85.775 1.259Zm3.976-11.196c.5.517 1 1.092 1.495 1.722a32.576 32.576 0 0 0-1.48-.038c-.505 0-1.005.011-1.495.038.462-.6.956-1.175 1.48-1.722Zm-3.982 3.17a29.673 29.673 0 0 0-1.474 2.566 23.032 23.032 0 0 1-.742-2.142 26.123 26.123 0 0 1 2.216-.425Zm-4.869 6.735c-1.905-.812-3.137-1.877-3.137-2.722s1.232-1.915 3.137-2.723c.463-.199.969-.376 1.49-.543.307 1.055.71 2.152 1.211 3.277a25.488 25.488 0 0 0-1.194 3.26 16.386 16.386 0 0 1-1.507-.549Zm2.895 7.689c-.732-.42-1.05-2.018-.802-4.073.06-.506.156-1.039.274-1.582a26.27 26.27 0 0 0 3.417.587c.726.995 1.48 1.899 2.238 2.69-1.754 1.63-3.4 2.523-4.52 2.523a1.284 1.284 0 0 1-.607-.145Zm12.762-4.1c.253 2.055-.06 3.653-.786 4.078-.161.097-.371.14-.619.14-1.113 0-2.765-.888-4.519-2.507a25.42 25.42 0 0 0 2.222-2.685 25.122 25.122 0 0 0 3.422-.592c.124.544.22 1.066.28 1.566Zm2.071-3.589c-.463.2-.968.377-1.49.544a25.826 25.826 0 0 0-1.21-3.277 25.728 25.728 0 0 0 1.194-3.26c.532.166 1.038.35 1.511.549 1.905.812 3.137 1.877 3.137 2.722-.005.845-1.237 1.915-3.142 2.722Z"/><path fill="#61DAFB" d="M40.264 24.215a2.459 2.459 0 1 0 0-4.918 2.459 2.459 0 0 0 0 4.918ZM28.27 37.74h-.812v1.398H27v-3.456h1.144c.39 0 .688.089.897.266.21.177.316.435.316.774a.926.926 0 0 1-.176.562c-.116.16-.277.28-.484.358l.812 1.467v.029h-.49l-.75-1.398Zm-.812-.373h.7c.226 0 .406-.058.539-.175a.592.592 0 0 0 .202-.47c0-.214-.065-.378-.193-.492-.126-.113-.31-.171-.55-.173h-.698v1.31Zm3.536 1.818c-.348 0-.631-.114-.85-.342-.218-.229-.327-.535-.327-.918v-.08c0-.255.048-.482.145-.682a1.14 1.14 0 0 1 .408-.47c.176-.114.365-.17.57-.17.333 0 .593.11.778.33.185.22.278.534.278.944v.183h-1.74c.006.253.08.458.22.614a.703.703 0 0 0 .542.233.764.764 0 0 0 .394-.095.99.99 0 0 0 .282-.252l.268.21c-.215.33-.537.495-.968.495Zm-.054-2.302a.584.584 0 0 0-.447.195c-.12.128-.194.308-.223.54h1.287v-.032c-.013-.223-.073-.396-.18-.518a.55.55 0 0 0-.437-.185Zm3.151 2.255a.918.918 0 0 1-.061-.27.98.98 0 0 1-.731.317.914.914 0 0 1-.624-.213.7.7 0 0 1-.243-.546c0-.268.102-.475.304-.622.204-.149.49-.223.86-.223h.427v-.202a.49.49 0 0 0-.138-.365c-.092-.092-.227-.138-.406-.138a.64.64 0 0 0-.394.119c-.106.079-.159.175-.159.287h-.441c0-.128.045-.252.135-.37a.94.94 0 0 1 .37-.285c.157-.07.328-.105.515-.105.296 0 .528.075.695.224.168.147.255.35.261.61v1.181c0 .236.03.424.09.563v.038h-.46Zm-.728-.335a.772.772 0 0 0 .391-.107.646.646 0 0 0 .269-.277v-.527h-.345c-.538 0-.807.157-.807.472a.4.4 0 0 0 .138.323.53.53 0 0 0 .354.116Zm2.817.024a.633.633 0 0 0 .41-.143.5.5 0 0 0 .195-.356h.415a.797.797 0 0 1-.152.42.997.997 0 0 1-.375.319 1.07 1.07 0 0 1-.493.118c-.35 0-.628-.116-.836-.349-.205-.234-.308-.553-.308-.959v-.073c0-.25.046-.472.137-.667.092-.194.224-.346.395-.453.172-.108.375-.162.61-.162.287 0 .526.087.716.26a.922.922 0 0 1 .306.67h-.415a.598.598 0 0 0-.608-.569.617.617 0 0 0-.52.242c-.121.16-.182.392-.182.696v.083c0 .295.06.523.183.683.121.16.296.24.522.24Zm2.11-2.879v.622h.479v.34h-.48v1.592c0 .102.022.18.065.232.042.05.115.076.218.076.05 0 .12-.01.209-.028v.356a1.27 1.27 0 0 1-.337.047c-.196 0-.344-.06-.444-.178-.1-.118-.15-.287-.15-.505v-1.593h-.467v-.34h.468v-.62h.439Zm4.924 3.19h-.458l-1.74-2.663v2.663h-.457v-3.456h.458l1.744 2.675v-2.675h.453v3.456Zm2.326 0a.92.92 0 0 1-.062-.27.98.98 0 0 1-.73.317.914.914 0 0 1-.625-.213.7.7 0 0 1-.242-.546c0-.268.101-.475.304-.622.204-.149.49-.223.859-.223h.427v-.202a.489.489 0 0 0-.138-.365c-.091-.092-.227-.138-.405-.138a.64.64 0 0 0-.394.119c-.106.079-.16.175-.16.287h-.44c0-.128.044-.252.135-.37a.939.939 0 0 1 .37-.285c.156-.07.328-.105.515-.105.295 0 .527.075.695.224.168.147.255.35.261.61v1.181c0 .236.03.424.09.563v.038h-.46Zm-.729-.335a.772.772 0 0 0 .392-.107.646.646 0 0 0 .268-.277v-.527h-.344c-.538 0-.807.157-.807.472a.4.4 0 0 0 .138.323.53.53 0 0 0 .353.116Zm2.383-2.855v.622h.48v.34h-.48v1.592c0 .102.021.18.064.232.043.05.116.076.218.076.051 0 .12-.01.21-.028v.356a1.272 1.272 0 0 1-.338.047c-.196 0-.344-.06-.444-.178-.1-.118-.149-.287-.149-.505v-1.593h-.468v-.34h.468v-.62h.44Zm1.471 3.19h-.439V36.57h.44v2.568Zm-.474-3.25c0-.07.021-.13.064-.18.044-.049.11-.073.194-.073.086 0 .15.024.195.073a.26.26 0 0 1 .067.18.25.25 0 0 1-.067.179c-.044.047-.109.071-.194.071-.086 0-.15-.024-.195-.071a.256.256 0 0 1-.064-.178Zm2.027 2.654.636-1.972h.448l-.92 2.568h-.335l-.93-2.568h.448l.653 1.972Zm2.539.643c-.348 0-.631-.114-.85-.342-.218-.229-.327-.535-.327-.918v-.08c0-.255.048-.482.145-.682.098-.2.234-.357.408-.47.175-.114.365-.17.57-.17.333 0 .593.11.778.33.185.22.277.534.277.944v.183h-1.74c.007.253.08.458.222.614a.703.703 0 0 0 .54.233.765.765 0 0 0 .395-.095.993.993 0 0 0 .282-.252l.268.21c-.215.33-.538.495-.968.495Zm-.055-2.302a.584.584 0 0 0-.446.195c-.12.128-.194.308-.223.54h1.286v-.032c-.012-.223-.072-.396-.18-.518a.55.55 0 0 0-.437-.185Z"/><path fill="#E5E5E5" d="M28.801 55a.2.2 0 0 1-.147-.057.2.2 0 0 1-.058-.148v-5.323a.2.2 0 0 1 .058-.148.2.2 0 0 1 .147-.057h2.228c.704 0 1.258.164 1.662.491.41.322.614.781.614 1.376 0 .388-.095.716-.286.983-.186.268-.431.47-.737.606l1.13 2.015a.204.204 0 0 1 .025.09c0 .044-.02.085-.058.123a.167.167 0 0 1-.123.049h-1.08c-.105 0-.18-.025-.23-.074a.695.695 0 0 1-.107-.147l-.933-1.802h-.844v1.818a.2.2 0 0 1-.057.148.2.2 0 0 1-.147.057H28.8Zm1.261-3.178h.95c.257 0 .448-.063.574-.188.13-.126.196-.298.196-.516a.715.715 0 0 0-.188-.516c-.12-.131-.314-.197-.582-.197h-.95v1.417Zm6.016 3.26c-.644 0-1.157-.175-1.54-.524-.382-.35-.58-.868-.597-1.556v-.287c.016-.431.112-.8.286-1.106a1.76 1.76 0 0 1 .738-.704 2.375 2.375 0 0 1 1.105-.246c.48 0 .877.096 1.188.287.316.191.554.45.712.778.159.328.238.702.238 1.122v.197c0 .06-.022.109-.066.147a.19.19 0 0 1-.139.057h-2.62v.058c.005.158.032.303.081.434a.618.618 0 0 0 .606.426c.11 0 .2-.017.27-.05a.861.861 0 0 0 .189-.122c.049-.05.087-.09.114-.123a.384.384 0 0 1 .115-.098.342.342 0 0 1 .148-.025h1.015c.055 0 .098.016.131.05.038.026.055.067.05.122-.006.093-.053.205-.14.336a1.723 1.723 0 0 1-.385.393c-.164.125-.371.23-.622.311a2.827 2.827 0 0 1-.877.123Zm-.696-2.645h1.384v-.017c0-.175-.027-.327-.082-.459a.602.602 0 0 0-.237-.303.65.65 0 0 0-.377-.106.651.651 0 0 0-.377.106.69.69 0 0 0-.229.303 1.186 1.186 0 0 0-.082.46v.016Zm4.871 2.645a1.86 1.86 0 0 1-.794-.164 1.464 1.464 0 0 1-.549-.459 1.086 1.086 0 0 1-.205-.647c0-.387.159-.693.475-.917.317-.23.737-.385 1.262-.467l1.023-.155v-.115c0-.197-.04-.347-.123-.45-.081-.104-.232-.156-.45-.156a.713.713 0 0 0-.377.09.643.643 0 0 0-.22.246.235.235 0 0 1-.206.106h-.917a.188.188 0 0 1-.14-.049.165.165 0 0 1-.04-.13.7.7 0 0 1 .106-.337 1.47 1.47 0 0 1 .344-.385c.153-.125.35-.229.59-.31.24-.083.53-.124.868-.124.355 0 .658.041.91.123.25.082.453.197.605.344.159.148.276.322.352.524.077.197.115.415.115.656v2.49c0 .06-.022.108-.065.147a.19.19 0 0 1-.14.057h-.95a.2.2 0 0 1-.147-.057.2.2 0 0 1-.057-.148v-.286a1.198 1.198 0 0 1-.287.286c-.12.088-.262.156-.426.205a1.71 1.71 0 0 1-.557.082Zm.385-.934c.159 0 .3-.033.426-.098a.717.717 0 0 0 .303-.32c.077-.147.115-.33.115-.548v-.115l-.696.123c-.257.044-.445.112-.566.205-.114.087-.172.19-.172.311a.36.36 0 0 0 .082.237.567.567 0 0 0 .213.156c.088.033.186.05.295.05Zm5.126.934c-.404 0-.762-.074-1.073-.221a1.807 1.807 0 0 1-.745-.64 2.017 2.017 0 0 1-.295-1.015 5.38 5.38 0 0 1-.008-.327c0-.137.002-.249.008-.336.016-.399.114-.737.295-1.016.18-.284.425-.5.737-.647a2.534 2.534 0 0 1 1.08-.22c.378 0 .7.054.967.163.268.104.486.235.655.393.17.159.295.322.377.492.087.163.134.308.14.434a.177.177 0 0 1-.058.147.218.218 0 0 1-.147.057h-1.04a.212.212 0 0 1-.14-.04.377.377 0 0 1-.09-.123c-.065-.17-.15-.29-.254-.36a.642.642 0 0 0-.385-.107c-.218 0-.387.07-.507.213-.115.142-.178.36-.189.655-.005.218-.005.412 0 .581.011.3.074.52.189.656.12.136.289.204.507.204.17 0 .303-.035.402-.106.098-.071.177-.191.237-.36a.377.377 0 0 1 .09-.123.212.212 0 0 1 .14-.041h1.04c.054 0 .103.022.147.065a.156.156 0 0 1 .057.14 1.104 1.104 0 0 1-.082.327 1.838 1.838 0 0 1-.639.77 2.091 2.091 0 0 1-.597.278 2.838 2.838 0 0 1-.82.107ZM50.816 55a2.31 2.31 0 0 1-.91-.164 1.262 1.262 0 0 1-.58-.524c-.137-.24-.206-.549-.206-.925v-1.573h-.638a.229.229 0 0 1-.156-.057.2.2 0 0 1-.057-.148v-.663a.2.2 0 0 1 .057-.148.229.229 0 0 1 .156-.057h.638V49.39a.2.2 0 0 1 .058-.148.218.218 0 0 1 .147-.057h.95a.2.2 0 0 1 .148.057.2.2 0 0 1 .057.148v1.351h1.024a.2.2 0 0 1 .147.057.2.2 0 0 1 .057.148v.663a.2.2 0 0 1-.057.148.2.2 0 0 1-.147.057H50.48v1.458a.81.81 0 0 0 .106.442c.071.11.192.164.36.164h.631a.2.2 0 0 1 .148.057.2.2 0 0 1 .057.148v.712a.2.2 0 0 1-.057.148.2.2 0 0 1-.148.057h-.761ZM27.569 65a.2.2 0 0 1-.147-.057.2.2 0 0 1-.058-.148v-5.323a.2.2 0 0 1 .058-.148.2.2 0 0 1 .147-.057h.868c.093 0 .159.022.197.066a.36.36 0 0 1 .082.09l1.998 3.153v-3.104a.2.2 0 0 1 .058-.148.2.2 0 0 1 .147-.057h.983a.2.2 0 0 1 .147.057.2.2 0 0 1 .057.148v5.323a.22.22 0 0 1-.057.148.2.2 0 0 1-.147.057h-.877c-.087 0-.152-.022-.196-.066a1.103 1.103 0 0 1-.074-.09l-1.998-3.03v2.981a.2.2 0 0 1-.058.148.2.2 0 0 1-.147.057h-.983Zm6.87.082c-.295 0-.56-.055-.795-.164a1.464 1.464 0 0 1-.548-.459 1.086 1.086 0 0 1-.205-.647c0-.387.158-.693.475-.917.316-.23.737-.385 1.261-.467l1.024-.155v-.115c0-.197-.041-.347-.123-.45-.082-.104-.232-.156-.45-.156a.713.713 0 0 0-.377.09.643.643 0 0 0-.221.246.235.235 0 0 1-.205.106h-.917c-.06 0-.107-.016-.14-.049a.166.166 0 0 1-.04-.13c0-.1.035-.211.106-.337a1.47 1.47 0 0 1 .344-.385c.153-.125.35-.229.59-.31.24-.083.53-.124.868-.124.355 0 .658.041.909.123.25.082.453.197.606.344.158.148.276.322.352.524.076.197.115.415.115.656v2.49c0 .06-.022.108-.066.147a.19.19 0 0 1-.14.057h-.95a.2.2 0 0 1-.147-.057.2.2 0 0 1-.057-.148v-.286a1.19 1.19 0 0 1-.287.286c-.12.088-.262.156-.425.205a1.71 1.71 0 0 1-.557.082Zm.385-.934c.158 0 .3-.032.425-.098a.717.717 0 0 0 .303-.32c.077-.147.115-.33.115-.548v-.115l-.696.123c-.257.044-.445.112-.565.205-.115.087-.172.19-.172.311 0 .093.027.172.082.237a.568.568 0 0 0 .213.156c.087.033.185.05.295.05Zm5.314.852a2.31 2.31 0 0 1-.909-.164 1.262 1.262 0 0 1-.581-.524c-.137-.24-.205-.549-.205-.925v-1.573h-.639a.229.229 0 0 1-.155-.057.2.2 0 0 1-.058-.148v-.663a.2.2 0 0 1 .058-.148.229.229 0 0 1 .155-.057h.639V59.39a.2.2 0 0 1 .057-.148.218.218 0 0 1 .148-.057h.95a.2.2 0 0 1 .147.057.2.2 0 0 1 .058.148v1.351h1.023a.2.2 0 0 1 .148.057.2.2 0 0 1 .057.148v.663a.2.2 0 0 1-.057.148.2.2 0 0 1-.148.057h-1.023v1.458c0 .186.035.333.106.442.071.11.191.164.36.164h.631a.2.2 0 0 1 .148.057.2.2 0 0 1 .057.148v.712a.2.2 0 0 1-.057.148.2.2 0 0 1-.148.057h-.762Zm1.85 0a.2.2 0 0 1-.148-.057.2.2 0 0 1-.057-.148v-3.85a.2.2 0 0 1 .057-.147.2.2 0 0 1 .148-.057h.966a.19.19 0 0 1 .14.057.187.187 0 0 1 .065.148v3.85c0 .06-.022.108-.066.147a.19.19 0 0 1-.139.057h-.966Zm-.008-4.873a.2.2 0 0 1-.148-.057.2.2 0 0 1-.057-.148v-.729a.2.2 0 0 1 .057-.147.187.187 0 0 1 .148-.066h.974c.06 0 .11.022.148.066a.187.187 0 0 1 .065.147v.73c0 .06-.022.108-.066.147a.2.2 0 0 1-.147.057h-.974ZM45.633 65c-.082 0-.142-.02-.18-.057a.695.695 0 0 1-.099-.148l-1.548-3.8a.163.163 0 0 1-.016-.074c0-.049.016-.09.049-.123a.19.19 0 0 1 .14-.057h.925c.07 0 .125.02.163.057a.272.272 0 0 1 .074.115l.925 2.515.934-2.515a.272.272 0 0 1 .074-.114c.038-.039.093-.058.164-.058h.925c.05 0 .093.02.131.057a.155.155 0 0 1 .058.123.163.163 0 0 1-.017.074l-1.548 3.8a.437.437 0 0 1-.098.148c-.038.038-.101.057-.188.057h-.869Zm5.16.082c-.643 0-1.157-.175-1.539-.524-.382-.35-.581-.868-.598-1.556v-.287c.017-.431.112-.8.287-1.106a1.76 1.76 0 0 1 .737-.704 2.375 2.375 0 0 1 1.106-.246c.48 0 .876.096 1.187.287.317.191.554.45.713.778.158.328.237.702.237 1.122v.197c0 .06-.022.109-.065.147a.19.19 0 0 1-.14.057H50.1v.058c.005.158.032.303.082.434a.618.618 0 0 0 .606.426.641.641 0 0 0 .27-.05.863.863 0 0 0 .188-.122c.05-.05.088-.09.115-.123a.384.384 0 0 1 .114-.098.342.342 0 0 1 .148-.025h1.016a.17.17 0 0 1 .13.05c.039.026.055.067.05.122a.721.721 0 0 1-.14.336 1.723 1.723 0 0 1-.384.393c-.164.125-.372.23-.623.311a2.827 2.827 0 0 1-.876.123Zm-.695-2.645h1.384v-.017c0-.175-.028-.327-.082-.459a.602.602 0 0 0-.238-.303.65.65 0 0 0-.376-.106.651.651 0 0 0-.377.106.69.69 0 0 0-.23.303 1.186 1.186 0 0 0-.081.46v.016Z"/></g><defs><filter id="a" width="80" height="80" x="0" y="0" color-interpolation-filters="sRGB" filterUnits="userSpaceOnUse"><feFlood flood-opacity="0" result="BackgroundImageFix"/><feColorMatrix in="SourceAlpha" result="hardAlpha" values="0 0 0 0 0 0 0 0 0 0 0 0 0 0 0 0 0 0 127 0"/><feOffset dy="2"/><feGaussianBlur stdDeviation="4"/><feColorMatrix values="0 0 0 0 0 0 0 0 0 0 0 0 0 0 0 0 0 0 0.75 0"/><feBlend in2="BackgroundImageFix" result="effect1_dropShadow_602_1879"/><feBlend in="SourceGraphic" in2="effect1_dropShadow_602_1879" result="shape"/></filter></defs></svg>