<svg xmlns="http://www.w3.org/2000/svg" width="80" height="80" fill="none"><g><rect width="64" height="64" x="8" y="6" fill="none" rx="5"/><path fill="#53C1DE" d="M42.679 26.976c0-1.435-1.2-2.598-2.68-2.598-1.479 0-2.678 1.163-2.678 2.598 0 1.434 1.2 2.597 2.679 2.597 1.48 0 2.679-1.163 2.679-2.597Z"/><path fill="#53C1DE" fill-rule="evenodd" d="M48.7 22.154c.566-2.23 1.277-6.363-1.23-7.764-2.495-1.395-5.742 1.278-7.456 2.883-1.71-1.589-5.048-4.25-7.552-2.845-2.495 1.4-1.725 5.465-1.147 7.708-2.327.64-6.315 2.02-6.315 4.84 0 2.811 3.984 4.313 6.297 4.953-.58 2.255-1.311 6.262 1.186 7.659 2.514 1.405 5.842-1.194 7.572-2.816 1.726 1.614 4.942 4.23 7.437 2.83 2.504-1.406 1.852-5.484 1.273-7.74 2.242-.641 6.235-2.11 6.235-4.886 0-2.793-4.01-4.184-6.3-4.822Zm-.284 8.513a28.65 28.65 0 0 0-1.519-3.685 28.625 28.625 0 0 0 1.46-3.631c1.679.472 5.361 1.55 5.361 3.625 0 2.094-3.533 3.183-5.302 3.691Zm-1.566 7.859c-1.862 1.045-4.628-1.456-5.902-2.645a29.352 29.352 0 0 0 2.514-3.096 30.941 30.941 0 0 0 4.064-.607c.407 1.595 1.194 5.298-.676 6.348Zm-13.726-.015c-1.863-1.041-1.011-4.616-.584-6.278a30.87 30.87 0 0 0 4.042.568 30.55 30.55 0 0 0 2.576 3.085c-1.083 1.015-4.163 3.671-6.034 2.625ZM26.28 26.976c0-2.102 3.661-3.173 5.378-3.643a29.274 29.274 0 0 0 1.462 3.673 29.697 29.697 0 0 0-1.48 3.726c-1.637-.454-5.36-1.653-5.36-3.756Zm6.823-11.472c1.87-1.05 4.77 1.506 6.012 2.656a29.97 29.97 0 0 0-2.556 3.067 32.07 32.07 0 0 0-4.003.603c-.466-1.81-1.321-5.278.547-6.326Zm11.275 7.073c.958.117 1.875.273 2.736.464a26.259 26.259 0 0 1-.96 2.504 41.165 41.165 0 0 0-1.776-2.968Zm-4.365-3.529a26.83 26.83 0 0 1 1.766 2.067 38.897 38.897 0 0 0-3.546-.001 27.66 27.66 0 0 1 1.78-2.066Zm-6.158 6.496a26.898 26.898 0 0 1-.953-2.517 29.764 29.764 0 0 1 2.72-.452 36.303 36.303 0 0 0-1.767 2.97Zm1.794 5.922a28.075 28.075 0 0 1-2.764-.431c.264-.83.59-1.692.972-2.568a36.294 36.294 0 0 0 1.792 2.999Zm4.4 3.526a28.142 28.142 0 0 1-1.805-2.095c1.188.045 2.378.045 3.566-.006a26.611 26.611 0 0 1-1.761 2.1Zm6.117-6.57c.4.886.739 1.744 1.007 2.559a27.97 27.97 0 0 1-2.798.462 41.028 41.028 0 0 0 1.79-3.02Zm-3.42 3.172a41.486 41.486 0 0 1-5.463.01 34.923 34.923 0 0 1-2.746-4.598 34.908 34.908 0 0 1 2.73-4.59c1.82-.134 3.65-.134 5.469 0a39.137 39.137 0 0 1 2.739 4.572 39.146 39.146 0 0 1-2.729 4.606Zm4.083-16.127c1.87 1.045 1.038 4.76.63 6.376a31.597 31.597 0 0 0-4.012-.615 29.376 29.376 0 0 0-2.536-3.069c1.258-1.175 4.066-3.728 5.918-2.692Z" clip-rule="evenodd"/><path fill="#2AF" d="M25.973 61a.25.25 0 0 1-.184-.072.25.25 0 0 1-.072-.184v-6.656a.25.25 0 0 1 .072-.184.25.25 0 0 1 .184-.072h2.785c.88 0 1.574.205 2.079.614.512.403.768.977.768 1.72 0 .485-.12.895-.359 1.23a2.18 2.18 0 0 1-.921.757l1.413 2.52c.02.04.03.078.03.112a.216.216 0 0 1-.071.154.209.209 0 0 1-.154.061h-1.351c-.13 0-.226-.03-.287-.092a.867.867 0 0 1-.133-.184l-1.167-2.253H27.55v2.273a.25.25 0 0 1-.072.184.25.25 0 0 1-.184.072h-1.321Zm1.577-3.973h1.188c.32 0 .56-.079.716-.236.164-.157.246-.372.246-.645 0-.266-.078-.481-.235-.645-.15-.164-.393-.246-.727-.246H27.55v1.772Zm7.522 4.075c-.806 0-1.448-.218-1.925-.655-.478-.437-.727-1.085-.748-1.946v-.358c.02-.54.14-1 .358-1.382.226-.39.533-.683.922-.881.396-.205.857-.307 1.383-.307.6 0 1.095.12 1.484.358.396.24.693.563.891.973.198.41.297.877.297 1.403v.246a.234.234 0 0 1-.082.184.237.237 0 0 1-.174.072h-3.277v.071c.007.198.041.38.103.543a.772.772 0 0 0 .758.532.82.82 0 0 0 .337-.06c.096-.049.175-.1.236-.155a2.12 2.12 0 0 0 .143-.153.482.482 0 0 1 .144-.123c.04-.02.102-.03.184-.03h1.27c.068 0 .123.02.164.06.047.035.068.086.061.154-.007.116-.065.256-.174.42a2.16 2.16 0 0 1-.481.492 2.591 2.591 0 0 1-.779.389 3.549 3.549 0 0 1-1.095.153Zm-.87-3.307h1.73v-.02c0-.22-.034-.41-.102-.574a.752.752 0 0 0-.297-.379.814.814 0 0 0-.471-.133.813.813 0 0 0-.471.133.86.86 0 0 0-.287.379 1.482 1.482 0 0 0-.103.573v.02Zm6.09 3.307c-.369 0-.7-.068-.994-.204a1.832 1.832 0 0 1-.686-.574 1.359 1.359 0 0 1-.256-.809c0-.484.198-.867.594-1.147.396-.286.922-.481 1.577-.583l1.28-.195v-.143c0-.246-.051-.434-.154-.564-.102-.13-.29-.194-.563-.194a.891.891 0 0 0-.47.113.804.804 0 0 0-.277.307.294.294 0 0 1-.256.133H38.94a.236.236 0 0 1-.174-.061.207.207 0 0 1-.051-.164c0-.123.044-.263.133-.42.095-.164.239-.325.43-.482.191-.157.437-.286.737-.389.3-.102.662-.153 1.086-.153.443 0 .822.051 1.136.153.314.103.567.246.758.43.198.185.345.403.44.656.096.246.144.519.144.819v3.113a.234.234 0 0 1-.082.184.237.237 0 0 1-.174.072h-1.188a.25.25 0 0 1-.184-.072.25.25 0 0 1-.072-.184v-.358a1.47 1.47 0 0 1-.359.358 1.72 1.72 0 0 1-.532.256c-.198.068-.43.102-.696.102Zm.48-1.167c.199 0 .376-.04.533-.123a.896.896 0 0 0 .38-.4 1.48 1.48 0 0 0 .143-.685v-.144l-.87.154c-.322.055-.557.14-.707.256-.144.11-.215.239-.215.39a.45.45 0 0 0 .102.296.71.71 0 0 0 .266.195c.11.04.232.061.369.061Zm6.41 1.167c-.506 0-.953-.092-1.342-.276-.389-.184-.7-.45-.932-.799-.225-.355-.348-.778-.368-1.27a6.791 6.791 0 0 1-.01-.41c0-.17.003-.31.01-.419.02-.498.143-.922.368-1.27a2.17 2.17 0 0 1 .922-.809 3.168 3.168 0 0 1 1.352-.276c.47 0 .873.068 1.208.205.334.13.607.293.819.491.212.198.369.403.471.614.11.205.167.386.174.543a.221.221 0 0 1-.072.185.273.273 0 0 1-.184.071h-1.3a.264.264 0 0 1-.174-.051.47.47 0 0 1-.113-.154c-.082-.211-.188-.361-.318-.45a.803.803 0 0 0-.48-.133c-.274 0-.486.089-.636.266-.143.178-.221.45-.235.82-.007.272-.007.515 0 .726.014.376.092.649.235.82.15.17.362.255.635.255.212 0 .38-.044.502-.133.123-.088.222-.239.297-.45a.47.47 0 0 1 .113-.154.264.264 0 0 1 .174-.051h1.3c.068 0 .13.027.184.082a.195.195 0 0 1 .072.174 1.38 1.38 0 0 1-.102.41 2.313 2.313 0 0 1-.799.962c-.205.143-.454.26-.748.348a3.55 3.55 0 0 1-1.023.133ZM53.498 61c-.437 0-.816-.068-1.137-.205a1.578 1.578 0 0 1-.727-.655c-.17-.3-.256-.686-.256-1.157v-1.966h-.798a.286.286 0 0 1-.195-.072.25.25 0 0 1-.072-.184v-.83a.25.25 0 0 1 .072-.184.286.286 0 0 1 .195-.072h.798v-1.69a.25.25 0 0 1 .072-.184.273.273 0 0 1 .184-.071h1.188a.25.25 0 0 1 .184.071.25.25 0 0 1 .072.185v1.69h1.28a.25.25 0 0 1 .184.07.25.25 0 0 1 .072.185v.83a.25.25 0 0 1-.072.184.25.25 0 0 1-.184.072h-1.28v1.822c0 .233.044.417.133.553.089.137.24.205.45.205h.79a.25.25 0 0 1 .184.072.25.25 0 0 1 .071.184v.891a.25.25 0 0 1-.071.184.25.25 0 0 1-.185.072h-.952Z"/></g><defs><filter id="a" width="80" height="80" x="0" y="0" color-interpolation-filters="sRGB" filterUnits="userSpaceOnUse"><feFlood flood-opacity="0" result="BackgroundImageFix"/><feColorMatrix in="SourceAlpha" result="hardAlpha" values="0 0 0 0 0 0 0 0 0 0 0 0 0 0 0 0 0 0 127 0"/><feOffset dy="2"/><feGaussianBlur stdDeviation="4"/><feColorMatrix values="0 0 0 0 0 0 0 0 0 0 0 0 0 0 0 0 0 0 0.75 0"/><feBlend in2="BackgroundImageFix" result="effect1_dropShadow_602_1630"/><feBlend in="SourceGraphic" in2="effect1_dropShadow_602_1630" result="shape"/></filter></defs></svg>