<svg xmlns="http://www.w3.org/2000/svg" width="80" height="80" fill="none"><g filter="url(#a)"><rect width="64" height="64" x="8" y="6" fill="none" rx="5"/><path fill="#764ABC" d="M45.787 32.556a2.114 2.114 0 0 0 1.909-2.177c-.038-1.126-.993-2.027-2.138-2.027h-.077a2.115 2.115 0 0 0-2.061 2.177 2.14 2.14 0 0 0 .61 1.389c-1.297 2.515-3.282 4.354-6.26 5.893-2.024 1.05-4.123 1.426-6.223 1.163-1.718-.225-3.054-.976-3.894-2.214-1.222-1.84-1.336-3.829-.305-5.818.725-1.426 1.87-2.477 2.596-3.003a19.962 19.962 0 0 1-.497-1.914c-5.535 3.941-4.962 9.27-3.283 11.786 1.26 1.876 3.818 3.04 6.643 3.04.763 0 1.527-.075 2.29-.263 4.887-.938 8.59-3.79 10.69-8.032Zm6.719-4.654c-2.901-3.34-7.177-5.18-12.064-5.18h-.61a2.102 2.102 0 0 0-1.871-1.126h-.077a2.115 2.115 0 0 0-2.061 2.177c.038 1.126.992 2.027 2.138 2.027h.076a2.15 2.15 0 0 0 1.87-1.276h.688c2.901 0 5.65.825 8.132 2.44 1.908 1.238 3.283 2.852 4.046 4.804.65 1.576.61 3.115-.076 4.429-1.07 1.989-2.863 3.077-5.23 3.077-1.527 0-2.978-.45-3.742-.788a22.52 22.52 0 0 1-1.718 1.352C43.65 40.587 45.33 41 46.932 41c3.665 0 6.376-1.99 7.406-3.979 1.107-2.177 1.031-5.93-1.832-9.12Zm-19.394 5.292c.038 1.126.993 2.027 2.138 2.027h.077a2.115 2.115 0 0 0 2.061-2.177c-.038-1.126-.993-2.027-2.138-2.027h-.076c-.077 0-.191 0-.267.037-1.566-2.552-2.215-5.33-1.985-8.332.152-2.252.916-4.204 2.252-5.818 1.107-1.389 3.245-2.064 4.696-2.101 4.046-.076 5.764 4.879 5.879 6.868.496.113 1.336.376 1.908.563-.458-6.08-4.275-9.233-7.94-9.233-3.436 0-6.605 2.44-7.865 6.043-1.756 4.804-.61 9.42 1.527 13.061-.19.263-.305.676-.267 1.089Z"/><path fill="#2AF" d="M24.473 61a.25.25 0 0 1-.184-.072.25.25 0 0 1-.072-.184v-6.656a.25.25 0 0 1 .072-.184.25.25 0 0 1 .184-.072h2.785c.88 0 1.574.205 2.079.614.512.403.768.977.768 1.72 0 .485-.12.895-.359 1.23a2.18 2.18 0 0 1-.921.757l1.413 2.52c.02.04.03.078.03.112a.216.216 0 0 1-.071.154.209.209 0 0 1-.154.061h-1.351c-.13 0-.226-.03-.287-.092a.867.867 0 0 1-.133-.184l-1.167-2.253H26.05v2.273a.25.25 0 0 1-.072.184.25.25 0 0 1-.184.072h-1.321Zm1.577-3.973h1.188c.32 0 .56-.079.716-.236.164-.157.246-.372.246-.645 0-.266-.078-.481-.235-.645-.15-.164-.393-.246-.727-.246H26.05v1.772Zm7.522 4.075c-.806 0-1.448-.218-1.925-.655-.478-.437-.727-1.085-.748-1.946v-.358c.02-.54.14-1 .358-1.382.226-.39.533-.683.922-.881.396-.205.857-.307 1.383-.307.6 0 1.095.12 1.484.358.396.24.693.563.891.973.198.41.297.877.297 1.403v.246a.234.234 0 0 1-.082.184.237.237 0 0 1-.174.072h-3.277v.071c.007.198.041.38.103.543a.772.772 0 0 0 .758.532.82.82 0 0 0 .337-.06c.096-.049.175-.1.236-.155a2.12 2.12 0 0 0 .143-.153.482.482 0 0 1 .144-.123c.04-.02.102-.03.184-.03h1.27c.068 0 .123.02.164.06.047.035.068.086.061.154-.007.116-.065.256-.174.42a2.16 2.16 0 0 1-.481.492 2.591 2.591 0 0 1-.779.389 3.549 3.549 0 0 1-1.095.153Zm-.87-3.307h1.73v-.02c0-.22-.034-.41-.102-.574a.752.752 0 0 0-.297-.379.814.814 0 0 0-.471-.133.813.813 0 0 0-.471.133.86.86 0 0 0-.287.379 1.482 1.482 0 0 0-.103.573v.02Zm6.479 3.307a2.45 2.45 0 0 1-.891-.153 1.947 1.947 0 0 1-.676-.471 2.287 2.287 0 0 1-.43-.758 3.59 3.59 0 0 1-.174-1.024 6.884 6.884 0 0 1 0-.717c.014-.368.072-.7.174-.993.102-.294.246-.546.43-.758a1.77 1.77 0 0 1 .676-.481c.266-.116.563-.174.89-.174a2.046 2.046 0 0 1 1.506.604v-2.191a.25.25 0 0 1 .072-.185.25.25 0 0 1 .184-.071h1.25c.068 0 .126.024.173.071.055.048.082.11.082.185v6.758a.234.234 0 0 1-.082.184.237.237 0 0 1-.174.072h-1.157a.25.25 0 0 1-.184-.072.25.25 0 0 1-.072-.184v-.328a1.93 1.93 0 0 1-.635.492c-.26.13-.58.194-.962.194Zm.553-1.372c.232 0 .413-.047.542-.143a.879.879 0 0 0 .297-.39c.069-.156.106-.327.113-.511a7.843 7.843 0 0 0 0-.768 1.196 1.196 0 0 0-.113-.471.827.827 0 0 0-.307-.359c-.136-.095-.314-.143-.532-.143-.226 0-.407.048-.543.143a.773.773 0 0 0-.277.39 2.188 2.188 0 0 0-.102.542c-.02.212-.02.423 0 .635.014.198.048.379.102.543a.773.773 0 0 0 .277.389c.136.095.317.143.543.143Zm5.876 1.372a2.05 2.05 0 0 1-1.044-.266 1.823 1.823 0 0 1-.707-.778c-.17-.348-.256-.772-.256-1.27v-2.857a.25.25 0 0 1 .072-.184.25.25 0 0 1 .184-.072h1.28a.25.25 0 0 1 .184.072.25.25 0 0 1 .072.184v2.796c0 .669.3 1.003.901 1.003.28 0 .502-.085.666-.256.17-.177.256-.426.256-.747V55.93a.25.25 0 0 1 .071-.184.25.25 0 0 1 .185-.072h1.28a.25.25 0 0 1 .184.072.25.25 0 0 1 .072.184v4.813a.25.25 0 0 1-.072.184.25.25 0 0 1-.184.072h-1.188a.273.273 0 0 1-.184-.072.25.25 0 0 1-.072-.184v-.39a1.71 1.71 0 0 1-.697.564c-.28.123-.614.184-1.003.184ZM50 61a.245.245 0 0 1-.165-.061.245.245 0 0 1-.05-.236.226.226 0 0 1 .04-.092l1.71-2.345-1.556-2.202a.548.548 0 0 1-.052-.082.338.338 0 0 1-.01-.081c0-.062.024-.113.072-.154a.225.225 0 0 1 .164-.072h1.249c.089 0 .154.02.195.062a.493.493 0 0 1 .102.112l.952 1.321.942-1.31c.028-.035.062-.072.103-.113.047-.048.116-.072.205-.072h1.198c.061 0 .112.024.153.072.048.04.072.092.072.154a.338.338 0 0 1-.01.081.23.23 0 0 1-.041.082l-1.598 2.202 1.73 2.345a.18.18 0 0 1 .052.082c.007.027.01.054.01.082a.226.226 0 0 1-.235.225h-1.3c-.083 0-.144-.017-.185-.051a1.4 1.4 0 0 1-.102-.113l-1.035-1.403-1.044 1.403-.103.103c-.04.04-.105.061-.194.061h-1.27Z"/></g><defs><filter id="a" width="80" height="80" x="0" y="0" color-interpolation-filters="sRGB" filterUnits="userSpaceOnUse"><feFlood flood-opacity="0" result="BackgroundImageFix"/><feColorMatrix in="SourceAlpha" result="hardAlpha" values="0 0 0 0 0 0 0 0 0 0 0 0 0 0 0 0 0 0 127 0"/><feOffset dy="2"/><feGaussianBlur stdDeviation="4"/><feColorMatrix values="0 0 0 0 0 0 0 0 0 0 0 0 0 0 0 0 0 0 0.75 0"/><feBlend in2="BackgroundImageFix" result="effect1_dropShadow_603_616"/><feBlend in="SourceGraphic" in2="effect1_dropShadow_603_616" result="shape"/></filter></defs></svg>