<svg xmlns="http://www.w3.org/2000/svg" width="80" height="80" fill="none"><g><rect width="64" height="64" x="8" y="6" fill="none" rx="5"/><path fill="url(#b)" d="M50.713 22.22a9.147 9.147 0 0 0-1.193-4.535c-2.016-2.075-6.4-2.556-7.492-.01-1.119 2.61 1.88 5.514 3.19 5.284 1.667-.294-.295-4.12-.295-4.12 2.551 4.807 1.962 3.335-2.649 7.751-4.61 4.416-9.32 13.732-10.008 14.125a.561.561 0 0 1-.093.05h18.088a.429.429 0 0 0 .383-.624l-4.729-9.36a.428.428 0 0 1 .167-.565 9.208 9.208 0 0 0 4.631-7.997Z"/><path fill="url(#c)" d="M50.713 22.22a9.147 9.147 0 0 0-1.193-4.535c-2.016-2.075-6.4-2.556-7.492-.01-1.119 2.61 1.88 5.514 3.19 5.284 1.667-.294-.295-4.12-.295-4.12 2.551 4.807 1.962 3.335-2.649 7.751-4.61 4.416-9.32 13.732-10.008 14.125a.561.561 0 0 1-.093.05h18.088a.429.429 0 0 0 .383-.624l-4.729-9.36a.428.428 0 0 1 .167-.565 9.208 9.208 0 0 0 4.631-7.997Z"/><path fill="url(#d)" d="M32.266 40.715c.687-.392 5.4-9.714 10.008-14.13 4.608-4.416 5.2-2.944 2.649-7.752 0 0-9.763 13.688-13.3 20.458"/><path fill="url(#e)" d="M33.639 28.449C40.233 16.326 41.1 15.1 44.531 15.1a6.253 6.253 0 0 1 4.8 2.262A9.21 9.21 0 0 0 41.636 13h-11.2a.427.427 0 0 0-.427.427V36a67.97 67.97 0 0 1 3.63-7.551Z"/><path fill="url(#f)" d="M42.274 26.585C37.662 31 32.953 40.322 32.266 40.715a2.076 2.076 0 0 1-2.453-.245c-.653-.73-1.668-1.913 3.827-12.02C40.233 16.326 41.1 15.1 44.53 15.1a6.253 6.253 0 0 1 4.8 2.262c.065.1.129.211.192.32-2.016-2.076-6.4-2.557-7.492-.01-1.12 2.61 1.879 5.513 3.189 5.283 1.668-.294-.294-4.12-.294-4.12 2.55 4.806 1.96 3.334-2.651 7.75Z"/><path fill="url(#g)" d="M34.179 28.99c6.594-12.124 7.457-13.346 10.892-13.346a6.3 6.3 0 0 1 4.121 1.556 6.255 6.255 0 0 0-4.661-2.1c-3.434 0-4.3 1.222-10.892 13.345-5.494 10.111-4.479 11.293-3.826 12.024.093.102.198.19.314.265-.574-.834-.827-2.772 4.052-11.745Z" opacity=".3"/><path fill="#2AF" d="M24.473 61a.25.25 0 0 1-.184-.072.25.25 0 0 1-.072-.184v-6.656a.25.25 0 0 1 .072-.184.25.25 0 0 1 .184-.072h2.785c.88 0 1.574.205 2.079.614.512.403.768.977.768 1.72 0 .485-.12.895-.359 1.23a2.18 2.18 0 0 1-.921.757l1.413 2.52c.02.04.03.078.03.112a.216.216 0 0 1-.071.154.209.209 0 0 1-.154.061h-1.351c-.13 0-.226-.03-.287-.092a.867.867 0 0 1-.133-.184l-1.167-2.253H26.05v2.273a.25.25 0 0 1-.072.184.25.25 0 0 1-.184.072h-1.321Zm1.577-3.973h1.188c.32 0 .56-.079.716-.236.164-.157.246-.372.246-.645 0-.266-.078-.481-.235-.645-.15-.164-.393-.246-.727-.246H26.05v1.772Zm7.583 4.075c-.573 0-1.058-.092-1.454-.276a2.076 2.076 0 0 1-.901-.789c-.205-.348-.32-.76-.348-1.239a9.346 9.346 0 0 1 0-.921c.027-.485.15-.898.369-1.24.218-.34.522-.603.91-.788.397-.184.871-.276 1.424-.276.56 0 1.034.092 1.424.276.395.185.703.447.921.789.219.341.341.754.369 1.239a9.346 9.346 0 0 1 0 .922c-.028.477-.147.89-.359 1.238a2.003 2.003 0 0 1-.9.789c-.39.184-.874.276-1.455.276Zm0-1.249c.307 0 .53-.092.666-.276.143-.185.225-.461.246-.83.006-.102.01-.239.01-.41 0-.17-.004-.307-.01-.409-.02-.362-.103-.635-.246-.82-.137-.19-.359-.286-.666-.286-.3 0-.522.096-.665.287-.144.184-.222.457-.236.819-.007.102-.01.239-.01.41 0 .17.003.307.01.41.014.368.092.644.236.829.143.184.365.276.665.276ZM37.62 61a.25.25 0 0 1-.184-.072.25.25 0 0 1-.072-.184v-6.758a.25.25 0 0 1 .072-.185.25.25 0 0 1 .184-.071h1.209a.25.25 0 0 1 .184.071.25.25 0 0 1 .072.185v6.758a.25.25 0 0 1-.072.184.25.25 0 0 1-.184.072H37.62Zm2.93 0a.25.25 0 0 1-.184-.072.25.25 0 0 1-.072-.184v-6.758a.25.25 0 0 1 .072-.185.25.25 0 0 1 .184-.071h1.209a.25.25 0 0 1 .184.071.25.25 0 0 1 .072.185v6.758a.25.25 0 0 1-.072.184.25.25 0 0 1-.184.072H40.55Zm4.63.102a2.05 2.05 0 0 1-1.044-.266 1.823 1.823 0 0 1-.707-.778c-.17-.348-.256-.772-.256-1.27v-2.857a.25.25 0 0 1 .072-.184.25.25 0 0 1 .184-.072h1.28a.25.25 0 0 1 .184.072.25.25 0 0 1 .072.184v2.796c0 .669.3 1.003.901 1.003.28 0 .502-.085.666-.256.17-.177.256-.426.256-.747V55.93a.25.25 0 0 1 .071-.184.25.25 0 0 1 .185-.072h1.28a.25.25 0 0 1 .184.072.25.25 0 0 1 .072.184v4.813a.25.25 0 0 1-.072.184.25.25 0 0 1-.184.072h-1.188a.273.273 0 0 1-.184-.072.25.25 0 0 1-.072-.184v-.39a1.71 1.71 0 0 1-.697.564c-.28.123-.614.184-1.003.184Zm4.86 1.844a.25.25 0 0 1-.184-.072.25.25 0 0 1-.072-.184v-6.76a.25.25 0 0 1 .072-.184.25.25 0 0 1 .184-.072h1.157c.069 0 .127.024.174.072.055.048.082.11.082.184v.38c.157-.212.365-.387.625-.523.26-.143.58-.215.962-.215.342 0 .642.054.902.164.259.102.48.256.665.46.184.205.328.454.43.748.11.294.17.631.185 1.014a7.656 7.656 0 0 1 0 .758 3.38 3.38 0 0 1-.175.993 2.17 2.17 0 0 1-.43.747c-.184.205-.41.365-.675.482-.26.109-.56.163-.901.163a2.09 2.09 0 0 1-.881-.174 1.718 1.718 0 0 1-.615-.512v2.274a.25.25 0 0 1-.071.184.25.25 0 0 1-.185.072H50.04Zm2.447-3.216c.233 0 .413-.047.543-.143a.773.773 0 0 0 .277-.39c.061-.163.099-.344.112-.542a4.943 4.943 0 0 0 0-.635 1.915 1.915 0 0 0-.112-.543.773.773 0 0 0-.277-.389c-.13-.095-.31-.143-.543-.143-.225 0-.406.051-.542.154a.815.815 0 0 0-.297.378 1.556 1.556 0 0 0-.103.512 7.24 7.24 0 0 0 0 .768c.007.171.045.332.113.482a.91.91 0 0 0 .307.358.94.94 0 0 0 .522.133Z"/></g><defs><linearGradient id="b" x1="37.146" x2="44.701" y1="27.913" y2="29.679" gradientUnits="userSpaceOnUse"><stop stop-color="#FF6533"/><stop offset=".157" stop-color="#FF5633"/><stop offset=".434" stop-color="#FF4333"/><stop offset=".714" stop-color="#FF3733"/><stop offset="1" stop-color="#F33"/></linearGradient><linearGradient id="c" x1="35.963" x2="49.504" y1="25.409" y2="35.908" gradientUnits="userSpaceOnUse"><stop stop-color="#BF3338"/><stop offset="1" stop-color="#F33"/></linearGradient><linearGradient id="d" x1="36.406" x2="38.368" y1="27.476" y2="29.536" gradientUnits="userSpaceOnUse"><stop stop-color="#FF6533"/><stop offset=".157" stop-color="#FF5633"/><stop offset=".434" stop-color="#FF4333"/><stop offset=".714" stop-color="#FF3733"/><stop offset="1" stop-color="#F33"/></linearGradient><linearGradient id="e" x1="39.974" x2="39.385" y1="31.023" y2="22.584" gradientUnits="userSpaceOnUse"><stop stop-color="#FF6533"/><stop offset=".157" stop-color="#FF5633"/><stop offset=".434" stop-color="#FF4333"/><stop offset=".714" stop-color="#FF3733"/><stop offset="1" stop-color="#F33"/></linearGradient><linearGradient id="f" x1="37.423" x2="40.211" y1="27.331" y2="29.227" gradientUnits="userSpaceOnUse"><stop stop-color="#FBB040"/><stop offset="1" stop-color="#FB8840"/></linearGradient><linearGradient id="g" x1="40.279" x2="37.434" y1="16.614" y2="47.915" gradientUnits="userSpaceOnUse"><stop stop-color="#fff"/><stop offset="1" stop-color="#fff" stop-opacity="0"/></linearGradient><filter id="a" width="80" height="80" x="0" y="0" color-interpolation-filters="sRGB" filterUnits="userSpaceOnUse"><feFlood flood-opacity="0" result="BackgroundImageFix"/><feColorMatrix in="SourceAlpha" result="hardAlpha" values="0 0 0 0 0 0 0 0 0 0 0 0 0 0 0 0 0 0 127 0"/><feOffset dy="2"/><feGaussianBlur stdDeviation="4"/><feColorMatrix values="0 0 0 0 0 0 0 0 0 0 0 0 0 0 0 0 0 0 0.75 0"/><feBlend in2="BackgroundImageFix" result="effect1_dropShadow_602_1072"/><feBlend in="SourceGraphic" in2="effect1_dropShadow_602_1072" result="shape"/></filter></defs></svg>