<svg xmlns="http://www.w3.org/2000/svg" width="80" height="80" fill="none"><g filter="url(#a)"><rect width="64" height="64" x="8" y="6" fill="#212529" rx="5"/><path fill="#8C3123" d="m28.916 16.542-2.129 1.065v18.686l2.129 1.058.013-.015v-20.78l-.013-.014Z"/><path fill="#E05243" d="M40.31 34.639 28.916 37.35V16.542l11.394 2.653v15.444Z"/><path fill="#8C3123" d="m35.167 30.392 4.833.616.03-.07.027-7.925-.057-.062-4.833.607v6.834Z"/><path fill="#8C3123" d="m40 34.67 11.083 2.687.017-.028V16.561l-.017-.019-11.084 2.683V34.67Z"/><path fill="#E05243" d="m44.834 30.392-4.835.616V22.95l4.835.607v6.834Z"/><path fill="#5E1F18" d="M44.834 20.252 40 21.134l-4.833-.882 4.826-1.265 4.84 1.265Z"/><path fill="#F2B0A9" d="M44.834 33.69 40 32.801l-4.833.887 4.827 1.347 4.84-1.347Z"/><path fill="#8C3123" d="M35.167 20.252 40 19.056l.039-.012v-8.012l-.04-.032-4.832 2.417v6.835Z"/><path fill="#E05243" d="m44.834 20.252-4.835-1.196V11l4.835 2.417v6.835Z"/><path fill="#8C3123" d="m40 42.94-4.834-2.415V33.69L40 34.885l.07.08-.019 7.836-.051.14Z"/><path fill="#E05243" d="m40 42.94 4.833-2.415V33.69L40 34.885v8.056Zm11.083-26.398 2.13 1.065v18.686l-2.13 1.064V16.542Z"/><path fill="#E5E5E5" d="M36.39 61.102c-.683 0-1.25-.095-1.7-.286-.451-.198-.792-.454-1.024-.768a1.778 1.778 0 0 1-.369-1.004c0-.054.02-.102.061-.143a.225.225 0 0 1 .164-.072h1.29a.37.37 0 0 1 .216.051.532.532 0 0 1 .143.133c.054.103.13.202.225.297.103.096.232.174.39.236.163.054.364.082.603.082.396 0 .693-.062.891-.184.205-.123.307-.29.307-.502a.468.468 0 0 0-.163-.369c-.11-.102-.287-.191-.533-.266a8.005 8.005 0 0 0-.962-.246 6.254 6.254 0 0 1-1.332-.42c-.361-.177-.638-.406-.829-.686-.191-.286-.287-.642-.287-1.065 0-.416.116-.788.348-1.116.24-.328.57-.584.994-.768.423-.184.925-.276 1.505-.276.471 0 .884.061 1.239.184.362.123.666.287.911.491.246.205.43.424.553.656.13.225.198.447.205.665 0 .055-.02.106-.061.154a.208.208 0 0 1-.154.061H37.67a.43.43 0 0 1-.194-.04.378.378 0 0 1-.144-.134c-.04-.15-.15-.28-.327-.389-.17-.116-.396-.174-.676-.174-.3 0-.536.055-.707.164-.163.102-.245.263-.245.481a.53.53 0 0 0 .133.359c.095.102.249.19.46.266.22.075.516.154.892.235.62.116 1.123.263 1.505.44.382.171.662.397.84.677.177.273.266.617.266 1.034 0 .464-.133.867-.4 1.208-.26.335-.62.59-1.085.768-.464.178-.997.266-1.598.266Zm6.718 0c-.532 0-.986-.061-1.362-.184a2.934 2.934 0 0 1-.922-.491 2.177 2.177 0 0 1-.532-.646 1.606 1.606 0 0 1-.184-.665c0-.062.02-.113.061-.154a.245.245 0 0 1 .164-.061h1.331c.082 0 .147.017.195.051a.39.39 0 0 1 .133.143c.055.13.133.236.235.318.11.082.24.14.39.174.15.027.314.04.491.04.348 0 .618-.078.809-.235a.819.819 0 0 0 .297-.665c0-.294-.092-.502-.277-.625-.184-.13-.447-.194-.788-.194h-1.137a.25.25 0 0 1-.184-.072.25.25 0 0 1-.072-.184v-.574a.436.436 0 0 1 .164-.348l1.68-1.423h-2.847a.272.272 0 0 1-.184-.072.25.25 0 0 1-.072-.184v-.963a.25.25 0 0 1 .072-.184.272.272 0 0 1 .184-.072h4.71a.25.25 0 0 1 .184.072.231.231 0 0 1 .082.184v.87a.414.414 0 0 1-.05.205.55.55 0 0 1-.113.133l-1.557 1.444.072.02c.389.048.737.154 1.044.318.307.157.55.379.727.666.178.286.267.652.267 1.095 0 .465-.134.867-.4 1.209-.26.334-.614.594-1.065.778-.45.184-.966.276-1.546.276Z"/></g><defs><filter id="a" width="80" height="80" x="0" y="0" color-interpolation-filters="sRGB" filterUnits="userSpaceOnUse"><feFlood flood-opacity="0" result="BackgroundImageFix"/><feColorMatrix in="SourceAlpha" result="hardAlpha" values="0 0 0 0 0 0 0 0 0 0 0 0 0 0 0 0 0 0 127 0"/><feOffset dy="2"/><feGaussianBlur stdDeviation="4"/><feColorMatrix values="0 0 0 0 0 0 0 0 0 0 0 0 0 0 0 0 0 0 0.75 0"/><feBlend in2="BackgroundImageFix" result="effect1_dropShadow_603_1553"/><feBlend in="SourceGraphic" in2="effect1_dropShadow_603_1553" result="shape"/></filter></defs></svg>