<svg xmlns="http://www.w3.org/2000/svg" width="80" height="80" fill="none"><g><rect width="64" height="64" x="8" y="6" fill="none" rx="5"/><path fill="#CD6799" d="M50.11 28.572a5.802 5.802 0 0 0-2.537.588 5.345 5.345 0 0 1-.568-1.314 3.533 3.533 0 0 1-.051-1.1 9.66 9.66 0 0 1 .332-1.192c-.005-.051-.061-.292-.624-.3-.563-.008-1.048.107-1.1.256-.098.272-.176.55-.235.834a19.675 19.675 0 0 1-1.713 3.294 3.186 3.186 0 0 1-.44-2.066 9.66 9.66 0 0 1 .332-1.192c-.005-.051-.061-.292-.624-.3-.563-.008-1.048.107-1.1.256-.052.149-.118.5-.235.834-.117.334-1.483 3.386-1.841 4.173a27.434 27.434 0 0 1-.628 1.279v.005c-.077.138-.16.266-.2.266a1.71 1.71 0 0 1 .01-.869c.2-1.059.69-2.705.685-2.762 0-.031.092-.317-.317-.465a.508.508 0 0 0-.578.1c-.036 0-.061.087-.061.087s.445-1.851-.85-1.851a3.856 3.856 0 0 0-2.474 1.683c-.348.189-1.09.593-1.882 1.028-.3.169-.614.338-.905.5-.02-.02-.041-.046-.061-.066-1.575-1.678-4.47-2.862-4.345-5.107.046-.818.327-2.966 5.559-5.575 4.306-2.122 7.733-1.534 8.326-.23.849 1.862-1.836 5.319-6.285 5.82a3.351 3.351 0 0 1-2.813-.711c-.235-.256-.271-.271-.358-.22-.143.077-.051.307 0 .44a2.625 2.625 0 0 0 1.606 1.263 8.55 8.55 0 0 0 5.217-.517c2.7-1.043 4.8-3.943 4.184-6.372-.62-2.465-4.71-3.278-8.582-1.9a19.5 19.5 0 0 0-6.595 3.783c-2.133 1.995-2.47 3.728-2.332 4.455.5 2.578 4.05 4.255 5.472 5.5a8.554 8.554 0 0 1-.194.107c-.711.353-3.421 1.77-4.1 3.268-.767 1.7.123 2.915.71 3.079a4.374 4.374 0 0 0 4.71-1.908 4.724 4.724 0 0 0 .424-4.353.107.107 0 0 0-.02-.031l.557-.327a27.2 27.2 0 0 1 1.028-.578 6.74 6.74 0 0 0-.363 1.862c-.07.973.227 1.937.834 2.7a.922.922 0 0 0 .675.22c.6 0 .875-.5 1.176-1.094.368-.726.7-1.57.7-1.57s-.414 2.281.71 2.281c.41 0 .824-.532 1.009-.8v.005s.01-.015.03-.051l.067-.107v-.01c.164-.286.532-.936 1.079-2.015.706-1.391 1.386-3.13 1.386-3.13.066.382.156.76.27 1.13.166.449.36.886.584 1.309-.164.23-.266.358-.266.358l.005.005c-.133.174-.276.363-.435.547a16.3 16.3 0 0 0-1.314 1.647.447.447 0 0 0 .123.6c.21.11.45.15.685.113.353-.02.7-.1 1.028-.235a3.45 3.45 0 0 0 .885-.465 1.98 1.98 0 0 0 .849-1.744 3.521 3.521 0 0 0-.322-1.233c.05-.072.1-.143.148-.215a23.426 23.426 0 0 0 1.534-2.649c.066.382.156.76.27 1.13.137.388.304.764.5 1.125a4.863 4.863 0 0 0-1.496 1.922c-.322.931-.072 1.35.4 1.447.258.018.516-.035.747-.153a3.38 3.38 0 0 0 .946-.486 2.125 2.125 0 0 0 1.043-1.729 3.27 3.27 0 0 0-.235-1.023 5.357 5.357 0 0 1 2.716-.312c2.434.286 2.915 1.805 2.823 2.445a1.618 1.618 0 0 1-.772 1.094c-.17.107-.225.143-.21.22.02.113.1.107.245.087A1.9 1.9 0 0 0 54 31.7c.077-1.5-1.355-3.145-3.887-3.13l-.003.002ZM31.33 34.9c-.808.88-1.933 1.212-2.42.931-.521-.3-.316-1.6.676-2.532a12.892 12.892 0 0 1 1.9-1.417c.118-.072.292-.174.5-.3l.056-.031.123-.077a3.494 3.494 0 0 1-.835 3.426Zm5.88-4c-.28.685-.868 2.44-1.226 2.342-.307-.082-.5-1.412-.061-2.726a6.195 6.195 0 0 1 .956-1.754c.44-.491.926-.655 1.043-.455a9.06 9.06 0 0 1-.711 2.593Zm4.854 2.322c-.118.061-.23.1-.281.072-.036-.02.05-.1.05-.1s.61-.655.85-.951c.138-.174.3-.378.476-.609v.066c0 .782-.757 1.309-1.094 1.524l-.001-.002Zm3.744-.854c-.087-.061-.072-.266.22-.905a3.41 3.41 0 0 1 .834-1.074c.053.151.08.31.082.471a1.547 1.547 0 0 1-1.135 1.509l-.001-.001Z"/><path fill="#2AF" d="M30.89 61.102c-.683 0-1.25-.095-1.7-.286-.451-.198-.792-.454-1.024-.768a1.778 1.778 0 0 1-.369-1.004c0-.054.02-.102.061-.143a.225.225 0 0 1 .164-.072h1.29a.37.37 0 0 1 .215.051.532.532 0 0 1 .144.133c.055.103.13.202.225.297.103.096.232.174.39.236.163.054.364.082.603.082.396 0 .693-.062.891-.184.205-.123.307-.29.307-.502a.468.468 0 0 0-.163-.369c-.11-.102-.287-.191-.533-.266a8.005 8.005 0 0 0-.962-.246 6.254 6.254 0 0 1-1.332-.42c-.361-.177-.638-.406-.829-.686-.191-.286-.287-.642-.287-1.065 0-.416.116-.788.348-1.116.24-.328.57-.584.994-.768.423-.184.925-.276 1.505-.276.471 0 .884.061 1.239.184.362.123.666.287.911.491.246.205.43.424.553.656.13.225.198.447.205.665 0 .055-.02.106-.061.154a.208.208 0 0 1-.154.061H32.17a.43.43 0 0 1-.194-.04.378.378 0 0 1-.144-.134c-.04-.15-.15-.28-.327-.389-.17-.116-.396-.174-.676-.174-.3 0-.536.055-.707.164-.163.102-.245.263-.245.481a.53.53 0 0 0 .133.359c.095.102.249.19.46.266.22.075.516.154.891.235.622.116 1.123.263 1.506.44.382.171.662.397.84.677.177.273.266.617.266 1.034 0 .464-.133.867-.4 1.208-.26.335-.62.59-1.085.768-.464.178-.997.266-1.598.266Zm5.592 0c-.369 0-.7-.068-.994-.204a1.832 1.832 0 0 1-.686-.574 1.359 1.359 0 0 1-.256-.809c0-.484.198-.867.594-1.147.396-.286.922-.481 1.577-.583l1.28-.195v-.143c0-.246-.051-.434-.154-.564-.102-.13-.29-.194-.563-.194a.891.891 0 0 0-.47.113.804.804 0 0 0-.277.307.294.294 0 0 1-.256.133H35.13a.236.236 0 0 1-.174-.061.207.207 0 0 1-.051-.164c0-.123.044-.263.133-.42.095-.164.239-.325.43-.482.191-.157.437-.286.737-.389.3-.102.662-.153 1.086-.153.443 0 .822.051 1.136.153.314.103.567.246.758.43.198.185.345.403.44.656.096.246.144.519.144.819v3.113a.234.234 0 0 1-.082.184.237.237 0 0 1-.174.072h-1.188a.25.25 0 0 1-.184-.072.25.25 0 0 1-.072-.184v-.358a1.47 1.47 0 0 1-.359.358 1.72 1.72 0 0 1-.532.256c-.198.068-.43.102-.696.102Zm.48-1.167c.199 0 .376-.04.533-.123a.896.896 0 0 0 .38-.4 1.48 1.48 0 0 0 .143-.685v-.144l-.87.154c-.322.055-.557.14-.707.256-.144.11-.215.239-.215.39a.45.45 0 0 0 .102.296.71.71 0 0 0 .266.195c.11.04.232.061.369.061Zm6.153 1.167c-.443 0-.822-.047-1.136-.143a2.799 2.799 0 0 1-.758-.369 1.732 1.732 0 0 1-.43-.44c-.095-.157-.147-.29-.154-.4a.207.207 0 0 1 .072-.184.245.245 0 0 1 .174-.082h1.168a.12.12 0 0 1 .05.01.522.522 0 0 1 .062.042c.089.047.178.109.266.184.09.068.192.13.308.184a.98.98 0 0 0 .42.082.947.947 0 0 0 .48-.112.366.366 0 0 0 .195-.338c0-.11-.03-.198-.092-.267-.061-.075-.188-.146-.379-.215a5.363 5.363 0 0 0-.84-.204 4.374 4.374 0 0 1-.931-.318 1.607 1.607 0 0 1-.615-.522 1.405 1.405 0 0 1-.215-.789c0-.273.09-.535.267-.788.177-.253.437-.457.778-.614.341-.164.761-.246 1.26-.246.395 0 .737.048 1.023.143.294.089.54.205.738.348.204.144.358.29.46.44.103.15.157.287.164.41a.235.235 0 0 1-.061.185.226.226 0 0 1-.164.071H44.16a.338.338 0 0 1-.082-.01.672.672 0 0 1-.072-.041 1.281 1.281 0 0 1-.245-.164 1.476 1.476 0 0 0-.287-.184.912.912 0 0 0-.41-.082c-.184 0-.327.04-.43.123a.408.408 0 0 0-.072.563c.062.075.181.143.359.205.184.061.468.13.85.205.47.075.846.198 1.126.368.28.164.478.359.594.584.116.218.174.45.174.696 0 .328-.099.618-.297.87-.19.253-.477.451-.86.595-.382.136-.846.204-1.393.204Zm5.66 0c-.443 0-.822-.047-1.136-.143a2.799 2.799 0 0 1-.758-.369 1.732 1.732 0 0 1-.43-.44c-.096-.157-.147-.29-.154-.4a.207.207 0 0 1 .072-.184.245.245 0 0 1 .174-.082h1.168a.12.12 0 0 1 .05.01.522.522 0 0 1 .062.042c.089.047.178.109.266.184.09.068.192.13.308.184a.98.98 0 0 0 .42.082.947.947 0 0 0 .48-.112.366.366 0 0 0 .195-.338c0-.11-.03-.198-.092-.267-.061-.075-.188-.146-.379-.215a5.363 5.363 0 0 0-.84-.204 4.374 4.374 0 0 1-.931-.318 1.607 1.607 0 0 1-.615-.522 1.405 1.405 0 0 1-.215-.789c0-.273.09-.535.267-.788.177-.253.437-.457.778-.614.341-.164.761-.246 1.26-.246.395 0 .737.048 1.023.143.294.089.54.205.738.348.204.144.358.29.46.44.103.15.157.287.164.41a.235.235 0 0 1-.061.185.226.226 0 0 1-.164.071H49.82a.338.338 0 0 1-.082-.01.672.672 0 0 1-.072-.041 1.281 1.281 0 0 1-.245-.164 1.476 1.476 0 0 0-.287-.184.912.912 0 0 0-.41-.082c-.184 0-.327.04-.43.123a.408.408 0 0 0-.072.563c.062.075.181.143.359.205.184.061.468.13.85.205.47.075.846.198 1.126.368.28.164.478.359.594.584.116.218.174.45.174.696 0 .328-.099.618-.297.87-.19.253-.477.451-.86.595-.382.136-.846.204-1.392.204Z"/></g><defs><filter id="a" width="80" height="80" x="0" y="0" color-interpolation-filters="sRGB" filterUnits="userSpaceOnUse"><feFlood flood-opacity="0" result="BackgroundImageFix"/><feColorMatrix in="SourceAlpha" result="hardAlpha" values="0 0 0 0 0 0 0 0 0 0 0 0 0 0 0 0 0 0 127 0"/><feOffset dy="2"/><feGaussianBlur stdDeviation="4"/><feColorMatrix values="0 0 0 0 0 0 0 0 0 0 0 0 0 0 0 0 0 0 0.75 0"/><feBlend in2="BackgroundImageFix" result="effect1_dropShadow_601_5333"/><feBlend in="SourceGraphic" in2="effect1_dropShadow_601_5333" result="shape"/></filter></defs></svg>