<svg xmlns="http://www.w3.org/2000/svg" width="80" height="80" fill="none"><g filter="url(#a)"><rect width="64" height="64" x="8" y="6" fill="#212529" rx="5"/><g clip-path="url(#b)"><path fill="#76B3E1" d="M55.422 18.747s-10.217-7.518-18.12-5.783l-.579.193c-1.157.385-2.12.963-2.699 1.735l-.385.578-2.892 5.012 5.012.964c2.12 1.35 4.82 1.927 7.325 1.35l8.868 1.734 3.47-5.783Z"/><path fill="url(#c)" d="M55.422 18.747s-10.217-7.518-18.12-5.783l-.579.193c-1.157.385-2.12.963-2.699 1.735l-.385.578-2.892 5.012 5.012.964c2.12 1.35 4.82 1.927 7.325 1.35l8.868 1.734 3.47-5.783Z" opacity=".3"/><path fill="#518AC8" d="m34.024 18.747-.771.193c-3.277.964-4.241 4.048-2.506 6.747 1.928 2.506 5.976 3.855 9.253 2.891l11.952-4.048s-10.217-7.518-17.928-5.783Z"/><path fill="url(#d)" d="m34.024 18.747-.771.193c-3.277.964-4.241 4.048-2.506 6.747 1.928 2.506 5.976 3.855 9.253 2.891l11.952-4.048s-10.217-7.518-17.928-5.783Z" opacity=".3"/><path fill="url(#e)" d="M49.831 27.422a8.675 8.675 0 0 0-9.253-2.892l-11.952 3.856-3.855 6.747 21.59 3.662 3.856-6.94c.77-1.349.578-2.891-.386-4.433Z"/><path fill="url(#f)" d="M45.976 34.169a8.674 8.674 0 0 0-9.253-2.892L24.77 35.132s10.217 7.711 18.12 5.784l.579-.193c3.277-.964 4.434-4.048 2.506-6.554Z"/></g><path fill="#E5E5E5" d="M30.39 61.102c-.683 0-1.25-.095-1.7-.286-.451-.198-.792-.454-1.024-.768a1.778 1.778 0 0 1-.369-1.004c0-.054.02-.102.061-.143a.225.225 0 0 1 .164-.072h1.29a.37.37 0 0 1 .215.051.532.532 0 0 1 .144.133c.055.103.13.202.225.297.103.096.232.174.39.236.163.054.364.082.603.082.396 0 .693-.062.891-.184.205-.123.307-.29.307-.502a.468.468 0 0 0-.163-.369c-.11-.102-.287-.191-.533-.266a8.005 8.005 0 0 0-.962-.246 6.254 6.254 0 0 1-1.332-.42c-.361-.177-.638-.406-.829-.686-.191-.286-.287-.642-.287-1.065 0-.416.116-.788.348-1.116.24-.328.57-.584.994-.768.423-.184.925-.276 1.505-.276.471 0 .884.061 1.239.184.362.123.666.287.911.491.246.205.43.424.553.656.13.225.198.447.205.665 0 .055-.02.106-.061.154a.208.208 0 0 1-.154.061H31.67a.43.43 0 0 1-.194-.04.378.378 0 0 1-.144-.134c-.04-.15-.15-.28-.327-.389-.17-.116-.396-.174-.676-.174-.3 0-.536.055-.707.164-.163.102-.245.263-.245.481a.53.53 0 0 0 .133.359c.095.102.249.19.46.266.22.075.516.154.891.235.622.116 1.123.263 1.506.44.382.171.662.397.84.677.177.273.266.617.266 1.034 0 .464-.133.867-.4 1.208-.26.335-.62.59-1.085.768-.464.178-.997.266-1.598.266Zm6.513 0c-.573 0-1.058-.092-1.454-.276a2.076 2.076 0 0 1-.901-.789c-.205-.348-.32-.76-.348-1.239a9.346 9.346 0 0 1 0-.921c.027-.485.15-.898.368-1.24.219-.34.523-.603.912-.788.396-.184.87-.276 1.423-.276.56 0 1.034.092 1.424.276.395.185.703.447.921.789.219.341.342.754.369 1.239a9.346 9.346 0 0 1 0 .922c-.028.477-.147.89-.359 1.238a2.003 2.003 0 0 1-.9.789c-.39.184-.874.276-1.455.276Zm0-1.249c.307 0 .53-.092.666-.276.143-.185.225-.461.246-.83.006-.102.01-.239.01-.41 0-.17-.004-.307-.01-.409-.02-.362-.103-.635-.246-.82-.137-.19-.359-.286-.666-.286-.3 0-.522.096-.665.287-.144.184-.222.457-.236.819-.007.102-.01.239-.01.41 0 .17.003.307.01.41.014.368.092.644.236.829.143.184.365.276.665.276ZM40.89 61a.25.25 0 0 1-.184-.072.25.25 0 0 1-.072-.184v-6.758a.25.25 0 0 1 .072-.185.25.25 0 0 1 .184-.071h1.21a.25.25 0 0 1 .184.071.25.25 0 0 1 .072.185v6.758a.25.25 0 0 1-.072.184.25.25 0 0 1-.184.072h-1.21Zm3.28 0a.25.25 0 0 1-.184-.072.25.25 0 0 1-.072-.184v-4.813a.25.25 0 0 1 .072-.184.25.25 0 0 1 .184-.072h1.209c.068 0 .126.024.174.072.054.048.082.11.082.184v4.813a.234.234 0 0 1-.082.184.237.237 0 0 1-.174.072H44.17Zm-.01-6.093a.25.25 0 0 1-.184-.071.25.25 0 0 1-.072-.185v-.911a.25.25 0 0 1 .072-.184.234.234 0 0 1 .184-.082h1.219c.075 0 .136.027.184.082a.234.234 0 0 1 .082.184v.911a.234.234 0 0 1-.082.184.25.25 0 0 1-.184.072h-1.22Zm4.66 6.195c-.327 0-.624-.05-.89-.153a1.947 1.947 0 0 1-.676-.471 2.287 2.287 0 0 1-.43-.758 3.59 3.59 0 0 1-.174-1.024 6.884 6.884 0 0 1 0-.717c.014-.368.072-.7.174-.993.102-.294.246-.546.43-.758a1.77 1.77 0 0 1 .676-.481c.266-.116.563-.174.89-.174a2.046 2.046 0 0 1 1.506.604v-2.191a.25.25 0 0 1 .072-.185.25.25 0 0 1 .184-.071h1.25c.068 0 .126.024.173.071.055.048.082.11.082.185v6.758a.234.234 0 0 1-.082.184.237.237 0 0 1-.174.072h-1.157a.25.25 0 0 1-.184-.072.25.25 0 0 1-.072-.184v-.328a1.93 1.93 0 0 1-.635.492c-.26.13-.58.194-.962.194Zm.554-1.372c.232 0 .413-.047.542-.143a.879.879 0 0 0 .297-.39c.069-.156.106-.327.113-.511a7.843 7.843 0 0 0 0-.768 1.196 1.196 0 0 0-.113-.471.827.827 0 0 0-.307-.359c-.136-.095-.314-.143-.532-.143-.226 0-.407.048-.543.143a.773.773 0 0 0-.277.39 2.188 2.188 0 0 0-.102.542c-.02.212-.02.423 0 .635.014.198.048.379.102.543a.773.773 0 0 0 .277.389c.136.095.317.143.543.143Z"/></g><defs><linearGradient id="c" x1="29.301" x2="53.301" y1="12.578" y2="24.241" gradientUnits="userSpaceOnUse"><stop offset=".1" stop-color="#76B3E1"/><stop offset=".3" stop-color="#DCF2FD"/><stop offset="1" stop-color="#76B3E1"/></linearGradient><linearGradient id="d" x1="42.468" x2="38.265" y1="18.284" y2="32.279" gradientUnits="userSpaceOnUse"><stop stop-color="#76B3E1"/><stop offset=".5" stop-color="#4377BB"/><stop offset="1" stop-color="#1F3B77"/></linearGradient><linearGradient id="e" x1="27.547" x2="51.817" y1="24.376" y2="40.877" gradientUnits="userSpaceOnUse"><stop stop-color="#315AA9"/><stop offset=".5" stop-color="#518AC8"/><stop offset="1" stop-color="#315AA9"/></linearGradient><linearGradient id="f" x1="38.496" x2="28.703" y1="26.361" y2="62.275" gradientUnits="userSpaceOnUse"><stop stop-color="#4377BB"/><stop offset=".5" stop-color="#1A336B"/><stop offset="1" stop-color="#1A336B"/></linearGradient><clipPath id="b"><path fill="#fff" d="M24 12h32v29.937H24z"/></clipPath><filter id="a" width="80" height="80" x="0" y="0" color-interpolation-filters="sRGB" filterUnits="userSpaceOnUse"><feFlood flood-opacity="0" result="BackgroundImageFix"/><feColorMatrix in="SourceAlpha" result="hardAlpha" values="0 0 0 0 0 0 0 0 0 0 0 0 0 0 0 0 0 0 127 0"/><feOffset dy="2"/><feGaussianBlur stdDeviation="4"/><feColorMatrix values="0 0 0 0 0 0 0 0 0 0 0 0 0 0 0 0 0 0 0.75 0"/><feBlend in2="BackgroundImageFix" result="effect1_dropShadow_602_1771"/><feBlend in="SourceGraphic" in2="effect1_dropShadow_602_1771" result="shape"/></filter></defs></svg>