<svg xmlns="http://www.w3.org/2000/svg" width="80" height="80" fill="none"><g><rect width="64" height="64" x="8" y="6" fill="none" rx="5"/><path fill="#0F80CC" d="M47.192 14.242h-17.57a2.147 2.147 0 0 0-2.14 2.14V35.76a2.147 2.147 0 0 0 2.14 2.14h11.573c-.132-5.757 1.835-16.931 5.997-23.657Z"/><path fill="url(#b)" d="M46.554 14.867H29.623a1.518 1.518 0 0 0-1.516 1.516v17.962a42.012 42.012 0 0 1 13.569-2.684 123.566 123.566 0 0 1 4.878-16.794Z"/><path fill="#003B57" d="M51.29 13.608c-1.2-1.073-2.66-.642-4.1.634-.213.19-.426.4-.638.625A25.4 25.4 0 0 0 41.1 26c.269.586.48 1.196.634 1.822.036.14.069.272.1.384.062.265.1.437.1.437s-.022-.083-.113-.346l-.059-.17a2.083 2.083 0 0 0-.038-.094c-.16-.373-.6-1.16-.8-1.5-.167.493-.315.954-.438 1.371.415.893.72 1.833.908 2.8 0 0-.03-.115-.171-.515a19.023 19.023 0 0 0-.9-1.708 4.039 4.039 0 0 0-.264 1.724c.22.44.386.904.493 1.383.334 1.283.566 2.846.566 2.846l.02.263a26.148 26.148 0 0 0 .065 3.205c.05 1.055.246 2.099.584 3.1l.18-.1a13.859 13.859 0 0 1-.478-4.628c.188-3.304.84-6.566 1.938-9.688 2.01-5.308 4.8-9.568 7.35-11.6-2.326 2.1-5.474 8.9-6.417 11.418a45.66 45.66 0 0 0-2.254 8A6.21 6.21 0 0 1 45.39 31s1.233-1.521 2.674-3.693c-.93.194-1.85.439-2.755.733-.7.294-.889.394-.889.394a23.945 23.945 0 0 1 4.215-2.007c2.676-4.215 5.592-10.2 2.656-12.824"/><path fill="#2AF" d="M26.39 61.102c-.683 0-1.25-.095-1.7-.286-.451-.198-.792-.454-1.024-.768a1.778 1.778 0 0 1-.369-1.004c0-.054.02-.102.061-.143a.225.225 0 0 1 .164-.072h1.29a.37.37 0 0 1 .215.051.532.532 0 0 1 .144.133c.055.103.13.202.225.297.103.096.232.174.39.236.163.054.364.082.603.082.396 0 .693-.062.891-.184.205-.123.307-.29.307-.502a.468.468 0 0 0-.163-.369c-.11-.102-.287-.191-.533-.266a8.005 8.005 0 0 0-.962-.246 6.254 6.254 0 0 1-1.332-.42c-.361-.177-.638-.406-.829-.686-.191-.286-.287-.642-.287-1.065 0-.416.116-.788.348-1.116.24-.328.57-.584.994-.768.423-.184.925-.276 1.505-.276.471 0 .884.061 1.239.184.362.123.666.287.911.491.246.205.43.424.553.656.13.225.198.447.205.665 0 .055-.02.106-.061.154a.208.208 0 0 1-.154.061H27.67a.43.43 0 0 1-.194-.04.378.378 0 0 1-.144-.134c-.04-.15-.15-.28-.327-.389-.17-.116-.396-.174-.676-.174-.3 0-.536.055-.707.164-.163.102-.245.263-.245.481a.53.53 0 0 0 .133.359c.095.102.249.19.46.266.22.075.516.154.891.235.622.116 1.123.263 1.506.44.382.171.662.397.84.677.177.273.266.617.266 1.034 0 .464-.133.867-.4 1.208-.26.335-.62.59-1.085.768-.464.178-.997.266-1.598.266Zm8.674.564a.346.346 0 0 1-.256-.093 2.25 2.25 0 0 1-.133-.143l-.348-.46a2.88 2.88 0 0 1-.912.132c-.628 0-1.174-.102-1.638-.307a2.467 2.467 0 0 1-1.086-.921c-.26-.417-.399-.936-.42-1.557a38.021 38.021 0 0 1 0-1.771c.021-.615.164-1.13.43-1.547a2.48 2.48 0 0 1 1.096-.952c.464-.212 1.004-.317 1.618-.317.621 0 1.164.105 1.628.317.465.212.83.53 1.096.952.266.417.41.932.43 1.547a19.552 19.552 0 0 1 0 1.771c-.04.847-.287 1.502-.737 1.966l.747 1.065a.192.192 0 0 1 .03.102.165.165 0 0 1-.05.144.194.194 0 0 1-.154.072h-1.341Zm-1.649-2.038c.362 0 .656-.11.88-.328.233-.218.356-.566.37-1.044a17.526 17.526 0 0 0 0-1.68c-.007-.32-.065-.58-.175-.778a1.04 1.04 0 0 0-.44-.45 1.36 1.36 0 0 0-.635-.144c-.232 0-.44.048-.624.143a1.041 1.041 0 0 0-.44.451c-.11.198-.168.457-.175.778a34.504 34.504 0 0 0 0 1.68c.014.477.133.826.359 1.044.232.219.525.328.88.328ZM38.043 61a.25.25 0 0 1-.184-.072.25.25 0 0 1-.072-.184v-6.656a.25.25 0 0 1 .072-.184.25.25 0 0 1 .184-.072h1.352c.068 0 .126.024.174.072a.233.233 0 0 1 .081.184v5.366h3.093c.075 0 .136.027.184.082a.231.231 0 0 1 .082.184v1.024a.234.234 0 0 1-.082.184.25.25 0 0 1-.184.072h-4.7Zm5.997 0a.25.25 0 0 1-.184-.072.25.25 0 0 1-.072-.184v-4.813a.25.25 0 0 1 .072-.184.25.25 0 0 1 .184-.072h1.209c.068 0 .126.024.174.072.054.048.081.11.081.184v4.813a.234.234 0 0 1-.081.184.237.237 0 0 1-.175.072H44.04Zm-.01-6.093a.25.25 0 0 1-.184-.071.25.25 0 0 1-.072-.185v-.911a.25.25 0 0 1 .072-.184.234.234 0 0 1 .184-.082h1.218c.076 0 .137.027.185.082a.234.234 0 0 1 .082.184v.911a.234.234 0 0 1-.082.184.25.25 0 0 1-.184.072h-1.22ZM49.428 61c-.437 0-.816-.068-1.137-.205a1.578 1.578 0 0 1-.727-.655c-.17-.3-.256-.686-.256-1.157v-1.966h-.798a.286.286 0 0 1-.195-.072.25.25 0 0 1-.072-.184v-.83a.25.25 0 0 1 .072-.184.286.286 0 0 1 .195-.072h.798v-1.69a.25.25 0 0 1 .072-.184.273.273 0 0 1 .184-.071h1.188a.25.25 0 0 1 .184.071.25.25 0 0 1 .072.185v1.69h1.28a.25.25 0 0 1 .184.07.25.25 0 0 1 .072.185v.83a.25.25 0 0 1-.072.184.25.25 0 0 1-.184.072h-1.28v1.822c0 .233.044.417.133.553.089.137.24.205.45.205h.79a.25.25 0 0 1 .184.072.25.25 0 0 1 .071.184v.891a.25.25 0 0 1-.071.184.25.25 0 0 1-.185.072h-.952Zm4.514.102c-.806 0-1.447-.218-1.925-.655-.478-.437-.727-1.085-.748-1.946v-.358c.02-.54.14-1 .358-1.382.226-.39.533-.683.922-.881.396-.205.857-.307 1.383-.307.6 0 1.095.12 1.484.358.396.24.693.563.891.973.198.41.297.877.297 1.403v.246a.234.234 0 0 1-.082.184.237.237 0 0 1-.174.072h-3.277v.071c.007.198.041.38.103.543a.772.772 0 0 0 .758.532.82.82 0 0 0 .337-.06c.096-.049.175-.1.236-.155a2.12 2.12 0 0 0 .143-.153.482.482 0 0 1 .144-.123c.04-.02.102-.03.184-.03h1.27c.068 0 .123.02.164.06.047.035.068.086.061.154-.007.116-.065.256-.174.42a2.16 2.16 0 0 1-.481.492 2.591 2.591 0 0 1-.779.389 3.549 3.549 0 0 1-1.095.153Zm-.87-3.307h1.73v-.02c0-.22-.034-.41-.102-.574a.752.752 0 0 0-.297-.379.814.814 0 0 0-.471-.133.813.813 0 0 0-.471.133.86.86 0 0 0-.287.379 1.482 1.482 0 0 0-.103.573v.02Z"/></g><defs><linearGradient id="b" x1="37.309" x2="37.309" y1="15.306" y2="33.305" gradientUnits="userSpaceOnUse"><stop stop-color="#97D9F6"/><stop offset=".92" stop-color="#0F80CC"/><stop offset="1" stop-color="#0F80CC"/></linearGradient><filter id="a" width="80" height="80" x="0" y="0" color-interpolation-filters="sRGB" filterUnits="userSpaceOnUse"><feFlood flood-opacity="0" result="BackgroundImageFix"/><feColorMatrix in="SourceAlpha" result="hardAlpha" values="0 0 0 0 0 0 0 0 0 0 0 0 0 0 0 0 0 0 127 0"/><feOffset dy="2"/><feGaussianBlur stdDeviation="4"/><feColorMatrix values="0 0 0 0 0 0 0 0 0 0 0 0 0 0 0 0 0 0 0.75 0"/><feBlend in2="BackgroundImageFix" result="effect1_dropShadow_603_787"/><feBlend in="SourceGraphic" in2="effect1_dropShadow_603_787" result="shape"/></filter></defs></svg>