<svg xmlns="http://www.w3.org/2000/svg" width="80" height="80" fill="rgba(0,0,255,0.2)"><g><rect width="64" height="64" x="8" y="6" fill="#0D1117" rx="5"/><g clip-path="url(#b)"><path fill="#fff" d="M40.218 42.144c3.5-12.514 3.398-12.57 5.928-21.493l.608.352c.33.19.601.033.601-.348V16.4c.672-2.35 1.197-4.168 1.352-4.712h2.74L56 15.904l-2.99 2.585 2.261 2.445-14.903 21.21c-.072.12-.174.093-.15 0Zm1.628-26.973c.136 0 .244.074.244.168v2.18c0 .09-.11.165-.244.165h-3.68c-.136 0-.246-.074-.246-.166v-2.18c0-.093.11-.169.245-.169h3.68v.002Zm4.544-2.415-4.05 2.338a.448.448 0 0 1 .075.244v2.182a.447.447 0 0 1-.117.296l4.09 2.361c.28.162.508.03.508-.292V13.05c0-.322-.227-.454-.506-.293Zm-8.796 4.764v-2.183c0-.09.03-.172.076-.243l-4.05-2.34c-.278-.16-.507-.028-.507.293v6.837c0 .321.229.453.508.291l4.09-2.361a.447.447 0 0 1-.116-.296v.002Zm2.038 24.624h.15c-3.499-12.514-3.398-12.57-5.928-21.493l-.608.352c-.33.19-.601.033-.601-.348V16.4c-.672-2.35-1.197-4.168-1.352-4.712h-2.74L24 15.904l2.99 2.585-2.262 2.446 14.904 21.21Zm.257-19.905a1.106 1.106 0 1 0 0-2.212 1.106 1.106 0 0 0 0 2.212Zm0 6.572a1.106 1.106 0 1 0 0-2.212 1.106 1.106 0 0 0 0 2.212Zm0 6.573a1.106 1.106 0 1 0 0-2.21 1.106 1.106 0 0 0 0 2.21Z"/></g><path fill="#E5E5E5" d="M20.89 61.102c-.683 0-1.25-.095-1.7-.286-.451-.198-.792-.454-1.024-.768a1.778 1.778 0 0 1-.369-1.004c0-.054.02-.102.061-.143a.225.225 0 0 1 .164-.072h1.29a.37.37 0 0 1 .215.051.532.532 0 0 1 .144.133c.055.103.13.202.225.297.103.096.232.174.39.236.163.054.364.082.603.082.396 0 .693-.062.891-.184.205-.123.307-.29.307-.502a.468.468 0 0 0-.163-.369c-.11-.102-.287-.191-.533-.266a8.005 8.005 0 0 0-.962-.246 6.254 6.254 0 0 1-1.332-.42c-.361-.177-.638-.406-.829-.686-.191-.286-.287-.642-.287-1.065 0-.416.116-.788.348-1.116.24-.328.57-.584.994-.768.423-.184.925-.276 1.505-.276.471 0 .884.061 1.239.184.362.123.666.287.911.491.246.205.43.424.553.656.13.225.198.447.205.665 0 .055-.02.106-.061.154a.208.208 0 0 1-.154.061H22.17a.43.43 0 0 1-.194-.04.378.378 0 0 1-.144-.134c-.04-.15-.15-.28-.327-.389-.17-.116-.396-.174-.676-.174-.3 0-.536.055-.707.164-.163.102-.245.263-.245.481a.53.53 0 0 0 .133.359c.095.102.249.19.46.266.22.075.516.154.891.235.622.116 1.123.263 1.506.44.382.171.662.397.84.677.177.273.266.617.266 1.034 0 .464-.133.867-.4 1.208-.26.335-.62.59-1.085.768-.464.178-.997.266-1.598.266ZM27.607 61c-.437 0-.816-.068-1.137-.205a1.578 1.578 0 0 1-.727-.655c-.17-.3-.256-.686-.256-1.157v-1.966h-.798a.286.286 0 0 1-.195-.072.25.25 0 0 1-.072-.184v-.83a.25.25 0 0 1 .072-.184.286.286 0 0 1 .195-.072h.798v-1.69a.25.25 0 0 1 .072-.184.273.273 0 0 1 .184-.071h1.188a.25.25 0 0 1 .184.071.25.25 0 0 1 .072.185v1.69h1.28a.25.25 0 0 1 .184.07.25.25 0 0 1 .072.185v.83a.25.25 0 0 1-.072.184.25.25 0 0 1-.184.072h-1.28v1.822c0 .233.045.417.133.553.089.137.24.205.45.205h.79a.25.25 0 0 1 .184.072.25.25 0 0 1 .071.184v.891a.25.25 0 0 1-.071.184.25.25 0 0 1-.185.072h-.952Zm3.05 1.946a.209.209 0 0 1-.216-.215v-.062a.564.564 0 0 1 .031-.072l.799-1.925-1.966-4.649a.323.323 0 0 1-.031-.123.305.305 0 0 1 .082-.153.194.194 0 0 1 .154-.072h1.167c.089 0 .153.024.194.072.048.04.079.089.093.143l1.177 2.98 1.198-2.98a.547.547 0 0 1 .103-.143c.047-.048.116-.072.205-.072h1.146c.062 0 .113.024.154.072.048.04.072.089.072.143 0 .034-.01.079-.031.133l-2.898 6.708a.347.347 0 0 1-.102.143c-.048.048-.116.072-.205.072h-1.127ZM36.03 61a.25.25 0 0 1-.184-.072.25.25 0 0 1-.072-.184v-6.758a.25.25 0 0 1 .072-.185.25.25 0 0 1 .184-.071h1.209a.25.25 0 0 1 .184.071.25.25 0 0 1 .072.185v6.758a.25.25 0 0 1-.072.184.25.25 0 0 1-.184.072H36.03Zm5.132.102c-.806 0-1.447-.218-1.925-.655-.478-.437-.727-1.085-.748-1.946v-.358c.02-.54.14-1 .358-1.382.226-.39.533-.683.922-.881.396-.205.857-.307 1.383-.307.6 0 1.095.12 1.484.358.396.24.693.563.891.973.198.41.297.877.297 1.403v.246a.234.234 0 0 1-.082.184.237.237 0 0 1-.174.072h-3.277v.071c.007.198.041.38.103.543a.772.772 0 0 0 .758.532.82.82 0 0 0 .337-.06c.096-.049.175-.1.236-.155a2.12 2.12 0 0 0 .143-.153.482.482 0 0 1 .144-.123c.04-.02.102-.03.184-.03h1.27c.068 0 .123.02.164.06.047.035.068.086.061.154-.007.116-.065.256-.174.42a2.16 2.16 0 0 1-.481.492 2.591 2.591 0 0 1-.779.389 3.549 3.549 0 0 1-1.095.153Zm-.87-3.307h1.73v-.02c0-.22-.034-.41-.102-.574a.752.752 0 0 0-.297-.379.814.814 0 0 0-.471-.133.813.813 0 0 0-.471.133.86.86 0 0 0-.287.379 1.482 1.482 0 0 0-.103.573v.02ZM45.04 61a.25.25 0 0 1-.184-.072.25.25 0 0 1-.072-.184v-6.758a.25.25 0 0 1 .072-.185.25.25 0 0 1 .184-.071h1.209a.25.25 0 0 1 .184.071.25.25 0 0 1 .072.185v6.758a.25.25 0 0 1-.072.184.25.25 0 0 1-.184.072H45.04Zm3.28 0a.25.25 0 0 1-.184-.072.25.25 0 0 1-.072-.184v-4.813a.25.25 0 0 1 .072-.184.25.25 0 0 1 .184-.072h1.209c.068 0 .126.024.174.072.054.048.081.11.081.184v4.813a.234.234 0 0 1-.081.184.237.237 0 0 1-.175.072H48.32Zm-.01-6.093a.25.25 0 0 1-.184-.071.25.25 0 0 1-.072-.185v-.911a.25.25 0 0 1 .072-.184.234.234 0 0 1 .184-.082h1.218c.076 0 .137.027.185.082a.234.234 0 0 1 .082.184v.911a.234.234 0 0 1-.082.184.25.25 0 0 1-.184.072h-1.22ZM51.56 61a.25.25 0 0 1-.184-.072.25.25 0 0 1-.072-.184v-4.813a.25.25 0 0 1 .072-.184.25.25 0 0 1 .184-.072h1.178a.25.25 0 0 1 .184.072.25.25 0 0 1 .072.184v.39c.177-.212.41-.39.696-.533a2.242 2.242 0 0 1 1.014-.215c.396 0 .744.088 1.044.266.308.178.547.44.717.788.178.342.266.762.266 1.26v2.857a.234.234 0 0 1-.082.184.237.237 0 0 1-.174.072h-1.29a.273.273 0 0 1-.184-.072.25.25 0 0 1-.072-.184v-2.795c0-.321-.078-.567-.235-.738-.15-.177-.376-.266-.676-.266-.28 0-.505.089-.676.266-.164.17-.246.417-.246.738v2.795a.234.234 0 0 1-.082.184.237.237 0 0 1-.174.072h-1.28Zm8.988 0c-.437 0-.816-.068-1.137-.205a1.578 1.578 0 0 1-.727-.655c-.17-.3-.256-.686-.256-1.157v-1.966h-.798a.286.286 0 0 1-.195-.072.25.25 0 0 1-.072-.184v-.83a.25.25 0 0 1 .072-.184.286.286 0 0 1 .195-.072h.798v-1.69a.25.25 0 0 1 .072-.184.273.273 0 0 1 .184-.071h1.188a.25.25 0 0 1 .184.071.25.25 0 0 1 .072.185v1.69h1.28a.25.25 0 0 1 .184.07.25.25 0 0 1 .072.185v.83a.25.25 0 0 1-.072.184.25.25 0 0 1-.184.072h-1.28v1.822c0 .233.044.417.133.553.089.137.24.205.45.205h.79a.25.25 0 0 1 .184.072.25.25 0 0 1 .071.184v.891a.25.25 0 0 1-.071.184.25.25 0 0 1-.185.072h-.952Z"/></g><defs><clipPath id="b"><path fill="#fff" d="M24 11h32v32H24z"/></clipPath><filter id="a" width="80" height="80" x="0" y="0" color-interpolation-filters="sRGB" filterUnits="userSpaceOnUse"><feFlood flood-opacity="0" result="BackgroundImageFix"/><feColorMatrix in="SourceAlpha" result="hardAlpha" values="0 0 0 0 0 0 0 0 0 0 0 0 0 0 0 0 0 0 127 0"/><feOffset dy="2"/><feGaussianBlur stdDeviation="4"/><feColorMatrix values="0 0 0 0 0 0 0 0 0 0 0 0 0 0 0 0 0 0 0.75 0"/><feBlend in2="BackgroundImageFix" result="effect1_dropShadow_602_707"/><feBlend in="SourceGraphic" in2="effect1_dropShadow_602_707" result="shape"/></filter></defs></svg>