<svg xmlns="http://www.w3.org/2000/svg" width="80" height="80" fill="none"><g filter="url(#a)"><rect width="64" height="64" x="8" y="6" fill="#212529" rx="5"/><path fill="#0288D1" d="M37.744 13.447c-.21.813-.37 1.605-.506 2.406a11.63 11.63 0 0 0-3.213 1.274c-.647-.458-1.307-.9-2.005-1.307l-3.199 3.177c.383.65.793 1.283 1.23 1.897a11.688 11.688 0 0 0-1.495 3.382c-.704.127-1.403.271-2.107.458v4.514c.656.175 1.306.31 1.963.427.27 1.3.76 2.545 1.448 3.68a22.423 22.423 0 0 0-1.035 1.63l3.195 3.195a23.02 23.02 0 0 0 1.56-.997 11.589 11.589 0 0 0 3.773 1.572c.108.604.24 1.204.395 1.798h4.535a27.1 27.1 0 0 0 .403-1.84 11.675 11.675 0 0 0 3.662-1.596 33.97 33.97 0 0 0 1.644 1.057l3.193-3.198a26.16 26.16 0 0 0-1.136-1.756 11.687 11.687 0 0 0 1.355-3.523c.717-.133 1.43-.275 2.148-.464V24.73a24.557 24.557 0 0 0-2.286-.484 11.773 11.773 0 0 0-1.394-3.222c.47-.657.913-1.334 1.324-2.03l-3.204-3.189c-.725.428-1.415.888-2.09 1.37a11.517 11.517 0 0 0-3.123-1.289 25.965 25.965 0 0 0-.514-2.439h-4.52Zm2.144 5.294h.025a8.437 8.437 0 0 1 2.923.518c.215.078.422.163.63.27a8.58 8.58 0 0 1 4.343 4.518 8.513 8.513 0 0 1 .057 6.327 8.592 8.592 0 0 1-4.463 4.69l-.057.038a8.554 8.554 0 0 1-6.716.064.035.035 0 0 0 0-.015 8.585 8.585 0 0 1-4.662-4.786l-.042-.114a8.532 8.532 0 0 1 .325-6.713 8.607 8.607 0 0 1 4.306-4.11 8.54 8.54 0 0 1 3.331-.687Zm2.78 2.072a1.177 1.177 0 0 0-1.127 1.566c.062.17.162.324.293.448l-1.084 1.88a2.382 2.382 0 0 0-1.07-.196 2.347 2.347 0 0 0-1.95 1.262l-2.326-.913v-.024a1.084 1.084 0 1 0-.204.53l2.324.913a2.35 2.35 0 0 0 .792 2.397l-1.084 1.692a1.42 1.42 0 0 0-1.505.277 1.445 1.445 0 1 0 1.975.015l1.084-1.686a2.35 2.35 0 0 0 2.728-.494l1.356 1.012a1.716 1.716 0 1 0 3.201.448 1.717 1.717 0 0 0-2.882-.882l-1.352-1.005a2.34 2.34 0 0 0-.618-3.063l1.085-1.879a1.178 1.178 0 1 0 .367-2.298h-.003Z"/><path fill="#E5E5E5" d="M30.39 61.102c-.683 0-1.25-.095-1.7-.286-.451-.198-.792-.454-1.024-.768a1.778 1.778 0 0 1-.369-1.004c0-.054.02-.102.061-.143a.225.225 0 0 1 .164-.072h1.29a.37.37 0 0 1 .215.051.532.532 0 0 1 .144.133c.055.103.13.202.225.297.103.096.232.174.39.236.163.054.364.082.603.082.396 0 .693-.062.891-.184.205-.123.307-.29.307-.502a.468.468 0 0 0-.163-.369c-.11-.102-.287-.191-.533-.266a8.005 8.005 0 0 0-.962-.246 6.254 6.254 0 0 1-1.332-.42c-.361-.177-.638-.406-.829-.686-.191-.286-.287-.642-.287-1.065 0-.416.116-.788.348-1.116.24-.328.57-.584.994-.768.423-.184.925-.276 1.505-.276.471 0 .884.061 1.239.184.362.123.666.287.911.491.246.205.43.424.553.656.13.225.198.447.205.665 0 .055-.02.106-.061.154a.208.208 0 0 1-.154.061H31.67a.43.43 0 0 1-.194-.04.378.378 0 0 1-.144-.134c-.04-.15-.15-.28-.327-.389-.17-.116-.396-.174-.676-.174-.3 0-.536.055-.707.164-.163.102-.245.263-.245.481a.53.53 0 0 0 .133.359c.095.102.249.19.46.266.22.075.516.154.891.235.622.116 1.123.263 1.506.44.382.171.662.397.84.677.177.273.266.617.266 1.034 0 .464-.133.867-.4 1.208-.26.335-.62.59-1.085.768-.464.178-.997.266-1.598.266ZM36.258 61c-.103 0-.178-.024-.226-.072a.864.864 0 0 1-.123-.184l-1.935-4.751a.204.204 0 0 1-.02-.093c0-.061.02-.112.061-.153a.237.237 0 0 1 .174-.072h1.157c.089 0 .157.024.205.072a.341.341 0 0 1 .092.143l1.157 3.144 1.168-3.144a.341.341 0 0 1 .092-.143c.048-.048.116-.072.205-.072h1.157c.061 0 .116.024.164.072.047.04.071.092.071.154a.204.204 0 0 1-.02.092l-1.936 4.751a.545.545 0 0 1-.122.184c-.048.048-.127.072-.236.072h-1.085Zm6.616 2.253c-.525 0-.962-.069-1.31-.205a2.609 2.609 0 0 1-.82-.492 1.968 1.968 0 0 1-.43-.573c-.088-.184-.136-.331-.143-.44a.207.207 0 0 1 .072-.185.285.285 0 0 1 .194-.071h1.3a.27.27 0 0 1 .154.04.334.334 0 0 1 .113.165c.034.075.078.153.133.235a.636.636 0 0 0 .246.195c.11.054.256.082.44.082.205 0 .376-.035.512-.103a.608.608 0 0 0 .307-.317c.069-.144.103-.338.103-.584v-.686a1.83 1.83 0 0 1-.604.42 2.314 2.314 0 0 1-.891.153c-.348 0-.656-.05-.922-.153a1.647 1.647 0 0 1-.666-.461 2.267 2.267 0 0 1-.42-.748 3.965 3.965 0 0 1-.173-1.013 6.952 6.952 0 0 1 0-.533c.02-.368.078-.7.174-.993a2.23 2.23 0 0 1 .41-.758c.184-.212.409-.372.675-.481a2.29 2.29 0 0 1 .922-.174c.368 0 .682.072.942.215.266.136.485.31.655.522v-.379c0-.068.024-.126.072-.174a.234.234 0 0 1 .184-.082h1.178c.075 0 .136.028.184.082a.223.223 0 0 1 .082.174v4.926c0 .519-.106.955-.317 1.31a2.027 2.027 0 0 1-.912.81c-.396.184-.877.276-1.444.276Zm-.071-3.697c.218 0 .396-.048.532-.143a.823.823 0 0 0 .297-.369c.068-.15.106-.31.113-.481.007-.075.01-.181.01-.318 0-.136-.003-.238-.01-.307a1.297 1.297 0 0 0-.113-.491.762.762 0 0 0-.297-.359c-.136-.095-.314-.143-.532-.143-.226 0-.407.048-.543.143a.834.834 0 0 0-.287.39 2.193 2.193 0 0 0-.102.542c-.007.15-.007.304 0 .461.014.198.048.379.102.543a.834.834 0 0 0 .287.389c.136.095.317.143.543.143Zm6.47 1.546c-.574 0-1.059-.092-1.455-.276a2.076 2.076 0 0 1-.901-.789c-.205-.348-.32-.76-.348-1.239a9.346 9.346 0 0 1 0-.921c.027-.485.15-.898.368-1.24.219-.34.523-.603.912-.788.396-.184.87-.276 1.423-.276.56 0 1.034.092 1.424.276.395.185.703.447.921.789.219.341.341.754.369 1.239a9.346 9.346 0 0 1 0 .922c-.028.477-.147.89-.359 1.238a2.003 2.003 0 0 1-.9.789c-.39.184-.875.276-1.455.276Zm0-1.249c.306 0 .528-.092.665-.276.143-.185.225-.461.246-.83.006-.102.01-.239.01-.41 0-.17-.004-.307-.01-.409-.02-.362-.103-.635-.246-.82-.137-.19-.359-.286-.666-.286-.3 0-.522.096-.665.287-.144.184-.222.457-.236.819-.007.102-.01.239-.01.41 0 .17.003.307.01.41.014.368.092.644.236.829.143.184.365.276.665.276Z"/></g><defs><filter id="a" width="80" height="80" x="0" y="0" color-interpolation-filters="sRGB" filterUnits="userSpaceOnUse"><feFlood flood-opacity="0" result="BackgroundImageFix"/><feColorMatrix in="SourceAlpha" result="hardAlpha" values="0 0 0 0 0 0 0 0 0 0 0 0 0 0 0 0 0 0 127 0"/><feOffset dy="2"/><feGaussianBlur stdDeviation="4"/><feColorMatrix values="0 0 0 0 0 0 0 0 0 0 0 0 0 0 0 0 0 0 0.75 0"/><feBlend in2="BackgroundImageFix" result="effect1_dropShadow_602_985"/><feBlend in="SourceGraphic" in2="effect1_dropShadow_602_985" result="shape"/></filter></defs></svg>