<svg xmlns="http://www.w3.org/2000/svg" width="80" height="80" fill="none"><g filter="url(#a)"><rect width="64" height="64" x="8" y="6" fill="#212529" rx="5"/><g clip-path="url(#b)"><path fill="#8F8F8F" d="M35.504 19.877h-.487v.485h.487v-.485Zm0 4.131h-.487v.486h.487v-.486Zm0-2.106h-.487v.485h.487v-.485Zm5.428-3.889h-5.915v.486h5.915v-.486Zm0 1.864h-5.185v.485h5.185v-.485Zm0 2.025h-5.185v.485h5.185v-.485Zm0 2.106h-5.185v.486h5.185v-.486Z"/><path fill="#8F8F8F" d="M41.337 16.555a.405.405 0 0 1 .405.404v8.345a.407.407 0 0 1-.405.406h-6.805a.406.406 0 0 1-.405-.406V16.96a.405.405 0 0 1 .405-.404h6.805Zm0-.325h-6.805a.729.729 0 0 0-.73.73v8.344a.73.73 0 0 0 .73.73h6.805a.73.73 0 0 0 .729-.73V16.96a.73.73 0 0 0-.73-.729Zm-5.833 14.988h-.487v.486h.487v-.486Zm0 2.025h-.487v.486h.487v-.486Zm0 2.107h-.487v.485h.487v-.486Zm5.428-5.995h-5.915v.486h5.915v-.486Zm0 1.867h-5.185v.478h5.185v-.478Zm0 4.131h-5.185v.479h5.185v-.479Zm0-2.106h-5.185v.478h5.185v-.478Z"/><path fill="#8F8F8F" d="M41.337 27.896a.405.405 0 0 1 .405.405v8.345a.406.406 0 0 1-.405.403h-6.805a.406.406 0 0 1-.405-.405v-8.345a.405.405 0 0 1 .405-.405h6.805v.003Zm0-.326h-6.805a.73.73 0 0 0-.73.729v8.345a.73.73 0 0 0 .73.729h6.805a.729.729 0 0 0 .729-.73V28.3a.729.729 0 0 0-.73-.724v-.005Zm4.293-6.397H43.2v.404h2.43v10.694H43.2v.405h2.835V21.173h-.405Z"/><path fill="#EF312D" d="M27.93 36.826a3.63 3.63 0 0 1 .2-.132c-.005-1.775-.02-5.067-.076-6.721 0-1.086 0-2.547-2.288-3.022 2.286-.475 2.288-1.935 2.288-3.021.063-1.82.074-5.624.077-7.207-.04-.025-.08-.05-.12-.079-.863-.614-1.368-1.593-1.523-2.74-.274.45-.448 1.009-.463 1.7a665.489 665.489 0 0 1-.24 8.326c-.056 1.538-.997 1.83-1.49 1.878a3.239 3.239 0 0 1-.295.003v2.28c.105-.004.202 0 .295 0 .492.048 1.434.34 1.49 1.879.025.682.166 4.774.24 8.325a3.42 3.42 0 0 0 .356 1.506c.113-1.246.627-2.313 1.55-2.975Z"/><path fill="#F6AD53" d="M28.011 16.644c.04.029.08.054.12.08v-.715s-.324-2.35 3.078-2.026v-1.945s-3.45-.218-4.721 1.866c.155 1.147.66 2.125 1.523 2.74Zm3.199 25.219v-1.945c-3.403.324-3.078-2.025-3.078-2.025v-1.2a3.947 3.947 0 0 0-.2.132c-.924.663-1.438 1.73-1.551 2.981 1.171 2.29 4.83 2.057 4.83 2.057Z"/><path fill="#EF312D" d="M55.705 25.776c-.492-.049-1.434-.341-1.49-1.879a640.72 640.72 0 0 1-.24-8.326 3.495 3.495 0 0 0-.278-1.341c-.17 1.099-.671 2.033-1.506 2.63a3.53 3.53 0 0 1-.32.202c.003 1.743.019 5.145.075 6.835 0 1.086 0 2.546 2.288 3.021-2.285.475-2.288 1.936-2.288 3.022-.056 1.697-.072 5.118-.076 6.855.14.073.274.155.402.247.788.564 1.278 1.427 1.475 2.447.147-.391.224-.805.228-1.223.074-3.551.215-7.643.24-8.325.056-1.538.997-1.831 1.49-1.879.093-.005.188-.007.295-.003v-2.28a3.247 3.247 0 0 1-.295-.003Z"/><path fill="#F6AD53" d="M53.697 14.23c-1.075-2.467-4.907-2.224-4.907-2.224v1.945c3.403-.323 3.078 2.026 3.078 2.026v1.085a3.53 3.53 0 0 0 .322-.2c.836-.599 1.337-1.533 1.507-2.632Zm-1.425 22.811a3.462 3.462 0 0 0-.402-.246v1.067s.324 2.349-3.078 2.025v1.945s3.953.251 4.957-2.342c-.196-1.021-.69-1.884-1.477-2.449Z"/></g><path fill="#E5E5E5" d="M18.55 61a.25.25 0 0 1-.185-.072.25.25 0 0 1-.071-.184V55.44H16.47a.25.25 0 0 1-.184-.072.273.273 0 0 1-.072-.184v-1.096a.25.25 0 0 1 .072-.184.25.25 0 0 1 .184-.072h5.51a.25.25 0 0 1 .183.072.25.25 0 0 1 .072.184v1.096a.27.27 0 0 1-.072.184.25.25 0 0 1-.184.072h-1.823v5.304a.25.25 0 0 1-.071.184.25.25 0 0 1-.185.072h-1.35Zm5.067 1.946a.209.209 0 0 1-.215-.215v-.062a.564.564 0 0 1 .031-.072l.799-1.925-1.966-4.649a.323.323 0 0 1-.031-.123.305.305 0 0 1 .082-.153.194.194 0 0 1 .154-.072h1.167c.089 0 .153.024.194.072.048.04.079.089.093.143l1.177 2.98 1.198-2.98a.547.547 0 0 1 .103-.143c.048-.048.116-.072.205-.072h1.146c.062 0 .113.024.154.072.048.04.072.089.072.143 0 .034-.01.079-.031.133l-2.898 6.708a.347.347 0 0 1-.102.143c-.048.048-.116.072-.205.072h-1.127Zm5.373 0a.25.25 0 0 1-.184-.072.25.25 0 0 1-.072-.184v-6.76a.25.25 0 0 1 .072-.184.25.25 0 0 1 .184-.072h1.157c.069 0 .127.024.174.072.055.048.082.11.082.184v.38c.157-.212.366-.387.625-.523.26-.143.58-.215.963-.215.34 0 .641.054.9.164.26.102.482.256.666.46.184.205.328.454.43.748.11.294.17.631.185 1.014a7.656 7.656 0 0 1 0 .758c-.014.368-.072.7-.174.993a2.17 2.17 0 0 1-.43.747c-.185.205-.41.365-.676.482-.26.109-.56.163-.902.163a2.09 2.09 0 0 1-.88-.174 1.718 1.718 0 0 1-.615-.512v2.274a.25.25 0 0 1-.071.184.25.25 0 0 1-.185.072H28.99Zm2.448-3.216c.232 0 .413-.047.542-.143a.773.773 0 0 0 .277-.39c.061-.163.099-.344.112-.542a4.943 4.943 0 0 0 0-.635 1.915 1.915 0 0 0-.112-.543.773.773 0 0 0-.277-.389c-.13-.095-.31-.143-.543-.143-.225 0-.406.051-.542.154a.815.815 0 0 0-.297.378 1.556 1.556 0 0 0-.103.512 7.24 7.24 0 0 0 0 .768c.007.171.045.332.113.482a.91.91 0 0 0 .307.358.94.94 0 0 0 .523.133Zm6.214 1.372c-.806 0-1.447-.218-1.925-.655-.478-.437-.727-1.085-.748-1.946v-.358c.02-.54.14-1 .358-1.382.226-.39.533-.683.922-.881.396-.205.857-.307 1.383-.307.6 0 1.095.12 1.484.358.396.24.693.563.891.973.198.41.297.877.297 1.403v.246a.234.234 0 0 1-.082.184.237.237 0 0 1-.174.072h-3.277v.071c.007.198.041.38.103.543a.772.772 0 0 0 .758.532.82.82 0 0 0 .337-.06c.096-.049.175-.1.236-.155a2.12 2.12 0 0 0 .143-.153.482.482 0 0 1 .144-.123c.04-.02.102-.03.184-.03h1.27c.068 0 .123.02.164.06.047.035.068.086.061.154-.007.116-.065.256-.174.42a2.16 2.16 0 0 1-.481.492 2.591 2.591 0 0 1-.779.389 3.549 3.549 0 0 1-1.095.153Zm-.87-3.307h1.73v-.02c0-.22-.034-.41-.102-.574a.752.752 0 0 0-.297-.379.814.814 0 0 0-.471-.133.813.813 0 0 0-.472.133.86.86 0 0 0-.286.379 1.482 1.482 0 0 0-.103.573v.02Zm7.533 3.307c-.628 0-1.174-.102-1.638-.307a2.395 2.395 0 0 1-1.085-.921c-.26-.417-.403-.936-.43-1.557a38.021 38.021 0 0 1 0-1.771c.027-.615.17-1.13.43-1.547a2.48 2.48 0 0 1 1.095-.952c.465-.212 1.007-.317 1.628-.317.615 0 1.154.105 1.618.317.471.212.84.53 1.106.952.267.417.41.932.43 1.547a19.696 19.696 0 0 1 0 1.771c-.027.621-.17 1.14-.43 1.557-.26.41-.62.716-1.085.921-.464.205-1.01.307-1.639.307Zm0-1.474c.362 0 .656-.11.881-.328.232-.218.355-.566.369-1.044a17.393 17.393 0 0 0 0-1.68c-.014-.32-.075-.58-.185-.778a.985.985 0 0 0-.43-.45 1.359 1.359 0 0 0-.635-.144c-.232 0-.44.048-.624.143a1.04 1.04 0 0 0-.44.451c-.11.198-.171.457-.185.778a34.504 34.504 0 0 0 0 1.68c.02.477.143.826.369 1.044.225.219.519.328.88.328ZM48.933 61a.25.25 0 0 1-.184-.072.25.25 0 0 1-.072-.184v-6.656a.25.25 0 0 1 .072-.184.25.25 0 0 1 .184-.072h2.785c.88 0 1.574.205 2.079.614.512.403.768.977.768 1.72 0 .485-.12.895-.359 1.23a2.18 2.18 0 0 1-.921.757l1.413 2.52c.02.04.03.078.03.112a.216.216 0 0 1-.071.154.209.209 0 0 1-.154.061h-1.351c-.13 0-.226-.03-.287-.092a.867.867 0 0 1-.133-.184l-1.167-2.253H50.51v2.273a.25.25 0 0 1-.072.184.25.25 0 0 1-.184.072h-1.321Zm1.577-3.973h1.188c.32 0 .56-.079.716-.236.164-.157.246-.372.246-.645 0-.266-.078-.481-.235-.645-.15-.164-.393-.246-.727-.246H50.51v1.772ZM56.013 61a.272.272 0 0 1-.184-.072.25.25 0 0 1-.072-.184v-6.656a.25.25 0 0 1 .072-.184.272.272 0 0 1 .184-.072h1.106c.109 0 .19.03.245.092a.422.422 0 0 1 .113.133l1.802 3.236 1.803-3.236a.971.971 0 0 1 .102-.133c.055-.061.14-.092.256-.092h1.096a.25.25 0 0 1 .184.072.231.231 0 0 1 .082.184v6.656a.234.234 0 0 1-.082.184.25.25 0 0 1-.184.072h-1.219a.285.285 0 0 1-.194-.072.25.25 0 0 1-.072-.184v-3.84l-1.157 2.14a.471.471 0 0 1-.123.164.33.33 0 0 1-.225.072h-.533a.33.33 0 0 1-.225-.072.613.613 0 0 1-.133-.164l-1.157-2.14v3.84a.25.25 0 0 1-.072.184.25.25 0 0 1-.184.072h-1.23Z"/></g><defs><clipPath id="b"><path fill="#fff" d="M24 12h32v29.87H24z"/></clipPath><filter id="a" width="80" height="80" x="0" y="0" color-interpolation-filters="sRGB" filterUnits="userSpaceOnUse"><feFlood flood-opacity="0" result="BackgroundImageFix"/><feColorMatrix in="SourceAlpha" result="hardAlpha" values="0 0 0 0 0 0 0 0 0 0 0 0 0 0 0 0 0 0 127 0"/><feOffset dy="2"/><feGaussianBlur stdDeviation="4"/><feColorMatrix values="0 0 0 0 0 0 0 0 0 0 0 0 0 0 0 0 0 0 0.75 0"/><feBlend in2="BackgroundImageFix" result="effect1_dropShadow_603_897"/><feBlend in="SourceGraphic" in2="effect1_dropShadow_603_897" result="shape"/></filter></defs></svg>