<svg xmlns="http://www.w3.org/2000/svg" width="80" height="80" fill="rgba(0,0,255,0.2)"><g><rect width="64" height="64" x="8" y="6" fill="#0D1117" rx="5"/><g clip-path="url(#b)"><path fill="#3178C6" d="M51.2 11H28.8a4.8 4.8 0 0 0-4.8 4.8v22.4a4.8 4.8 0 0 0 4.8 4.8h22.4a4.8 4.8 0 0 0 4.8-4.8V15.8a4.8 4.8 0 0 0-4.8-4.8Z"/><path fill="#fff" d="M38.563 28.75h4v-2.562H31.374v2.562h4v11.438h3.188V28.75Zm5.25 10.813c.506.262 1.124.456 1.812.587.688.131 1.438.194 2.188.194.75 0 1.437-.069 2.124-.213a5.389 5.389 0 0 0 1.75-.687c.507-.331.938-.75 1.188-1.313.25-.562.444-1.187.444-2a4.12 4.12 0 0 0-.257-1.5 2.945 2.945 0 0 0-.75-1.125 4.964 4.964 0 0 0-1.124-.875c-.438-.25-.938-.512-1.5-.75-.413-.168-.75-.33-1.126-.493a4.876 4.876 0 0 1-.812-.488 2.231 2.231 0 0 1-.531-.525 1.098 1.098 0 0 1-.188-.625c0-.212.056-.406.169-.581.113-.175.269-.319.469-.444.2-.125.45-.219.75-.287.294-.07.619-.1 1-.1.262 0 .537.019.812.058a6.941 6.941 0 0 1 1.75.488c.275.125.532.269.75.431v-2.937c-.475-.182-1-.32-1.562-.407a12.532 12.532 0 0 0-1.938-.13 9.42 9.42 0 0 0-2.125.237 4.945 4.945 0 0 0-1.75.75c-.506.337-.875.75-1.187 1.312-.294.525-.438 1.125-.438 1.875 0 .938.269 1.75.813 2.375.537.688 1.375 1.188 2.437 1.688.431.175.813.35 1.188.518.375.17.687.344.937.525.269.182.481.382.625.594.157.213.238.463.238.75 0 .2-.049.388-.144.563a1.23 1.23 0 0 1-.444.45c-.2.125-.444.225-.75.3a4.572 4.572 0 0 1-1.062.106 5.665 5.665 0 0 1-2-.356c-.688-.238-1.313-.594-1.757-.965v3Z"/></g><path fill="#E5E5E5" d="M19.54 60a.2.2 0 0 1-.148-.057.2.2 0 0 1-.057-.148v-4.242h-1.458a.2.2 0 0 1-.148-.057.218.218 0 0 1-.057-.148v-.876a.2.2 0 0 1 .057-.148.2.2 0 0 1 .148-.057h4.406a.2.2 0 0 1 .147.057.2.2 0 0 1 .058.148v.876c0 .055-.02.104-.058.148a.2.2 0 0 1-.147.057h-1.458v4.242a.2.2 0 0 1-.057.148.2.2 0 0 1-.148.057h-1.08Zm4.053 1.556a.167.167 0 0 1-.172-.172v-.049a.445.445 0 0 1 .024-.057l.639-1.54-1.573-3.718a.258.258 0 0 1-.024-.099.245.245 0 0 1 .065-.123.155.155 0 0 1 .123-.057h.934c.07 0 .123.02.155.057a.22.22 0 0 1 .074.115l.942 2.384.958-2.384a.44.44 0 0 1 .082-.114c.038-.039.093-.058.164-.058h.917c.05 0 .09.02.123.057a.147.147 0 0 1 .057.115.32.32 0 0 1-.024.107l-2.318 5.364a.28.28 0 0 1-.082.115c-.038.038-.093.057-.164.057h-.9Zm4.297 0a.2.2 0 0 1-.148-.057.2.2 0 0 1-.057-.148v-5.405a.2.2 0 0 1 .057-.148.2.2 0 0 1 .148-.057h.925a.19.19 0 0 1 .14.057.187.187 0 0 1 .065.148v.303a1.45 1.45 0 0 1 .5-.418c.207-.114.463-.172.77-.172.272 0 .512.044.72.131.207.082.385.205.532.369.148.164.262.363.344.598.088.235.137.505.148.81a6.05 6.05 0 0 1 0 .607 2.71 2.71 0 0 1-.14.794 1.737 1.737 0 0 1-.343.598 1.55 1.55 0 0 1-.541.385 1.846 1.846 0 0 1-.72.13c-.268 0-.503-.046-.705-.138a1.375 1.375 0 0 1-.492-.41v1.818a.2.2 0 0 1-.057.148.2.2 0 0 1-.147.057h-1Zm1.957-2.572c.186 0 .33-.038.434-.114a.618.618 0 0 0 .221-.311c.05-.131.08-.276.09-.434.011-.17.011-.339 0-.508a1.533 1.533 0 0 0-.09-.434.618.618 0 0 0-.22-.312c-.105-.076-.25-.114-.435-.114-.18 0-.325.04-.434.123a.652.652 0 0 0-.238.303 1.256 1.256 0 0 0-.082.41 5.838 5.838 0 0 0 0 .613c.006.137.036.265.09.385.055.115.137.21.246.287.11.07.249.106.418.106Zm4.97 1.098c-.644 0-1.157-.175-1.54-.524-.382-.35-.581-.868-.597-1.556v-.287c.016-.431.111-.8.286-1.106a1.76 1.76 0 0 1 .737-.704 2.375 2.375 0 0 1 1.106-.246c.48 0 .876.096 1.188.287.316.191.554.45.712.778.158.328.238.702.238 1.122v.197c0 .06-.022.109-.066.147a.19.19 0 0 1-.14.057h-2.62v.058c.005.158.033.303.082.434a.618.618 0 0 0 .606.426c.11 0 .2-.017.27-.05a.863.863 0 0 0 .189-.122c.049-.05.087-.09.114-.123a.384.384 0 0 1 .115-.098.342.342 0 0 1 .147-.025h1.016c.055 0 .098.016.131.05.038.026.055.067.05.122-.006.093-.053.205-.14.336a1.723 1.723 0 0 1-.385.393 2.06 2.06 0 0 1-.623.311 2.827 2.827 0 0 1-.876.123Zm-.696-2.645h1.384v-.017c0-.175-.027-.327-.082-.459a.602.602 0 0 0-.237-.303.65.65 0 0 0-.377-.106.651.651 0 0 0-.377.106.69.69 0 0 0-.23.303 1.186 1.186 0 0 0-.081.46v.016Zm5.346 2.645c-.355 0-.658-.038-.909-.115a2.237 2.237 0 0 1-.606-.295 1.386 1.386 0 0 1-.344-.352.74.74 0 0 1-.123-.32.165.165 0 0 1 .057-.147.196.196 0 0 1 .14-.065h.933a.09.09 0 0 1 .041.008.359.359 0 0 1 .05.033c.07.038.141.087.212.147.071.055.153.104.246.148a.785.785 0 0 0 .336.065c.153 0 .281-.03.385-.09a.293.293 0 0 0 .155-.27.306.306 0 0 0-.073-.213c-.05-.06-.15-.117-.303-.172a4.29 4.29 0 0 0-.672-.164 3.503 3.503 0 0 1-.745-.254 1.286 1.286 0 0 1-.492-.418 1.124 1.124 0 0 1-.172-.63c0-.218.071-.429.213-.63.142-.203.35-.367.623-.492.273-.131.609-.197 1.007-.197.317 0 .59.038.82.115.234.07.43.164.589.278.164.115.286.233.368.353.082.12.126.229.131.327a.188.188 0 0 1-.049.148.18.18 0 0 1-.13.057h-.853a.268.268 0 0 1-.065-.008.541.541 0 0 1-.057-.033 1.027 1.027 0 0 1-.197-.131 1.177 1.177 0 0 0-.23-.148.73.73 0 0 0-.327-.065.538.538 0 0 0-.344.098.327.327 0 0 0-.057.45c.049.06.144.115.286.164.148.05.374.104.68.164.377.06.677.159.901.295.224.131.382.287.475.467.093.175.14.36.14.557a1.1 1.1 0 0 1-.238.696c-.153.202-.382.36-.688.475-.306.11-.677.164-1.114.164Zm4.732 0c-.404 0-.762-.074-1.073-.221a1.807 1.807 0 0 1-.745-.64 2.017 2.017 0 0 1-.295-1.015 5.38 5.38 0 0 1-.008-.327c0-.137.002-.249.008-.336.016-.399.114-.737.294-1.016.18-.284.426-.5.738-.647a2.534 2.534 0 0 1 1.08-.22c.377 0 .7.054.967.163.268.104.486.235.655.393.17.159.295.322.377.492.087.163.134.308.14.434a.177.177 0 0 1-.058.147.218.218 0 0 1-.148.057h-1.04a.211.211 0 0 1-.139-.04.377.377 0 0 1-.09-.123c-.065-.17-.15-.29-.254-.36a.642.642 0 0 0-.385-.107c-.218 0-.387.07-.508.213-.114.142-.177.36-.188.655-.005.218-.005.412 0 .581.011.3.074.52.188.656.12.136.29.204.508.204.17 0 .303-.035.402-.106.098-.071.177-.191.237-.36a.377.377 0 0 1 .09-.123.211.211 0 0 1 .14-.041h1.04c.054 0 .103.022.147.065a.156.156 0 0 1 .057.14 1.104 1.104 0 0 1-.082.327 1.74 1.74 0 0 1-.229.385c-.104.137-.24.265-.41.385a2.091 2.091 0 0 1-.597.278 2.838 2.838 0 0 1-.82.107ZM47.277 60a.2.2 0 0 1-.148-.057.2.2 0 0 1-.057-.148v-3.85a.19.19 0 0 1 .057-.138.187.187 0 0 1 .148-.066h.942c.06 0 .109.022.147.066a.19.19 0 0 1 .057.139v.328c.148-.17.323-.3.525-.394a1.7 1.7 0 0 1 .696-.139h.36a.19.19 0 0 1 .14.057.187.187 0 0 1 .065.148v.843a.204.204 0 0 1-.066.148.19.19 0 0 1-.139.057h-.794c-.224 0-.399.063-.525.189-.12.12-.18.292-.18.516v2.096a.19.19 0 0 1-.065.148.2.2 0 0 1-.148.057h-1.015Zm3.719 0a.2.2 0 0 1-.148-.057.2.2 0 0 1-.057-.148v-3.85a.2.2 0 0 1 .058-.147.2.2 0 0 1 .147-.057h.966a.19.19 0 0 1 .14.057.187.187 0 0 1 .065.148v3.85c0 .06-.022.108-.065.147a.19.19 0 0 1-.14.057h-.966Zm-.008-4.873a.2.2 0 0 1-.148-.057.2.2 0 0 1-.057-.148v-.729a.2.2 0 0 1 .057-.147.187.187 0 0 1 .148-.066h.974c.06 0 .11.022.148.066a.187.187 0 0 1 .065.147v.73c0 .06-.021.108-.065.147a.2.2 0 0 1-.148.057h-.974Zm2.6 6.43a.2.2 0 0 1-.148-.058.2.2 0 0 1-.057-.148v-5.405a.2.2 0 0 1 .057-.148.2.2 0 0 1 .147-.057h.926a.19.19 0 0 1 .139.057.187.187 0 0 1 .066.148v.303a1.45 1.45 0 0 1 .5-.418c.207-.114.463-.172.769-.172.273 0 .513.044.72.131.208.082.386.205.533.369.148.164.262.363.344.598.087.235.136.505.147.81a6.165 6.165 0 0 1 0 .607c-.01.294-.057.56-.139.794a1.735 1.735 0 0 1-.344.598 1.55 1.55 0 0 1-.54.385 1.846 1.846 0 0 1-.721.13c-.268 0-.502-.046-.704-.138a1.375 1.375 0 0 1-.492-.41v1.818a.2.2 0 0 1-.057.148.2.2 0 0 1-.148.057h-.999Zm1.957-2.573c.185 0 .33-.038.434-.114a.618.618 0 0 0 .22-.311c.05-.131.08-.276.091-.434.01-.17.01-.339 0-.508a1.53 1.53 0 0 0-.09-.434.618.618 0 0 0-.221-.312c-.104-.076-.249-.114-.434-.114-.18 0-.325.04-.434.123a.653.653 0 0 0-.238.303 1.256 1.256 0 0 0-.082.41 5.836 5.836 0 0 0 0 .613c.006.137.036.265.09.385.055.115.137.21.246.287.11.07.248.106.418.106ZM60.704 60a2.31 2.31 0 0 1-.91-.164 1.262 1.262 0 0 1-.58-.524c-.137-.24-.206-.549-.206-.925v-1.573h-.638a.229.229 0 0 1-.156-.057.2.2 0 0 1-.057-.148v-.663a.2.2 0 0 1 .057-.148.229.229 0 0 1 .156-.057h.639V54.39a.2.2 0 0 1 .057-.148.218.218 0 0 1 .147-.057h.95a.2.2 0 0 1 .148.057.2.2 0 0 1 .057.148v1.351h1.024a.2.2 0 0 1 .147.057.2.2 0 0 1 .058.148v.663a.2.2 0 0 1-.058.148.2.2 0 0 1-.147.057h-1.024v1.458c0 .186.035.333.106.442.072.11.192.164.36.164h.631a.2.2 0 0 1 .148.057.2.2 0 0 1 .057.148v.712a.2.2 0 0 1-.057.148.2.2 0 0 1-.148.057h-.761Z"/></g><defs><clipPath id="b"><path fill="#fff" d="M24 11h32v32H24z"/></clipPath><filter id="a" width="80" height="80" x="0" y="0" color-interpolation-filters="sRGB" filterUnits="userSpaceOnUse"><feFlood flood-opacity="0" result="BackgroundImageFix"/><feColorMatrix in="SourceAlpha" result="hardAlpha" values="0 0 0 0 0 0 0 0 0 0 0 0 0 0 0 0 0 0 127 0"/><feOffset dy="2"/><feGaussianBlur stdDeviation="4"/><feColorMatrix values="0 0 0 0 0 0 0 0 0 0 0 0 0 0 0 0 0 0 0.75 0"/><feBlend in2="BackgroundImageFix" result="effect1_dropShadow_601_4887"/><feBlend in="SourceGraphic" in2="effect1_dropShadow_601_4887" result="shape"/></filter></defs></svg>