<svg xmlns="http://www.w3.org/2000/svg" width="80" height="80" fill="none"><g><rect width="64" height="64" x="8" y="6" fill="none" rx="5"/><g clip-path="url(#b)"><path fill="#52218A" d="M28.623 36.05a1.333 1.333 0 0 1-1.38.218L24.82 35.25a1.333 1.333 0 0 1-.82-1.223v-14.22a1.333 1.333 0 0 1 .82-1.224l2.423-1c.464-.194.998-.11 1.38.217l.544.45a.737.737 0 0 0-1.167.6v16.133a.737.737 0 0 0 1.167.6l-.544.467Z"/><path fill="#6C33AF" d="M24.82 35.25a1.333 1.333 0 0 1-.82-1.223v-.11a.77.77 0 0 0 1.333.517L46 11.584a2 2 0 0 1 2.273-.387l6.594 3.174A2 2 0 0 1 56 16.174v.077a1.263 1.263 0 0 0-2.063-.977l-24.77 20.31-.544.467c-.382.326-.916.41-1.38.216l-2.423-1.016Z"/><path fill="#854CC7" d="M24.82 18.584a1.333 1.333 0 0 0-.82 1.224v.11a.77.77 0 0 1 1.333-.517L46 42.25a2 2 0 0 0 2.273.387l6.594-3.174A2 2 0 0 0 56 37.661v-.077a1.263 1.263 0 0 1-2.063.977l-24.77-20.31-.544-.467a1.333 1.333 0 0 0-1.38-.2l-2.423 1Z"/><path fill="#B179F1" d="M48.273 42.637A2 2 0 0 1 46 42.251a1.173 1.173 0 0 0 2-.83v-29a1.173 1.173 0 0 0-2-.837 2 2 0 0 1 2.273-.387l6.594 3.17A2 2 0 0 1 56 16.171v21.493a2 2 0 0 1-1.133 1.803l-6.594 3.17Z"/></g><path fill="#2AF" d="M15.747 60a.318.318 0 0 1-.221-.074.4.4 0 0 1-.115-.172l-1.67-5.241a.202.202 0 0 1-.017-.074c0-.044.016-.082.05-.115a.18.18 0 0 1 .13-.057h1.016c.087 0 .155.025.204.074.05.049.08.095.09.139l1.155 3.784 1.163-3.784a.462.462 0 0 1 .09-.14.277.277 0 0 1 .205-.073h1.016c.049 0 .09.02.123.057a.147.147 0 0 1 .057.115.2.2 0 0 1-.017.074l-1.67 5.241a.4.4 0 0 1-.115.172c-.049.05-.123.074-.221.074h-1.253Zm4.035 0a.2.2 0 0 1-.147-.057.2.2 0 0 1-.058-.148v-3.85a.2.2 0 0 1 .058-.147.2.2 0 0 1 .147-.057h.967a.19.19 0 0 1 .139.057.187.187 0 0 1 .065.148v3.85c0 .06-.021.108-.065.147a.19.19 0 0 1-.14.057h-.966Zm-.008-4.873a.2.2 0 0 1-.147-.057.2.2 0 0 1-.058-.148v-.729a.2.2 0 0 1 .058-.147.187.187 0 0 1 .147-.066h.975c.06 0 .109.022.147.066a.187.187 0 0 1 .066.147v.73c0 .06-.022.108-.066.147a.2.2 0 0 1-.147.057h-.975Zm4.043 4.955c-.354 0-.657-.038-.909-.115a2.237 2.237 0 0 1-.606-.295 1.384 1.384 0 0 1-.344-.352.741.741 0 0 1-.122-.32.165.165 0 0 1 .057-.147.196.196 0 0 1 .14-.065h.933a.09.09 0 0 1 .04.008.257.257 0 0 1 .05.033c.07.038.142.087.213.147.07.055.153.104.246.148a.785.785 0 0 0 .335.065c.153 0 .281-.03.385-.09a.293.293 0 0 0 .156-.27.306.306 0 0 0-.074-.213c-.049-.06-.15-.117-.303-.172a4.29 4.29 0 0 0-.671-.164 3.503 3.503 0 0 1-.746-.254 1.286 1.286 0 0 1-.491-.418 1.124 1.124 0 0 1-.172-.63c0-.218.07-.429.213-.63.142-.203.35-.367.622-.492.273-.131.609-.197 1.008-.197.316 0 .59.038.819.115.234.07.43.164.59.278.163.115.286.233.368.353.082.12.125.229.13.327a.188.188 0 0 1-.048.148.18.18 0 0 1-.131.057h-.852a.267.267 0 0 1-.066-.008.522.522 0 0 1-.057-.033 1.024 1.024 0 0 1-.197-.131 1.18 1.18 0 0 0-.229-.148.73.73 0 0 0-.327-.065.538.538 0 0 0-.344.098.327.327 0 0 0-.057.45c.048.06.144.115.286.164.147.05.374.104.68.164.376.06.677.159.9.295.224.131.383.287.476.467.092.175.139.36.139.557a1.1 1.1 0 0 1-.238.696c-.153.202-.382.36-.688.475-.305.11-.677.164-1.114.164Zm4.34 0a1.64 1.64 0 0 1-.836-.213 1.459 1.459 0 0 1-.565-.623c-.137-.278-.205-.617-.205-1.015v-2.285a.2.2 0 0 1 .057-.148.2.2 0 0 1 .148-.057h1.023a.2.2 0 0 1 .148.057.2.2 0 0 1 .057.148v2.236c0 .535.24.802.72.802.225 0 .402-.068.533-.204.137-.142.205-.342.205-.598v-2.236a.2.2 0 0 1 .057-.148.2.2 0 0 1 .148-.057h1.023a.2.2 0 0 1 .148.057.2.2 0 0 1 .057.148v3.85a.2.2 0 0 1-.057.147.2.2 0 0 1-.148.057h-.95a.218.218 0 0 1-.147-.057.2.2 0 0 1-.057-.148v-.311a1.37 1.37 0 0 1-.557.45 1.987 1.987 0 0 1-.803.148Zm4.96 0c-.296 0-.56-.055-.795-.164a1.464 1.464 0 0 1-.549-.459 1.086 1.086 0 0 1-.205-.647c0-.387.159-.693.475-.917.317-.23.737-.385 1.261-.467l1.024-.155v-.115c0-.197-.04-.347-.123-.45-.081-.104-.232-.156-.45-.156a.713.713 0 0 0-.377.09.643.643 0 0 0-.22.246.235.235 0 0 1-.206.106h-.917a.188.188 0 0 1-.14-.049.166.166 0 0 1-.04-.13c0-.1.035-.211.106-.337a1.47 1.47 0 0 1 .344-.385c.153-.125.35-.229.59-.31.24-.083.53-.124.868-.124.355 0 .658.041.91.123.25.082.452.197.605.344.159.148.276.322.352.524.077.197.115.415.115.656v2.49c0 .06-.022.108-.065.147a.19.19 0 0 1-.14.057h-.95a.2.2 0 0 1-.147-.057.2.2 0 0 1-.057-.148v-.286a1.198 1.198 0 0 1-.287.286c-.12.088-.262.156-.426.205a1.71 1.71 0 0 1-.557.082Zm.384-.934c.158 0 .3-.033.426-.098a.717.717 0 0 0 .303-.32c.076-.147.115-.33.115-.548v-.115l-.697.123c-.256.044-.445.112-.565.205-.114.087-.172.19-.172.311a.36.36 0 0 0 .082.237.568.568 0 0 0 .213.156c.088.033.186.05.295.05Zm3.373.852a.2.2 0 0 1-.147-.057.2.2 0 0 1-.058-.148V54.39a.2.2 0 0 1 .058-.148.2.2 0 0 1 .147-.057h.966a.2.2 0 0 1 .148.057.2.2 0 0 1 .057.148v5.405a.2.2 0 0 1-.057.148.2.2 0 0 1-.148.057h-.966Zm6.11.082c-.546 0-1-.077-1.36-.23-.36-.158-.633-.362-.819-.614a1.422 1.422 0 0 1-.294-.802c0-.044.016-.082.049-.115a.18.18 0 0 1 .13-.057h1.033c.076 0 .133.013.172.04a.425.425 0 0 1 .114.107c.044.082.104.161.18.238a.982.982 0 0 0 .312.188c.13.044.292.066.483.066.317 0 .554-.05.712-.148.164-.098.246-.232.246-.401a.374.374 0 0 0-.13-.295c-.088-.082-.23-.153-.427-.213a6.404 6.404 0 0 0-.77-.196 5.04 5.04 0 0 1-1.064-.336 1.672 1.672 0 0 1-.664-.549c-.153-.23-.229-.513-.229-.852 0-.333.093-.63.279-.892a1.89 1.89 0 0 1 .794-.615c.338-.147.74-.22 1.204-.22a3 3 0 0 1 .99.147c.29.098.533.229.73.393.196.163.344.338.442.524.104.18.158.357.164.532a.186.186 0 0 1-.05.123.167.167 0 0 1-.122.05h-1.081a.345.345 0 0 1-.156-.034.302.302 0 0 1-.114-.106c-.033-.12-.12-.224-.263-.311-.136-.093-.316-.14-.54-.14-.24 0-.429.044-.565.132-.131.081-.197.21-.197.384 0 .11.036.205.107.287a.917.917 0 0 0 .368.213c.175.06.412.123.713.188.497.093.898.21 1.204.353.305.136.53.316.671.54.142.218.213.494.213.827 0 .372-.106.694-.32.967-.207.267-.496.472-.867.614a3.562 3.562 0 0 1-1.278.213ZM48.357 60c-.349 0-.652-.055-.909-.164a1.262 1.262 0 0 1-.581-.524c-.137-.24-.205-.549-.205-.925v-1.573h-.639a.228.228 0 0 1-.155-.057.2.2 0 0 1-.058-.148v-.663a.2.2 0 0 1 .058-.148.228.228 0 0 1 .155-.057h.64V54.39a.2.2 0 0 1 .056-.148.218.218 0 0 1 .148-.057h.95a.2.2 0 0 1 .147.057.2.2 0 0 1 .058.148v1.351h1.023a.2.2 0 0 1 .148.057.2.2 0 0 1 .057.148v.663a.2.2 0 0 1-.057.148.2.2 0 0 1-.148.057h-1.023v1.458c0 .186.035.333.106.442.071.11.191.164.36.164h.631a.2.2 0 0 1 .148.057.2.2 0 0 1 .057.148v.712a.2.2 0 0 1-.057.148.2.2 0 0 1-.148.057h-.761Zm3.21.082a1.64 1.64 0 0 1-.836-.213 1.46 1.46 0 0 1-.565-.623c-.137-.278-.205-.617-.205-1.015v-2.285a.2.2 0 0 1 .057-.148.2.2 0 0 1 .148-.057h1.024a.2.2 0 0 1 .147.057.2.2 0 0 1 .057.148v2.236c0 .535.24.802.721.802.224 0 .401-.068.532-.204.137-.142.205-.342.205-.598v-2.236a.2.2 0 0 1 .058-.148.2.2 0 0 1 .147-.057h1.024a.2.2 0 0 1 .147.057.2.2 0 0 1 .057.148v3.85a.2.2 0 0 1-.057.147.2.2 0 0 1-.147.057h-.95a.218.218 0 0 1-.148-.057.2.2 0 0 1-.057-.148v-.311a1.37 1.37 0 0 1-.557.45 1.988 1.988 0 0 1-.803.148Zm5.27 0c-.262 0-.499-.041-.712-.123a1.556 1.556 0 0 1-.54-.377 1.826 1.826 0 0 1-.344-.606 2.854 2.854 0 0 1-.14-.819 5.897 5.897 0 0 1 0-.573c.011-.295.058-.56.14-.795.081-.234.196-.436.344-.605.147-.17.327-.298.54-.386.213-.092.45-.139.713-.139a1.638 1.638 0 0 1 1.204.483V54.39a.2.2 0 0 1 .057-.148.2.2 0 0 1 .147-.057h1a.19.19 0 0 1 .139.057.187.187 0 0 1 .065.148v5.405a.19.19 0 0 1-.065.148.19.19 0 0 1-.14.057h-.925a.2.2 0 0 1-.147-.057.2.2 0 0 1-.058-.148v-.262c-.13.158-.3.29-.508.393-.207.104-.464.156-.77.156Zm.443-1.098c.185 0 .33-.038.434-.114a.703.703 0 0 0 .238-.311c.054-.126.084-.262.09-.41a6.316 6.316 0 0 0 0-.614.956.956 0 0 0-.09-.377.661.661 0 0 0-.246-.287.727.727 0 0 0-.426-.114.743.743 0 0 0-.434.114.618.618 0 0 0-.221.312 1.75 1.75 0 0 0-.082.434 2.536 2.536 0 0 0 0 .508c.01.158.038.303.082.434a.618.618 0 0 0 .22.31c.11.077.255.115.435.115ZM60.62 60a.2.2 0 0 1-.147-.057.2.2 0 0 1-.057-.148v-3.85a.2.2 0 0 1 .057-.147.2.2 0 0 1 .147-.057h.967a.19.19 0 0 1 .139.057.187.187 0 0 1 .065.148v3.85c0 .06-.021.108-.065.147a.19.19 0 0 1-.14.057h-.966Zm-.008-4.873a.2.2 0 0 1-.147-.057.2.2 0 0 1-.058-.148v-.729a.2.2 0 0 1 .058-.147.187.187 0 0 1 .147-.066h.975c.06 0 .109.022.147.066a.187.187 0 0 1 .066.147v.73c0 .06-.022.108-.066.147a.2.2 0 0 1-.147.057h-.975Zm4.194 4.955c-.459 0-.847-.074-1.163-.221a1.661 1.661 0 0 1-.721-.63 2.17 2.17 0 0 1-.278-.992 7.4 7.4 0 0 1 0-.737c.021-.388.12-.718.294-.99.175-.274.418-.484.73-.632.316-.147.695-.22 1.138-.22.447 0 .827.073 1.138.22.317.148.563.358.737.631.175.273.273.603.295.991a7.4 7.4 0 0 1 0 .737 2.11 2.11 0 0 1-.287.991 1.603 1.603 0 0 1-.72.63c-.312.148-.7.222-1.163.222Zm0-1c.245 0 .423-.073.532-.22.115-.148.18-.369.197-.664a5.21 5.21 0 0 0 .008-.327 5.21 5.21 0 0 0-.008-.328c-.017-.29-.082-.508-.197-.655-.11-.153-.287-.23-.532-.23-.24 0-.418.077-.533.23-.114.147-.177.366-.188.655a5.224 5.224 0 0 0-.008.328c0 .136.002.245.008.327.01.295.074.516.188.664.115.147.292.22.533.22Z"/></g><defs><clipPath id="b"><path fill="#fff" d="M24 11h32v32H24z"/></clipPath><filter id="a" width="80" height="80" x="0" y="0" color-interpolation-filters="sRGB" filterUnits="userSpaceOnUse"><feFlood flood-opacity="0" result="BackgroundImageFix"/><feColorMatrix in="SourceAlpha" result="hardAlpha" values="0 0 0 0 0 0 0 0 0 0 0 0 0 0 0 0 0 0 127 0"/><feOffset dy="2"/><feGaussianBlur stdDeviation="4"/><feColorMatrix values="0 0 0 0 0 0 0 0 0 0 0 0 0 0 0 0 0 0 0.75 0"/><feBlend in2="BackgroundImageFix" result="effect1_dropShadow_601_5057"/><feBlend in="SourceGraphic" in2="effect1_dropShadow_601_5057" result="shape"/></filter></defs></svg>