<svg xmlns="http://www.w3.org/2000/svg" width="80" height="80" fill="rgba(0,0,255,0.2)"><g><rect width="64" height="64" x="8" y="6" fill="#0D1117" rx="5"/><path fill="url(#b)" d="m53.884 17.146-13.142 23.5a.714.714 0 0 1-1.244.005L26.096 17.148a.714.714 0 0 1 .746-1.057l13.156 2.352c.084.015.17.015.253 0l12.881-2.349a.714.714 0 0 1 .752 1.052Z"/><path fill="url(#c)" d="m46.264 13.007-9.725 1.905a.357.357 0 0 0-.288.33l-.598 10.104a.357.357 0 0 0 .437.369l2.707-.625a.357.357 0 0 1 .43.42l-.804 3.939a.357.357 0 0 0 .454.413l1.672-.508a.357.357 0 0 1 .454.414l-1.279 6.187c-.08.387.435.598.65.267l.143-.222 7.925-15.815a.357.357 0 0 0-.387-.51l-2.787.537a.357.357 0 0 1-.41-.45l1.818-6.306a.357.357 0 0 0-.412-.45Z"/><path fill="#E5E5E5" d="M32.265 61a.398.398 0 0 1-.277-.092.499.499 0 0 1-.143-.215l-2.089-6.554a.25.25 0 0 1-.02-.092c0-.055.02-.102.061-.143a.225.225 0 0 1 .164-.072h1.27c.109 0 .194.03.256.092.061.062.099.12.112.174l1.444 4.731 1.454-4.73a.573.573 0 0 1 .113-.175.346.346 0 0 1 .256-.092h1.27c.061 0 .112.024.153.072.048.04.072.088.072.143a.25.25 0 0 1-.02.092l-2.09 6.554a.498.498 0 0 1-.143.215c-.061.061-.154.092-.276.092h-1.567Zm5.045 0a.25.25 0 0 1-.184-.072.25.25 0 0 1-.072-.184v-4.813a.25.25 0 0 1 .072-.184.25.25 0 0 1 .184-.072h1.209c.068 0 .126.024.174.072.054.048.082.11.082.184v4.813a.234.234 0 0 1-.082.184.237.237 0 0 1-.174.072H37.31Zm-.01-6.093a.25.25 0 0 1-.184-.071.25.25 0 0 1-.072-.185v-.911a.25.25 0 0 1 .072-.184.234.234 0 0 1 .184-.082h1.219c.075 0 .136.027.184.082a.234.234 0 0 1 .082.184v.911a.234.234 0 0 1-.082.184.25.25 0 0 1-.184.072h-1.22ZM42.698 61c-.437 0-.816-.068-1.137-.205a1.578 1.578 0 0 1-.727-.655c-.17-.3-.256-.686-.256-1.157v-1.966h-.798a.286.286 0 0 1-.195-.072.25.25 0 0 1-.072-.184v-.83a.25.25 0 0 1 .072-.184.286.286 0 0 1 .195-.072h.798v-1.69a.25.25 0 0 1 .072-.184.273.273 0 0 1 .184-.071h1.188a.25.25 0 0 1 .184.071.25.25 0 0 1 .072.185v1.69h1.28a.25.25 0 0 1 .184.07.25.25 0 0 1 .072.185v.83a.25.25 0 0 1-.072.184.25.25 0 0 1-.184.072h-1.28v1.822c0 .233.044.417.133.553.089.137.24.205.45.205h.79a.25.25 0 0 1 .184.072.25.25 0 0 1 .071.184v.891a.25.25 0 0 1-.071.184.25.25 0 0 1-.185.072h-.952Zm4.514.102c-.806 0-1.448-.218-1.925-.655-.478-.437-.727-1.085-.748-1.946v-.358c.02-.54.14-1 .358-1.382.226-.39.533-.683.922-.881.396-.205.857-.307 1.383-.307.6 0 1.095.12 1.484.358.396.24.693.563.891.973.198.41.297.877.297 1.403v.246a.234.234 0 0 1-.082.184.237.237 0 0 1-.174.072h-3.277v.071c.007.198.041.38.103.543a.772.772 0 0 0 .758.532.82.82 0 0 0 .337-.06c.096-.049.175-.1.236-.155a2.12 2.12 0 0 0 .143-.153.482.482 0 0 1 .144-.123c.04-.02.102-.03.184-.03h1.27c.068 0 .123.02.164.06.047.035.068.086.061.154-.007.116-.065.256-.174.42a2.16 2.16 0 0 1-.481.492 2.591 2.591 0 0 1-.779.389 3.549 3.549 0 0 1-1.095.153Zm-.87-3.307h1.73v-.02c0-.22-.034-.41-.103-.574a.752.752 0 0 0-.296-.379.814.814 0 0 0-.471-.133.813.813 0 0 0-.471.133.86.86 0 0 0-.287.379 1.482 1.482 0 0 0-.103.573v.02Z"/></g><defs><linearGradient id="b" x1="25.768" x2="42.123" y1="15.251" y2="37.463" gradientUnits="userSpaceOnUse"><stop stop-color="#41D1FF"/><stop offset="1" stop-color="#BD34FE"/></linearGradient><linearGradient id="c" x1="39.242" x2="42.2" y1="13.524" y2="33.82" gradientUnits="userSpaceOnUse"><stop stop-color="#FFEA83"/><stop offset=".083" stop-color="#FFDD35"/><stop offset="1" stop-color="#FFA800"/></linearGradient><filter id="a" width="80" height="80" x="0" y="0" color-interpolation-filters="sRGB" filterUnits="userSpaceOnUse"><feFlood flood-opacity="0" result="BackgroundImageFix"/><feColorMatrix in="SourceAlpha" result="hardAlpha" values="0 0 0 0 0 0 0 0 0 0 0 0 0 0 0 0 0 0 127 0"/><feOffset dy="2"/><feGaussianBlur stdDeviation="4"/><feColorMatrix values="0 0 0 0 0 0 0 0 0 0 0 0 0 0 0 0 0 0 0.75 0"/><feBlend in2="BackgroundImageFix" result="effect1_dropShadow_602_998"/><feBlend in="SourceGraphic" in2="effect1_dropShadow_602_998" result="shape"/></filter></defs></svg>