<svg xmlns="http://www.w3.org/2000/svg" width="80" height="80" fill="rgba(0,0,255,0.2)"><g><rect width="64" height="64" x="8" y="6" fill="#0D1117" rx="5"/><path fill="#0065A9" d="m53.01 16.03-5.766-2.776a1.742 1.742 0 0 0-1.989.338L26.38 30.8a1.166 1.166 0 0 0-.003 1.724l1.541 1.4a1.165 1.165 0 0 0 1.489.066l22.735-17.24a1.158 1.158 0 0 1 1.858.922v-.067a1.747 1.747 0 0 0-.99-1.575Z"/><path fill="#007ACC" d="m53.01 37.97-5.766 2.777a1.745 1.745 0 0 1-1.989-.338L26.38 23.199a1.166 1.166 0 0 1-.003-1.723l1.541-1.4a1.165 1.165 0 0 1 1.492-.066l22.732 17.24A1.158 1.158 0 0 0 54 36.328v.072a1.75 1.75 0 0 1-.99 1.57Z"/><path fill="#1F9CF0" d="M47.244 40.747a1.744 1.744 0 0 1-1.989-.338A1.024 1.024 0 0 0 47 39.684V14.316a1.025 1.025 0 0 0-1.749-.724 1.744 1.744 0 0 1 1.989-.34l5.765 2.773A1.749 1.749 0 0 1 54 17.6v18.8a1.747 1.747 0 0 1-.991 1.576l-5.765 2.77Z"/><path fill="#E5E5E5" d="M24.185 61a.398.398 0 0 1-.277-.092.499.499 0 0 1-.143-.215l-2.089-6.554a.25.25 0 0 1-.02-.092c0-.055.02-.102.061-.143a.225.225 0 0 1 .164-.072h1.27c.109 0 .194.03.256.092.061.062.099.12.112.174l1.444 4.731 1.454-4.73a.573.573 0 0 1 .113-.175.346.346 0 0 1 .256-.092h1.27c.061 0 .112.024.153.072.048.04.072.088.072.143a.25.25 0 0 1-.02.092l-2.09 6.554a.498.498 0 0 1-.143.215c-.061.061-.154.092-.276.092h-1.567Zm7.484.102c-.682 0-1.249-.095-1.7-.286-.45-.198-.791-.454-1.023-.768a1.778 1.778 0 0 1-.369-1.004c0-.054.02-.102.061-.143a.225.225 0 0 1 .164-.072h1.29a.37.37 0 0 1 .216.051.532.532 0 0 1 .143.133c.055.103.13.202.225.297.103.096.232.174.39.236.163.054.364.082.603.082.396 0 .693-.062.891-.184.205-.123.307-.29.307-.502a.468.468 0 0 0-.163-.369c-.11-.102-.287-.191-.533-.266a8.005 8.005 0 0 0-.962-.246 6.254 6.254 0 0 1-1.332-.42c-.361-.177-.638-.406-.829-.686-.191-.286-.287-.642-.287-1.065 0-.416.116-.788.348-1.116.24-.328.57-.584.994-.768.423-.184.925-.276 1.505-.276.471 0 .884.061 1.239.184.362.123.666.287.911.491.246.205.43.424.553.656.13.225.198.447.205.665 0 .055-.02.106-.061.154a.208.208 0 0 1-.154.061H32.95a.43.43 0 0 1-.194-.04.378.378 0 0 1-.144-.134c-.04-.15-.15-.28-.327-.389-.17-.116-.396-.174-.676-.174-.3 0-.536.055-.707.164-.163.102-.245.263-.245.481a.53.53 0 0 0 .133.359c.095.102.249.19.46.266.22.075.516.154.892.235.62.116 1.123.263 1.505.44.382.171.662.397.84.677.177.273.266.617.266 1.034 0 .464-.133.867-.4 1.208-.26.335-.62.59-1.085.768-.464.178-.997.266-1.598.266Zm6.442 0c-.505 0-.952-.092-1.34-.276-.39-.184-.7-.45-.933-.799-.225-.355-.348-.778-.368-1.27a6.791 6.791 0 0 1-.01-.41c0-.17.003-.31.01-.419.02-.498.143-.922.368-1.27a2.17 2.17 0 0 1 .922-.809 3.168 3.168 0 0 1 1.352-.276c.47 0 .873.068 1.208.205.334.13.607.293.819.491.212.198.369.403.471.614.11.205.167.386.174.543a.221.221 0 0 1-.072.185.273.273 0 0 1-.184.071h-1.3a.264.264 0 0 1-.174-.051.47.47 0 0 1-.113-.154c-.082-.211-.188-.361-.318-.45a.803.803 0 0 0-.48-.133c-.274 0-.486.089-.636.266-.143.178-.221.45-.235.82-.007.272-.007.515 0 .726.014.376.092.649.235.82.15.17.362.255.635.255.212 0 .38-.044.502-.133.123-.088.222-.239.297-.45a.47.47 0 0 1 .113-.154.264.264 0 0 1 .174-.051h1.3c.068 0 .13.027.184.082a.195.195 0 0 1 .072.174 1.38 1.38 0 0 1-.102.41 2.313 2.313 0 0 1-.799.962c-.205.143-.454.26-.748.348a3.55 3.55 0 0 1-1.023.133Zm6.112 0c-.573 0-1.058-.092-1.454-.276a2.076 2.076 0 0 1-.901-.789c-.205-.348-.32-.76-.348-1.239a9.346 9.346 0 0 1 0-.921c.027-.485.15-.898.368-1.24.219-.34.523-.603.912-.788.396-.184.87-.276 1.423-.276.56 0 1.034.092 1.424.276.395.185.703.447.921.789.219.341.342.754.369 1.239a9.346 9.346 0 0 1 0 .922c-.028.477-.147.89-.359 1.238a2.003 2.003 0 0 1-.9.789c-.39.184-.874.276-1.455.276Zm0-1.249c.307 0 .53-.092.666-.276.143-.185.225-.461.246-.83.006-.102.01-.239.01-.41 0-.17-.004-.307-.01-.409-.02-.362-.103-.635-.246-.82-.137-.19-.359-.286-.666-.286-.3 0-.522.096-.665.287-.144.184-.222.457-.236.819-.007.102-.01.239-.01.41 0 .17.003.307.01.41.014.368.092.644.236.829.143.184.365.276.665.276Zm5.718 1.25c-.328 0-.625-.052-.891-.154a1.947 1.947 0 0 1-.676-.471 2.287 2.287 0 0 1-.43-.758 3.59 3.59 0 0 1-.174-1.024 6.884 6.884 0 0 1 0-.717c.014-.368.072-.7.174-.993.102-.294.246-.546.43-.758a1.77 1.77 0 0 1 .676-.481c.266-.116.563-.174.89-.174a2.046 2.046 0 0 1 1.506.604v-2.191a.25.25 0 0 1 .072-.185.25.25 0 0 1 .184-.071h1.25c.068 0 .126.024.173.071.055.048.082.11.082.185v6.758a.234.234 0 0 1-.082.184.237.237 0 0 1-.174.072h-1.157a.25.25 0 0 1-.184-.072.25.25 0 0 1-.072-.184v-.328a1.93 1.93 0 0 1-.635.492c-.26.13-.58.194-.962.194Zm.553-1.373c.232 0 .413-.047.542-.143a.879.879 0 0 0 .297-.39c.069-.156.106-.327.113-.511a7.843 7.843 0 0 0 0-.768 1.196 1.196 0 0 0-.113-.471.827.827 0 0 0-.307-.359c-.136-.095-.314-.143-.532-.143-.226 0-.407.048-.543.143a.773.773 0 0 0-.276.39 2.188 2.188 0 0 0-.103.542c-.02.212-.02.423 0 .635.014.198.048.379.102.543a.773.773 0 0 0 .277.389c.136.095.317.143.543.143Zm6.378 1.372c-.806 0-1.447-.218-1.925-.655-.478-.437-.727-1.085-.748-1.946v-.358c.02-.54.14-1 .358-1.382.226-.39.533-.683.922-.881.396-.205.857-.307 1.383-.307.6 0 1.095.12 1.484.358.396.24.693.563.891.973.198.41.297.877.297 1.403v.246a.234.234 0 0 1-.082.184.237.237 0 0 1-.174.072h-3.277v.071c.007.198.041.38.103.543a.772.772 0 0 0 .758.532.82.82 0 0 0 .337-.06c.096-.049.175-.1.236-.155a2.12 2.12 0 0 0 .143-.153.482.482 0 0 1 .144-.123c.04-.02.102-.03.184-.03h1.27c.068 0 .123.02.164.06.047.035.068.086.061.154-.007.116-.065.256-.174.42a2.16 2.16 0 0 1-.481.492 2.591 2.591 0 0 1-.779.389 3.549 3.549 0 0 1-1.095.153Zm-.87-3.307h1.73v-.02c0-.22-.034-.41-.102-.574a.752.752 0 0 0-.297-.379.814.814 0 0 0-.471-.133.813.813 0 0 0-.471.133.86.86 0 0 0-.287.379 1.482 1.482 0 0 0-.103.573v.02Z"/></g><defs><filter id="a" width="80" height="80" x="0" y="0" color-interpolation-filters="sRGB" filterUnits="userSpaceOnUse"><feFlood flood-opacity="0" result="BackgroundImageFix"/><feColorMatrix in="SourceAlpha" result="hardAlpha" values="0 0 0 0 0 0 0 0 0 0 0 0 0 0 0 0 0 0 127 0"/><feOffset dy="2"/><feGaussianBlur stdDeviation="4"/><feColorMatrix values="0 0 0 0 0 0 0 0 0 0 0 0 0 0 0 0 0 0 0.75 0"/><feBlend in2="BackgroundImageFix" result="effect1_dropShadow_601_4623"/><feBlend in="SourceGraphic" in2="effect1_dropShadow_601_4623" result="shape"/></filter></defs></svg>