<svg xmlns="http://www.w3.org/2000/svg" width="80" height="80" fill="none"><g filter="url(#a)"><rect width="64" height="64" x="8" y="6" fill="none" rx="5"/><path fill="url(#b)" d="m40 13.043-12.1 6.989v13.979L40 41l12.106-6.989V20.032L40 13.043Z"/><path fill="#6F95DB" d="M40 20.133 34 23.6v6.932L40 34l6-3.466V23.6l-6-3.467Z"/><path fill="#fff" fill-opacity=".1" d="m40 13-12.131 7.037 12.13 6.605 12.132-6.562L40 13Zm0 14.548-12.131 6.433 12.13 6.993 12.089-7.037L40 27.548Z"/><path fill="#2AF" d="M18.864 61a.373.373 0 0 1-.277-.102.417.417 0 0 1-.123-.236l-1.116-6.543a.09.09 0 0 1-.01-.041v-.031c0-.055.02-.102.061-.143a.215.215 0 0 1 .154-.072h1.27c.19 0 .297.075.317.225l.666 4.004.737-2.365a.68.68 0 0 1 .102-.174c.048-.069.127-.103.236-.103h.737c.116 0 .198.034.246.103.048.061.078.12.092.174l.737 2.355.666-3.994c.02-.15.126-.225.317-.225h1.27c.062 0 .113.024.154.072.04.04.061.088.061.143v.072l-1.116 6.543a.417.417 0 0 1-.123.236.373.373 0 0 1-.276.102h-.973c-.116 0-.205-.03-.266-.092a.513.513 0 0 1-.123-.174l-1.034-2.929-1.035 2.929a.513.513 0 0 1-.122.174c-.055.061-.14.092-.256.092h-.973Zm9.508.102c-.806 0-1.448-.218-1.925-.655-.478-.437-.727-1.085-.748-1.946v-.358c.02-.54.14-1 .358-1.382.226-.39.533-.683.922-.881.396-.205.857-.307 1.383-.307.6 0 1.095.12 1.484.358.396.24.693.563.891.973.198.41.297.877.297 1.403v.246a.234.234 0 0 1-.082.184.237.237 0 0 1-.174.072h-3.277v.071c.007.198.041.38.103.543a.772.772 0 0 0 .758.532.82.82 0 0 0 .337-.06c.096-.049.174-.1.236-.155a2.12 2.12 0 0 0 .143-.153.482.482 0 0 1 .144-.123c.04-.02.102-.03.184-.03h1.27c.068 0 .123.02.164.06.047.035.068.086.061.154-.007.116-.065.256-.174.42a2.16 2.16 0 0 1-.481.492 2.591 2.591 0 0 1-.779.389 3.549 3.549 0 0 1-1.095.153Zm-.87-3.307h1.73v-.02c0-.22-.034-.41-.102-.574a.752.752 0 0 0-.297-.379.814.814 0 0 0-.471-.133.813.813 0 0 0-.471.133.86.86 0 0 0-.287.379 1.482 1.482 0 0 0-.103.573v.02Zm7.749 3.307c-.383 0-.704-.064-.963-.194a1.958 1.958 0 0 1-.625-.492v.328a.234.234 0 0 1-.082.184.237.237 0 0 1-.174.072H32.25a.25.25 0 0 1-.184-.072.25.25 0 0 1-.072-.184v-6.758a.25.25 0 0 1 .072-.185.25.25 0 0 1 .184-.071h1.25a.25.25 0 0 1 .184.071.25.25 0 0 1 .071.185v2.191a1.84 1.84 0 0 1 .615-.43 2.09 2.09 0 0 1 .88-.174c.342 0 .642.058.902.174.266.11.491.27.675.481.185.212.328.464.43.758.103.294.16.625.175.993a6.884 6.884 0 0 1 0 .717 3.34 3.34 0 0 1-.185 1.024 2.287 2.287 0 0 1-.43.758 1.848 1.848 0 0 1-.665.47c-.26.103-.56.154-.901.154Zm-.553-1.372c.232 0 .413-.047.542-.143a.773.773 0 0 0 .277-.39c.061-.163.099-.344.112-.542a4.943 4.943 0 0 0 0-.635 1.915 1.915 0 0 0-.112-.543.773.773 0 0 0-.277-.389c-.13-.095-.31-.143-.543-.143a.89.89 0 0 0-.522.143.825.825 0 0 0-.307.359c-.068.143-.106.3-.113.47a7.24 7.24 0 0 0 0 .769c.007.184.041.355.103.512.061.157.16.286.297.389.136.095.317.143.542.143Zm4.012 3.216a.25.25 0 0 1-.184-.072.25.25 0 0 1-.072-.184v-6.76a.25.25 0 0 1 .072-.184.25.25 0 0 1 .184-.072h1.157c.069 0 .127.024.174.072.055.048.082.11.082.184v.38c.157-.212.366-.387.625-.523.26-.143.58-.215.963-.215.34 0 .641.054.9.164.26.102.482.256.666.46.184.205.328.454.43.748.11.294.17.631.185 1.014a7.656 7.656 0 0 1 0 .758 3.38 3.38 0 0 1-.175.993 2.17 2.17 0 0 1-.43.747c-.184.205-.41.365-.675.482-.26.109-.56.163-.901.163a2.09 2.09 0 0 1-.881-.174 1.718 1.718 0 0 1-.615-.512v2.274a.25.25 0 0 1-.071.184.25.25 0 0 1-.185.072H38.71Zm2.447-3.216c.233 0 .414-.047.543-.143a.773.773 0 0 0 .277-.39c.061-.163.099-.344.112-.542a4.943 4.943 0 0 0 0-.635 1.915 1.915 0 0 0-.112-.543.773.773 0 0 0-.277-.389c-.13-.095-.31-.143-.543-.143-.225 0-.406.051-.542.154a.815.815 0 0 0-.297.378 1.556 1.556 0 0 0-.103.512 7.24 7.24 0 0 0 0 .768c.007.171.045.332.113.482a.91.91 0 0 0 .307.358.94.94 0 0 0 .523.133Zm5.355 1.372c-.369 0-.7-.068-.994-.204a1.832 1.832 0 0 1-.686-.574 1.359 1.359 0 0 1-.256-.809c0-.484.198-.867.594-1.147.396-.286.922-.481 1.577-.583l1.28-.195v-.143c0-.246-.051-.434-.154-.564-.102-.13-.29-.194-.563-.194a.891.891 0 0 0-.47.113.804.804 0 0 0-.277.307.294.294 0 0 1-.256.133H45.16a.236.236 0 0 1-.174-.061.207.207 0 0 1-.051-.164c0-.123.044-.263.133-.42.095-.164.239-.325.43-.482.191-.157.437-.286.737-.389.3-.102.662-.153 1.086-.153.443 0 .822.051 1.136.153.314.103.567.246.758.43.198.185.345.403.44.656.096.246.144.519.144.819v3.113a.234.234 0 0 1-.082.184.237.237 0 0 1-.174.072h-1.188a.25.25 0 0 1-.184-.072.25.25 0 0 1-.072-.184v-.358a1.47 1.47 0 0 1-.359.358 1.72 1.72 0 0 1-.532.256c-.198.068-.43.102-.696.102Zm.48-1.167c.199 0 .376-.04.533-.123a.896.896 0 0 0 .38-.4 1.48 1.48 0 0 0 .143-.685v-.144l-.87.154c-.322.055-.557.14-.707.256-.144.11-.215.239-.215.39a.45.45 0 0 0 .102.296.71.71 0 0 0 .266.195c.11.04.232.061.369.061Zm6.41 1.167c-.506 0-.953-.092-1.342-.276-.389-.184-.7-.45-.932-.799-.225-.355-.348-.778-.368-1.27a6.791 6.791 0 0 1-.01-.41c0-.17.003-.31.01-.419.02-.498.143-.922.368-1.27a2.17 2.17 0 0 1 .922-.809 3.168 3.168 0 0 1 1.352-.276c.47 0 .873.068 1.208.205.334.13.607.293.819.491.212.198.369.403.471.614.11.205.167.386.174.543a.221.221 0 0 1-.072.185.273.273 0 0 1-.184.071h-1.3a.264.264 0 0 1-.174-.051.47.47 0 0 1-.113-.154c-.082-.211-.188-.361-.318-.45a.803.803 0 0 0-.48-.133c-.274 0-.486.089-.636.266-.143.178-.221.45-.235.82-.007.272-.007.515 0 .726.014.376.092.649.235.82.15.17.362.255.635.255.212 0 .38-.044.502-.133.123-.088.222-.239.297-.45a.47.47 0 0 1 .113-.154.264.264 0 0 1 .174-.051h1.3c.068 0 .13.027.184.082a.195.195 0 0 1 .072.174 1.38 1.38 0 0 1-.102.41 2.313 2.313 0 0 1-.799.962c-.205.143-.454.26-.748.348a3.55 3.55 0 0 1-1.023.133ZM57.25 61a.25.25 0 0 1-.184-.072.25.25 0 0 1-.072-.184v-6.758a.25.25 0 0 1 .072-.185.25.25 0 0 1 .184-.071h1.188a.24.24 0 0 1 .174.071c.055.048.082.11.082.185v3.43l1.423-1.567a.744.744 0 0 1 .134-.123.35.35 0 0 1 .204-.05h1.372c.062 0 .113.023.154.07a.197.197 0 0 1 .072.154.25.25 0 0 1-.02.093.186.186 0 0 1-.062.082l-1.843 1.986 2.099 2.55c.054.055.082.11.082.164a.226.226 0 0 1-.236.225H60.67c-.102 0-.177-.017-.225-.051a2.407 2.407 0 0 1-.133-.123l-1.618-1.946v1.864a.234.234 0 0 1-.082.184.237.237 0 0 1-.174.072H57.25Z"/></g><defs><radialGradient id="b" cx="0" cy="0" r="1" gradientTransform="matrix(12.9451 0 0 14.9477 39.905 26.161)" gradientUnits="userSpaceOnUse"><stop stop-color="#93B4E7"/><stop offset=".593" stop-color="#B9D1F8"/><stop offset="1" stop-color="#9CB6E0"/></radialGradient><filter id="a" width="80" height="80" x="0" y="0" color-interpolation-filters="sRGB" filterUnits="userSpaceOnUse"><feFlood flood-opacity="0" result="BackgroundImageFix"/><feColorMatrix in="SourceAlpha" result="hardAlpha" values="0 0 0 0 0 0 0 0 0 0 0 0 0 0 0 0 0 0 127 0"/><feOffset dy="2"/><feGaussianBlur stdDeviation="4"/><feColorMatrix values="0 0 0 0 0 0 0 0 0 0 0 0 0 0 0 0 0 0 0.75 0"/><feBlend in2="BackgroundImageFix" result="effect1_dropShadow_602_1018"/><feBlend in="SourceGraphic" in2="effect1_dropShadow_602_1018" result="shape"/></filter></defs></svg>