<svg xmlns="http://www.w3.org/2000/svg" width="80" height="80" fill="rgba(0,0,255,0.2)"><g><rect width="64" height="64" x="8" y="6" fill="#0D1117" rx="5"/><g clip-path="url(#b)"><path fill="#00ADEF" fill-rule="evenodd" d="M55.059 27.94c.52 0 .941.422.941.942v13.176a.938.938 0 0 1-.941.941.938.938 0 0 1-.126-.007l-15.06-2.056a.943.943 0 0 1-.814-.933V28.882c0-.52.422-.941.941-.941h15.059Zm-18.824 0c.52 0 .941.422.941.942v10.575a.94.94 0 0 1-1.069.932l-11.294-1.567a.94.94 0 0 1-.813-.931v-9.01c0-.519.422-.94.941-.94h11.294Zm-.128-14.33a.93.93 0 0 1 .745.222.937.937 0 0 1 .324.71v10.574a.94.94 0 0 1-.941.942H24.94a.94.94 0 0 1-.94-.942v-9.008a.94.94 0 0 1 .812-.932l11.295-1.566Zm18.826-2.602a.95.95 0 0 1 .745.224.945.945 0 0 1 .322.708v13.176a.94.94 0 0 1-.941.941H40a.94.94 0 0 1-.941-.94V13.994a.94.94 0 0 1 .815-.932l15.059-2.055Z" clip-rule="evenodd"/></g><path fill="#E5E5E5" d="M19.364 61a.373.373 0 0 1-.277-.102.417.417 0 0 1-.123-.236l-1.116-6.543a.09.09 0 0 1-.01-.041v-.031c0-.055.02-.102.061-.143a.215.215 0 0 1 .154-.072h1.27c.19 0 .297.075.317.225l.666 4.004.737-2.365a.68.68 0 0 1 .102-.174c.048-.069.127-.103.236-.103h.737c.116 0 .198.034.246.103.048.061.078.12.092.174l.737 2.355.666-3.994c.02-.15.126-.225.317-.225h1.27c.062 0 .113.024.154.072.04.04.061.088.061.143v.072l-1.116 6.543a.417.417 0 0 1-.123.236.373.373 0 0 1-.276.102h-.973c-.116 0-.205-.03-.266-.092a.513.513 0 0 1-.123-.174l-1.034-2.929-1.035 2.929a.513.513 0 0 1-.122.174c-.055.061-.14.092-.256.092h-.973Zm7.496 0a.25.25 0 0 1-.184-.072.25.25 0 0 1-.072-.184v-4.813a.25.25 0 0 1 .072-.184.25.25 0 0 1 .184-.072h1.209c.068 0 .126.024.174.072.054.048.082.11.082.184v4.813a.234.234 0 0 1-.082.184.237.237 0 0 1-.174.072H26.86Zm-.01-6.093a.25.25 0 0 1-.184-.071.25.25 0 0 1-.072-.185v-.911a.25.25 0 0 1 .072-.184.234.234 0 0 1 .184-.082h1.218c.076 0 .137.027.185.082a.234.234 0 0 1 .082.184v.911a.234.234 0 0 1-.082.184.25.25 0 0 1-.184.072h-1.22ZM30.1 61a.25.25 0 0 1-.184-.072.25.25 0 0 1-.072-.184v-4.813a.25.25 0 0 1 .072-.184.25.25 0 0 1 .184-.072h1.178a.25.25 0 0 1 .184.072.25.25 0 0 1 .072.184v.39c.177-.212.41-.39.696-.533a2.242 2.242 0 0 1 1.014-.215c.396 0 .744.088 1.044.266.308.178.547.44.717.788.178.342.266.762.266 1.26v2.857a.234.234 0 0 1-.082.184.237.237 0 0 1-.174.072h-1.29a.273.273 0 0 1-.184-.072.25.25 0 0 1-.072-.184v-2.795c0-.321-.078-.567-.235-.738-.15-.177-.376-.266-.676-.266-.28 0-.505.089-.676.266-.164.17-.246.417-.246.738v2.795a.234.234 0 0 1-.082.184.237.237 0 0 1-.174.072H30.1Zm8.3.102c-.327 0-.624-.05-.89-.153a1.947 1.947 0 0 1-.676-.471 2.287 2.287 0 0 1-.43-.758c-.103-.3-.16-.642-.174-1.024a6.884 6.884 0 0 1 0-.717c.014-.368.072-.7.174-.993.102-.294.246-.546.43-.758a1.77 1.77 0 0 1 .676-.481c.266-.116.563-.174.89-.174a2.046 2.046 0 0 1 1.506.604v-2.191a.25.25 0 0 1 .072-.185.25.25 0 0 1 .184-.071h1.25c.068 0 .126.024.173.071.055.048.082.11.082.185v6.758a.234.234 0 0 1-.082.184.237.237 0 0 1-.174.072h-1.157a.25.25 0 0 1-.184-.072.25.25 0 0 1-.072-.184v-.328a1.93 1.93 0 0 1-.635.492c-.26.13-.58.194-.962.194Zm.554-1.372c.232 0 .413-.047.542-.143a.879.879 0 0 0 .297-.39c.069-.156.106-.327.113-.511a7.843 7.843 0 0 0 0-.768 1.196 1.196 0 0 0-.113-.471.827.827 0 0 0-.307-.359c-.136-.095-.314-.143-.532-.143-.226 0-.407.048-.543.143a.773.773 0 0 0-.276.39 2.188 2.188 0 0 0-.103.542c-.02.212-.02.423 0 .635.014.198.048.379.103.543a.773.773 0 0 0 .276.389c.136.095.317.143.543.143Zm6.44 1.372c-.574 0-1.059-.092-1.455-.276a2.076 2.076 0 0 1-.901-.789c-.205-.348-.32-.76-.348-1.239a9.346 9.346 0 0 1 0-.921c.027-.485.15-.898.369-1.24.218-.34.522-.603.91-.788.397-.184.871-.276 1.424-.276.56 0 1.034.092 1.424.276.395.185.703.447.921.789.219.341.342.754.369 1.239a9.346 9.346 0 0 1 0 .922c-.027.477-.147.89-.359 1.238a2.003 2.003 0 0 1-.9.789c-.39.184-.874.276-1.455.276Zm0-1.249c.306 0 .528-.092.665-.276.143-.185.225-.461.246-.83.006-.102.01-.239.01-.41 0-.17-.004-.307-.01-.409-.02-.362-.103-.635-.246-.82-.137-.19-.359-.286-.666-.286-.3 0-.522.096-.665.287-.144.184-.222.457-.236.819-.007.102-.01.239-.01.41 0 .17.003.307.01.41.014.368.092.644.236.829.143.184.365.276.665.276ZM50.448 61c-.102 0-.177-.024-.225-.072a.495.495 0 0 1-.113-.184l-1.474-4.741a.273.273 0 0 1-.021-.102c0-.062.024-.113.072-.154a.225.225 0 0 1 .163-.072h1.055c.089 0 .157.024.205.072a.313.313 0 0 1 .102.143l.86 2.929.922-2.919a.341.341 0 0 1 .092-.143.304.304 0 0 1 .226-.082h.675c.096 0 .168.028.215.082a.313.313 0 0 1 .103.144l.922 2.918.86-2.929a.341.341 0 0 1 .092-.143.315.315 0 0 1 .215-.072h1.055c.061 0 .112.024.153.072.048.04.072.092.072.154a.516.516 0 0 1-.01.102l-1.475 4.741a.366.366 0 0 1-.113.184c-.047.048-.122.072-.225.072h-.921a.33.33 0 0 1-.226-.072.367.367 0 0 1-.112-.184l-.942-2.806-.943 2.806a.366.366 0 0 1-.112.184.33.33 0 0 1-.225.072h-.922Zm9.147.102c-.444 0-.823-.047-1.137-.143a2.799 2.799 0 0 1-.758-.369 1.732 1.732 0 0 1-.43-.44c-.096-.157-.147-.29-.154-.4a.207.207 0 0 1 .072-.184.245.245 0 0 1 .174-.082h1.168a.12.12 0 0 1 .05.01.522.522 0 0 1 .062.042c.089.047.178.109.266.184.09.068.192.13.308.184a.98.98 0 0 0 .42.082.947.947 0 0 0 .48-.112.366.366 0 0 0 .195-.338c0-.11-.03-.198-.092-.267-.061-.075-.188-.146-.379-.215a5.363 5.363 0 0 0-.84-.204 4.374 4.374 0 0 1-.931-.318 1.607 1.607 0 0 1-.615-.522 1.405 1.405 0 0 1-.215-.789c0-.273.09-.535.267-.788.177-.253.437-.457.778-.614.341-.164.761-.246 1.26-.246.395 0 .737.048 1.023.143.294.089.54.205.738.348.204.144.358.29.46.44.103.15.157.287.164.41a.235.235 0 0 1-.061.185.226.226 0 0 1-.164.071H60.64a.338.338 0 0 1-.082-.01.672.672 0 0 1-.072-.041 1.281 1.281 0 0 1-.245-.164 1.476 1.476 0 0 0-.287-.184.912.912 0 0 0-.41-.082c-.184 0-.327.04-.43.123a.408.408 0 0 0-.072.563c.062.075.181.143.359.205.184.061.468.13.85.205.47.075.846.198 1.126.368.28.164.478.359.594.584.116.218.174.45.174.696 0 .328-.099.618-.297.87-.19.253-.477.451-.86.595-.382.136-.846.204-1.392.204Z"/></g><defs><clipPath id="b"><path fill="#fff" d="M24 11h32v32H24z"/></clipPath><filter id="a" width="80" height="80" x="0" y="0" color-interpolation-filters="sRGB" filterUnits="userSpaceOnUse"><feFlood flood-opacity="0" result="BackgroundImageFix"/><feColorMatrix in="SourceAlpha" result="hardAlpha" values="0 0 0 0 0 0 0 0 0 0 0 0 0 0 0 0 0 0 127 0"/><feOffset dy="2"/><feGaussianBlur stdDeviation="4"/><feColorMatrix values="0 0 0 0 0 0 0 0 0 0 0 0 0 0 0 0 0 0 0.75 0"/><feBlend in2="BackgroundImageFix" result="effect1_dropShadow_602_1938"/><feBlend in="SourceGraphic" in2="effect1_dropShadow_602_1938" result="shape"/></filter></defs></svg>