<svg xmlns="http://www.w3.org/2000/svg" width="80" height="80" fill="none"><g filter="url(#a)"><rect width="64" height="64" x="8" y="6" fill="#212529" rx="5"/><g clip-path="url(#b)"><path fill="#CCC" d="M24 17.667h10.667V13h-9.334C24.6 13 24 13.6 24 14.333v3.334Z"/><path fill="#999" d="M45.333 13H34.667v4.667h10.666V13Z"/><path fill="#666" d="M56 17.667H45.333V13h9.334C55.4 13 56 13.6 56 14.333v3.334Z"/><path fill="url(#c)" d="M54.667 37H25.333C24.6 37 24 36.4 24 35.667V17h32v18.667C56 36.4 55.4 37 54.667 37Z"/><g filter="url(#d)"><path fill="url(#e)" d="m34.133 25.2-5.866 5.867c-.334.333-.334.8 0 1.066l1.2 1.2c.333.334.8.334 1.066 0l5.867-5.866c.333-.334.333-.8 0-1.067l-1.2-1.2c-.267-.267-.8-.267-1.067 0Z"/><mask id="g" width="9" height="9" x="28" y="25" maskUnits="userSpaceOnUse" style="mask-type:alpha"><path fill="url(#f)" d="m34.133 25.2-5.866 5.867c-.334.333-.334.8 0 1.066l1.2 1.2c.333.334.8.334 1.066 0l5.867-5.866c.333-.334.333-.8 0-1.067l-1.2-1.2c-.267-.267-.8-.267-1.067 0Z"/></mask><g mask="url(#g)"><g filter="url(#h)"><path fill="url(#i)" d="M30.533 20.533 36.4 26.4c.333.333.333.8 0 1.067l-1.2 1.2c-.333.333-.8.333-1.067 0L28.267 22.8c-.334-.333-.334-.8 0-1.067l1.2-1.2c.266-.266.8-.266 1.066 0Z"/></g><path fill="url(#j)" d="M30.533 20.533 36.4 26.4c.333.333.333.8 0 1.067l-1.2 1.2c-.333.333-.8.333-1.067 0L28.267 22.8c-.334-.333-.334-.8 0-1.067l1.2-1.2c.266-.266.8-.266 1.066 0Z"/></g></g><g filter="url(#k)"><path fill="url(#l)" d="M50.667 30.333H40c-.4 0-.667.267-.667.667v2c0 .4.267.667.667.667h10.667c.4 0 .666-.267.666-.667v-2c0-.4-.266-.667-.666-.667Z"/></g></g><path fill="#E5E5E5" d="M22.64 55a.299.299 0 0 1-.222-.082.333.333 0 0 1-.098-.188l-.893-5.234a.072.072 0 0 1-.008-.032v-.025c0-.044.016-.082.049-.115a.172.172 0 0 1 .123-.057h1.015c.153 0 .238.06.254.18l.533 3.203.59-1.892a.542.542 0 0 1 .081-.14c.038-.054.101-.082.189-.082h.59c.092 0 .158.028.196.082.038.05.063.096.074.14l.59 1.883.532-3.194c.016-.12.1-.18.253-.18h1.016c.05 0 .09.02.123.057a.157.157 0 0 1 .049.115v.057l-.893 5.234a.333.333 0 0 1-.098.188.299.299 0 0 1-.221.082h-.778c-.093 0-.164-.025-.213-.074a.412.412 0 0 1-.098-.139l-.828-2.342-.827 2.342a.412.412 0 0 1-.098.14c-.044.048-.112.073-.205.073h-.778Zm5.995 0a.2.2 0 0 1-.148-.057.2.2 0 0 1-.057-.148v-3.85a.2.2 0 0 1 .058-.147.2.2 0 0 1 .147-.057h.966a.19.19 0 0 1 .14.057.187.187 0 0 1 .065.148v3.85c0 .06-.022.108-.065.147a.19.19 0 0 1-.14.057h-.966Zm-.008-4.873a.2.2 0 0 1-.148-.057.2.2 0 0 1-.057-.148v-.729a.2.2 0 0 1 .057-.147.187.187 0 0 1 .148-.066h.974c.06 0 .11.022.148.066a.187.187 0 0 1 .065.147v.73c0 .06-.022.108-.065.147a.2.2 0 0 1-.148.057h-.974Zm2.6 4.873a.2.2 0 0 1-.148-.057.2.2 0 0 1-.058-.148v-3.85a.2.2 0 0 1 .058-.147.2.2 0 0 1 .147-.057h.942a.2.2 0 0 1 .148.057.2.2 0 0 1 .057.148v.311c.142-.17.328-.311.557-.426.23-.114.5-.172.81-.172.317 0 .596.071.836.213.246.142.437.352.573.63.142.274.213.61.213 1.008v2.285a.19.19 0 0 1-.065.148.19.19 0 0 1-.14.057h-1.031a.218.218 0 0 1-.148-.057.2.2 0 0 1-.057-.148V52.56c0-.256-.063-.453-.189-.59-.12-.141-.3-.212-.54-.212a.715.715 0 0 0-.54.213c-.132.136-.197.333-.197.59v2.235c0 .06-.022.11-.066.148a.19.19 0 0 1-.139.057h-1.024Zm6.638.082c-.262 0-.5-.041-.712-.123a1.557 1.557 0 0 1-.541-.377 1.828 1.828 0 0 1-.344-.606 2.85 2.85 0 0 1-.14-.819 5.91 5.91 0 0 1 0-.573c.012-.295.058-.56.14-.795.082-.234.197-.436.344-.605.147-.17.328-.298.54-.386.213-.092.451-.139.713-.139a1.637 1.637 0 0 1 1.204.483V49.39a.2.2 0 0 1 .057-.148.2.2 0 0 1 .148-.057h.999a.19.19 0 0 1 .14.057.187.187 0 0 1 .065.148v5.405c0 .06-.022.11-.066.148a.19.19 0 0 1-.139.057h-.926a.2.2 0 0 1-.147-.057.2.2 0 0 1-.057-.148v-.262c-.131.158-.3.29-.508.393-.207.104-.464.156-.77.156Zm.442-1.098c.186 0 .33-.038.434-.114a.702.702 0 0 0 .238-.311 1.12 1.12 0 0 0 .09-.41 6.2 6.2 0 0 0 0-.614.954.954 0 0 0-.09-.377.661.661 0 0 0-.246-.287.727.727 0 0 0-.426-.114.743.743 0 0 0-.434.114.617.617 0 0 0-.22.312 1.75 1.75 0 0 0-.083.434 2.694 2.694 0 0 0 0 .508c.011.158.038.303.082.434a.617.617 0 0 0 .221.31.74.74 0 0 0 .434.115Zm5.15 1.098c-.458 0-.846-.074-1.162-.221a1.662 1.662 0 0 1-.721-.63 2.17 2.17 0 0 1-.278-.992 7.4 7.4 0 0 1 0-.737c.021-.388.12-.718.294-.99.175-.274.418-.484.73-.632.316-.147.696-.22 1.138-.22.447 0 .827.073 1.138.22.317.148.563.358.737.631.175.273.273.603.295.991a7.202 7.202 0 0 1 0 .737 2.11 2.11 0 0 1-.287.991 1.602 1.602 0 0 1-.72.63c-.312.148-.7.222-1.163.222Zm0-1c.246 0 .424-.073.533-.22.115-.148.18-.369.197-.664.005-.082.008-.19.008-.327s-.003-.246-.008-.328c-.017-.29-.082-.508-.197-.655-.11-.153-.287-.23-.532-.23-.24 0-.418.077-.533.23-.114.147-.177.366-.188.655a5.135 5.135 0 0 0-.008.328c0 .136.002.245.008.327.01.295.074.516.188.664.115.147.293.22.533.22Zm4.044.918c-.082 0-.142-.02-.18-.057a.395.395 0 0 1-.09-.148l-1.18-3.792a.22.22 0 0 1-.016-.082c0-.049.02-.09.058-.123a.18.18 0 0 1 .13-.057h.844c.071 0 .126.02.164.057a.255.255 0 0 1 .082.115l.688 2.343.737-2.335a.272.272 0 0 1 .074-.114.244.244 0 0 1 .18-.066h.54c.077 0 .134.022.172.066a.25.25 0 0 1 .082.114l.737 2.334.688-2.342a.272.272 0 0 1 .074-.114.252.252 0 0 1 .172-.058h.844c.049 0 .09.02.122.057a.155.155 0 0 1 .058.123.421.421 0 0 1-.008.082l-1.18 3.792a.293.293 0 0 1-.09.148c-.038.038-.098.057-.18.057h-.737a.264.264 0 0 1-.18-.057.293.293 0 0 1-.09-.148l-.754-2.244-.753 2.244a.293.293 0 0 1-.09.148.264.264 0 0 1-.18.057H47.5Zm7.316.082a3.14 3.14 0 0 1-.91-.115 2.239 2.239 0 0 1-.605-.295 1.385 1.385 0 0 1-.344-.352.74.74 0 0 1-.123-.32.166.166 0 0 1 .057-.147.196.196 0 0 1 .14-.065h.933a.09.09 0 0 1 .041.008.36.36 0 0 1 .05.033c.07.038.141.087.212.147.071.055.153.104.246.148a.785.785 0 0 0 .336.065c.152 0 .28-.03.384-.09a.293.293 0 0 0 .156-.27.306.306 0 0 0-.074-.213c-.049-.06-.15-.117-.303-.172a4.293 4.293 0 0 0-.671-.164 3.5 3.5 0 0 1-.745-.254 1.284 1.284 0 0 1-.492-.418 1.123 1.123 0 0 1-.172-.63c0-.218.071-.429.213-.63.142-.203.35-.367.623-.492.273-.131.608-.197 1.007-.197.316 0 .59.038.819.115.235.07.431.164.59.278.163.115.286.233.368.353.082.12.126.229.131.327a.188.188 0 0 1-.049.148.18.18 0 0 1-.131.057h-.852a.267.267 0 0 1-.065-.008.533.533 0 0 1-.058-.033 1.027 1.027 0 0 1-.196-.131 1.18 1.18 0 0 0-.23-.148.729.729 0 0 0-.327-.065.537.537 0 0 0-.344.098.327.327 0 0 0-.057.45c.049.06.144.115.286.164.148.05.374.104.68.164.377.06.677.159.9.295.225.131.383.287.476.467.093.175.14.36.14.557a1.1 1.1 0 0 1-.238.696c-.153.202-.383.36-.688.475-.306.11-.677.164-1.114.164ZM25.202 65a2.31 2.31 0 0 1-.91-.164 1.262 1.262 0 0 1-.58-.524c-.137-.24-.205-.549-.205-.925v-1.573h-.64a.228.228 0 0 1-.155-.057.2.2 0 0 1-.057-.148v-.663a.2.2 0 0 1 .057-.148.228.228 0 0 1 .156-.057h.639V59.39a.2.2 0 0 1 .057-.148.218.218 0 0 1 .147-.057h.95a.2.2 0 0 1 .148.057.2.2 0 0 1 .057.148v1.351h1.024a.2.2 0 0 1 .147.057.2.2 0 0 1 .058.148v.663a.2.2 0 0 1-.058.148.2.2 0 0 1-.147.057h-1.024v1.458a.8.8 0 0 0 .107.442c.07.11.19.164.36.164h.63a.2.2 0 0 1 .148.057.2.2 0 0 1 .057.148v.712a.2.2 0 0 1-.057.148.2.2 0 0 1-.147.057h-.762Zm3.61.082c-.644 0-1.157-.175-1.54-.524-.382-.35-.581-.868-.597-1.556v-.287c.016-.431.111-.8.286-1.106a1.76 1.76 0 0 1 .737-.704 2.374 2.374 0 0 1 1.106-.246c.48 0 .876.096 1.188.287.316.191.554.45.712.778.158.328.238.702.238 1.122v.197c0 .06-.022.109-.066.147a.19.19 0 0 1-.14.057h-2.62v.058c.006.158.033.303.082.434a.618.618 0 0 0 .606.426c.11 0 .2-.017.27-.05a.861.861 0 0 0 .189-.122c.049-.05.087-.09.114-.123a.384.384 0 0 1 .115-.098.342.342 0 0 1 .147-.025h1.016a.17.17 0 0 1 .13.05c.04.026.055.067.05.122-.005.093-.052.205-.14.336a1.72 1.72 0 0 1-.384.393c-.164.125-.371.23-.622.311a2.827 2.827 0 0 1-.877.123Zm-.696-2.645H29.5v-.017c0-.175-.027-.327-.082-.459a.602.602 0 0 0-.237-.303.65.65 0 0 0-.377-.106.651.651 0 0 0-.377.106.69.69 0 0 0-.23.303 1.186 1.186 0 0 0-.081.46v.016ZM31.914 65a.2.2 0 0 1-.147-.057.2.2 0 0 1-.058-.148v-3.85a.19.19 0 0 1 .058-.138.187.187 0 0 1 .147-.066h.942c.06 0 .11.022.147.066a.19.19 0 0 1 .058.139v.328c.147-.17.322-.3.524-.394a1.7 1.7 0 0 1 .696-.139h.36a.19.19 0 0 1 .14.057.187.187 0 0 1 .065.148v.843a.203.203 0 0 1-.065.148.19.19 0 0 1-.14.057h-.794c-.224 0-.399.063-.524.189-.12.12-.18.292-.18.516v2.096c0 .06-.022.11-.066.148a.2.2 0 0 1-.147.057h-1.016Zm3.72 0a.2.2 0 0 1-.148-.057.2.2 0 0 1-.058-.148v-3.85a.2.2 0 0 1 .058-.147.2.2 0 0 1 .147-.057h.893a.2.2 0 0 1 .147.057.2.2 0 0 1 .058.148v.278a1.41 1.41 0 0 1 .458-.384 1.41 1.41 0 0 1 .696-.18c.628-.012 1.06.226 1.294.712.126-.208.306-.377.541-.508a1.51 1.51 0 0 1 .77-.205c.284 0 .538.066.761.197.23.125.413.322.55.59.136.262.204.603.204 1.023v2.326c0 .06-.022.11-.066.148A.19.19 0 0 1 41.8 65h-.95a.229.229 0 0 1-.155-.057.2.2 0 0 1-.058-.148v-2.268a1.01 1.01 0 0 0-.082-.45.516.516 0 0 0-.22-.246.672.672 0 0 0-.615 0 .559.559 0 0 0-.23.245c-.054.11-.081.26-.081.45v2.27a.2.2 0 0 1-.057.147.2.2 0 0 1-.148.057h-.95a.2.2 0 0 1-.147-.057.2.2 0 0 1-.058-.148v-2.268a.942.942 0 0 0-.09-.45.56.56 0 0 0-.23-.246.654.654 0 0 0-.605 0 .559.559 0 0 0-.23.245.998.998 0 0 0-.081.442v2.277c0 .06-.022.11-.066.148A.2.2 0 0 1 36.6 65h-.967Zm7.493 0a.2.2 0 0 1-.147-.057.2.2 0 0 1-.057-.148v-3.85a.2.2 0 0 1 .057-.147.2.2 0 0 1 .147-.057h.967a.19.19 0 0 1 .139.057.187.187 0 0 1 .066.148v3.85c0 .06-.022.108-.066.147a.19.19 0 0 1-.14.057h-.966Zm-.008-4.873a.2.2 0 0 1-.147-.057.2.2 0 0 1-.058-.148v-.729a.2.2 0 0 1 .058-.147.187.187 0 0 1 .147-.066h.975c.06 0 .109.022.147.066a.187.187 0 0 1 .066.147v.73c0 .06-.022.108-.066.147a.2.2 0 0 1-.147.057h-.975ZM45.72 65a.2.2 0 0 1-.148-.057.2.2 0 0 1-.057-.148v-3.85a.2.2 0 0 1 .057-.147.2.2 0 0 1 .148-.057h.942a.2.2 0 0 1 .147.057.2.2 0 0 1 .057.148v.311c.142-.17.328-.311.557-.426.23-.114.5-.172.811-.172.317 0 .595.071.835.213.246.142.437.352.574.63.142.274.213.61.213 1.008v2.285c0 .06-.022.11-.066.148a.19.19 0 0 1-.14.057h-1.031a.218.218 0 0 1-.147-.057.2.2 0 0 1-.058-.148V62.56c0-.256-.063-.453-.188-.59-.12-.141-.3-.212-.54-.212a.715.715 0 0 0-.541.213c-.131.136-.197.333-.197.59v2.235a.19.19 0 0 1-.065.148.19.19 0 0 1-.14.057H45.72Zm6.327.082c-.294 0-.56-.055-.794-.164a1.464 1.464 0 0 1-.549-.459 1.086 1.086 0 0 1-.205-.647c0-.387.159-.693.475-.917.317-.23.738-.385 1.262-.467l1.023-.155v-.115c0-.197-.04-.347-.122-.45-.082-.104-.232-.156-.45-.156a.713.713 0 0 0-.378.09.643.643 0 0 0-.22.246.235.235 0 0 1-.206.106h-.917c-.06 0-.106-.016-.139-.049a.166.166 0 0 1-.04-.13c0-.1.035-.211.105-.337a1.47 1.47 0 0 1 .345-.385 1.85 1.85 0 0 1 .59-.31c.24-.083.529-.124.867-.124.355 0 .658.041.91.123.25.082.453.197.605.344.159.148.276.322.353.524.076.197.114.415.114.656v2.49c0 .06-.021.108-.065.147a.19.19 0 0 1-.14.057h-.95a.2.2 0 0 1-.147-.057.2.2 0 0 1-.057-.148v-.286a1.19 1.19 0 0 1-.287.286c-.12.088-.262.156-.426.205a1.71 1.71 0 0 1-.557.082Zm.385-.934a.9.9 0 0 0 .426-.098.717.717 0 0 0 .303-.32c.077-.147.115-.33.115-.548v-.115l-.696.123c-.257.044-.445.112-.565.205-.115.087-.172.19-.172.311 0 .093.027.172.081.237a.568.568 0 0 0 .213.156c.088.033.186.05.295.05Zm3.373.852a.2.2 0 0 1-.147-.057.2.2 0 0 1-.057-.148V59.39a.2.2 0 0 1 .057-.148.2.2 0 0 1 .147-.057h.967a.2.2 0 0 1 .147.057.2.2 0 0 1 .057.148v5.405a.2.2 0 0 1-.057.148.2.2 0 0 1-.147.057h-.967Z"/></g><defs><linearGradient id="c" x1="48.297" x2="31.881" y1="40.884" y2="12.45" gradientUnits="userSpaceOnUse"><stop stop-color="#333"/><stop offset="1" stop-color="#4D4D4D"/></linearGradient><linearGradient id="e" x1="33.685" x2="30.989" y1="31.664" y2="26.995" gradientUnits="userSpaceOnUse"><stop stop-color="#999"/><stop offset="1" stop-color="#B3B3B3"/></linearGradient><linearGradient id="f" x1="33.685" x2="30.989" y1="31.664" y2="26.995" gradientUnits="userSpaceOnUse"><stop stop-color="#999"/><stop offset="1" stop-color="#B3B3B3"/></linearGradient><linearGradient id="i" x1="34.85" x2="29.825" y1="29.022" y2="20.319" gradientUnits="userSpaceOnUse"><stop stop-color="#CCC"/><stop offset="1" stop-color="#E6E6E6"/></linearGradient><linearGradient id="j" x1="34.85" x2="29.825" y1="29.022" y2="20.319" gradientUnits="userSpaceOnUse"><stop stop-color="#CCC"/><stop offset="1" stop-color="#E6E6E6"/></linearGradient><linearGradient id="l" x1="47.433" x2="43.233" y1="35.637" y2="28.363" gradientUnits="userSpaceOnUse"><stop stop-color="#CCC"/><stop offset="1" stop-color="#E6E6E6"/></linearGradient><filter id="a" width="80" height="80" x="0" y="0" color-interpolation-filters="sRGB" filterUnits="userSpaceOnUse"><feFlood flood-opacity="0" result="BackgroundImageFix"/><feColorMatrix in="SourceAlpha" result="hardAlpha" values="0 0 0 0 0 0 0 0 0 0 0 0 0 0 0 0 0 0 127 0"/><feOffset dy="2"/><feGaussianBlur stdDeviation="4"/><feColorMatrix values="0 0 0 0 0 0 0 0 0 0 0 0 0 0 0 0 0 0 0.75 0"/><feBlend in2="BackgroundImageFix" result="effect1_dropShadow_603_533"/><feBlend in="SourceGraphic" in2="effect1_dropShadow_603_533" result="shape"/></filter><filter id="d" width="14.633" height="14.583" x="25.017" y="23" color-interpolation-filters="sRGB" filterUnits="userSpaceOnUse"><feFlood flood-opacity="0" result="BackgroundImageFix"/><feColorMatrix in="SourceAlpha" result="hardAlpha" values="0 0 0 0 0 0 0 0 0 0 0 0 0 0 0 0 0 0 127 0"/><feOffset dy=".5"/><feGaussianBlur stdDeviation=".5"/><feColorMatrix values="0 0 0 0 0 0 0 0 0 0 0 0 0 0 0 0 0 0 0.1 0"/><feBlend in2="BackgroundImageFix" result="effect1_dropShadow_603_533"/><feColorMatrix in="SourceAlpha" result="hardAlpha" values="0 0 0 0 0 0 0 0 0 0 0 0 0 0 0 0 0 0 127 0"/><feOffset dy="1"/><feGaussianBlur stdDeviation="1.5"/><feColorMatrix values="0 0 0 0 0 0 0 0 0 0 0 0 0 0 0 0 0 0 0.2 0"/><feBlend in2="effect1_dropShadow_603_533" result="effect2_dropShadow_603_533"/><feBlend in="SourceGraphic" in2="effect2_dropShadow_603_533" result="shape"/></filter><filter id="h" width="14.633" height="14.583" x="25.017" y="18.333" color-interpolation-filters="sRGB" filterUnits="userSpaceOnUse"><feFlood flood-opacity="0" result="BackgroundImageFix"/><feColorMatrix in="SourceAlpha" result="hardAlpha" values="0 0 0 0 0 0 0 0 0 0 0 0 0 0 0 0 0 0 127 0"/><feOffset dy=".5"/><feGaussianBlur stdDeviation=".5"/><feColorMatrix values="0 0 0 0 0 0 0 0 0 0 0 0 0 0 0 0 0 0 0.1 0"/><feBlend in2="BackgroundImageFix" result="effect1_dropShadow_603_533"/><feColorMatrix in="SourceAlpha" result="hardAlpha" values="0 0 0 0 0 0 0 0 0 0 0 0 0 0 0 0 0 0 127 0"/><feOffset dy="1"/><feGaussianBlur stdDeviation="1.5"/><feColorMatrix values="0 0 0 0 0 0 0 0 0 0 0 0 0 0 0 0 0 0 0.2 0"/><feBlend in2="effect1_dropShadow_603_533" result="effect2_dropShadow_603_533"/><feBlend in="SourceGraphic" in2="effect2_dropShadow_603_533" result="shape"/></filter><filter id="k" width="18" height="9.333" x="36.333" y="28.333" color-interpolation-filters="sRGB" filterUnits="userSpaceOnUse"><feFlood flood-opacity="0" result="BackgroundImageFix"/><feColorMatrix in="SourceAlpha" result="hardAlpha" values="0 0 0 0 0 0 0 0 0 0 0 0 0 0 0 0 0 0 127 0"/><feOffset dy=".5"/><feGaussianBlur stdDeviation=".5"/><feColorMatrix values="0 0 0 0 0 0 0 0 0 0 0 0 0 0 0 0 0 0 0.1 0"/><feBlend in2="BackgroundImageFix" result="effect1_dropShadow_603_533"/><feColorMatrix in="SourceAlpha" result="hardAlpha" values="0 0 0 0 0 0 0 0 0 0 0 0 0 0 0 0 0 0 127 0"/><feOffset dy="1"/><feGaussianBlur stdDeviation="1.5"/><feColorMatrix values="0 0 0 0 0 0 0 0 0 0 0 0 0 0 0 0 0 0 0.2 0"/><feBlend in2="effect1_dropShadow_603_533" result="effect2_dropShadow_603_533"/><feBlend in="SourceGraphic" in2="effect2_dropShadow_603_533" result="shape"/></filter><clipPath id="b"><path fill="#fff" d="M24 13h32v24H24z"/></clipPath></defs></svg>