<svg xmlns="http://www.w3.org/2000/svg" width="80" height="80" fill="rgba(0,0,255,0.2)"><g><rect width="64" height="64" x="8" y="6" fill="#0D1117" rx="5"/><path fill="#2188B6" d="M52.208 35.409a10.494 10.494 0 0 0-3.96 1.822 23.743 23.743 0 0 1-5.834 2.642c-.252.294-.6.489-.983.55a62.25 62.25 0 0 1-6.447.577c-1.163.009-1.876-.3-2.074-.776a1.574 1.574 0 0 1 .866-2.074 3.756 3.756 0 0 1-.514-.38c-.171-.17-.352-.513-.406-.387-.225.55-.343 1.894-.947 2.5-.83.839-2.4.559-3.328.072-1.02-.541.072-1.813.072-1.813a.728.728 0 0 1-.992-.343 4.847 4.847 0 0 1-.667-2.95 5.374 5.374 0 0 1 1.749-2.894 9.334 9.334 0 0 1 .658-4.4 10.446 10.446 0 0 1 3.165-3.661s-1.938-2.147-1.216-4.077c.469-1.262.658-1.253.812-1.308a3.632 3.632 0 0 0 1.452-.857 5.266 5.266 0 0 1 4.41-1.7S39.2 12.4 40.277 13.09c.596.914 1.109 1.88 1.533 2.886 0 0 1.28-.748 1.425-.47a11.34 11.34 0 0 1 .523 6.133 14.01 14.01 0 0 1-2.6 5.41c-.135.226 1.55.939 2.615 3.888.983 2.7.108 4.96.262 5.212.027.045.036.063.036.063s1.127.09 3.39-1.308A8.5 8.5 0 0 1 51.74 33.3a1.08 1.08 0 0 1 .469 2.109Z"/><path fill="#2AF" d="M30.816 61a.272.272 0 0 1-.184-.072.25.25 0 0 1-.072-.184v-2.202l-2.376-4.382a.38.38 0 0 0-.02-.051.194.194 0 0 1 .051-.205.226.226 0 0 1 .164-.072h1.28c.102 0 .18.027.235.082a.315.315 0 0 1 .113.133l1.475 2.642 1.474-2.642a.466.466 0 0 1 .113-.133.356.356 0 0 1 .246-.082h1.28c.061 0 .112.024.153.072a.196.196 0 0 1 .051.204.17.17 0 0 1-.01.052l-2.386 4.382v2.202a.25.25 0 0 1-.072.184.25.25 0 0 1-.184.072h-1.331Zm5.346.102c-.369 0-.7-.068-.994-.204a1.832 1.832 0 0 1-.686-.574 1.359 1.359 0 0 1-.256-.809c0-.484.198-.867.594-1.147.396-.286.922-.481 1.577-.583l1.28-.195v-.143c0-.246-.051-.434-.154-.564-.102-.13-.29-.194-.563-.194a.891.891 0 0 0-.47.113.804.804 0 0 0-.277.307.294.294 0 0 1-.256.133H34.81a.236.236 0 0 1-.174-.061.207.207 0 0 1-.051-.164c0-.123.044-.263.133-.42.095-.164.239-.325.43-.482.191-.157.437-.286.737-.389.3-.102.662-.153 1.086-.153.443 0 .822.051 1.136.153.314.103.567.246.758.43.198.185.345.403.44.656.096.246.144.519.144.819v3.113a.234.234 0 0 1-.082.184.237.237 0 0 1-.174.072h-1.188a.25.25 0 0 1-.184-.072.25.25 0 0 1-.072-.184v-.358a1.47 1.47 0 0 1-.359.358 1.72 1.72 0 0 1-.532.256c-.198.068-.43.102-.696.102Zm.48-1.167c.199 0 .376-.04.533-.123a.896.896 0 0 0 .38-.4 1.48 1.48 0 0 0 .143-.685v-.144l-.87.154c-.322.055-.557.14-.707.256-.144.11-.215.239-.215.39a.45.45 0 0 0 .102.296.71.71 0 0 0 .266.195c.11.04.232.061.369.061ZM40.86 61a.25.25 0 0 1-.184-.072.25.25 0 0 1-.072-.184v-4.813c0-.068.024-.126.072-.174a.234.234 0 0 1 .184-.082h1.178c.075 0 .136.028.184.082a.237.237 0 0 1 .072.174v.41c.184-.212.403-.376.655-.492.26-.116.55-.174.87-.174h.451c.068 0 .126.024.174.072.055.048.082.11.082.184v1.055c0 .068-.027.13-.082.184a.237.237 0 0 1-.174.072h-.993c-.28 0-.498.078-.656.235-.15.15-.225.366-.225.646v2.621a.234.234 0 0 1-.082.184.25.25 0 0 1-.184.072h-1.27Zm4.65 0a.25.25 0 0 1-.184-.072.25.25 0 0 1-.072-.184v-4.813a.25.25 0 0 1 .072-.184.25.25 0 0 1 .184-.072h1.178a.25.25 0 0 1 .184.072.25.25 0 0 1 .072.184v.39c.177-.212.41-.39.696-.533a2.242 2.242 0 0 1 1.014-.215c.396 0 .744.088 1.044.266.307.178.547.44.717.788.178.342.266.762.266 1.26v2.857a.234.234 0 0 1-.082.184.237.237 0 0 1-.174.072h-1.29a.273.273 0 0 1-.184-.072.25.25 0 0 1-.072-.184v-2.795c0-.321-.078-.567-.235-.738-.15-.177-.376-.266-.676-.266-.28 0-.505.089-.676.266-.164.17-.246.417-.246.738v2.795a.234.234 0 0 1-.082.184.237.237 0 0 1-.174.072h-1.28Z"/></g><defs><filter id="a" width="80" height="80" x="0" y="0" color-interpolation-filters="sRGB" filterUnits="userSpaceOnUse"><feFlood flood-opacity="0" result="BackgroundImageFix"/><feColorMatrix in="SourceAlpha" result="hardAlpha" values="0 0 0 0 0 0 0 0 0 0 0 0 0 0 0 0 0 0 127 0"/><feOffset dy="2"/><feGaussianBlur stdDeviation="4"/><feColorMatrix values="0 0 0 0 0 0 0 0 0 0 0 0 0 0 0 0 0 0 0.75 0"/><feBlend in2="BackgroundImageFix" result="effect1_dropShadow_602_279"/><feBlend in="SourceGraphic" in2="effect1_dropShadow_602_279" result="shape"/></filter></defs></svg>